M48
; DRILL file KiCad 10.0.3 date 2026-07-12T23:10:47
; FORMAT={-:-/ absolute / inch / decimal}
; #@! TF.CreationDate,2026-07-12T23:10:47-07:00
; #@! TF.GenerationSoftware,Kicad,Pcbnew,10.0.3
; #@! TF.FileFunction,Plated,1,16,PTH
FMAT,2
INCH
; #@! TA.AperFunction,Plated,PTH,ViaDrill
T1C0.0118
; #@! TA.AperFunction,Plated,PTH,ComponentDrill
T2C0.1260
%
G90
G05
T1
X2.2047Y-1.4173
X2.2047Y-1.5748
X2.2047Y-1.7323
X2.2047Y-1.8898
X2.2047Y-2.0472
X2.3622Y-1.4173
X2.3622Y-1.5748
X2.3622Y-1.7323
X2.3622Y-1.8898
X2.3622Y-2.0472
X2.5197Y-1.4173
X2.5197Y-1.5748
X2.5197Y-1.7323
X2.5197Y-1.8898
X2.5197Y-2.0472
X2.6772Y-1.4173
X2.6772Y-1.5748
X2.6772Y-1.7323
X2.6772Y-1.8898
X2.6772Y-2.0472
X2.8346Y-1.4173
X2.8346Y-1.5748
X2.8346Y-1.7323
X2.8346Y-1.8898
X2.8346Y-2.0472
T2
X1.9685Y-1.1811
X1.9685Y-3.1496
X3.937Y-1.1811
X3.937Y-3.1496
X7.6772Y-1.1811
X7.6772Y-3.1496
X9.6457Y-1.1811
X9.6457Y-3.1496
M30
