%TF.GenerationSoftware,KiCad,Pcbnew,10.0.3*%
%TF.CreationDate,2026-07-12T23:10:47-07:00*%
%TF.ProjectId,LR_P3A_Rev6_3,4c525f50-3341-45f5-9265-76365f332e6b,rev?*%
%TF.SameCoordinates,Original*%
%TF.FileFunction,Copper,L13,Inr*%
%TF.FilePolarity,Positive*%
%FSLAX46Y46*%
G04 Gerber Fmt 4.6, Leading zero omitted, Abs format (unit mm)*
G04 Created by KiCad (PCBNEW 10.0.3) date 2026-07-12 23:10:47*
%MOMM*%
%LPD*%
G01*
G04 APERTURE LIST*
%TA.AperFunction,ComponentPad*%
%ADD10C,6.200000*%
%TD*%
%TA.AperFunction,ViaPad*%
%ADD11C,0.600000*%
%TD*%
%ADD12C,0.300000*%
%ADD13C,0.350000*%
G04 APERTURE END LIST*
D10*
%TO.N,*%
%TO.C,MH1A*%
X50000000Y-30000000D03*
%TD*%
%TO.N,*%
%TO.C,MH1B*%
X100000000Y-30000000D03*
%TD*%
%TO.N,*%
%TO.C,MH1C*%
X100000000Y-80000000D03*
%TD*%
%TO.N,*%
%TO.C,MH1D*%
X50000000Y-80000000D03*
%TD*%
%TO.N,*%
%TO.C,MH2A*%
X195000000Y-30000000D03*
%TD*%
%TO.N,*%
%TO.C,MH2B*%
X245000000Y-30000000D03*
%TD*%
%TO.N,*%
%TO.C,MH2C*%
X245000000Y-80000000D03*
%TD*%
%TO.N,*%
%TO.C,MH2D*%
X195000000Y-80000000D03*
%TD*%
D11*
%TO.N,GND*%
X56000000Y-36000000D03*
%TO.N,HBM4_VDDQL*%
X60000000Y-36000000D03*
X64000000Y-36000000D03*
X68000000Y-36000000D03*
X72000000Y-36000000D03*
%TO.N,GND*%
X56000000Y-40000000D03*
X60000000Y-40000000D03*
X64000000Y-40000000D03*
X68000000Y-40000000D03*
X72000000Y-40000000D03*
X56000000Y-44000000D03*
X60000000Y-44000000D03*
X64000000Y-44000000D03*
X68000000Y-44000000D03*
X72000000Y-44000000D03*
X56000000Y-48000000D03*
X60000000Y-48000000D03*
X64000000Y-48000000D03*
X68000000Y-48000000D03*
X72000000Y-48000000D03*
X56000000Y-52000000D03*
X60000000Y-52000000D03*
X64000000Y-52000000D03*
X68000000Y-52000000D03*
X72000000Y-52000000D03*
%TD*%
D12*
X56000000Y-36000000D03*
X60000000Y-36000000D03*
X64000000Y-36000000D03*
X68000000Y-36000000D03*
X72000000Y-36000000D03*
X56000000Y-40000000D03*
X60000000Y-40000000D03*
X64000000Y-40000000D03*
X68000000Y-40000000D03*
X72000000Y-40000000D03*
X56000000Y-44000000D03*
X60000000Y-44000000D03*
X64000000Y-44000000D03*
X68000000Y-44000000D03*
X72000000Y-44000000D03*
X56000000Y-48000000D03*
X60000000Y-48000000D03*
X64000000Y-48000000D03*
X68000000Y-48000000D03*
X72000000Y-48000000D03*
X56000000Y-52000000D03*
X60000000Y-52000000D03*
X64000000Y-52000000D03*
X68000000Y-52000000D03*
X72000000Y-52000000D03*
D13*
X50000000Y-30000000D03*
X100000000Y-30000000D03*
X100000000Y-80000000D03*
X50000000Y-80000000D03*
X195000000Y-30000000D03*
X245000000Y-30000000D03*
X245000000Y-80000000D03*
X195000000Y-80000000D03*
M02*
