%TF.GenerationSoftware,KiCad,Pcbnew,10.0.3*%
%TF.CreationDate,2026-07-12T23:10:46-07:00*%
%TF.ProjectId,LR_P3A_Rev6_3,4c525f50-3341-45f5-9265-76365f332e6b,rev?*%
%TF.SameCoordinates,Original*%
%TF.FileFunction,Paste,Top*%
%TF.FilePolarity,Positive*%
%FSLAX46Y46*%
G04 Gerber Fmt 4.6, Leading zero omitted, Abs format (unit mm)*
G04 Created by KiCad (PCBNEW 10.0.3) date 2026-07-12 23:10:46*
%MOMM*%
%LPD*%
G01*
G04 APERTURE LIST*
%ADD10C,0.450000*%
%ADD11R,1.000000X1.000000*%
%ADD12C,0.350000*%
G04 APERTURE END LIST*
D10*
%TO.C,U101*%
X55400000Y-35400000D03*
X56200000Y-35400000D03*
X57000000Y-35400000D03*
X57800000Y-35400000D03*
X58600000Y-35400000D03*
X59400000Y-35400000D03*
X60200000Y-35400000D03*
X61000000Y-35400000D03*
X61800000Y-35400000D03*
X62600000Y-35400000D03*
X63400000Y-35400000D03*
X64200000Y-35400000D03*
X65000000Y-35400000D03*
X65800000Y-35400000D03*
X66600000Y-35400000D03*
X67400000Y-35400000D03*
X68200000Y-35400000D03*
X69000000Y-35400000D03*
X69800000Y-35400000D03*
X70600000Y-35400000D03*
X71400000Y-35400000D03*
X72200000Y-35400000D03*
X73000000Y-35400000D03*
X73800000Y-35400000D03*
X74600000Y-35400000D03*
X75400000Y-35400000D03*
X76200000Y-35400000D03*
X77000000Y-35400000D03*
X77800000Y-35400000D03*
X78600000Y-35400000D03*
X79400000Y-35400000D03*
X80200000Y-35400000D03*
X81000000Y-35400000D03*
X81800000Y-35400000D03*
X82600000Y-35400000D03*
X83400000Y-35400000D03*
X84200000Y-35400000D03*
X85000000Y-35400000D03*
X85800000Y-35400000D03*
X86600000Y-35400000D03*
X87400000Y-35400000D03*
X88200000Y-35400000D03*
X89000000Y-35400000D03*
X89800000Y-35400000D03*
X90600000Y-35400000D03*
X91400000Y-35400000D03*
X92200000Y-35400000D03*
X93000000Y-35400000D03*
X93800000Y-35400000D03*
X94600000Y-35400000D03*
X55400000Y-36200000D03*
X56200000Y-36200000D03*
X57000000Y-36200000D03*
X57800000Y-36200000D03*
X58600000Y-36200000D03*
X59400000Y-36200000D03*
X60200000Y-36200000D03*
X61000000Y-36200000D03*
X61800000Y-36200000D03*
X62600000Y-36200000D03*
X63400000Y-36200000D03*
X64200000Y-36200000D03*
X65000000Y-36200000D03*
X65800000Y-36200000D03*
X66600000Y-36200000D03*
X67400000Y-36200000D03*
X68200000Y-36200000D03*
X69000000Y-36200000D03*
X69800000Y-36200000D03*
X70600000Y-36200000D03*
X71400000Y-36200000D03*
X72200000Y-36200000D03*
X73000000Y-36200000D03*
X73800000Y-36200000D03*
X74600000Y-36200000D03*
X75400000Y-36200000D03*
X76200000Y-36200000D03*
X77000000Y-36200000D03*
X77800000Y-36200000D03*
X78600000Y-36200000D03*
X79400000Y-36200000D03*
X80200000Y-36200000D03*
X81000000Y-36200000D03*
X81800000Y-36200000D03*
X82600000Y-36200000D03*
X83400000Y-36200000D03*
X84200000Y-36200000D03*
X85000000Y-36200000D03*
X85800000Y-36200000D03*
X86600000Y-36200000D03*
X87400000Y-36200000D03*
X88200000Y-36200000D03*
X89000000Y-36200000D03*
X89800000Y-36200000D03*
X90600000Y-36200000D03*
X91400000Y-36200000D03*
X92200000Y-36200000D03*
X93000000Y-36200000D03*
X93800000Y-36200000D03*
X94600000Y-36200000D03*
X55400000Y-37000000D03*
X56200000Y-37000000D03*
X57000000Y-37000000D03*
X57800000Y-37000000D03*
X58600000Y-37000000D03*
X59400000Y-37000000D03*
X60200000Y-37000000D03*
X61000000Y-37000000D03*
X61800000Y-37000000D03*
X62600000Y-37000000D03*
X63400000Y-37000000D03*
X64200000Y-37000000D03*
X65000000Y-37000000D03*
X65800000Y-37000000D03*
X66600000Y-37000000D03*
X67400000Y-37000000D03*
X68200000Y-37000000D03*
X69000000Y-37000000D03*
X69800000Y-37000000D03*
X70600000Y-37000000D03*
X71400000Y-37000000D03*
X72200000Y-37000000D03*
X73000000Y-37000000D03*
X73800000Y-37000000D03*
X74600000Y-37000000D03*
X75400000Y-37000000D03*
X76200000Y-37000000D03*
X77000000Y-37000000D03*
X77800000Y-37000000D03*
X78600000Y-37000000D03*
X79400000Y-37000000D03*
X80200000Y-37000000D03*
X81000000Y-37000000D03*
X81800000Y-37000000D03*
X82600000Y-37000000D03*
X83400000Y-37000000D03*
X84200000Y-37000000D03*
X85000000Y-37000000D03*
X85800000Y-37000000D03*
X86600000Y-37000000D03*
X87400000Y-37000000D03*
X88200000Y-37000000D03*
X89000000Y-37000000D03*
X89800000Y-37000000D03*
X90600000Y-37000000D03*
X91400000Y-37000000D03*
X92200000Y-37000000D03*
X93000000Y-37000000D03*
X93800000Y-37000000D03*
X94600000Y-37000000D03*
X55400000Y-37800000D03*
X56200000Y-37800000D03*
X57000000Y-37800000D03*
X57800000Y-37800000D03*
X58600000Y-37800000D03*
X59400000Y-37800000D03*
X60200000Y-37800000D03*
X61000000Y-37800000D03*
X61800000Y-37800000D03*
X62600000Y-37800000D03*
X63400000Y-37800000D03*
X64200000Y-37800000D03*
X65000000Y-37800000D03*
X65800000Y-37800000D03*
X66600000Y-37800000D03*
X67400000Y-37800000D03*
X68200000Y-37800000D03*
X69000000Y-37800000D03*
X69800000Y-37800000D03*
X70600000Y-37800000D03*
X71400000Y-37800000D03*
X72200000Y-37800000D03*
X73000000Y-37800000D03*
X73800000Y-37800000D03*
X74600000Y-37800000D03*
X75400000Y-37800000D03*
X76200000Y-37800000D03*
X77000000Y-37800000D03*
X77800000Y-37800000D03*
X78600000Y-37800000D03*
X79400000Y-37800000D03*
X80200000Y-37800000D03*
X81000000Y-37800000D03*
X81800000Y-37800000D03*
X82600000Y-37800000D03*
X83400000Y-37800000D03*
X84200000Y-37800000D03*
X85000000Y-37800000D03*
X85800000Y-37800000D03*
X86600000Y-37800000D03*
X87400000Y-37800000D03*
X88200000Y-37800000D03*
X89000000Y-37800000D03*
X89800000Y-37800000D03*
X90600000Y-37800000D03*
X91400000Y-37800000D03*
X92200000Y-37800000D03*
X93000000Y-37800000D03*
X93800000Y-37800000D03*
X94600000Y-37800000D03*
X55400000Y-38600000D03*
X56200000Y-38600000D03*
X57000000Y-38600000D03*
X57800000Y-38600000D03*
X58600000Y-38600000D03*
X59400000Y-38600000D03*
X60200000Y-38600000D03*
X61000000Y-38600000D03*
X61800000Y-38600000D03*
X62600000Y-38600000D03*
X63400000Y-38600000D03*
X64200000Y-38600000D03*
X65000000Y-38600000D03*
X65800000Y-38600000D03*
X66600000Y-38600000D03*
X67400000Y-38600000D03*
X68200000Y-38600000D03*
X69000000Y-38600000D03*
X69800000Y-38600000D03*
X70600000Y-38600000D03*
X71400000Y-38600000D03*
X72200000Y-38600000D03*
X73000000Y-38600000D03*
X73800000Y-38600000D03*
X74600000Y-38600000D03*
X75400000Y-38600000D03*
X76200000Y-38600000D03*
X77000000Y-38600000D03*
X77800000Y-38600000D03*
X78600000Y-38600000D03*
X79400000Y-38600000D03*
X80200000Y-38600000D03*
X81000000Y-38600000D03*
X81800000Y-38600000D03*
X82600000Y-38600000D03*
X83400000Y-38600000D03*
X84200000Y-38600000D03*
X85000000Y-38600000D03*
X85800000Y-38600000D03*
X86600000Y-38600000D03*
X87400000Y-38600000D03*
X88200000Y-38600000D03*
X89000000Y-38600000D03*
X89800000Y-38600000D03*
X90600000Y-38600000D03*
X91400000Y-38600000D03*
X92200000Y-38600000D03*
X93000000Y-38600000D03*
X93800000Y-38600000D03*
X94600000Y-38600000D03*
X55400000Y-39400000D03*
X56200000Y-39400000D03*
X57000000Y-39400000D03*
X57800000Y-39400000D03*
X58600000Y-39400000D03*
X59400000Y-39400000D03*
X60200000Y-39400000D03*
X61000000Y-39400000D03*
X61800000Y-39400000D03*
X62600000Y-39400000D03*
X63400000Y-39400000D03*
X64200000Y-39400000D03*
X65000000Y-39400000D03*
X65800000Y-39400000D03*
X66600000Y-39400000D03*
X67400000Y-39400000D03*
X68200000Y-39400000D03*
X69000000Y-39400000D03*
X69800000Y-39400000D03*
X70600000Y-39400000D03*
X71400000Y-39400000D03*
X72200000Y-39400000D03*
X73000000Y-39400000D03*
X73800000Y-39400000D03*
X74600000Y-39400000D03*
X75400000Y-39400000D03*
X76200000Y-39400000D03*
X77000000Y-39400000D03*
X77800000Y-39400000D03*
X78600000Y-39400000D03*
X79400000Y-39400000D03*
X80200000Y-39400000D03*
X81000000Y-39400000D03*
X81800000Y-39400000D03*
X82600000Y-39400000D03*
X83400000Y-39400000D03*
X84200000Y-39400000D03*
X85000000Y-39400000D03*
X85800000Y-39400000D03*
X86600000Y-39400000D03*
X87400000Y-39400000D03*
X88200000Y-39400000D03*
X89000000Y-39400000D03*
X89800000Y-39400000D03*
X90600000Y-39400000D03*
X91400000Y-39400000D03*
X92200000Y-39400000D03*
X93000000Y-39400000D03*
X93800000Y-39400000D03*
X94600000Y-39400000D03*
X55400000Y-40200000D03*
X56200000Y-40200000D03*
X57000000Y-40200000D03*
X57800000Y-40200000D03*
X58600000Y-40200000D03*
X59400000Y-40200000D03*
X60200000Y-40200000D03*
X61000000Y-40200000D03*
X61800000Y-40200000D03*
X62600000Y-40200000D03*
X63400000Y-40200000D03*
X64200000Y-40200000D03*
X65000000Y-40200000D03*
X65800000Y-40200000D03*
X66600000Y-40200000D03*
X67400000Y-40200000D03*
X68200000Y-40200000D03*
X69000000Y-40200000D03*
X69800000Y-40200000D03*
X70600000Y-40200000D03*
X71400000Y-40200000D03*
X72200000Y-40200000D03*
X73000000Y-40200000D03*
X73800000Y-40200000D03*
X74600000Y-40200000D03*
X75400000Y-40200000D03*
X76200000Y-40200000D03*
X77000000Y-40200000D03*
X77800000Y-40200000D03*
X78600000Y-40200000D03*
X79400000Y-40200000D03*
X80200000Y-40200000D03*
X81000000Y-40200000D03*
X81800000Y-40200000D03*
X82600000Y-40200000D03*
X83400000Y-40200000D03*
X84200000Y-40200000D03*
X85000000Y-40200000D03*
X85800000Y-40200000D03*
X86600000Y-40200000D03*
X87400000Y-40200000D03*
X88200000Y-40200000D03*
X89000000Y-40200000D03*
X89800000Y-40200000D03*
X90600000Y-40200000D03*
X91400000Y-40200000D03*
X92200000Y-40200000D03*
X93000000Y-40200000D03*
X93800000Y-40200000D03*
X94600000Y-40200000D03*
X55400000Y-41000000D03*
X56200000Y-41000000D03*
X57000000Y-41000000D03*
X57800000Y-41000000D03*
X58600000Y-41000000D03*
X59400000Y-41000000D03*
X60200000Y-41000000D03*
X61000000Y-41000000D03*
X61800000Y-41000000D03*
X62600000Y-41000000D03*
X63400000Y-41000000D03*
X64200000Y-41000000D03*
X65000000Y-41000000D03*
X65800000Y-41000000D03*
X66600000Y-41000000D03*
X67400000Y-41000000D03*
X68200000Y-41000000D03*
X69000000Y-41000000D03*
X69800000Y-41000000D03*
X70600000Y-41000000D03*
X71400000Y-41000000D03*
X72200000Y-41000000D03*
X73000000Y-41000000D03*
X73800000Y-41000000D03*
X74600000Y-41000000D03*
X75400000Y-41000000D03*
X76200000Y-41000000D03*
X77000000Y-41000000D03*
X77800000Y-41000000D03*
X78600000Y-41000000D03*
X79400000Y-41000000D03*
X80200000Y-41000000D03*
X81000000Y-41000000D03*
X81800000Y-41000000D03*
X82600000Y-41000000D03*
X83400000Y-41000000D03*
X84200000Y-41000000D03*
X85000000Y-41000000D03*
X85800000Y-41000000D03*
X86600000Y-41000000D03*
X87400000Y-41000000D03*
X88200000Y-41000000D03*
X89000000Y-41000000D03*
X89800000Y-41000000D03*
X90600000Y-41000000D03*
X91400000Y-41000000D03*
X92200000Y-41000000D03*
X93000000Y-41000000D03*
X93800000Y-41000000D03*
X94600000Y-41000000D03*
X55400000Y-41800000D03*
X56200000Y-41800000D03*
X57000000Y-41800000D03*
X57800000Y-41800000D03*
X58600000Y-41800000D03*
X59400000Y-41800000D03*
X60200000Y-41800000D03*
X61000000Y-41800000D03*
X61800000Y-41800000D03*
X62600000Y-41800000D03*
X63400000Y-41800000D03*
X64200000Y-41800000D03*
X65000000Y-41800000D03*
X65800000Y-41800000D03*
X66600000Y-41800000D03*
X67400000Y-41800000D03*
X68200000Y-41800000D03*
X69000000Y-41800000D03*
X69800000Y-41800000D03*
X70600000Y-41800000D03*
X71400000Y-41800000D03*
X72200000Y-41800000D03*
X73000000Y-41800000D03*
X73800000Y-41800000D03*
X74600000Y-41800000D03*
X75400000Y-41800000D03*
X76200000Y-41800000D03*
X77000000Y-41800000D03*
X77800000Y-41800000D03*
X78600000Y-41800000D03*
X79400000Y-41800000D03*
X80200000Y-41800000D03*
X81000000Y-41800000D03*
X81800000Y-41800000D03*
X82600000Y-41800000D03*
X83400000Y-41800000D03*
X84200000Y-41800000D03*
X85000000Y-41800000D03*
X85800000Y-41800000D03*
X86600000Y-41800000D03*
X87400000Y-41800000D03*
X88200000Y-41800000D03*
X89000000Y-41800000D03*
X89800000Y-41800000D03*
X90600000Y-41800000D03*
X91400000Y-41800000D03*
X92200000Y-41800000D03*
X93000000Y-41800000D03*
X93800000Y-41800000D03*
X94600000Y-41800000D03*
X55400000Y-42600000D03*
X56200000Y-42600000D03*
X57000000Y-42600000D03*
X57800000Y-42600000D03*
X58600000Y-42600000D03*
X59400000Y-42600000D03*
X60200000Y-42600000D03*
X61000000Y-42600000D03*
X61800000Y-42600000D03*
X62600000Y-42600000D03*
X63400000Y-42600000D03*
X64200000Y-42600000D03*
X65000000Y-42600000D03*
X65800000Y-42600000D03*
X66600000Y-42600000D03*
X67400000Y-42600000D03*
X68200000Y-42600000D03*
X69000000Y-42600000D03*
X69800000Y-42600000D03*
X70600000Y-42600000D03*
X71400000Y-42600000D03*
X72200000Y-42600000D03*
X73000000Y-42600000D03*
X73800000Y-42600000D03*
X74600000Y-42600000D03*
X75400000Y-42600000D03*
X76200000Y-42600000D03*
X77000000Y-42600000D03*
X77800000Y-42600000D03*
X78600000Y-42600000D03*
X79400000Y-42600000D03*
X80200000Y-42600000D03*
X81000000Y-42600000D03*
X81800000Y-42600000D03*
X82600000Y-42600000D03*
X83400000Y-42600000D03*
X84200000Y-42600000D03*
X85000000Y-42600000D03*
X85800000Y-42600000D03*
X86600000Y-42600000D03*
X87400000Y-42600000D03*
X88200000Y-42600000D03*
X89000000Y-42600000D03*
X89800000Y-42600000D03*
X90600000Y-42600000D03*
X91400000Y-42600000D03*
X92200000Y-42600000D03*
X93000000Y-42600000D03*
X93800000Y-42600000D03*
X94600000Y-42600000D03*
X55400000Y-43400000D03*
X56200000Y-43400000D03*
X57000000Y-43400000D03*
X57800000Y-43400000D03*
X58600000Y-43400000D03*
X59400000Y-43400000D03*
X60200000Y-43400000D03*
X61000000Y-43400000D03*
X61800000Y-43400000D03*
X62600000Y-43400000D03*
X63400000Y-43400000D03*
X64200000Y-43400000D03*
X65000000Y-43400000D03*
X65800000Y-43400000D03*
X66600000Y-43400000D03*
X67400000Y-43400000D03*
X68200000Y-43400000D03*
X69000000Y-43400000D03*
X69800000Y-43400000D03*
X70600000Y-43400000D03*
X71400000Y-43400000D03*
X72200000Y-43400000D03*
X73000000Y-43400000D03*
X73800000Y-43400000D03*
X74600000Y-43400000D03*
X75400000Y-43400000D03*
X76200000Y-43400000D03*
X77000000Y-43400000D03*
X77800000Y-43400000D03*
X78600000Y-43400000D03*
X79400000Y-43400000D03*
X80200000Y-43400000D03*
X81000000Y-43400000D03*
X81800000Y-43400000D03*
X82600000Y-43400000D03*
X83400000Y-43400000D03*
X84200000Y-43400000D03*
X85000000Y-43400000D03*
X85800000Y-43400000D03*
X86600000Y-43400000D03*
X87400000Y-43400000D03*
X88200000Y-43400000D03*
X89000000Y-43400000D03*
X89800000Y-43400000D03*
X90600000Y-43400000D03*
X91400000Y-43400000D03*
X92200000Y-43400000D03*
X93000000Y-43400000D03*
X93800000Y-43400000D03*
X94600000Y-43400000D03*
X55400000Y-44200000D03*
X56200000Y-44200000D03*
X57000000Y-44200000D03*
X57800000Y-44200000D03*
X58600000Y-44200000D03*
X59400000Y-44200000D03*
X60200000Y-44200000D03*
X61000000Y-44200000D03*
X61800000Y-44200000D03*
X62600000Y-44200000D03*
X63400000Y-44200000D03*
X64200000Y-44200000D03*
X65000000Y-44200000D03*
X65800000Y-44200000D03*
X66600000Y-44200000D03*
X67400000Y-44200000D03*
X68200000Y-44200000D03*
X69000000Y-44200000D03*
X69800000Y-44200000D03*
X70600000Y-44200000D03*
X71400000Y-44200000D03*
X72200000Y-44200000D03*
X73000000Y-44200000D03*
X73800000Y-44200000D03*
X74600000Y-44200000D03*
X75400000Y-44200000D03*
X76200000Y-44200000D03*
X77000000Y-44200000D03*
X77800000Y-44200000D03*
X78600000Y-44200000D03*
X79400000Y-44200000D03*
X80200000Y-44200000D03*
X81000000Y-44200000D03*
X81800000Y-44200000D03*
X82600000Y-44200000D03*
X83400000Y-44200000D03*
X84200000Y-44200000D03*
X85000000Y-44200000D03*
X85800000Y-44200000D03*
X86600000Y-44200000D03*
X87400000Y-44200000D03*
X88200000Y-44200000D03*
X89000000Y-44200000D03*
X89800000Y-44200000D03*
X90600000Y-44200000D03*
X91400000Y-44200000D03*
X92200000Y-44200000D03*
X93000000Y-44200000D03*
X93800000Y-44200000D03*
X94600000Y-44200000D03*
X55400000Y-45000000D03*
X56200000Y-45000000D03*
X57000000Y-45000000D03*
X57800000Y-45000000D03*
X58600000Y-45000000D03*
X59400000Y-45000000D03*
X60200000Y-45000000D03*
X61000000Y-45000000D03*
X61800000Y-45000000D03*
X62600000Y-45000000D03*
X63400000Y-45000000D03*
X64200000Y-45000000D03*
X65000000Y-45000000D03*
X65800000Y-45000000D03*
X66600000Y-45000000D03*
X67400000Y-45000000D03*
X68200000Y-45000000D03*
X69000000Y-45000000D03*
X69800000Y-45000000D03*
X70600000Y-45000000D03*
X71400000Y-45000000D03*
X72200000Y-45000000D03*
X73000000Y-45000000D03*
X73800000Y-45000000D03*
X74600000Y-45000000D03*
X75400000Y-45000000D03*
X76200000Y-45000000D03*
X77000000Y-45000000D03*
X77800000Y-45000000D03*
X78600000Y-45000000D03*
X79400000Y-45000000D03*
X80200000Y-45000000D03*
X81000000Y-45000000D03*
X81800000Y-45000000D03*
X82600000Y-45000000D03*
X83400000Y-45000000D03*
X84200000Y-45000000D03*
X85000000Y-45000000D03*
X85800000Y-45000000D03*
X86600000Y-45000000D03*
X87400000Y-45000000D03*
X88200000Y-45000000D03*
X89000000Y-45000000D03*
X89800000Y-45000000D03*
X90600000Y-45000000D03*
X91400000Y-45000000D03*
X92200000Y-45000000D03*
X93000000Y-45000000D03*
X93800000Y-45000000D03*
X94600000Y-45000000D03*
X55400000Y-45800000D03*
X56200000Y-45800000D03*
X57000000Y-45800000D03*
X57800000Y-45800000D03*
X58600000Y-45800000D03*
X59400000Y-45800000D03*
X60200000Y-45800000D03*
X61000000Y-45800000D03*
X61800000Y-45800000D03*
X62600000Y-45800000D03*
X63400000Y-45800000D03*
X64200000Y-45800000D03*
X65000000Y-45800000D03*
X65800000Y-45800000D03*
X66600000Y-45800000D03*
X67400000Y-45800000D03*
X68200000Y-45800000D03*
X69000000Y-45800000D03*
X69800000Y-45800000D03*
X70600000Y-45800000D03*
X71400000Y-45800000D03*
X72200000Y-45800000D03*
X73000000Y-45800000D03*
X73800000Y-45800000D03*
X74600000Y-45800000D03*
X75400000Y-45800000D03*
X76200000Y-45800000D03*
X77000000Y-45800000D03*
X77800000Y-45800000D03*
X78600000Y-45800000D03*
X79400000Y-45800000D03*
X80200000Y-45800000D03*
X81000000Y-45800000D03*
X81800000Y-45800000D03*
X82600000Y-45800000D03*
X83400000Y-45800000D03*
X84200000Y-45800000D03*
X85000000Y-45800000D03*
X85800000Y-45800000D03*
X86600000Y-45800000D03*
X87400000Y-45800000D03*
X88200000Y-45800000D03*
X89000000Y-45800000D03*
X89800000Y-45800000D03*
X90600000Y-45800000D03*
X91400000Y-45800000D03*
X92200000Y-45800000D03*
X93000000Y-45800000D03*
X93800000Y-45800000D03*
X94600000Y-45800000D03*
X55400000Y-46600000D03*
X56200000Y-46600000D03*
X57000000Y-46600000D03*
X57800000Y-46600000D03*
X58600000Y-46600000D03*
X59400000Y-46600000D03*
X60200000Y-46600000D03*
X61000000Y-46600000D03*
X61800000Y-46600000D03*
X62600000Y-46600000D03*
X63400000Y-46600000D03*
X64200000Y-46600000D03*
X65000000Y-46600000D03*
X65800000Y-46600000D03*
X66600000Y-46600000D03*
X67400000Y-46600000D03*
X68200000Y-46600000D03*
X69000000Y-46600000D03*
X69800000Y-46600000D03*
X70600000Y-46600000D03*
X71400000Y-46600000D03*
X72200000Y-46600000D03*
X73000000Y-46600000D03*
X73800000Y-46600000D03*
X74600000Y-46600000D03*
X75400000Y-46600000D03*
X76200000Y-46600000D03*
X77000000Y-46600000D03*
X77800000Y-46600000D03*
X78600000Y-46600000D03*
X79400000Y-46600000D03*
X80200000Y-46600000D03*
X81000000Y-46600000D03*
X81800000Y-46600000D03*
X82600000Y-46600000D03*
X83400000Y-46600000D03*
X84200000Y-46600000D03*
X85000000Y-46600000D03*
X85800000Y-46600000D03*
X86600000Y-46600000D03*
X87400000Y-46600000D03*
X88200000Y-46600000D03*
X89000000Y-46600000D03*
X89800000Y-46600000D03*
X90600000Y-46600000D03*
X91400000Y-46600000D03*
X92200000Y-46600000D03*
X93000000Y-46600000D03*
X93800000Y-46600000D03*
X94600000Y-46600000D03*
X55400000Y-47400000D03*
X56200000Y-47400000D03*
X57000000Y-47400000D03*
X57800000Y-47400000D03*
X58600000Y-47400000D03*
X59400000Y-47400000D03*
X60200000Y-47400000D03*
X61000000Y-47400000D03*
X61800000Y-47400000D03*
X62600000Y-47400000D03*
X63400000Y-47400000D03*
X64200000Y-47400000D03*
X65000000Y-47400000D03*
X65800000Y-47400000D03*
X66600000Y-47400000D03*
X67400000Y-47400000D03*
X68200000Y-47400000D03*
X69000000Y-47400000D03*
X69800000Y-47400000D03*
X70600000Y-47400000D03*
X71400000Y-47400000D03*
X72200000Y-47400000D03*
X73000000Y-47400000D03*
X73800000Y-47400000D03*
X74600000Y-47400000D03*
X75400000Y-47400000D03*
X76200000Y-47400000D03*
X77000000Y-47400000D03*
X77800000Y-47400000D03*
X78600000Y-47400000D03*
X79400000Y-47400000D03*
X80200000Y-47400000D03*
X81000000Y-47400000D03*
X81800000Y-47400000D03*
X82600000Y-47400000D03*
X83400000Y-47400000D03*
X84200000Y-47400000D03*
X85000000Y-47400000D03*
X85800000Y-47400000D03*
X86600000Y-47400000D03*
X87400000Y-47400000D03*
X88200000Y-47400000D03*
X89000000Y-47400000D03*
X89800000Y-47400000D03*
X90600000Y-47400000D03*
X91400000Y-47400000D03*
X92200000Y-47400000D03*
X93000000Y-47400000D03*
X93800000Y-47400000D03*
X94600000Y-47400000D03*
X55400000Y-48200000D03*
X56200000Y-48200000D03*
X57000000Y-48200000D03*
X57800000Y-48200000D03*
X58600000Y-48200000D03*
X59400000Y-48200000D03*
X60200000Y-48200000D03*
X61000000Y-48200000D03*
X61800000Y-48200000D03*
X62600000Y-48200000D03*
X63400000Y-48200000D03*
X64200000Y-48200000D03*
X65000000Y-48200000D03*
X65800000Y-48200000D03*
X66600000Y-48200000D03*
X67400000Y-48200000D03*
X68200000Y-48200000D03*
X69000000Y-48200000D03*
X69800000Y-48200000D03*
X70600000Y-48200000D03*
X71400000Y-48200000D03*
X72200000Y-48200000D03*
X73000000Y-48200000D03*
X73800000Y-48200000D03*
X74600000Y-48200000D03*
X75400000Y-48200000D03*
X76200000Y-48200000D03*
X77000000Y-48200000D03*
X77800000Y-48200000D03*
X78600000Y-48200000D03*
X79400000Y-48200000D03*
X80200000Y-48200000D03*
X81000000Y-48200000D03*
X81800000Y-48200000D03*
X82600000Y-48200000D03*
X83400000Y-48200000D03*
X84200000Y-48200000D03*
X85000000Y-48200000D03*
X85800000Y-48200000D03*
X86600000Y-48200000D03*
X87400000Y-48200000D03*
X88200000Y-48200000D03*
X89000000Y-48200000D03*
X89800000Y-48200000D03*
X90600000Y-48200000D03*
X91400000Y-48200000D03*
X92200000Y-48200000D03*
X93000000Y-48200000D03*
X93800000Y-48200000D03*
X94600000Y-48200000D03*
X55400000Y-49000000D03*
X56200000Y-49000000D03*
X57000000Y-49000000D03*
X57800000Y-49000000D03*
X58600000Y-49000000D03*
X59400000Y-49000000D03*
X60200000Y-49000000D03*
X61000000Y-49000000D03*
X61800000Y-49000000D03*
X62600000Y-49000000D03*
X63400000Y-49000000D03*
X64200000Y-49000000D03*
X65000000Y-49000000D03*
X65800000Y-49000000D03*
X66600000Y-49000000D03*
X67400000Y-49000000D03*
X68200000Y-49000000D03*
X69000000Y-49000000D03*
X69800000Y-49000000D03*
X70600000Y-49000000D03*
X71400000Y-49000000D03*
X72200000Y-49000000D03*
X73000000Y-49000000D03*
X73800000Y-49000000D03*
X74600000Y-49000000D03*
X75400000Y-49000000D03*
X76200000Y-49000000D03*
X77000000Y-49000000D03*
X77800000Y-49000000D03*
X78600000Y-49000000D03*
X79400000Y-49000000D03*
X80200000Y-49000000D03*
X81000000Y-49000000D03*
X81800000Y-49000000D03*
X82600000Y-49000000D03*
X83400000Y-49000000D03*
X84200000Y-49000000D03*
X85000000Y-49000000D03*
X85800000Y-49000000D03*
X86600000Y-49000000D03*
X87400000Y-49000000D03*
X88200000Y-49000000D03*
X89000000Y-49000000D03*
X89800000Y-49000000D03*
X90600000Y-49000000D03*
X91400000Y-49000000D03*
X92200000Y-49000000D03*
X93000000Y-49000000D03*
X93800000Y-49000000D03*
X94600000Y-49000000D03*
X55400000Y-49800000D03*
X56200000Y-49800000D03*
X57000000Y-49800000D03*
X57800000Y-49800000D03*
X58600000Y-49800000D03*
X59400000Y-49800000D03*
X60200000Y-49800000D03*
X61000000Y-49800000D03*
X61800000Y-49800000D03*
X62600000Y-49800000D03*
X63400000Y-49800000D03*
X64200000Y-49800000D03*
X65000000Y-49800000D03*
X65800000Y-49800000D03*
X66600000Y-49800000D03*
X67400000Y-49800000D03*
X68200000Y-49800000D03*
X69000000Y-49800000D03*
X69800000Y-49800000D03*
X70600000Y-49800000D03*
X71400000Y-49800000D03*
X72200000Y-49800000D03*
X73000000Y-49800000D03*
X73800000Y-49800000D03*
X74600000Y-49800000D03*
X75400000Y-49800000D03*
X76200000Y-49800000D03*
X77000000Y-49800000D03*
X77800000Y-49800000D03*
X78600000Y-49800000D03*
X79400000Y-49800000D03*
X80200000Y-49800000D03*
X81000000Y-49800000D03*
X81800000Y-49800000D03*
X82600000Y-49800000D03*
X83400000Y-49800000D03*
X84200000Y-49800000D03*
X85000000Y-49800000D03*
X85800000Y-49800000D03*
X86600000Y-49800000D03*
X87400000Y-49800000D03*
X88200000Y-49800000D03*
X89000000Y-49800000D03*
X89800000Y-49800000D03*
X90600000Y-49800000D03*
X91400000Y-49800000D03*
X92200000Y-49800000D03*
X93000000Y-49800000D03*
X93800000Y-49800000D03*
X94600000Y-49800000D03*
X55400000Y-50600000D03*
X56200000Y-50600000D03*
X57000000Y-50600000D03*
X57800000Y-50600000D03*
X58600000Y-50600000D03*
X59400000Y-50600000D03*
X60200000Y-50600000D03*
X61000000Y-50600000D03*
X61800000Y-50600000D03*
X62600000Y-50600000D03*
X63400000Y-50600000D03*
X64200000Y-50600000D03*
X65000000Y-50600000D03*
X65800000Y-50600000D03*
X66600000Y-50600000D03*
X67400000Y-50600000D03*
X68200000Y-50600000D03*
X69000000Y-50600000D03*
X69800000Y-50600000D03*
X70600000Y-50600000D03*
X71400000Y-50600000D03*
X72200000Y-50600000D03*
X73000000Y-50600000D03*
X73800000Y-50600000D03*
X74600000Y-50600000D03*
X75400000Y-50600000D03*
X76200000Y-50600000D03*
X77000000Y-50600000D03*
X77800000Y-50600000D03*
X78600000Y-50600000D03*
X79400000Y-50600000D03*
X80200000Y-50600000D03*
X81000000Y-50600000D03*
X81800000Y-50600000D03*
X82600000Y-50600000D03*
X83400000Y-50600000D03*
X84200000Y-50600000D03*
X85000000Y-50600000D03*
X85800000Y-50600000D03*
X86600000Y-50600000D03*
X87400000Y-50600000D03*
X88200000Y-50600000D03*
X89000000Y-50600000D03*
X89800000Y-50600000D03*
X90600000Y-50600000D03*
X91400000Y-50600000D03*
X92200000Y-50600000D03*
X93000000Y-50600000D03*
X93800000Y-50600000D03*
X94600000Y-50600000D03*
X55400000Y-51400000D03*
X56200000Y-51400000D03*
X57000000Y-51400000D03*
X57800000Y-51400000D03*
X58600000Y-51400000D03*
X59400000Y-51400000D03*
X60200000Y-51400000D03*
X61000000Y-51400000D03*
X61800000Y-51400000D03*
X62600000Y-51400000D03*
X63400000Y-51400000D03*
X64200000Y-51400000D03*
X65000000Y-51400000D03*
X65800000Y-51400000D03*
X66600000Y-51400000D03*
X67400000Y-51400000D03*
X68200000Y-51400000D03*
X69000000Y-51400000D03*
X69800000Y-51400000D03*
X70600000Y-51400000D03*
X71400000Y-51400000D03*
X72200000Y-51400000D03*
X73000000Y-51400000D03*
X73800000Y-51400000D03*
X74600000Y-51400000D03*
X75400000Y-51400000D03*
X76200000Y-51400000D03*
X77000000Y-51400000D03*
X77800000Y-51400000D03*
X78600000Y-51400000D03*
X79400000Y-51400000D03*
X80200000Y-51400000D03*
X81000000Y-51400000D03*
X81800000Y-51400000D03*
X82600000Y-51400000D03*
X83400000Y-51400000D03*
X84200000Y-51400000D03*
X85000000Y-51400000D03*
X85800000Y-51400000D03*
X86600000Y-51400000D03*
X87400000Y-51400000D03*
X88200000Y-51400000D03*
X89000000Y-51400000D03*
X89800000Y-51400000D03*
X90600000Y-51400000D03*
X91400000Y-51400000D03*
X92200000Y-51400000D03*
X93000000Y-51400000D03*
X93800000Y-51400000D03*
X94600000Y-51400000D03*
X55400000Y-52200000D03*
X56200000Y-52200000D03*
X57000000Y-52200000D03*
X57800000Y-52200000D03*
X58600000Y-52200000D03*
X59400000Y-52200000D03*
X60200000Y-52200000D03*
X61000000Y-52200000D03*
X61800000Y-52200000D03*
X62600000Y-52200000D03*
X63400000Y-52200000D03*
X64200000Y-52200000D03*
X65000000Y-52200000D03*
X65800000Y-52200000D03*
X66600000Y-52200000D03*
X67400000Y-52200000D03*
X68200000Y-52200000D03*
X69000000Y-52200000D03*
X69800000Y-52200000D03*
X70600000Y-52200000D03*
X71400000Y-52200000D03*
X72200000Y-52200000D03*
X73000000Y-52200000D03*
X73800000Y-52200000D03*
X74600000Y-52200000D03*
X75400000Y-52200000D03*
X76200000Y-52200000D03*
X77000000Y-52200000D03*
X77800000Y-52200000D03*
X78600000Y-52200000D03*
X79400000Y-52200000D03*
X80200000Y-52200000D03*
X81000000Y-52200000D03*
X81800000Y-52200000D03*
X82600000Y-52200000D03*
X83400000Y-52200000D03*
X84200000Y-52200000D03*
X85000000Y-52200000D03*
X85800000Y-52200000D03*
X86600000Y-52200000D03*
X87400000Y-52200000D03*
X88200000Y-52200000D03*
X89000000Y-52200000D03*
X89800000Y-52200000D03*
X90600000Y-52200000D03*
X91400000Y-52200000D03*
X92200000Y-52200000D03*
X93000000Y-52200000D03*
X93800000Y-52200000D03*
X94600000Y-52200000D03*
X55400000Y-53000000D03*
X56200000Y-53000000D03*
X57000000Y-53000000D03*
X57800000Y-53000000D03*
X58600000Y-53000000D03*
X59400000Y-53000000D03*
X60200000Y-53000000D03*
X61000000Y-53000000D03*
X61800000Y-53000000D03*
X62600000Y-53000000D03*
X63400000Y-53000000D03*
X64200000Y-53000000D03*
X65000000Y-53000000D03*
X65800000Y-53000000D03*
X66600000Y-53000000D03*
X67400000Y-53000000D03*
X68200000Y-53000000D03*
X69000000Y-53000000D03*
X69800000Y-53000000D03*
X70600000Y-53000000D03*
X71400000Y-53000000D03*
X72200000Y-53000000D03*
X73000000Y-53000000D03*
X73800000Y-53000000D03*
X74600000Y-53000000D03*
X75400000Y-53000000D03*
X76200000Y-53000000D03*
X77000000Y-53000000D03*
X77800000Y-53000000D03*
X78600000Y-53000000D03*
X79400000Y-53000000D03*
X80200000Y-53000000D03*
X81000000Y-53000000D03*
X81800000Y-53000000D03*
X82600000Y-53000000D03*
X83400000Y-53000000D03*
X84200000Y-53000000D03*
X85000000Y-53000000D03*
X85800000Y-53000000D03*
X86600000Y-53000000D03*
X87400000Y-53000000D03*
X88200000Y-53000000D03*
X89000000Y-53000000D03*
X89800000Y-53000000D03*
X90600000Y-53000000D03*
X91400000Y-53000000D03*
X92200000Y-53000000D03*
X93000000Y-53000000D03*
X93800000Y-53000000D03*
X94600000Y-53000000D03*
X55400000Y-53800000D03*
X56200000Y-53800000D03*
X57000000Y-53800000D03*
X57800000Y-53800000D03*
X58600000Y-53800000D03*
X59400000Y-53800000D03*
X60200000Y-53800000D03*
X61000000Y-53800000D03*
X61800000Y-53800000D03*
X62600000Y-53800000D03*
X63400000Y-53800000D03*
X64200000Y-53800000D03*
X65000000Y-53800000D03*
X65800000Y-53800000D03*
X66600000Y-53800000D03*
X67400000Y-53800000D03*
X68200000Y-53800000D03*
X69000000Y-53800000D03*
X69800000Y-53800000D03*
X70600000Y-53800000D03*
X71400000Y-53800000D03*
X72200000Y-53800000D03*
X73000000Y-53800000D03*
X73800000Y-53800000D03*
X74600000Y-53800000D03*
X75400000Y-53800000D03*
X76200000Y-53800000D03*
X77000000Y-53800000D03*
X77800000Y-53800000D03*
X78600000Y-53800000D03*
X79400000Y-53800000D03*
X80200000Y-53800000D03*
X81000000Y-53800000D03*
X81800000Y-53800000D03*
X82600000Y-53800000D03*
X83400000Y-53800000D03*
X84200000Y-53800000D03*
X85000000Y-53800000D03*
X85800000Y-53800000D03*
X86600000Y-53800000D03*
X87400000Y-53800000D03*
X88200000Y-53800000D03*
X89000000Y-53800000D03*
X89800000Y-53800000D03*
X90600000Y-53800000D03*
X91400000Y-53800000D03*
X92200000Y-53800000D03*
X93000000Y-53800000D03*
X93800000Y-53800000D03*
X94600000Y-53800000D03*
X55400000Y-54600000D03*
X56200000Y-54600000D03*
X57000000Y-54600000D03*
X57800000Y-54600000D03*
X58600000Y-54600000D03*
X59400000Y-54600000D03*
X60200000Y-54600000D03*
X61000000Y-54600000D03*
X61800000Y-54600000D03*
X62600000Y-54600000D03*
X63400000Y-54600000D03*
X64200000Y-54600000D03*
X65000000Y-54600000D03*
X65800000Y-54600000D03*
X66600000Y-54600000D03*
X67400000Y-54600000D03*
X68200000Y-54600000D03*
X69000000Y-54600000D03*
X69800000Y-54600000D03*
X70600000Y-54600000D03*
X71400000Y-54600000D03*
X72200000Y-54600000D03*
X73000000Y-54600000D03*
X73800000Y-54600000D03*
X74600000Y-54600000D03*
X75400000Y-54600000D03*
X76200000Y-54600000D03*
X77000000Y-54600000D03*
X77800000Y-54600000D03*
X78600000Y-54600000D03*
X79400000Y-54600000D03*
X80200000Y-54600000D03*
X81000000Y-54600000D03*
X81800000Y-54600000D03*
X82600000Y-54600000D03*
X83400000Y-54600000D03*
X84200000Y-54600000D03*
X85000000Y-54600000D03*
X85800000Y-54600000D03*
X86600000Y-54600000D03*
X87400000Y-54600000D03*
X88200000Y-54600000D03*
X89000000Y-54600000D03*
X89800000Y-54600000D03*
X90600000Y-54600000D03*
X91400000Y-54600000D03*
X92200000Y-54600000D03*
X93000000Y-54600000D03*
X93800000Y-54600000D03*
X94600000Y-54600000D03*
X55400000Y-55400000D03*
X56200000Y-55400000D03*
X57000000Y-55400000D03*
X57800000Y-55400000D03*
X58600000Y-55400000D03*
X59400000Y-55400000D03*
X60200000Y-55400000D03*
X61000000Y-55400000D03*
X61800000Y-55400000D03*
X62600000Y-55400000D03*
X63400000Y-55400000D03*
X64200000Y-55400000D03*
X65000000Y-55400000D03*
X65800000Y-55400000D03*
X66600000Y-55400000D03*
X67400000Y-55400000D03*
X68200000Y-55400000D03*
X69000000Y-55400000D03*
X69800000Y-55400000D03*
X70600000Y-55400000D03*
X71400000Y-55400000D03*
X72200000Y-55400000D03*
X73000000Y-55400000D03*
X73800000Y-55400000D03*
X74600000Y-55400000D03*
X75400000Y-55400000D03*
X76200000Y-55400000D03*
X77000000Y-55400000D03*
X77800000Y-55400000D03*
X78600000Y-55400000D03*
X79400000Y-55400000D03*
X80200000Y-55400000D03*
X81000000Y-55400000D03*
X81800000Y-55400000D03*
X82600000Y-55400000D03*
X83400000Y-55400000D03*
X84200000Y-55400000D03*
X85000000Y-55400000D03*
X85800000Y-55400000D03*
X86600000Y-55400000D03*
X87400000Y-55400000D03*
X88200000Y-55400000D03*
X89000000Y-55400000D03*
X89800000Y-55400000D03*
X90600000Y-55400000D03*
X91400000Y-55400000D03*
X92200000Y-55400000D03*
X93000000Y-55400000D03*
X93800000Y-55400000D03*
X94600000Y-55400000D03*
X55400000Y-56200000D03*
X56200000Y-56200000D03*
X57000000Y-56200000D03*
X57800000Y-56200000D03*
X58600000Y-56200000D03*
X59400000Y-56200000D03*
X60200000Y-56200000D03*
X61000000Y-56200000D03*
X61800000Y-56200000D03*
X62600000Y-56200000D03*
X63400000Y-56200000D03*
X64200000Y-56200000D03*
X65000000Y-56200000D03*
X65800000Y-56200000D03*
X66600000Y-56200000D03*
X67400000Y-56200000D03*
X68200000Y-56200000D03*
X69000000Y-56200000D03*
X69800000Y-56200000D03*
X70600000Y-56200000D03*
X71400000Y-56200000D03*
X72200000Y-56200000D03*
X73000000Y-56200000D03*
X73800000Y-56200000D03*
X74600000Y-56200000D03*
X75400000Y-56200000D03*
X76200000Y-56200000D03*
X77000000Y-56200000D03*
X77800000Y-56200000D03*
X78600000Y-56200000D03*
X79400000Y-56200000D03*
X80200000Y-56200000D03*
X81000000Y-56200000D03*
X81800000Y-56200000D03*
X82600000Y-56200000D03*
X83400000Y-56200000D03*
X84200000Y-56200000D03*
X85000000Y-56200000D03*
X85800000Y-56200000D03*
X86600000Y-56200000D03*
X87400000Y-56200000D03*
X88200000Y-56200000D03*
X89000000Y-56200000D03*
X89800000Y-56200000D03*
X90600000Y-56200000D03*
X91400000Y-56200000D03*
X92200000Y-56200000D03*
X93000000Y-56200000D03*
X93800000Y-56200000D03*
X94600000Y-56200000D03*
X55400000Y-57000000D03*
X56200000Y-57000000D03*
X57000000Y-57000000D03*
X57800000Y-57000000D03*
X58600000Y-57000000D03*
X59400000Y-57000000D03*
X60200000Y-57000000D03*
X61000000Y-57000000D03*
X61800000Y-57000000D03*
X62600000Y-57000000D03*
X63400000Y-57000000D03*
X64200000Y-57000000D03*
X65000000Y-57000000D03*
X65800000Y-57000000D03*
X66600000Y-57000000D03*
X67400000Y-57000000D03*
X68200000Y-57000000D03*
X69000000Y-57000000D03*
X69800000Y-57000000D03*
X70600000Y-57000000D03*
X71400000Y-57000000D03*
X72200000Y-57000000D03*
X73000000Y-57000000D03*
X73800000Y-57000000D03*
X74600000Y-57000000D03*
X75400000Y-57000000D03*
X76200000Y-57000000D03*
X77000000Y-57000000D03*
X77800000Y-57000000D03*
X78600000Y-57000000D03*
X79400000Y-57000000D03*
X80200000Y-57000000D03*
X81000000Y-57000000D03*
X81800000Y-57000000D03*
X82600000Y-57000000D03*
X83400000Y-57000000D03*
X84200000Y-57000000D03*
X85000000Y-57000000D03*
X85800000Y-57000000D03*
X86600000Y-57000000D03*
X87400000Y-57000000D03*
X88200000Y-57000000D03*
X89000000Y-57000000D03*
X89800000Y-57000000D03*
X90600000Y-57000000D03*
X91400000Y-57000000D03*
X92200000Y-57000000D03*
X93000000Y-57000000D03*
X93800000Y-57000000D03*
X94600000Y-57000000D03*
X55400000Y-57800000D03*
X56200000Y-57800000D03*
X57000000Y-57800000D03*
X57800000Y-57800000D03*
X58600000Y-57800000D03*
X59400000Y-57800000D03*
X60200000Y-57800000D03*
X61000000Y-57800000D03*
X61800000Y-57800000D03*
X62600000Y-57800000D03*
X63400000Y-57800000D03*
X64200000Y-57800000D03*
X65000000Y-57800000D03*
X65800000Y-57800000D03*
X66600000Y-57800000D03*
X67400000Y-57800000D03*
X68200000Y-57800000D03*
X69000000Y-57800000D03*
X69800000Y-57800000D03*
X70600000Y-57800000D03*
X71400000Y-57800000D03*
X72200000Y-57800000D03*
X73000000Y-57800000D03*
X73800000Y-57800000D03*
X74600000Y-57800000D03*
X75400000Y-57800000D03*
X76200000Y-57800000D03*
X77000000Y-57800000D03*
X77800000Y-57800000D03*
X78600000Y-57800000D03*
X79400000Y-57800000D03*
X80200000Y-57800000D03*
X81000000Y-57800000D03*
X81800000Y-57800000D03*
X82600000Y-57800000D03*
X83400000Y-57800000D03*
X84200000Y-57800000D03*
X85000000Y-57800000D03*
X85800000Y-57800000D03*
X86600000Y-57800000D03*
X87400000Y-57800000D03*
X88200000Y-57800000D03*
X89000000Y-57800000D03*
X89800000Y-57800000D03*
X90600000Y-57800000D03*
X91400000Y-57800000D03*
X92200000Y-57800000D03*
X93000000Y-57800000D03*
X93800000Y-57800000D03*
X94600000Y-57800000D03*
X55400000Y-58600000D03*
X56200000Y-58600000D03*
X57000000Y-58600000D03*
X57800000Y-58600000D03*
X58600000Y-58600000D03*
X59400000Y-58600000D03*
X60200000Y-58600000D03*
X61000000Y-58600000D03*
X61800000Y-58600000D03*
X62600000Y-58600000D03*
X63400000Y-58600000D03*
X64200000Y-58600000D03*
X65000000Y-58600000D03*
X65800000Y-58600000D03*
X66600000Y-58600000D03*
X67400000Y-58600000D03*
X68200000Y-58600000D03*
X69000000Y-58600000D03*
X69800000Y-58600000D03*
X70600000Y-58600000D03*
X71400000Y-58600000D03*
X72200000Y-58600000D03*
X73000000Y-58600000D03*
X73800000Y-58600000D03*
X74600000Y-58600000D03*
X75400000Y-58600000D03*
X76200000Y-58600000D03*
X77000000Y-58600000D03*
X77800000Y-58600000D03*
X78600000Y-58600000D03*
X79400000Y-58600000D03*
X80200000Y-58600000D03*
X81000000Y-58600000D03*
X81800000Y-58600000D03*
X82600000Y-58600000D03*
X83400000Y-58600000D03*
X84200000Y-58600000D03*
X85000000Y-58600000D03*
X85800000Y-58600000D03*
X86600000Y-58600000D03*
X87400000Y-58600000D03*
X88200000Y-58600000D03*
X89000000Y-58600000D03*
X89800000Y-58600000D03*
X90600000Y-58600000D03*
X91400000Y-58600000D03*
X92200000Y-58600000D03*
X93000000Y-58600000D03*
X93800000Y-58600000D03*
X94600000Y-58600000D03*
X55400000Y-59400000D03*
X56200000Y-59400000D03*
X57000000Y-59400000D03*
X57800000Y-59400000D03*
X58600000Y-59400000D03*
X59400000Y-59400000D03*
X60200000Y-59400000D03*
X61000000Y-59400000D03*
X61800000Y-59400000D03*
X62600000Y-59400000D03*
X63400000Y-59400000D03*
X64200000Y-59400000D03*
X65000000Y-59400000D03*
X65800000Y-59400000D03*
X66600000Y-59400000D03*
X67400000Y-59400000D03*
X68200000Y-59400000D03*
X69000000Y-59400000D03*
X69800000Y-59400000D03*
X70600000Y-59400000D03*
X71400000Y-59400000D03*
X72200000Y-59400000D03*
X73000000Y-59400000D03*
X73800000Y-59400000D03*
X74600000Y-59400000D03*
X75400000Y-59400000D03*
X76200000Y-59400000D03*
X77000000Y-59400000D03*
X77800000Y-59400000D03*
X78600000Y-59400000D03*
X79400000Y-59400000D03*
X80200000Y-59400000D03*
X81000000Y-59400000D03*
X81800000Y-59400000D03*
X82600000Y-59400000D03*
X83400000Y-59400000D03*
X84200000Y-59400000D03*
X85000000Y-59400000D03*
X85800000Y-59400000D03*
X86600000Y-59400000D03*
X87400000Y-59400000D03*
X88200000Y-59400000D03*
X89000000Y-59400000D03*
X89800000Y-59400000D03*
X90600000Y-59400000D03*
X91400000Y-59400000D03*
X92200000Y-59400000D03*
X93000000Y-59400000D03*
X93800000Y-59400000D03*
X94600000Y-59400000D03*
X55400000Y-60200000D03*
X56200000Y-60200000D03*
X57000000Y-60200000D03*
X57800000Y-60200000D03*
X58600000Y-60200000D03*
X59400000Y-60200000D03*
X60200000Y-60200000D03*
X61000000Y-60200000D03*
X61800000Y-60200000D03*
X62600000Y-60200000D03*
X63400000Y-60200000D03*
X64200000Y-60200000D03*
X65000000Y-60200000D03*
X65800000Y-60200000D03*
X66600000Y-60200000D03*
X67400000Y-60200000D03*
X68200000Y-60200000D03*
X69000000Y-60200000D03*
X69800000Y-60200000D03*
X70600000Y-60200000D03*
X71400000Y-60200000D03*
X72200000Y-60200000D03*
X73000000Y-60200000D03*
X73800000Y-60200000D03*
X74600000Y-60200000D03*
X75400000Y-60200000D03*
X76200000Y-60200000D03*
X77000000Y-60200000D03*
X77800000Y-60200000D03*
X78600000Y-60200000D03*
X79400000Y-60200000D03*
X80200000Y-60200000D03*
X81000000Y-60200000D03*
X81800000Y-60200000D03*
X82600000Y-60200000D03*
X83400000Y-60200000D03*
X84200000Y-60200000D03*
X85000000Y-60200000D03*
X85800000Y-60200000D03*
X86600000Y-60200000D03*
X87400000Y-60200000D03*
X88200000Y-60200000D03*
X89000000Y-60200000D03*
X89800000Y-60200000D03*
X90600000Y-60200000D03*
X91400000Y-60200000D03*
X92200000Y-60200000D03*
X93000000Y-60200000D03*
X93800000Y-60200000D03*
X94600000Y-60200000D03*
X55400000Y-61000000D03*
X56200000Y-61000000D03*
X57000000Y-61000000D03*
X57800000Y-61000000D03*
X58600000Y-61000000D03*
X59400000Y-61000000D03*
X60200000Y-61000000D03*
X61000000Y-61000000D03*
X61800000Y-61000000D03*
X62600000Y-61000000D03*
X63400000Y-61000000D03*
X64200000Y-61000000D03*
X65000000Y-61000000D03*
X65800000Y-61000000D03*
X66600000Y-61000000D03*
X67400000Y-61000000D03*
X68200000Y-61000000D03*
X69000000Y-61000000D03*
X69800000Y-61000000D03*
X70600000Y-61000000D03*
X71400000Y-61000000D03*
X72200000Y-61000000D03*
X73000000Y-61000000D03*
X73800000Y-61000000D03*
X74600000Y-61000000D03*
X75400000Y-61000000D03*
X76200000Y-61000000D03*
X77000000Y-61000000D03*
X77800000Y-61000000D03*
X78600000Y-61000000D03*
X79400000Y-61000000D03*
X80200000Y-61000000D03*
X81000000Y-61000000D03*
X81800000Y-61000000D03*
X82600000Y-61000000D03*
X83400000Y-61000000D03*
X84200000Y-61000000D03*
X85000000Y-61000000D03*
X85800000Y-61000000D03*
X86600000Y-61000000D03*
X87400000Y-61000000D03*
X88200000Y-61000000D03*
X89000000Y-61000000D03*
X89800000Y-61000000D03*
X90600000Y-61000000D03*
X91400000Y-61000000D03*
X92200000Y-61000000D03*
X93000000Y-61000000D03*
X93800000Y-61000000D03*
X94600000Y-61000000D03*
X55400000Y-61800000D03*
X56200000Y-61800000D03*
X57000000Y-61800000D03*
X57800000Y-61800000D03*
X58600000Y-61800000D03*
X59400000Y-61800000D03*
X60200000Y-61800000D03*
X61000000Y-61800000D03*
X61800000Y-61800000D03*
X62600000Y-61800000D03*
X63400000Y-61800000D03*
X64200000Y-61800000D03*
X65000000Y-61800000D03*
X65800000Y-61800000D03*
X66600000Y-61800000D03*
X67400000Y-61800000D03*
X68200000Y-61800000D03*
X69000000Y-61800000D03*
X69800000Y-61800000D03*
X70600000Y-61800000D03*
X71400000Y-61800000D03*
X72200000Y-61800000D03*
X73000000Y-61800000D03*
X73800000Y-61800000D03*
X74600000Y-61800000D03*
X75400000Y-61800000D03*
X76200000Y-61800000D03*
X77000000Y-61800000D03*
X77800000Y-61800000D03*
X78600000Y-61800000D03*
X79400000Y-61800000D03*
X80200000Y-61800000D03*
X81000000Y-61800000D03*
X81800000Y-61800000D03*
X82600000Y-61800000D03*
X83400000Y-61800000D03*
X84200000Y-61800000D03*
X85000000Y-61800000D03*
X85800000Y-61800000D03*
X86600000Y-61800000D03*
X87400000Y-61800000D03*
X88200000Y-61800000D03*
X89000000Y-61800000D03*
X89800000Y-61800000D03*
X90600000Y-61800000D03*
X91400000Y-61800000D03*
X92200000Y-61800000D03*
X93000000Y-61800000D03*
X93800000Y-61800000D03*
X94600000Y-61800000D03*
X55400000Y-62600000D03*
X56200000Y-62600000D03*
X57000000Y-62600000D03*
X57800000Y-62600000D03*
X58600000Y-62600000D03*
X59400000Y-62600000D03*
X60200000Y-62600000D03*
X61000000Y-62600000D03*
X61800000Y-62600000D03*
X62600000Y-62600000D03*
X63400000Y-62600000D03*
X64200000Y-62600000D03*
X65000000Y-62600000D03*
X65800000Y-62600000D03*
X66600000Y-62600000D03*
X67400000Y-62600000D03*
X68200000Y-62600000D03*
X69000000Y-62600000D03*
X69800000Y-62600000D03*
X70600000Y-62600000D03*
X71400000Y-62600000D03*
X72200000Y-62600000D03*
X73000000Y-62600000D03*
X73800000Y-62600000D03*
X74600000Y-62600000D03*
X75400000Y-62600000D03*
X76200000Y-62600000D03*
X77000000Y-62600000D03*
X77800000Y-62600000D03*
X78600000Y-62600000D03*
X79400000Y-62600000D03*
X80200000Y-62600000D03*
X81000000Y-62600000D03*
X81800000Y-62600000D03*
X82600000Y-62600000D03*
X83400000Y-62600000D03*
X84200000Y-62600000D03*
X85000000Y-62600000D03*
X85800000Y-62600000D03*
X86600000Y-62600000D03*
X87400000Y-62600000D03*
X88200000Y-62600000D03*
X89000000Y-62600000D03*
X89800000Y-62600000D03*
X90600000Y-62600000D03*
X91400000Y-62600000D03*
X92200000Y-62600000D03*
X93000000Y-62600000D03*
X93800000Y-62600000D03*
X94600000Y-62600000D03*
X55400000Y-63400000D03*
X56200000Y-63400000D03*
X57000000Y-63400000D03*
X57800000Y-63400000D03*
X58600000Y-63400000D03*
X59400000Y-63400000D03*
X60200000Y-63400000D03*
X61000000Y-63400000D03*
X61800000Y-63400000D03*
X62600000Y-63400000D03*
X63400000Y-63400000D03*
X64200000Y-63400000D03*
X65000000Y-63400000D03*
X65800000Y-63400000D03*
X66600000Y-63400000D03*
X67400000Y-63400000D03*
X68200000Y-63400000D03*
X69000000Y-63400000D03*
X69800000Y-63400000D03*
X70600000Y-63400000D03*
X71400000Y-63400000D03*
X72200000Y-63400000D03*
X73000000Y-63400000D03*
X73800000Y-63400000D03*
X74600000Y-63400000D03*
X75400000Y-63400000D03*
X76200000Y-63400000D03*
X77000000Y-63400000D03*
X77800000Y-63400000D03*
X78600000Y-63400000D03*
X79400000Y-63400000D03*
X80200000Y-63400000D03*
X81000000Y-63400000D03*
X81800000Y-63400000D03*
X82600000Y-63400000D03*
X83400000Y-63400000D03*
X84200000Y-63400000D03*
X85000000Y-63400000D03*
X85800000Y-63400000D03*
X86600000Y-63400000D03*
X87400000Y-63400000D03*
X88200000Y-63400000D03*
X89000000Y-63400000D03*
X89800000Y-63400000D03*
X90600000Y-63400000D03*
X91400000Y-63400000D03*
X92200000Y-63400000D03*
X93000000Y-63400000D03*
X93800000Y-63400000D03*
X94600000Y-63400000D03*
X55400000Y-64200000D03*
X56200000Y-64200000D03*
X57000000Y-64200000D03*
X57800000Y-64200000D03*
X58600000Y-64200000D03*
X59400000Y-64200000D03*
X60200000Y-64200000D03*
X61000000Y-64200000D03*
X61800000Y-64200000D03*
X62600000Y-64200000D03*
X63400000Y-64200000D03*
X64200000Y-64200000D03*
X65000000Y-64200000D03*
X65800000Y-64200000D03*
X66600000Y-64200000D03*
X67400000Y-64200000D03*
X68200000Y-64200000D03*
X69000000Y-64200000D03*
X69800000Y-64200000D03*
X70600000Y-64200000D03*
X71400000Y-64200000D03*
X72200000Y-64200000D03*
X73000000Y-64200000D03*
X73800000Y-64200000D03*
X74600000Y-64200000D03*
X75400000Y-64200000D03*
X76200000Y-64200000D03*
X77000000Y-64200000D03*
X77800000Y-64200000D03*
X78600000Y-64200000D03*
X79400000Y-64200000D03*
X80200000Y-64200000D03*
X81000000Y-64200000D03*
X81800000Y-64200000D03*
X82600000Y-64200000D03*
X83400000Y-64200000D03*
X84200000Y-64200000D03*
X85000000Y-64200000D03*
X85800000Y-64200000D03*
X86600000Y-64200000D03*
X87400000Y-64200000D03*
X88200000Y-64200000D03*
X89000000Y-64200000D03*
X89800000Y-64200000D03*
X90600000Y-64200000D03*
X91400000Y-64200000D03*
X92200000Y-64200000D03*
X93000000Y-64200000D03*
X93800000Y-64200000D03*
X94600000Y-64200000D03*
X55400000Y-65000000D03*
X56200000Y-65000000D03*
X57000000Y-65000000D03*
X57800000Y-65000000D03*
X58600000Y-65000000D03*
X59400000Y-65000000D03*
X60200000Y-65000000D03*
X61000000Y-65000000D03*
X61800000Y-65000000D03*
X62600000Y-65000000D03*
X63400000Y-65000000D03*
X64200000Y-65000000D03*
X65000000Y-65000000D03*
X65800000Y-65000000D03*
X66600000Y-65000000D03*
X67400000Y-65000000D03*
X68200000Y-65000000D03*
X69000000Y-65000000D03*
X69800000Y-65000000D03*
X70600000Y-65000000D03*
X71400000Y-65000000D03*
X72200000Y-65000000D03*
X73000000Y-65000000D03*
X73800000Y-65000000D03*
X74600000Y-65000000D03*
X75400000Y-65000000D03*
X76200000Y-65000000D03*
X77000000Y-65000000D03*
X77800000Y-65000000D03*
X78600000Y-65000000D03*
X79400000Y-65000000D03*
X80200000Y-65000000D03*
X81000000Y-65000000D03*
X81800000Y-65000000D03*
X82600000Y-65000000D03*
X83400000Y-65000000D03*
X84200000Y-65000000D03*
X85000000Y-65000000D03*
X85800000Y-65000000D03*
X86600000Y-65000000D03*
X87400000Y-65000000D03*
X88200000Y-65000000D03*
X89000000Y-65000000D03*
X89800000Y-65000000D03*
X90600000Y-65000000D03*
X91400000Y-65000000D03*
X92200000Y-65000000D03*
X93000000Y-65000000D03*
X93800000Y-65000000D03*
X94600000Y-65000000D03*
X55400000Y-65800000D03*
X56200000Y-65800000D03*
X57000000Y-65800000D03*
X57800000Y-65800000D03*
X58600000Y-65800000D03*
X59400000Y-65800000D03*
X60200000Y-65800000D03*
X61000000Y-65800000D03*
X61800000Y-65800000D03*
X62600000Y-65800000D03*
X63400000Y-65800000D03*
X64200000Y-65800000D03*
X65000000Y-65800000D03*
X65800000Y-65800000D03*
X66600000Y-65800000D03*
X67400000Y-65800000D03*
X68200000Y-65800000D03*
X69000000Y-65800000D03*
X69800000Y-65800000D03*
X70600000Y-65800000D03*
X71400000Y-65800000D03*
X72200000Y-65800000D03*
X73000000Y-65800000D03*
X73800000Y-65800000D03*
X74600000Y-65800000D03*
X75400000Y-65800000D03*
X76200000Y-65800000D03*
X77000000Y-65800000D03*
X77800000Y-65800000D03*
X78600000Y-65800000D03*
X79400000Y-65800000D03*
X80200000Y-65800000D03*
X81000000Y-65800000D03*
X81800000Y-65800000D03*
X82600000Y-65800000D03*
X83400000Y-65800000D03*
X84200000Y-65800000D03*
X85000000Y-65800000D03*
X85800000Y-65800000D03*
X86600000Y-65800000D03*
X87400000Y-65800000D03*
X88200000Y-65800000D03*
X89000000Y-65800000D03*
X89800000Y-65800000D03*
X90600000Y-65800000D03*
X91400000Y-65800000D03*
X92200000Y-65800000D03*
X93000000Y-65800000D03*
X93800000Y-65800000D03*
X94600000Y-65800000D03*
X55400000Y-66600000D03*
X56200000Y-66600000D03*
X57000000Y-66600000D03*
X57800000Y-66600000D03*
X58600000Y-66600000D03*
X59400000Y-66600000D03*
X60200000Y-66600000D03*
X61000000Y-66600000D03*
X61800000Y-66600000D03*
X62600000Y-66600000D03*
X63400000Y-66600000D03*
X64200000Y-66600000D03*
X65000000Y-66600000D03*
X65800000Y-66600000D03*
X66600000Y-66600000D03*
X67400000Y-66600000D03*
X68200000Y-66600000D03*
X69000000Y-66600000D03*
X69800000Y-66600000D03*
X70600000Y-66600000D03*
X71400000Y-66600000D03*
X72200000Y-66600000D03*
X73000000Y-66600000D03*
X73800000Y-66600000D03*
X74600000Y-66600000D03*
X75400000Y-66600000D03*
X76200000Y-66600000D03*
X77000000Y-66600000D03*
X77800000Y-66600000D03*
X78600000Y-66600000D03*
X79400000Y-66600000D03*
X80200000Y-66600000D03*
X81000000Y-66600000D03*
X81800000Y-66600000D03*
X82600000Y-66600000D03*
X83400000Y-66600000D03*
X84200000Y-66600000D03*
X85000000Y-66600000D03*
X85800000Y-66600000D03*
X86600000Y-66600000D03*
X87400000Y-66600000D03*
X88200000Y-66600000D03*
X89000000Y-66600000D03*
X89800000Y-66600000D03*
X90600000Y-66600000D03*
X91400000Y-66600000D03*
X92200000Y-66600000D03*
X93000000Y-66600000D03*
X93800000Y-66600000D03*
X94600000Y-66600000D03*
X55400000Y-67400000D03*
X56200000Y-67400000D03*
X57000000Y-67400000D03*
X57800000Y-67400000D03*
X58600000Y-67400000D03*
X59400000Y-67400000D03*
X60200000Y-67400000D03*
X61000000Y-67400000D03*
X61800000Y-67400000D03*
X62600000Y-67400000D03*
X63400000Y-67400000D03*
X64200000Y-67400000D03*
X65000000Y-67400000D03*
X65800000Y-67400000D03*
X66600000Y-67400000D03*
X67400000Y-67400000D03*
X68200000Y-67400000D03*
X69000000Y-67400000D03*
X69800000Y-67400000D03*
X70600000Y-67400000D03*
X71400000Y-67400000D03*
X72200000Y-67400000D03*
X73000000Y-67400000D03*
X73800000Y-67400000D03*
X74600000Y-67400000D03*
X75400000Y-67400000D03*
X76200000Y-67400000D03*
X77000000Y-67400000D03*
X77800000Y-67400000D03*
X78600000Y-67400000D03*
X79400000Y-67400000D03*
X80200000Y-67400000D03*
X81000000Y-67400000D03*
X81800000Y-67400000D03*
X82600000Y-67400000D03*
X83400000Y-67400000D03*
X84200000Y-67400000D03*
X85000000Y-67400000D03*
X85800000Y-67400000D03*
X86600000Y-67400000D03*
X87400000Y-67400000D03*
X88200000Y-67400000D03*
X89000000Y-67400000D03*
X89800000Y-67400000D03*
X90600000Y-67400000D03*
X91400000Y-67400000D03*
X92200000Y-67400000D03*
X93000000Y-67400000D03*
X93800000Y-67400000D03*
X94600000Y-67400000D03*
X55400000Y-68200000D03*
X56200000Y-68200000D03*
X57000000Y-68200000D03*
X57800000Y-68200000D03*
X58600000Y-68200000D03*
X59400000Y-68200000D03*
X60200000Y-68200000D03*
X61000000Y-68200000D03*
X61800000Y-68200000D03*
X62600000Y-68200000D03*
X63400000Y-68200000D03*
X64200000Y-68200000D03*
X65000000Y-68200000D03*
X65800000Y-68200000D03*
X66600000Y-68200000D03*
X67400000Y-68200000D03*
X68200000Y-68200000D03*
X69000000Y-68200000D03*
X69800000Y-68200000D03*
X70600000Y-68200000D03*
X71400000Y-68200000D03*
X72200000Y-68200000D03*
X73000000Y-68200000D03*
X73800000Y-68200000D03*
X74600000Y-68200000D03*
X75400000Y-68200000D03*
X76200000Y-68200000D03*
X77000000Y-68200000D03*
X77800000Y-68200000D03*
X78600000Y-68200000D03*
X79400000Y-68200000D03*
X80200000Y-68200000D03*
X81000000Y-68200000D03*
X81800000Y-68200000D03*
X82600000Y-68200000D03*
X83400000Y-68200000D03*
X84200000Y-68200000D03*
X85000000Y-68200000D03*
X85800000Y-68200000D03*
X86600000Y-68200000D03*
X87400000Y-68200000D03*
X88200000Y-68200000D03*
X89000000Y-68200000D03*
X89800000Y-68200000D03*
X90600000Y-68200000D03*
X91400000Y-68200000D03*
X92200000Y-68200000D03*
X93000000Y-68200000D03*
X93800000Y-68200000D03*
X94600000Y-68200000D03*
X55400000Y-69000000D03*
X56200000Y-69000000D03*
X57000000Y-69000000D03*
X57800000Y-69000000D03*
X58600000Y-69000000D03*
X59400000Y-69000000D03*
X60200000Y-69000000D03*
X61000000Y-69000000D03*
X61800000Y-69000000D03*
X62600000Y-69000000D03*
X63400000Y-69000000D03*
X64200000Y-69000000D03*
X65000000Y-69000000D03*
X65800000Y-69000000D03*
X66600000Y-69000000D03*
X67400000Y-69000000D03*
X68200000Y-69000000D03*
X69000000Y-69000000D03*
X69800000Y-69000000D03*
X70600000Y-69000000D03*
X71400000Y-69000000D03*
X72200000Y-69000000D03*
X73000000Y-69000000D03*
X73800000Y-69000000D03*
X74600000Y-69000000D03*
X75400000Y-69000000D03*
X76200000Y-69000000D03*
X77000000Y-69000000D03*
X77800000Y-69000000D03*
X78600000Y-69000000D03*
X79400000Y-69000000D03*
X80200000Y-69000000D03*
X81000000Y-69000000D03*
X81800000Y-69000000D03*
X82600000Y-69000000D03*
X83400000Y-69000000D03*
X84200000Y-69000000D03*
X85000000Y-69000000D03*
X85800000Y-69000000D03*
X86600000Y-69000000D03*
X87400000Y-69000000D03*
X88200000Y-69000000D03*
X89000000Y-69000000D03*
X89800000Y-69000000D03*
X90600000Y-69000000D03*
X91400000Y-69000000D03*
X92200000Y-69000000D03*
X93000000Y-69000000D03*
X93800000Y-69000000D03*
X94600000Y-69000000D03*
X55400000Y-69800000D03*
X56200000Y-69800000D03*
X57000000Y-69800000D03*
X57800000Y-69800000D03*
X58600000Y-69800000D03*
X59400000Y-69800000D03*
X60200000Y-69800000D03*
X61000000Y-69800000D03*
X61800000Y-69800000D03*
X62600000Y-69800000D03*
X63400000Y-69800000D03*
X64200000Y-69800000D03*
X65000000Y-69800000D03*
X65800000Y-69800000D03*
X66600000Y-69800000D03*
X67400000Y-69800000D03*
X68200000Y-69800000D03*
X69000000Y-69800000D03*
X69800000Y-69800000D03*
X70600000Y-69800000D03*
X71400000Y-69800000D03*
X72200000Y-69800000D03*
X73000000Y-69800000D03*
X73800000Y-69800000D03*
X74600000Y-69800000D03*
X75400000Y-69800000D03*
X76200000Y-69800000D03*
X77000000Y-69800000D03*
X77800000Y-69800000D03*
X78600000Y-69800000D03*
X79400000Y-69800000D03*
X80200000Y-69800000D03*
X81000000Y-69800000D03*
X81800000Y-69800000D03*
X82600000Y-69800000D03*
X83400000Y-69800000D03*
X84200000Y-69800000D03*
X85000000Y-69800000D03*
X85800000Y-69800000D03*
X86600000Y-69800000D03*
X87400000Y-69800000D03*
X88200000Y-69800000D03*
X89000000Y-69800000D03*
X89800000Y-69800000D03*
X90600000Y-69800000D03*
X91400000Y-69800000D03*
X92200000Y-69800000D03*
X93000000Y-69800000D03*
X93800000Y-69800000D03*
X94600000Y-69800000D03*
X55400000Y-70600000D03*
X56200000Y-70600000D03*
X57000000Y-70600000D03*
X57800000Y-70600000D03*
X58600000Y-70600000D03*
X59400000Y-70600000D03*
X60200000Y-70600000D03*
X61000000Y-70600000D03*
X61800000Y-70600000D03*
X62600000Y-70600000D03*
X63400000Y-70600000D03*
X64200000Y-70600000D03*
X65000000Y-70600000D03*
X65800000Y-70600000D03*
X66600000Y-70600000D03*
X67400000Y-70600000D03*
X68200000Y-70600000D03*
X69000000Y-70600000D03*
X69800000Y-70600000D03*
X70600000Y-70600000D03*
X71400000Y-70600000D03*
X72200000Y-70600000D03*
X73000000Y-70600000D03*
X73800000Y-70600000D03*
X74600000Y-70600000D03*
X75400000Y-70600000D03*
X76200000Y-70600000D03*
X77000000Y-70600000D03*
X77800000Y-70600000D03*
X78600000Y-70600000D03*
X79400000Y-70600000D03*
X80200000Y-70600000D03*
X81000000Y-70600000D03*
X81800000Y-70600000D03*
X82600000Y-70600000D03*
X83400000Y-70600000D03*
X84200000Y-70600000D03*
X85000000Y-70600000D03*
X85800000Y-70600000D03*
X86600000Y-70600000D03*
X87400000Y-70600000D03*
X88200000Y-70600000D03*
X89000000Y-70600000D03*
X89800000Y-70600000D03*
X90600000Y-70600000D03*
X91400000Y-70600000D03*
X92200000Y-70600000D03*
X93000000Y-70600000D03*
X93800000Y-70600000D03*
X94600000Y-70600000D03*
X55400000Y-71400000D03*
X56200000Y-71400000D03*
X57000000Y-71400000D03*
X57800000Y-71400000D03*
X58600000Y-71400000D03*
X59400000Y-71400000D03*
X60200000Y-71400000D03*
X61000000Y-71400000D03*
X61800000Y-71400000D03*
X62600000Y-71400000D03*
X63400000Y-71400000D03*
X64200000Y-71400000D03*
X65000000Y-71400000D03*
X65800000Y-71400000D03*
X66600000Y-71400000D03*
X67400000Y-71400000D03*
X68200000Y-71400000D03*
X69000000Y-71400000D03*
X69800000Y-71400000D03*
X70600000Y-71400000D03*
X71400000Y-71400000D03*
X72200000Y-71400000D03*
X73000000Y-71400000D03*
X73800000Y-71400000D03*
X74600000Y-71400000D03*
X75400000Y-71400000D03*
X76200000Y-71400000D03*
X77000000Y-71400000D03*
X77800000Y-71400000D03*
X78600000Y-71400000D03*
X79400000Y-71400000D03*
X80200000Y-71400000D03*
X81000000Y-71400000D03*
X81800000Y-71400000D03*
X82600000Y-71400000D03*
X83400000Y-71400000D03*
X84200000Y-71400000D03*
X85000000Y-71400000D03*
X85800000Y-71400000D03*
X86600000Y-71400000D03*
X87400000Y-71400000D03*
X88200000Y-71400000D03*
X89000000Y-71400000D03*
X89800000Y-71400000D03*
X90600000Y-71400000D03*
X91400000Y-71400000D03*
X92200000Y-71400000D03*
X93000000Y-71400000D03*
X93800000Y-71400000D03*
X94600000Y-71400000D03*
X55400000Y-72200000D03*
X56200000Y-72200000D03*
X57000000Y-72200000D03*
X57800000Y-72200000D03*
X58600000Y-72200000D03*
X59400000Y-72200000D03*
X60200000Y-72200000D03*
X61000000Y-72200000D03*
X61800000Y-72200000D03*
X62600000Y-72200000D03*
X63400000Y-72200000D03*
X64200000Y-72200000D03*
X65000000Y-72200000D03*
X65800000Y-72200000D03*
X66600000Y-72200000D03*
X67400000Y-72200000D03*
X68200000Y-72200000D03*
X69000000Y-72200000D03*
X69800000Y-72200000D03*
X70600000Y-72200000D03*
X71400000Y-72200000D03*
X72200000Y-72200000D03*
X73000000Y-72200000D03*
X73800000Y-72200000D03*
X74600000Y-72200000D03*
X75400000Y-72200000D03*
X76200000Y-72200000D03*
X77000000Y-72200000D03*
X77800000Y-72200000D03*
X78600000Y-72200000D03*
X79400000Y-72200000D03*
X80200000Y-72200000D03*
X81000000Y-72200000D03*
X81800000Y-72200000D03*
X82600000Y-72200000D03*
X83400000Y-72200000D03*
X84200000Y-72200000D03*
X85000000Y-72200000D03*
X85800000Y-72200000D03*
X86600000Y-72200000D03*
X87400000Y-72200000D03*
X88200000Y-72200000D03*
X89000000Y-72200000D03*
X89800000Y-72200000D03*
X90600000Y-72200000D03*
X91400000Y-72200000D03*
X92200000Y-72200000D03*
X93000000Y-72200000D03*
X93800000Y-72200000D03*
X94600000Y-72200000D03*
X55400000Y-73000000D03*
X56200000Y-73000000D03*
X57000000Y-73000000D03*
X57800000Y-73000000D03*
X58600000Y-73000000D03*
X59400000Y-73000000D03*
X60200000Y-73000000D03*
X61000000Y-73000000D03*
X61800000Y-73000000D03*
X62600000Y-73000000D03*
X63400000Y-73000000D03*
X64200000Y-73000000D03*
X65000000Y-73000000D03*
X65800000Y-73000000D03*
X66600000Y-73000000D03*
X67400000Y-73000000D03*
X68200000Y-73000000D03*
X69000000Y-73000000D03*
X69800000Y-73000000D03*
X70600000Y-73000000D03*
X71400000Y-73000000D03*
X72200000Y-73000000D03*
X73000000Y-73000000D03*
X73800000Y-73000000D03*
X74600000Y-73000000D03*
X75400000Y-73000000D03*
X76200000Y-73000000D03*
X77000000Y-73000000D03*
X77800000Y-73000000D03*
X78600000Y-73000000D03*
X79400000Y-73000000D03*
X80200000Y-73000000D03*
X81000000Y-73000000D03*
X81800000Y-73000000D03*
X82600000Y-73000000D03*
X83400000Y-73000000D03*
X84200000Y-73000000D03*
X85000000Y-73000000D03*
X85800000Y-73000000D03*
X86600000Y-73000000D03*
X87400000Y-73000000D03*
X88200000Y-73000000D03*
X89000000Y-73000000D03*
X89800000Y-73000000D03*
X90600000Y-73000000D03*
X91400000Y-73000000D03*
X92200000Y-73000000D03*
X93000000Y-73000000D03*
X93800000Y-73000000D03*
X94600000Y-73000000D03*
X55400000Y-73800000D03*
X56200000Y-73800000D03*
X57000000Y-73800000D03*
X57800000Y-73800000D03*
X58600000Y-73800000D03*
X59400000Y-73800000D03*
X60200000Y-73800000D03*
X61000000Y-73800000D03*
X61800000Y-73800000D03*
X62600000Y-73800000D03*
X63400000Y-73800000D03*
X64200000Y-73800000D03*
X65000000Y-73800000D03*
X65800000Y-73800000D03*
X66600000Y-73800000D03*
X67400000Y-73800000D03*
X68200000Y-73800000D03*
X69000000Y-73800000D03*
X69800000Y-73800000D03*
X70600000Y-73800000D03*
X71400000Y-73800000D03*
X72200000Y-73800000D03*
X73000000Y-73800000D03*
X73800000Y-73800000D03*
X74600000Y-73800000D03*
X75400000Y-73800000D03*
X76200000Y-73800000D03*
X77000000Y-73800000D03*
X77800000Y-73800000D03*
X78600000Y-73800000D03*
X79400000Y-73800000D03*
X80200000Y-73800000D03*
X81000000Y-73800000D03*
X81800000Y-73800000D03*
X82600000Y-73800000D03*
X83400000Y-73800000D03*
X84200000Y-73800000D03*
X85000000Y-73800000D03*
X85800000Y-73800000D03*
X86600000Y-73800000D03*
X87400000Y-73800000D03*
X88200000Y-73800000D03*
X89000000Y-73800000D03*
X89800000Y-73800000D03*
X90600000Y-73800000D03*
X91400000Y-73800000D03*
X92200000Y-73800000D03*
X93000000Y-73800000D03*
X93800000Y-73800000D03*
X94600000Y-73800000D03*
X55400000Y-74600000D03*
X56200000Y-74600000D03*
X57000000Y-74600000D03*
X57800000Y-74600000D03*
X58600000Y-74600000D03*
X59400000Y-74600000D03*
X60200000Y-74600000D03*
X61000000Y-74600000D03*
X61800000Y-74600000D03*
X62600000Y-74600000D03*
X63400000Y-74600000D03*
X64200000Y-74600000D03*
X65000000Y-74600000D03*
X65800000Y-74600000D03*
X66600000Y-74600000D03*
X67400000Y-74600000D03*
X68200000Y-74600000D03*
X69000000Y-74600000D03*
X69800000Y-74600000D03*
X70600000Y-74600000D03*
X71400000Y-74600000D03*
X72200000Y-74600000D03*
X73000000Y-74600000D03*
X73800000Y-74600000D03*
X74600000Y-74600000D03*
X75400000Y-74600000D03*
X76200000Y-74600000D03*
X77000000Y-74600000D03*
X77800000Y-74600000D03*
X78600000Y-74600000D03*
X79400000Y-74600000D03*
X80200000Y-74600000D03*
X81000000Y-74600000D03*
X81800000Y-74600000D03*
X82600000Y-74600000D03*
X83400000Y-74600000D03*
X84200000Y-74600000D03*
X85000000Y-74600000D03*
X85800000Y-74600000D03*
X86600000Y-74600000D03*
X87400000Y-74600000D03*
X88200000Y-74600000D03*
X89000000Y-74600000D03*
X89800000Y-74600000D03*
X90600000Y-74600000D03*
X91400000Y-74600000D03*
X92200000Y-74600000D03*
X93000000Y-74600000D03*
X93800000Y-74600000D03*
X94600000Y-74600000D03*
%TD*%
%TO.C,U201*%
X200400000Y-35400000D03*
X201200000Y-35400000D03*
X202000000Y-35400000D03*
X202800000Y-35400000D03*
X203600000Y-35400000D03*
X204400000Y-35400000D03*
X205200000Y-35400000D03*
X206000000Y-35400000D03*
X206800000Y-35400000D03*
X207600000Y-35400000D03*
X208400000Y-35400000D03*
X209200000Y-35400000D03*
X210000000Y-35400000D03*
X210800000Y-35400000D03*
X211600000Y-35400000D03*
X212400000Y-35400000D03*
X213200000Y-35400000D03*
X214000000Y-35400000D03*
X214800000Y-35400000D03*
X215600000Y-35400000D03*
X216400000Y-35400000D03*
X217200000Y-35400000D03*
X218000000Y-35400000D03*
X218800000Y-35400000D03*
X219600000Y-35400000D03*
X220400000Y-35400000D03*
X221200000Y-35400000D03*
X222000000Y-35400000D03*
X222800000Y-35400000D03*
X223600000Y-35400000D03*
X224400000Y-35400000D03*
X225200000Y-35400000D03*
X226000000Y-35400000D03*
X226800000Y-35400000D03*
X227600000Y-35400000D03*
X228400000Y-35400000D03*
X229200000Y-35400000D03*
X230000000Y-35400000D03*
X230800000Y-35400000D03*
X231600000Y-35400000D03*
X232400000Y-35400000D03*
X233200000Y-35400000D03*
X234000000Y-35400000D03*
X234800000Y-35400000D03*
X235600000Y-35400000D03*
X236400000Y-35400000D03*
X237200000Y-35400000D03*
X238000000Y-35400000D03*
X238800000Y-35400000D03*
X239600000Y-35400000D03*
X200400000Y-36200000D03*
X201200000Y-36200000D03*
X202000000Y-36200000D03*
X202800000Y-36200000D03*
X203600000Y-36200000D03*
X204400000Y-36200000D03*
X205200000Y-36200000D03*
X206000000Y-36200000D03*
X206800000Y-36200000D03*
X207600000Y-36200000D03*
X208400000Y-36200000D03*
X209200000Y-36200000D03*
X210000000Y-36200000D03*
X210800000Y-36200000D03*
X211600000Y-36200000D03*
X212400000Y-36200000D03*
X213200000Y-36200000D03*
X214000000Y-36200000D03*
X214800000Y-36200000D03*
X215600000Y-36200000D03*
X216400000Y-36200000D03*
X217200000Y-36200000D03*
X218000000Y-36200000D03*
X218800000Y-36200000D03*
X219600000Y-36200000D03*
X220400000Y-36200000D03*
X221200000Y-36200000D03*
X222000000Y-36200000D03*
X222800000Y-36200000D03*
X223600000Y-36200000D03*
X224400000Y-36200000D03*
X225200000Y-36200000D03*
X226000000Y-36200000D03*
X226800000Y-36200000D03*
X227600000Y-36200000D03*
X228400000Y-36200000D03*
X229200000Y-36200000D03*
X230000000Y-36200000D03*
X230800000Y-36200000D03*
X231600000Y-36200000D03*
X232400000Y-36200000D03*
X233200000Y-36200000D03*
X234000000Y-36200000D03*
X234800000Y-36200000D03*
X235600000Y-36200000D03*
X236400000Y-36200000D03*
X237200000Y-36200000D03*
X238000000Y-36200000D03*
X238800000Y-36200000D03*
X239600000Y-36200000D03*
X200400000Y-37000000D03*
X201200000Y-37000000D03*
X202000000Y-37000000D03*
X202800000Y-37000000D03*
X203600000Y-37000000D03*
X204400000Y-37000000D03*
X205200000Y-37000000D03*
X206000000Y-37000000D03*
X206800000Y-37000000D03*
X207600000Y-37000000D03*
X208400000Y-37000000D03*
X209200000Y-37000000D03*
X210000000Y-37000000D03*
X210800000Y-37000000D03*
X211600000Y-37000000D03*
X212400000Y-37000000D03*
X213200000Y-37000000D03*
X214000000Y-37000000D03*
X214800000Y-37000000D03*
X215600000Y-37000000D03*
X216400000Y-37000000D03*
X217200000Y-37000000D03*
X218000000Y-37000000D03*
X218800000Y-37000000D03*
X219600000Y-37000000D03*
X220400000Y-37000000D03*
X221200000Y-37000000D03*
X222000000Y-37000000D03*
X222800000Y-37000000D03*
X223600000Y-37000000D03*
X224400000Y-37000000D03*
X225200000Y-37000000D03*
X226000000Y-37000000D03*
X226800000Y-37000000D03*
X227600000Y-37000000D03*
X228400000Y-37000000D03*
X229200000Y-37000000D03*
X230000000Y-37000000D03*
X230800000Y-37000000D03*
X231600000Y-37000000D03*
X232400000Y-37000000D03*
X233200000Y-37000000D03*
X234000000Y-37000000D03*
X234800000Y-37000000D03*
X235600000Y-37000000D03*
X236400000Y-37000000D03*
X237200000Y-37000000D03*
X238000000Y-37000000D03*
X238800000Y-37000000D03*
X239600000Y-37000000D03*
X200400000Y-37800000D03*
X201200000Y-37800000D03*
X202000000Y-37800000D03*
X202800000Y-37800000D03*
X203600000Y-37800000D03*
X204400000Y-37800000D03*
X205200000Y-37800000D03*
X206000000Y-37800000D03*
X206800000Y-37800000D03*
X207600000Y-37800000D03*
X208400000Y-37800000D03*
X209200000Y-37800000D03*
X210000000Y-37800000D03*
X210800000Y-37800000D03*
X211600000Y-37800000D03*
X212400000Y-37800000D03*
X213200000Y-37800000D03*
X214000000Y-37800000D03*
X214800000Y-37800000D03*
X215600000Y-37800000D03*
X216400000Y-37800000D03*
X217200000Y-37800000D03*
X218000000Y-37800000D03*
X218800000Y-37800000D03*
X219600000Y-37800000D03*
X220400000Y-37800000D03*
X221200000Y-37800000D03*
X222000000Y-37800000D03*
X222800000Y-37800000D03*
X223600000Y-37800000D03*
X224400000Y-37800000D03*
X225200000Y-37800000D03*
X226000000Y-37800000D03*
X226800000Y-37800000D03*
X227600000Y-37800000D03*
X228400000Y-37800000D03*
X229200000Y-37800000D03*
X230000000Y-37800000D03*
X230800000Y-37800000D03*
X231600000Y-37800000D03*
X232400000Y-37800000D03*
X233200000Y-37800000D03*
X234000000Y-37800000D03*
X234800000Y-37800000D03*
X235600000Y-37800000D03*
X236400000Y-37800000D03*
X237200000Y-37800000D03*
X238000000Y-37800000D03*
X238800000Y-37800000D03*
X239600000Y-37800000D03*
X200400000Y-38600000D03*
X201200000Y-38600000D03*
X202000000Y-38600000D03*
X202800000Y-38600000D03*
X203600000Y-38600000D03*
X204400000Y-38600000D03*
X205200000Y-38600000D03*
X206000000Y-38600000D03*
X206800000Y-38600000D03*
X207600000Y-38600000D03*
X208400000Y-38600000D03*
X209200000Y-38600000D03*
X210000000Y-38600000D03*
X210800000Y-38600000D03*
X211600000Y-38600000D03*
X212400000Y-38600000D03*
X213200000Y-38600000D03*
X214000000Y-38600000D03*
X214800000Y-38600000D03*
X215600000Y-38600000D03*
X216400000Y-38600000D03*
X217200000Y-38600000D03*
X218000000Y-38600000D03*
X218800000Y-38600000D03*
X219600000Y-38600000D03*
X220400000Y-38600000D03*
X221200000Y-38600000D03*
X222000000Y-38600000D03*
X222800000Y-38600000D03*
X223600000Y-38600000D03*
X224400000Y-38600000D03*
X225200000Y-38600000D03*
X226000000Y-38600000D03*
X226800000Y-38600000D03*
X227600000Y-38600000D03*
X228400000Y-38600000D03*
X229200000Y-38600000D03*
X230000000Y-38600000D03*
X230800000Y-38600000D03*
X231600000Y-38600000D03*
X232400000Y-38600000D03*
X233200000Y-38600000D03*
X234000000Y-38600000D03*
X234800000Y-38600000D03*
X235600000Y-38600000D03*
X236400000Y-38600000D03*
X237200000Y-38600000D03*
X238000000Y-38600000D03*
X238800000Y-38600000D03*
X239600000Y-38600000D03*
X200400000Y-39400000D03*
X201200000Y-39400000D03*
X202000000Y-39400000D03*
X202800000Y-39400000D03*
X203600000Y-39400000D03*
X204400000Y-39400000D03*
X205200000Y-39400000D03*
X206000000Y-39400000D03*
X206800000Y-39400000D03*
X207600000Y-39400000D03*
X208400000Y-39400000D03*
X209200000Y-39400000D03*
X210000000Y-39400000D03*
X210800000Y-39400000D03*
X211600000Y-39400000D03*
X212400000Y-39400000D03*
X213200000Y-39400000D03*
X214000000Y-39400000D03*
X214800000Y-39400000D03*
X215600000Y-39400000D03*
X216400000Y-39400000D03*
X217200000Y-39400000D03*
X218000000Y-39400000D03*
X218800000Y-39400000D03*
X219600000Y-39400000D03*
X220400000Y-39400000D03*
X221200000Y-39400000D03*
X222000000Y-39400000D03*
X222800000Y-39400000D03*
X223600000Y-39400000D03*
X224400000Y-39400000D03*
X225200000Y-39400000D03*
X226000000Y-39400000D03*
X226800000Y-39400000D03*
X227600000Y-39400000D03*
X228400000Y-39400000D03*
X229200000Y-39400000D03*
X230000000Y-39400000D03*
X230800000Y-39400000D03*
X231600000Y-39400000D03*
X232400000Y-39400000D03*
X233200000Y-39400000D03*
X234000000Y-39400000D03*
X234800000Y-39400000D03*
X235600000Y-39400000D03*
X236400000Y-39400000D03*
X237200000Y-39400000D03*
X238000000Y-39400000D03*
X238800000Y-39400000D03*
X239600000Y-39400000D03*
X200400000Y-40200000D03*
X201200000Y-40200000D03*
X202000000Y-40200000D03*
X202800000Y-40200000D03*
X203600000Y-40200000D03*
X204400000Y-40200000D03*
X205200000Y-40200000D03*
X206000000Y-40200000D03*
X206800000Y-40200000D03*
X207600000Y-40200000D03*
X208400000Y-40200000D03*
X209200000Y-40200000D03*
X210000000Y-40200000D03*
X210800000Y-40200000D03*
X211600000Y-40200000D03*
X212400000Y-40200000D03*
X213200000Y-40200000D03*
X214000000Y-40200000D03*
X214800000Y-40200000D03*
X215600000Y-40200000D03*
X216400000Y-40200000D03*
X217200000Y-40200000D03*
X218000000Y-40200000D03*
X218800000Y-40200000D03*
X219600000Y-40200000D03*
X220400000Y-40200000D03*
X221200000Y-40200000D03*
X222000000Y-40200000D03*
X222800000Y-40200000D03*
X223600000Y-40200000D03*
X224400000Y-40200000D03*
X225200000Y-40200000D03*
X226000000Y-40200000D03*
X226800000Y-40200000D03*
X227600000Y-40200000D03*
X228400000Y-40200000D03*
X229200000Y-40200000D03*
X230000000Y-40200000D03*
X230800000Y-40200000D03*
X231600000Y-40200000D03*
X232400000Y-40200000D03*
X233200000Y-40200000D03*
X234000000Y-40200000D03*
X234800000Y-40200000D03*
X235600000Y-40200000D03*
X236400000Y-40200000D03*
X237200000Y-40200000D03*
X238000000Y-40200000D03*
X238800000Y-40200000D03*
X239600000Y-40200000D03*
X200400000Y-41000000D03*
X201200000Y-41000000D03*
X202000000Y-41000000D03*
X202800000Y-41000000D03*
X203600000Y-41000000D03*
X204400000Y-41000000D03*
X205200000Y-41000000D03*
X206000000Y-41000000D03*
X206800000Y-41000000D03*
X207600000Y-41000000D03*
X208400000Y-41000000D03*
X209200000Y-41000000D03*
X210000000Y-41000000D03*
X210800000Y-41000000D03*
X211600000Y-41000000D03*
X212400000Y-41000000D03*
X213200000Y-41000000D03*
X214000000Y-41000000D03*
X214800000Y-41000000D03*
X215600000Y-41000000D03*
X216400000Y-41000000D03*
X217200000Y-41000000D03*
X218000000Y-41000000D03*
X218800000Y-41000000D03*
X219600000Y-41000000D03*
X220400000Y-41000000D03*
X221200000Y-41000000D03*
X222000000Y-41000000D03*
X222800000Y-41000000D03*
X223600000Y-41000000D03*
X224400000Y-41000000D03*
X225200000Y-41000000D03*
X226000000Y-41000000D03*
X226800000Y-41000000D03*
X227600000Y-41000000D03*
X228400000Y-41000000D03*
X229200000Y-41000000D03*
X230000000Y-41000000D03*
X230800000Y-41000000D03*
X231600000Y-41000000D03*
X232400000Y-41000000D03*
X233200000Y-41000000D03*
X234000000Y-41000000D03*
X234800000Y-41000000D03*
X235600000Y-41000000D03*
X236400000Y-41000000D03*
X237200000Y-41000000D03*
X238000000Y-41000000D03*
X238800000Y-41000000D03*
X239600000Y-41000000D03*
X200400000Y-41800000D03*
X201200000Y-41800000D03*
X202000000Y-41800000D03*
X202800000Y-41800000D03*
X203600000Y-41800000D03*
X204400000Y-41800000D03*
X205200000Y-41800000D03*
X206000000Y-41800000D03*
X206800000Y-41800000D03*
X207600000Y-41800000D03*
X208400000Y-41800000D03*
X209200000Y-41800000D03*
X210000000Y-41800000D03*
X210800000Y-41800000D03*
X211600000Y-41800000D03*
X212400000Y-41800000D03*
X213200000Y-41800000D03*
X214000000Y-41800000D03*
X214800000Y-41800000D03*
X215600000Y-41800000D03*
X216400000Y-41800000D03*
X217200000Y-41800000D03*
X218000000Y-41800000D03*
X218800000Y-41800000D03*
X219600000Y-41800000D03*
X220400000Y-41800000D03*
X221200000Y-41800000D03*
X222000000Y-41800000D03*
X222800000Y-41800000D03*
X223600000Y-41800000D03*
X224400000Y-41800000D03*
X225200000Y-41800000D03*
X226000000Y-41800000D03*
X226800000Y-41800000D03*
X227600000Y-41800000D03*
X228400000Y-41800000D03*
X229200000Y-41800000D03*
X230000000Y-41800000D03*
X230800000Y-41800000D03*
X231600000Y-41800000D03*
X232400000Y-41800000D03*
X233200000Y-41800000D03*
X234000000Y-41800000D03*
X234800000Y-41800000D03*
X235600000Y-41800000D03*
X236400000Y-41800000D03*
X237200000Y-41800000D03*
X238000000Y-41800000D03*
X238800000Y-41800000D03*
X239600000Y-41800000D03*
X200400000Y-42600000D03*
X201200000Y-42600000D03*
X202000000Y-42600000D03*
X202800000Y-42600000D03*
X203600000Y-42600000D03*
X204400000Y-42600000D03*
X205200000Y-42600000D03*
X206000000Y-42600000D03*
X206800000Y-42600000D03*
X207600000Y-42600000D03*
X208400000Y-42600000D03*
X209200000Y-42600000D03*
X210000000Y-42600000D03*
X210800000Y-42600000D03*
X211600000Y-42600000D03*
X212400000Y-42600000D03*
X213200000Y-42600000D03*
X214000000Y-42600000D03*
X214800000Y-42600000D03*
X215600000Y-42600000D03*
X216400000Y-42600000D03*
X217200000Y-42600000D03*
X218000000Y-42600000D03*
X218800000Y-42600000D03*
X219600000Y-42600000D03*
X220400000Y-42600000D03*
X221200000Y-42600000D03*
X222000000Y-42600000D03*
X222800000Y-42600000D03*
X223600000Y-42600000D03*
X224400000Y-42600000D03*
X225200000Y-42600000D03*
X226000000Y-42600000D03*
X226800000Y-42600000D03*
X227600000Y-42600000D03*
X228400000Y-42600000D03*
X229200000Y-42600000D03*
X230000000Y-42600000D03*
X230800000Y-42600000D03*
X231600000Y-42600000D03*
X232400000Y-42600000D03*
X233200000Y-42600000D03*
X234000000Y-42600000D03*
X234800000Y-42600000D03*
X235600000Y-42600000D03*
X236400000Y-42600000D03*
X237200000Y-42600000D03*
X238000000Y-42600000D03*
X238800000Y-42600000D03*
X239600000Y-42600000D03*
X200400000Y-43400000D03*
X201200000Y-43400000D03*
X202000000Y-43400000D03*
X202800000Y-43400000D03*
X203600000Y-43400000D03*
X204400000Y-43400000D03*
X205200000Y-43400000D03*
X206000000Y-43400000D03*
X206800000Y-43400000D03*
X207600000Y-43400000D03*
X208400000Y-43400000D03*
X209200000Y-43400000D03*
X210000000Y-43400000D03*
X210800000Y-43400000D03*
X211600000Y-43400000D03*
X212400000Y-43400000D03*
X213200000Y-43400000D03*
X214000000Y-43400000D03*
X214800000Y-43400000D03*
X215600000Y-43400000D03*
X216400000Y-43400000D03*
X217200000Y-43400000D03*
X218000000Y-43400000D03*
X218800000Y-43400000D03*
X219600000Y-43400000D03*
X220400000Y-43400000D03*
X221200000Y-43400000D03*
X222000000Y-43400000D03*
X222800000Y-43400000D03*
X223600000Y-43400000D03*
X224400000Y-43400000D03*
X225200000Y-43400000D03*
X226000000Y-43400000D03*
X226800000Y-43400000D03*
X227600000Y-43400000D03*
X228400000Y-43400000D03*
X229200000Y-43400000D03*
X230000000Y-43400000D03*
X230800000Y-43400000D03*
X231600000Y-43400000D03*
X232400000Y-43400000D03*
X233200000Y-43400000D03*
X234000000Y-43400000D03*
X234800000Y-43400000D03*
X235600000Y-43400000D03*
X236400000Y-43400000D03*
X237200000Y-43400000D03*
X238000000Y-43400000D03*
X238800000Y-43400000D03*
X239600000Y-43400000D03*
X200400000Y-44200000D03*
X201200000Y-44200000D03*
X202000000Y-44200000D03*
X202800000Y-44200000D03*
X203600000Y-44200000D03*
X204400000Y-44200000D03*
X205200000Y-44200000D03*
X206000000Y-44200000D03*
X206800000Y-44200000D03*
X207600000Y-44200000D03*
X208400000Y-44200000D03*
X209200000Y-44200000D03*
X210000000Y-44200000D03*
X210800000Y-44200000D03*
X211600000Y-44200000D03*
X212400000Y-44200000D03*
X213200000Y-44200000D03*
X214000000Y-44200000D03*
X214800000Y-44200000D03*
X215600000Y-44200000D03*
X216400000Y-44200000D03*
X217200000Y-44200000D03*
X218000000Y-44200000D03*
X218800000Y-44200000D03*
X219600000Y-44200000D03*
X220400000Y-44200000D03*
X221200000Y-44200000D03*
X222000000Y-44200000D03*
X222800000Y-44200000D03*
X223600000Y-44200000D03*
X224400000Y-44200000D03*
X225200000Y-44200000D03*
X226000000Y-44200000D03*
X226800000Y-44200000D03*
X227600000Y-44200000D03*
X228400000Y-44200000D03*
X229200000Y-44200000D03*
X230000000Y-44200000D03*
X230800000Y-44200000D03*
X231600000Y-44200000D03*
X232400000Y-44200000D03*
X233200000Y-44200000D03*
X234000000Y-44200000D03*
X234800000Y-44200000D03*
X235600000Y-44200000D03*
X236400000Y-44200000D03*
X237200000Y-44200000D03*
X238000000Y-44200000D03*
X238800000Y-44200000D03*
X239600000Y-44200000D03*
X200400000Y-45000000D03*
X201200000Y-45000000D03*
X202000000Y-45000000D03*
X202800000Y-45000000D03*
X203600000Y-45000000D03*
X204400000Y-45000000D03*
X205200000Y-45000000D03*
X206000000Y-45000000D03*
X206800000Y-45000000D03*
X207600000Y-45000000D03*
X208400000Y-45000000D03*
X209200000Y-45000000D03*
X210000000Y-45000000D03*
X210800000Y-45000000D03*
X211600000Y-45000000D03*
X212400000Y-45000000D03*
X213200000Y-45000000D03*
X214000000Y-45000000D03*
X214800000Y-45000000D03*
X215600000Y-45000000D03*
X216400000Y-45000000D03*
X217200000Y-45000000D03*
X218000000Y-45000000D03*
X218800000Y-45000000D03*
X219600000Y-45000000D03*
X220400000Y-45000000D03*
X221200000Y-45000000D03*
X222000000Y-45000000D03*
X222800000Y-45000000D03*
X223600000Y-45000000D03*
X224400000Y-45000000D03*
X225200000Y-45000000D03*
X226000000Y-45000000D03*
X226800000Y-45000000D03*
X227600000Y-45000000D03*
X228400000Y-45000000D03*
X229200000Y-45000000D03*
X230000000Y-45000000D03*
X230800000Y-45000000D03*
X231600000Y-45000000D03*
X232400000Y-45000000D03*
X233200000Y-45000000D03*
X234000000Y-45000000D03*
X234800000Y-45000000D03*
X235600000Y-45000000D03*
X236400000Y-45000000D03*
X237200000Y-45000000D03*
X238000000Y-45000000D03*
X238800000Y-45000000D03*
X239600000Y-45000000D03*
X200400000Y-45800000D03*
X201200000Y-45800000D03*
X202000000Y-45800000D03*
X202800000Y-45800000D03*
X203600000Y-45800000D03*
X204400000Y-45800000D03*
X205200000Y-45800000D03*
X206000000Y-45800000D03*
X206800000Y-45800000D03*
X207600000Y-45800000D03*
X208400000Y-45800000D03*
X209200000Y-45800000D03*
X210000000Y-45800000D03*
X210800000Y-45800000D03*
X211600000Y-45800000D03*
X212400000Y-45800000D03*
X213200000Y-45800000D03*
X214000000Y-45800000D03*
X214800000Y-45800000D03*
X215600000Y-45800000D03*
X216400000Y-45800000D03*
X217200000Y-45800000D03*
X218000000Y-45800000D03*
X218800000Y-45800000D03*
X219600000Y-45800000D03*
X220400000Y-45800000D03*
X221200000Y-45800000D03*
X222000000Y-45800000D03*
X222800000Y-45800000D03*
X223600000Y-45800000D03*
X224400000Y-45800000D03*
X225200000Y-45800000D03*
X226000000Y-45800000D03*
X226800000Y-45800000D03*
X227600000Y-45800000D03*
X228400000Y-45800000D03*
X229200000Y-45800000D03*
X230000000Y-45800000D03*
X230800000Y-45800000D03*
X231600000Y-45800000D03*
X232400000Y-45800000D03*
X233200000Y-45800000D03*
X234000000Y-45800000D03*
X234800000Y-45800000D03*
X235600000Y-45800000D03*
X236400000Y-45800000D03*
X237200000Y-45800000D03*
X238000000Y-45800000D03*
X238800000Y-45800000D03*
X239600000Y-45800000D03*
X200400000Y-46600000D03*
X201200000Y-46600000D03*
X202000000Y-46600000D03*
X202800000Y-46600000D03*
X203600000Y-46600000D03*
X204400000Y-46600000D03*
X205200000Y-46600000D03*
X206000000Y-46600000D03*
X206800000Y-46600000D03*
X207600000Y-46600000D03*
X208400000Y-46600000D03*
X209200000Y-46600000D03*
X210000000Y-46600000D03*
X210800000Y-46600000D03*
X211600000Y-46600000D03*
X212400000Y-46600000D03*
X213200000Y-46600000D03*
X214000000Y-46600000D03*
X214800000Y-46600000D03*
X215600000Y-46600000D03*
X216400000Y-46600000D03*
X217200000Y-46600000D03*
X218000000Y-46600000D03*
X218800000Y-46600000D03*
X219600000Y-46600000D03*
X220400000Y-46600000D03*
X221200000Y-46600000D03*
X222000000Y-46600000D03*
X222800000Y-46600000D03*
X223600000Y-46600000D03*
X224400000Y-46600000D03*
X225200000Y-46600000D03*
X226000000Y-46600000D03*
X226800000Y-46600000D03*
X227600000Y-46600000D03*
X228400000Y-46600000D03*
X229200000Y-46600000D03*
X230000000Y-46600000D03*
X230800000Y-46600000D03*
X231600000Y-46600000D03*
X232400000Y-46600000D03*
X233200000Y-46600000D03*
X234000000Y-46600000D03*
X234800000Y-46600000D03*
X235600000Y-46600000D03*
X236400000Y-46600000D03*
X237200000Y-46600000D03*
X238000000Y-46600000D03*
X238800000Y-46600000D03*
X239600000Y-46600000D03*
X200400000Y-47400000D03*
X201200000Y-47400000D03*
X202000000Y-47400000D03*
X202800000Y-47400000D03*
X203600000Y-47400000D03*
X204400000Y-47400000D03*
X205200000Y-47400000D03*
X206000000Y-47400000D03*
X206800000Y-47400000D03*
X207600000Y-47400000D03*
X208400000Y-47400000D03*
X209200000Y-47400000D03*
X210000000Y-47400000D03*
X210800000Y-47400000D03*
X211600000Y-47400000D03*
X212400000Y-47400000D03*
X213200000Y-47400000D03*
X214000000Y-47400000D03*
X214800000Y-47400000D03*
X215600000Y-47400000D03*
X216400000Y-47400000D03*
X217200000Y-47400000D03*
X218000000Y-47400000D03*
X218800000Y-47400000D03*
X219600000Y-47400000D03*
X220400000Y-47400000D03*
X221200000Y-47400000D03*
X222000000Y-47400000D03*
X222800000Y-47400000D03*
X223600000Y-47400000D03*
X224400000Y-47400000D03*
X225200000Y-47400000D03*
X226000000Y-47400000D03*
X226800000Y-47400000D03*
X227600000Y-47400000D03*
X228400000Y-47400000D03*
X229200000Y-47400000D03*
X230000000Y-47400000D03*
X230800000Y-47400000D03*
X231600000Y-47400000D03*
X232400000Y-47400000D03*
X233200000Y-47400000D03*
X234000000Y-47400000D03*
X234800000Y-47400000D03*
X235600000Y-47400000D03*
X236400000Y-47400000D03*
X237200000Y-47400000D03*
X238000000Y-47400000D03*
X238800000Y-47400000D03*
X239600000Y-47400000D03*
X200400000Y-48200000D03*
X201200000Y-48200000D03*
X202000000Y-48200000D03*
X202800000Y-48200000D03*
X203600000Y-48200000D03*
X204400000Y-48200000D03*
X205200000Y-48200000D03*
X206000000Y-48200000D03*
X206800000Y-48200000D03*
X207600000Y-48200000D03*
X208400000Y-48200000D03*
X209200000Y-48200000D03*
X210000000Y-48200000D03*
X210800000Y-48200000D03*
X211600000Y-48200000D03*
X212400000Y-48200000D03*
X213200000Y-48200000D03*
X214000000Y-48200000D03*
X214800000Y-48200000D03*
X215600000Y-48200000D03*
X216400000Y-48200000D03*
X217200000Y-48200000D03*
X218000000Y-48200000D03*
X218800000Y-48200000D03*
X219600000Y-48200000D03*
X220400000Y-48200000D03*
X221200000Y-48200000D03*
X222000000Y-48200000D03*
X222800000Y-48200000D03*
X223600000Y-48200000D03*
X224400000Y-48200000D03*
X225200000Y-48200000D03*
X226000000Y-48200000D03*
X226800000Y-48200000D03*
X227600000Y-48200000D03*
X228400000Y-48200000D03*
X229200000Y-48200000D03*
X230000000Y-48200000D03*
X230800000Y-48200000D03*
X231600000Y-48200000D03*
X232400000Y-48200000D03*
X233200000Y-48200000D03*
X234000000Y-48200000D03*
X234800000Y-48200000D03*
X235600000Y-48200000D03*
X236400000Y-48200000D03*
X237200000Y-48200000D03*
X238000000Y-48200000D03*
X238800000Y-48200000D03*
X239600000Y-48200000D03*
X200400000Y-49000000D03*
X201200000Y-49000000D03*
X202000000Y-49000000D03*
X202800000Y-49000000D03*
X203600000Y-49000000D03*
X204400000Y-49000000D03*
X205200000Y-49000000D03*
X206000000Y-49000000D03*
X206800000Y-49000000D03*
X207600000Y-49000000D03*
X208400000Y-49000000D03*
X209200000Y-49000000D03*
X210000000Y-49000000D03*
X210800000Y-49000000D03*
X211600000Y-49000000D03*
X212400000Y-49000000D03*
X213200000Y-49000000D03*
X214000000Y-49000000D03*
X214800000Y-49000000D03*
X215600000Y-49000000D03*
X216400000Y-49000000D03*
X217200000Y-49000000D03*
X218000000Y-49000000D03*
X218800000Y-49000000D03*
X219600000Y-49000000D03*
X220400000Y-49000000D03*
X221200000Y-49000000D03*
X222000000Y-49000000D03*
X222800000Y-49000000D03*
X223600000Y-49000000D03*
X224400000Y-49000000D03*
X225200000Y-49000000D03*
X226000000Y-49000000D03*
X226800000Y-49000000D03*
X227600000Y-49000000D03*
X228400000Y-49000000D03*
X229200000Y-49000000D03*
X230000000Y-49000000D03*
X230800000Y-49000000D03*
X231600000Y-49000000D03*
X232400000Y-49000000D03*
X233200000Y-49000000D03*
X234000000Y-49000000D03*
X234800000Y-49000000D03*
X235600000Y-49000000D03*
X236400000Y-49000000D03*
X237200000Y-49000000D03*
X238000000Y-49000000D03*
X238800000Y-49000000D03*
X239600000Y-49000000D03*
X200400000Y-49800000D03*
X201200000Y-49800000D03*
X202000000Y-49800000D03*
X202800000Y-49800000D03*
X203600000Y-49800000D03*
X204400000Y-49800000D03*
X205200000Y-49800000D03*
X206000000Y-49800000D03*
X206800000Y-49800000D03*
X207600000Y-49800000D03*
X208400000Y-49800000D03*
X209200000Y-49800000D03*
X210000000Y-49800000D03*
X210800000Y-49800000D03*
X211600000Y-49800000D03*
X212400000Y-49800000D03*
X213200000Y-49800000D03*
X214000000Y-49800000D03*
X214800000Y-49800000D03*
X215600000Y-49800000D03*
X216400000Y-49800000D03*
X217200000Y-49800000D03*
X218000000Y-49800000D03*
X218800000Y-49800000D03*
X219600000Y-49800000D03*
X220400000Y-49800000D03*
X221200000Y-49800000D03*
X222000000Y-49800000D03*
X222800000Y-49800000D03*
X223600000Y-49800000D03*
X224400000Y-49800000D03*
X225200000Y-49800000D03*
X226000000Y-49800000D03*
X226800000Y-49800000D03*
X227600000Y-49800000D03*
X228400000Y-49800000D03*
X229200000Y-49800000D03*
X230000000Y-49800000D03*
X230800000Y-49800000D03*
X231600000Y-49800000D03*
X232400000Y-49800000D03*
X233200000Y-49800000D03*
X234000000Y-49800000D03*
X234800000Y-49800000D03*
X235600000Y-49800000D03*
X236400000Y-49800000D03*
X237200000Y-49800000D03*
X238000000Y-49800000D03*
X238800000Y-49800000D03*
X239600000Y-49800000D03*
X200400000Y-50600000D03*
X201200000Y-50600000D03*
X202000000Y-50600000D03*
X202800000Y-50600000D03*
X203600000Y-50600000D03*
X204400000Y-50600000D03*
X205200000Y-50600000D03*
X206000000Y-50600000D03*
X206800000Y-50600000D03*
X207600000Y-50600000D03*
X208400000Y-50600000D03*
X209200000Y-50600000D03*
X210000000Y-50600000D03*
X210800000Y-50600000D03*
X211600000Y-50600000D03*
X212400000Y-50600000D03*
X213200000Y-50600000D03*
X214000000Y-50600000D03*
X214800000Y-50600000D03*
X215600000Y-50600000D03*
X216400000Y-50600000D03*
X217200000Y-50600000D03*
X218000000Y-50600000D03*
X218800000Y-50600000D03*
X219600000Y-50600000D03*
X220400000Y-50600000D03*
X221200000Y-50600000D03*
X222000000Y-50600000D03*
X222800000Y-50600000D03*
X223600000Y-50600000D03*
X224400000Y-50600000D03*
X225200000Y-50600000D03*
X226000000Y-50600000D03*
X226800000Y-50600000D03*
X227600000Y-50600000D03*
X228400000Y-50600000D03*
X229200000Y-50600000D03*
X230000000Y-50600000D03*
X230800000Y-50600000D03*
X231600000Y-50600000D03*
X232400000Y-50600000D03*
X233200000Y-50600000D03*
X234000000Y-50600000D03*
X234800000Y-50600000D03*
X235600000Y-50600000D03*
X236400000Y-50600000D03*
X237200000Y-50600000D03*
X238000000Y-50600000D03*
X238800000Y-50600000D03*
X239600000Y-50600000D03*
X200400000Y-51400000D03*
X201200000Y-51400000D03*
X202000000Y-51400000D03*
X202800000Y-51400000D03*
X203600000Y-51400000D03*
X204400000Y-51400000D03*
X205200000Y-51400000D03*
X206000000Y-51400000D03*
X206800000Y-51400000D03*
X207600000Y-51400000D03*
X208400000Y-51400000D03*
X209200000Y-51400000D03*
X210000000Y-51400000D03*
X210800000Y-51400000D03*
X211600000Y-51400000D03*
X212400000Y-51400000D03*
X213200000Y-51400000D03*
X214000000Y-51400000D03*
X214800000Y-51400000D03*
X215600000Y-51400000D03*
X216400000Y-51400000D03*
X217200000Y-51400000D03*
X218000000Y-51400000D03*
X218800000Y-51400000D03*
X219600000Y-51400000D03*
X220400000Y-51400000D03*
X221200000Y-51400000D03*
X222000000Y-51400000D03*
X222800000Y-51400000D03*
X223600000Y-51400000D03*
X224400000Y-51400000D03*
X225200000Y-51400000D03*
X226000000Y-51400000D03*
X226800000Y-51400000D03*
X227600000Y-51400000D03*
X228400000Y-51400000D03*
X229200000Y-51400000D03*
X230000000Y-51400000D03*
X230800000Y-51400000D03*
X231600000Y-51400000D03*
X232400000Y-51400000D03*
X233200000Y-51400000D03*
X234000000Y-51400000D03*
X234800000Y-51400000D03*
X235600000Y-51400000D03*
X236400000Y-51400000D03*
X237200000Y-51400000D03*
X238000000Y-51400000D03*
X238800000Y-51400000D03*
X239600000Y-51400000D03*
X200400000Y-52200000D03*
X201200000Y-52200000D03*
X202000000Y-52200000D03*
X202800000Y-52200000D03*
X203600000Y-52200000D03*
X204400000Y-52200000D03*
X205200000Y-52200000D03*
X206000000Y-52200000D03*
X206800000Y-52200000D03*
X207600000Y-52200000D03*
X208400000Y-52200000D03*
X209200000Y-52200000D03*
X210000000Y-52200000D03*
X210800000Y-52200000D03*
X211600000Y-52200000D03*
X212400000Y-52200000D03*
X213200000Y-52200000D03*
X214000000Y-52200000D03*
X214800000Y-52200000D03*
X215600000Y-52200000D03*
X216400000Y-52200000D03*
X217200000Y-52200000D03*
X218000000Y-52200000D03*
X218800000Y-52200000D03*
X219600000Y-52200000D03*
X220400000Y-52200000D03*
X221200000Y-52200000D03*
X222000000Y-52200000D03*
X222800000Y-52200000D03*
X223600000Y-52200000D03*
X224400000Y-52200000D03*
X225200000Y-52200000D03*
X226000000Y-52200000D03*
X226800000Y-52200000D03*
X227600000Y-52200000D03*
X228400000Y-52200000D03*
X229200000Y-52200000D03*
X230000000Y-52200000D03*
X230800000Y-52200000D03*
X231600000Y-52200000D03*
X232400000Y-52200000D03*
X233200000Y-52200000D03*
X234000000Y-52200000D03*
X234800000Y-52200000D03*
X235600000Y-52200000D03*
X236400000Y-52200000D03*
X237200000Y-52200000D03*
X238000000Y-52200000D03*
X238800000Y-52200000D03*
X239600000Y-52200000D03*
X200400000Y-53000000D03*
X201200000Y-53000000D03*
X202000000Y-53000000D03*
X202800000Y-53000000D03*
X203600000Y-53000000D03*
X204400000Y-53000000D03*
X205200000Y-53000000D03*
X206000000Y-53000000D03*
X206800000Y-53000000D03*
X207600000Y-53000000D03*
X208400000Y-53000000D03*
X209200000Y-53000000D03*
X210000000Y-53000000D03*
X210800000Y-53000000D03*
X211600000Y-53000000D03*
X212400000Y-53000000D03*
X213200000Y-53000000D03*
X214000000Y-53000000D03*
X214800000Y-53000000D03*
X215600000Y-53000000D03*
X216400000Y-53000000D03*
X217200000Y-53000000D03*
X218000000Y-53000000D03*
X218800000Y-53000000D03*
X219600000Y-53000000D03*
X220400000Y-53000000D03*
X221200000Y-53000000D03*
X222000000Y-53000000D03*
X222800000Y-53000000D03*
X223600000Y-53000000D03*
X224400000Y-53000000D03*
X225200000Y-53000000D03*
X226000000Y-53000000D03*
X226800000Y-53000000D03*
X227600000Y-53000000D03*
X228400000Y-53000000D03*
X229200000Y-53000000D03*
X230000000Y-53000000D03*
X230800000Y-53000000D03*
X231600000Y-53000000D03*
X232400000Y-53000000D03*
X233200000Y-53000000D03*
X234000000Y-53000000D03*
X234800000Y-53000000D03*
X235600000Y-53000000D03*
X236400000Y-53000000D03*
X237200000Y-53000000D03*
X238000000Y-53000000D03*
X238800000Y-53000000D03*
X239600000Y-53000000D03*
X200400000Y-53800000D03*
X201200000Y-53800000D03*
X202000000Y-53800000D03*
X202800000Y-53800000D03*
X203600000Y-53800000D03*
X204400000Y-53800000D03*
X205200000Y-53800000D03*
X206000000Y-53800000D03*
X206800000Y-53800000D03*
X207600000Y-53800000D03*
X208400000Y-53800000D03*
X209200000Y-53800000D03*
X210000000Y-53800000D03*
X210800000Y-53800000D03*
X211600000Y-53800000D03*
X212400000Y-53800000D03*
X213200000Y-53800000D03*
X214000000Y-53800000D03*
X214800000Y-53800000D03*
X215600000Y-53800000D03*
X216400000Y-53800000D03*
X217200000Y-53800000D03*
X218000000Y-53800000D03*
X218800000Y-53800000D03*
X219600000Y-53800000D03*
X220400000Y-53800000D03*
X221200000Y-53800000D03*
X222000000Y-53800000D03*
X222800000Y-53800000D03*
X223600000Y-53800000D03*
X224400000Y-53800000D03*
X225200000Y-53800000D03*
X226000000Y-53800000D03*
X226800000Y-53800000D03*
X227600000Y-53800000D03*
X228400000Y-53800000D03*
X229200000Y-53800000D03*
X230000000Y-53800000D03*
X230800000Y-53800000D03*
X231600000Y-53800000D03*
X232400000Y-53800000D03*
X233200000Y-53800000D03*
X234000000Y-53800000D03*
X234800000Y-53800000D03*
X235600000Y-53800000D03*
X236400000Y-53800000D03*
X237200000Y-53800000D03*
X238000000Y-53800000D03*
X238800000Y-53800000D03*
X239600000Y-53800000D03*
X200400000Y-54600000D03*
X201200000Y-54600000D03*
X202000000Y-54600000D03*
X202800000Y-54600000D03*
X203600000Y-54600000D03*
X204400000Y-54600000D03*
X205200000Y-54600000D03*
X206000000Y-54600000D03*
X206800000Y-54600000D03*
X207600000Y-54600000D03*
X208400000Y-54600000D03*
X209200000Y-54600000D03*
X210000000Y-54600000D03*
X210800000Y-54600000D03*
X211600000Y-54600000D03*
X212400000Y-54600000D03*
X213200000Y-54600000D03*
X214000000Y-54600000D03*
X214800000Y-54600000D03*
X215600000Y-54600000D03*
X216400000Y-54600000D03*
X217200000Y-54600000D03*
X218000000Y-54600000D03*
X218800000Y-54600000D03*
X219600000Y-54600000D03*
X220400000Y-54600000D03*
X221200000Y-54600000D03*
X222000000Y-54600000D03*
X222800000Y-54600000D03*
X223600000Y-54600000D03*
X224400000Y-54600000D03*
X225200000Y-54600000D03*
X226000000Y-54600000D03*
X226800000Y-54600000D03*
X227600000Y-54600000D03*
X228400000Y-54600000D03*
X229200000Y-54600000D03*
X230000000Y-54600000D03*
X230800000Y-54600000D03*
X231600000Y-54600000D03*
X232400000Y-54600000D03*
X233200000Y-54600000D03*
X234000000Y-54600000D03*
X234800000Y-54600000D03*
X235600000Y-54600000D03*
X236400000Y-54600000D03*
X237200000Y-54600000D03*
X238000000Y-54600000D03*
X238800000Y-54600000D03*
X239600000Y-54600000D03*
X200400000Y-55400000D03*
X201200000Y-55400000D03*
X202000000Y-55400000D03*
X202800000Y-55400000D03*
X203600000Y-55400000D03*
X204400000Y-55400000D03*
X205200000Y-55400000D03*
X206000000Y-55400000D03*
X206800000Y-55400000D03*
X207600000Y-55400000D03*
X208400000Y-55400000D03*
X209200000Y-55400000D03*
X210000000Y-55400000D03*
X210800000Y-55400000D03*
X211600000Y-55400000D03*
X212400000Y-55400000D03*
X213200000Y-55400000D03*
X214000000Y-55400000D03*
X214800000Y-55400000D03*
X215600000Y-55400000D03*
X216400000Y-55400000D03*
X217200000Y-55400000D03*
X218000000Y-55400000D03*
X218800000Y-55400000D03*
X219600000Y-55400000D03*
X220400000Y-55400000D03*
X221200000Y-55400000D03*
X222000000Y-55400000D03*
X222800000Y-55400000D03*
X223600000Y-55400000D03*
X224400000Y-55400000D03*
X225200000Y-55400000D03*
X226000000Y-55400000D03*
X226800000Y-55400000D03*
X227600000Y-55400000D03*
X228400000Y-55400000D03*
X229200000Y-55400000D03*
X230000000Y-55400000D03*
X230800000Y-55400000D03*
X231600000Y-55400000D03*
X232400000Y-55400000D03*
X233200000Y-55400000D03*
X234000000Y-55400000D03*
X234800000Y-55400000D03*
X235600000Y-55400000D03*
X236400000Y-55400000D03*
X237200000Y-55400000D03*
X238000000Y-55400000D03*
X238800000Y-55400000D03*
X239600000Y-55400000D03*
X200400000Y-56200000D03*
X201200000Y-56200000D03*
X202000000Y-56200000D03*
X202800000Y-56200000D03*
X203600000Y-56200000D03*
X204400000Y-56200000D03*
X205200000Y-56200000D03*
X206000000Y-56200000D03*
X206800000Y-56200000D03*
X207600000Y-56200000D03*
X208400000Y-56200000D03*
X209200000Y-56200000D03*
X210000000Y-56200000D03*
X210800000Y-56200000D03*
X211600000Y-56200000D03*
X212400000Y-56200000D03*
X213200000Y-56200000D03*
X214000000Y-56200000D03*
X214800000Y-56200000D03*
X215600000Y-56200000D03*
X216400000Y-56200000D03*
X217200000Y-56200000D03*
X218000000Y-56200000D03*
X218800000Y-56200000D03*
X219600000Y-56200000D03*
X220400000Y-56200000D03*
X221200000Y-56200000D03*
X222000000Y-56200000D03*
X222800000Y-56200000D03*
X223600000Y-56200000D03*
X224400000Y-56200000D03*
X225200000Y-56200000D03*
X226000000Y-56200000D03*
X226800000Y-56200000D03*
X227600000Y-56200000D03*
X228400000Y-56200000D03*
X229200000Y-56200000D03*
X230000000Y-56200000D03*
X230800000Y-56200000D03*
X231600000Y-56200000D03*
X232400000Y-56200000D03*
X233200000Y-56200000D03*
X234000000Y-56200000D03*
X234800000Y-56200000D03*
X235600000Y-56200000D03*
X236400000Y-56200000D03*
X237200000Y-56200000D03*
X238000000Y-56200000D03*
X238800000Y-56200000D03*
X239600000Y-56200000D03*
X200400000Y-57000000D03*
X201200000Y-57000000D03*
X202000000Y-57000000D03*
X202800000Y-57000000D03*
X203600000Y-57000000D03*
X204400000Y-57000000D03*
X205200000Y-57000000D03*
X206000000Y-57000000D03*
X206800000Y-57000000D03*
X207600000Y-57000000D03*
X208400000Y-57000000D03*
X209200000Y-57000000D03*
X210000000Y-57000000D03*
X210800000Y-57000000D03*
X211600000Y-57000000D03*
X212400000Y-57000000D03*
X213200000Y-57000000D03*
X214000000Y-57000000D03*
X214800000Y-57000000D03*
X215600000Y-57000000D03*
X216400000Y-57000000D03*
X217200000Y-57000000D03*
X218000000Y-57000000D03*
X218800000Y-57000000D03*
X219600000Y-57000000D03*
X220400000Y-57000000D03*
X221200000Y-57000000D03*
X222000000Y-57000000D03*
X222800000Y-57000000D03*
X223600000Y-57000000D03*
X224400000Y-57000000D03*
X225200000Y-57000000D03*
X226000000Y-57000000D03*
X226800000Y-57000000D03*
X227600000Y-57000000D03*
X228400000Y-57000000D03*
X229200000Y-57000000D03*
X230000000Y-57000000D03*
X230800000Y-57000000D03*
X231600000Y-57000000D03*
X232400000Y-57000000D03*
X233200000Y-57000000D03*
X234000000Y-57000000D03*
X234800000Y-57000000D03*
X235600000Y-57000000D03*
X236400000Y-57000000D03*
X237200000Y-57000000D03*
X238000000Y-57000000D03*
X238800000Y-57000000D03*
X239600000Y-57000000D03*
X200400000Y-57800000D03*
X201200000Y-57800000D03*
X202000000Y-57800000D03*
X202800000Y-57800000D03*
X203600000Y-57800000D03*
X204400000Y-57800000D03*
X205200000Y-57800000D03*
X206000000Y-57800000D03*
X206800000Y-57800000D03*
X207600000Y-57800000D03*
X208400000Y-57800000D03*
X209200000Y-57800000D03*
X210000000Y-57800000D03*
X210800000Y-57800000D03*
X211600000Y-57800000D03*
X212400000Y-57800000D03*
X213200000Y-57800000D03*
X214000000Y-57800000D03*
X214800000Y-57800000D03*
X215600000Y-57800000D03*
X216400000Y-57800000D03*
X217200000Y-57800000D03*
X218000000Y-57800000D03*
X218800000Y-57800000D03*
X219600000Y-57800000D03*
X220400000Y-57800000D03*
X221200000Y-57800000D03*
X222000000Y-57800000D03*
X222800000Y-57800000D03*
X223600000Y-57800000D03*
X224400000Y-57800000D03*
X225200000Y-57800000D03*
X226000000Y-57800000D03*
X226800000Y-57800000D03*
X227600000Y-57800000D03*
X228400000Y-57800000D03*
X229200000Y-57800000D03*
X230000000Y-57800000D03*
X230800000Y-57800000D03*
X231600000Y-57800000D03*
X232400000Y-57800000D03*
X233200000Y-57800000D03*
X234000000Y-57800000D03*
X234800000Y-57800000D03*
X235600000Y-57800000D03*
X236400000Y-57800000D03*
X237200000Y-57800000D03*
X238000000Y-57800000D03*
X238800000Y-57800000D03*
X239600000Y-57800000D03*
X200400000Y-58600000D03*
X201200000Y-58600000D03*
X202000000Y-58600000D03*
X202800000Y-58600000D03*
X203600000Y-58600000D03*
X204400000Y-58600000D03*
X205200000Y-58600000D03*
X206000000Y-58600000D03*
X206800000Y-58600000D03*
X207600000Y-58600000D03*
X208400000Y-58600000D03*
X209200000Y-58600000D03*
X210000000Y-58600000D03*
X210800000Y-58600000D03*
X211600000Y-58600000D03*
X212400000Y-58600000D03*
X213200000Y-58600000D03*
X214000000Y-58600000D03*
X214800000Y-58600000D03*
X215600000Y-58600000D03*
X216400000Y-58600000D03*
X217200000Y-58600000D03*
X218000000Y-58600000D03*
X218800000Y-58600000D03*
X219600000Y-58600000D03*
X220400000Y-58600000D03*
X221200000Y-58600000D03*
X222000000Y-58600000D03*
X222800000Y-58600000D03*
X223600000Y-58600000D03*
X224400000Y-58600000D03*
X225200000Y-58600000D03*
X226000000Y-58600000D03*
X226800000Y-58600000D03*
X227600000Y-58600000D03*
X228400000Y-58600000D03*
X229200000Y-58600000D03*
X230000000Y-58600000D03*
X230800000Y-58600000D03*
X231600000Y-58600000D03*
X232400000Y-58600000D03*
X233200000Y-58600000D03*
X234000000Y-58600000D03*
X234800000Y-58600000D03*
X235600000Y-58600000D03*
X236400000Y-58600000D03*
X237200000Y-58600000D03*
X238000000Y-58600000D03*
X238800000Y-58600000D03*
X239600000Y-58600000D03*
X200400000Y-59400000D03*
X201200000Y-59400000D03*
X202000000Y-59400000D03*
X202800000Y-59400000D03*
X203600000Y-59400000D03*
X204400000Y-59400000D03*
X205200000Y-59400000D03*
X206000000Y-59400000D03*
X206800000Y-59400000D03*
X207600000Y-59400000D03*
X208400000Y-59400000D03*
X209200000Y-59400000D03*
X210000000Y-59400000D03*
X210800000Y-59400000D03*
X211600000Y-59400000D03*
X212400000Y-59400000D03*
X213200000Y-59400000D03*
X214000000Y-59400000D03*
X214800000Y-59400000D03*
X215600000Y-59400000D03*
X216400000Y-59400000D03*
X217200000Y-59400000D03*
X218000000Y-59400000D03*
X218800000Y-59400000D03*
X219600000Y-59400000D03*
X220400000Y-59400000D03*
X221200000Y-59400000D03*
X222000000Y-59400000D03*
X222800000Y-59400000D03*
X223600000Y-59400000D03*
X224400000Y-59400000D03*
X225200000Y-59400000D03*
X226000000Y-59400000D03*
X226800000Y-59400000D03*
X227600000Y-59400000D03*
X228400000Y-59400000D03*
X229200000Y-59400000D03*
X230000000Y-59400000D03*
X230800000Y-59400000D03*
X231600000Y-59400000D03*
X232400000Y-59400000D03*
X233200000Y-59400000D03*
X234000000Y-59400000D03*
X234800000Y-59400000D03*
X235600000Y-59400000D03*
X236400000Y-59400000D03*
X237200000Y-59400000D03*
X238000000Y-59400000D03*
X238800000Y-59400000D03*
X239600000Y-59400000D03*
X200400000Y-60200000D03*
X201200000Y-60200000D03*
X202000000Y-60200000D03*
X202800000Y-60200000D03*
X203600000Y-60200000D03*
X204400000Y-60200000D03*
X205200000Y-60200000D03*
X206000000Y-60200000D03*
X206800000Y-60200000D03*
X207600000Y-60200000D03*
X208400000Y-60200000D03*
X209200000Y-60200000D03*
X210000000Y-60200000D03*
X210800000Y-60200000D03*
X211600000Y-60200000D03*
X212400000Y-60200000D03*
X213200000Y-60200000D03*
X214000000Y-60200000D03*
X214800000Y-60200000D03*
X215600000Y-60200000D03*
X216400000Y-60200000D03*
X217200000Y-60200000D03*
X218000000Y-60200000D03*
X218800000Y-60200000D03*
X219600000Y-60200000D03*
X220400000Y-60200000D03*
X221200000Y-60200000D03*
X222000000Y-60200000D03*
X222800000Y-60200000D03*
X223600000Y-60200000D03*
X224400000Y-60200000D03*
X225200000Y-60200000D03*
X226000000Y-60200000D03*
X226800000Y-60200000D03*
X227600000Y-60200000D03*
X228400000Y-60200000D03*
X229200000Y-60200000D03*
X230000000Y-60200000D03*
X230800000Y-60200000D03*
X231600000Y-60200000D03*
X232400000Y-60200000D03*
X233200000Y-60200000D03*
X234000000Y-60200000D03*
X234800000Y-60200000D03*
X235600000Y-60200000D03*
X236400000Y-60200000D03*
X237200000Y-60200000D03*
X238000000Y-60200000D03*
X238800000Y-60200000D03*
X239600000Y-60200000D03*
X200400000Y-61000000D03*
X201200000Y-61000000D03*
X202000000Y-61000000D03*
X202800000Y-61000000D03*
X203600000Y-61000000D03*
X204400000Y-61000000D03*
X205200000Y-61000000D03*
X206000000Y-61000000D03*
X206800000Y-61000000D03*
X207600000Y-61000000D03*
X208400000Y-61000000D03*
X209200000Y-61000000D03*
X210000000Y-61000000D03*
X210800000Y-61000000D03*
X211600000Y-61000000D03*
X212400000Y-61000000D03*
X213200000Y-61000000D03*
X214000000Y-61000000D03*
X214800000Y-61000000D03*
X215600000Y-61000000D03*
X216400000Y-61000000D03*
X217200000Y-61000000D03*
X218000000Y-61000000D03*
X218800000Y-61000000D03*
X219600000Y-61000000D03*
X220400000Y-61000000D03*
X221200000Y-61000000D03*
X222000000Y-61000000D03*
X222800000Y-61000000D03*
X223600000Y-61000000D03*
X224400000Y-61000000D03*
X225200000Y-61000000D03*
X226000000Y-61000000D03*
X226800000Y-61000000D03*
X227600000Y-61000000D03*
X228400000Y-61000000D03*
X229200000Y-61000000D03*
X230000000Y-61000000D03*
X230800000Y-61000000D03*
X231600000Y-61000000D03*
X232400000Y-61000000D03*
X233200000Y-61000000D03*
X234000000Y-61000000D03*
X234800000Y-61000000D03*
X235600000Y-61000000D03*
X236400000Y-61000000D03*
X237200000Y-61000000D03*
X238000000Y-61000000D03*
X238800000Y-61000000D03*
X239600000Y-61000000D03*
X200400000Y-61800000D03*
X201200000Y-61800000D03*
X202000000Y-61800000D03*
X202800000Y-61800000D03*
X203600000Y-61800000D03*
X204400000Y-61800000D03*
X205200000Y-61800000D03*
X206000000Y-61800000D03*
X206800000Y-61800000D03*
X207600000Y-61800000D03*
X208400000Y-61800000D03*
X209200000Y-61800000D03*
X210000000Y-61800000D03*
X210800000Y-61800000D03*
X211600000Y-61800000D03*
X212400000Y-61800000D03*
X213200000Y-61800000D03*
X214000000Y-61800000D03*
X214800000Y-61800000D03*
X215600000Y-61800000D03*
X216400000Y-61800000D03*
X217200000Y-61800000D03*
X218000000Y-61800000D03*
X218800000Y-61800000D03*
X219600000Y-61800000D03*
X220400000Y-61800000D03*
X221200000Y-61800000D03*
X222000000Y-61800000D03*
X222800000Y-61800000D03*
X223600000Y-61800000D03*
X224400000Y-61800000D03*
X225200000Y-61800000D03*
X226000000Y-61800000D03*
X226800000Y-61800000D03*
X227600000Y-61800000D03*
X228400000Y-61800000D03*
X229200000Y-61800000D03*
X230000000Y-61800000D03*
X230800000Y-61800000D03*
X231600000Y-61800000D03*
X232400000Y-61800000D03*
X233200000Y-61800000D03*
X234000000Y-61800000D03*
X234800000Y-61800000D03*
X235600000Y-61800000D03*
X236400000Y-61800000D03*
X237200000Y-61800000D03*
X238000000Y-61800000D03*
X238800000Y-61800000D03*
X239600000Y-61800000D03*
X200400000Y-62600000D03*
X201200000Y-62600000D03*
X202000000Y-62600000D03*
X202800000Y-62600000D03*
X203600000Y-62600000D03*
X204400000Y-62600000D03*
X205200000Y-62600000D03*
X206000000Y-62600000D03*
X206800000Y-62600000D03*
X207600000Y-62600000D03*
X208400000Y-62600000D03*
X209200000Y-62600000D03*
X210000000Y-62600000D03*
X210800000Y-62600000D03*
X211600000Y-62600000D03*
X212400000Y-62600000D03*
X213200000Y-62600000D03*
X214000000Y-62600000D03*
X214800000Y-62600000D03*
X215600000Y-62600000D03*
X216400000Y-62600000D03*
X217200000Y-62600000D03*
X218000000Y-62600000D03*
X218800000Y-62600000D03*
X219600000Y-62600000D03*
X220400000Y-62600000D03*
X221200000Y-62600000D03*
X222000000Y-62600000D03*
X222800000Y-62600000D03*
X223600000Y-62600000D03*
X224400000Y-62600000D03*
X225200000Y-62600000D03*
X226000000Y-62600000D03*
X226800000Y-62600000D03*
X227600000Y-62600000D03*
X228400000Y-62600000D03*
X229200000Y-62600000D03*
X230000000Y-62600000D03*
X230800000Y-62600000D03*
X231600000Y-62600000D03*
X232400000Y-62600000D03*
X233200000Y-62600000D03*
X234000000Y-62600000D03*
X234800000Y-62600000D03*
X235600000Y-62600000D03*
X236400000Y-62600000D03*
X237200000Y-62600000D03*
X238000000Y-62600000D03*
X238800000Y-62600000D03*
X239600000Y-62600000D03*
X200400000Y-63400000D03*
X201200000Y-63400000D03*
X202000000Y-63400000D03*
X202800000Y-63400000D03*
X203600000Y-63400000D03*
X204400000Y-63400000D03*
X205200000Y-63400000D03*
X206000000Y-63400000D03*
X206800000Y-63400000D03*
X207600000Y-63400000D03*
X208400000Y-63400000D03*
X209200000Y-63400000D03*
X210000000Y-63400000D03*
X210800000Y-63400000D03*
X211600000Y-63400000D03*
X212400000Y-63400000D03*
X213200000Y-63400000D03*
X214000000Y-63400000D03*
X214800000Y-63400000D03*
X215600000Y-63400000D03*
X216400000Y-63400000D03*
X217200000Y-63400000D03*
X218000000Y-63400000D03*
X218800000Y-63400000D03*
X219600000Y-63400000D03*
X220400000Y-63400000D03*
X221200000Y-63400000D03*
X222000000Y-63400000D03*
X222800000Y-63400000D03*
X223600000Y-63400000D03*
X224400000Y-63400000D03*
X225200000Y-63400000D03*
X226000000Y-63400000D03*
X226800000Y-63400000D03*
X227600000Y-63400000D03*
X228400000Y-63400000D03*
X229200000Y-63400000D03*
X230000000Y-63400000D03*
X230800000Y-63400000D03*
X231600000Y-63400000D03*
X232400000Y-63400000D03*
X233200000Y-63400000D03*
X234000000Y-63400000D03*
X234800000Y-63400000D03*
X235600000Y-63400000D03*
X236400000Y-63400000D03*
X237200000Y-63400000D03*
X238000000Y-63400000D03*
X238800000Y-63400000D03*
X239600000Y-63400000D03*
X200400000Y-64200000D03*
X201200000Y-64200000D03*
X202000000Y-64200000D03*
X202800000Y-64200000D03*
X203600000Y-64200000D03*
X204400000Y-64200000D03*
X205200000Y-64200000D03*
X206000000Y-64200000D03*
X206800000Y-64200000D03*
X207600000Y-64200000D03*
X208400000Y-64200000D03*
X209200000Y-64200000D03*
X210000000Y-64200000D03*
X210800000Y-64200000D03*
X211600000Y-64200000D03*
X212400000Y-64200000D03*
X213200000Y-64200000D03*
X214000000Y-64200000D03*
X214800000Y-64200000D03*
X215600000Y-64200000D03*
X216400000Y-64200000D03*
X217200000Y-64200000D03*
X218000000Y-64200000D03*
X218800000Y-64200000D03*
X219600000Y-64200000D03*
X220400000Y-64200000D03*
X221200000Y-64200000D03*
X222000000Y-64200000D03*
X222800000Y-64200000D03*
X223600000Y-64200000D03*
X224400000Y-64200000D03*
X225200000Y-64200000D03*
X226000000Y-64200000D03*
X226800000Y-64200000D03*
X227600000Y-64200000D03*
X228400000Y-64200000D03*
X229200000Y-64200000D03*
X230000000Y-64200000D03*
X230800000Y-64200000D03*
X231600000Y-64200000D03*
X232400000Y-64200000D03*
X233200000Y-64200000D03*
X234000000Y-64200000D03*
X234800000Y-64200000D03*
X235600000Y-64200000D03*
X236400000Y-64200000D03*
X237200000Y-64200000D03*
X238000000Y-64200000D03*
X238800000Y-64200000D03*
X239600000Y-64200000D03*
X200400000Y-65000000D03*
X201200000Y-65000000D03*
X202000000Y-65000000D03*
X202800000Y-65000000D03*
X203600000Y-65000000D03*
X204400000Y-65000000D03*
X205200000Y-65000000D03*
X206000000Y-65000000D03*
X206800000Y-65000000D03*
X207600000Y-65000000D03*
X208400000Y-65000000D03*
X209200000Y-65000000D03*
X210000000Y-65000000D03*
X210800000Y-65000000D03*
X211600000Y-65000000D03*
X212400000Y-65000000D03*
X213200000Y-65000000D03*
X214000000Y-65000000D03*
X214800000Y-65000000D03*
X215600000Y-65000000D03*
X216400000Y-65000000D03*
X217200000Y-65000000D03*
X218000000Y-65000000D03*
X218800000Y-65000000D03*
X219600000Y-65000000D03*
X220400000Y-65000000D03*
X221200000Y-65000000D03*
X222000000Y-65000000D03*
X222800000Y-65000000D03*
X223600000Y-65000000D03*
X224400000Y-65000000D03*
X225200000Y-65000000D03*
X226000000Y-65000000D03*
X226800000Y-65000000D03*
X227600000Y-65000000D03*
X228400000Y-65000000D03*
X229200000Y-65000000D03*
X230000000Y-65000000D03*
X230800000Y-65000000D03*
X231600000Y-65000000D03*
X232400000Y-65000000D03*
X233200000Y-65000000D03*
X234000000Y-65000000D03*
X234800000Y-65000000D03*
X235600000Y-65000000D03*
X236400000Y-65000000D03*
X237200000Y-65000000D03*
X238000000Y-65000000D03*
X238800000Y-65000000D03*
X239600000Y-65000000D03*
X200400000Y-65800000D03*
X201200000Y-65800000D03*
X202000000Y-65800000D03*
X202800000Y-65800000D03*
X203600000Y-65800000D03*
X204400000Y-65800000D03*
X205200000Y-65800000D03*
X206000000Y-65800000D03*
X206800000Y-65800000D03*
X207600000Y-65800000D03*
X208400000Y-65800000D03*
X209200000Y-65800000D03*
X210000000Y-65800000D03*
X210800000Y-65800000D03*
X211600000Y-65800000D03*
X212400000Y-65800000D03*
X213200000Y-65800000D03*
X214000000Y-65800000D03*
X214800000Y-65800000D03*
X215600000Y-65800000D03*
X216400000Y-65800000D03*
X217200000Y-65800000D03*
X218000000Y-65800000D03*
X218800000Y-65800000D03*
X219600000Y-65800000D03*
X220400000Y-65800000D03*
X221200000Y-65800000D03*
X222000000Y-65800000D03*
X222800000Y-65800000D03*
X223600000Y-65800000D03*
X224400000Y-65800000D03*
X225200000Y-65800000D03*
X226000000Y-65800000D03*
X226800000Y-65800000D03*
X227600000Y-65800000D03*
X228400000Y-65800000D03*
X229200000Y-65800000D03*
X230000000Y-65800000D03*
X230800000Y-65800000D03*
X231600000Y-65800000D03*
X232400000Y-65800000D03*
X233200000Y-65800000D03*
X234000000Y-65800000D03*
X234800000Y-65800000D03*
X235600000Y-65800000D03*
X236400000Y-65800000D03*
X237200000Y-65800000D03*
X238000000Y-65800000D03*
X238800000Y-65800000D03*
X239600000Y-65800000D03*
X200400000Y-66600000D03*
X201200000Y-66600000D03*
X202000000Y-66600000D03*
X202800000Y-66600000D03*
X203600000Y-66600000D03*
X204400000Y-66600000D03*
X205200000Y-66600000D03*
X206000000Y-66600000D03*
X206800000Y-66600000D03*
X207600000Y-66600000D03*
X208400000Y-66600000D03*
X209200000Y-66600000D03*
X210000000Y-66600000D03*
X210800000Y-66600000D03*
X211600000Y-66600000D03*
X212400000Y-66600000D03*
X213200000Y-66600000D03*
X214000000Y-66600000D03*
X214800000Y-66600000D03*
X215600000Y-66600000D03*
X216400000Y-66600000D03*
X217200000Y-66600000D03*
X218000000Y-66600000D03*
X218800000Y-66600000D03*
X219600000Y-66600000D03*
X220400000Y-66600000D03*
X221200000Y-66600000D03*
X222000000Y-66600000D03*
X222800000Y-66600000D03*
X223600000Y-66600000D03*
X224400000Y-66600000D03*
X225200000Y-66600000D03*
X226000000Y-66600000D03*
X226800000Y-66600000D03*
X227600000Y-66600000D03*
X228400000Y-66600000D03*
X229200000Y-66600000D03*
X230000000Y-66600000D03*
X230800000Y-66600000D03*
X231600000Y-66600000D03*
X232400000Y-66600000D03*
X233200000Y-66600000D03*
X234000000Y-66600000D03*
X234800000Y-66600000D03*
X235600000Y-66600000D03*
X236400000Y-66600000D03*
X237200000Y-66600000D03*
X238000000Y-66600000D03*
X238800000Y-66600000D03*
X239600000Y-66600000D03*
X200400000Y-67400000D03*
X201200000Y-67400000D03*
X202000000Y-67400000D03*
X202800000Y-67400000D03*
X203600000Y-67400000D03*
X204400000Y-67400000D03*
X205200000Y-67400000D03*
X206000000Y-67400000D03*
X206800000Y-67400000D03*
X207600000Y-67400000D03*
X208400000Y-67400000D03*
X209200000Y-67400000D03*
X210000000Y-67400000D03*
X210800000Y-67400000D03*
X211600000Y-67400000D03*
X212400000Y-67400000D03*
X213200000Y-67400000D03*
X214000000Y-67400000D03*
X214800000Y-67400000D03*
X215600000Y-67400000D03*
X216400000Y-67400000D03*
X217200000Y-67400000D03*
X218000000Y-67400000D03*
X218800000Y-67400000D03*
X219600000Y-67400000D03*
X220400000Y-67400000D03*
X221200000Y-67400000D03*
X222000000Y-67400000D03*
X222800000Y-67400000D03*
X223600000Y-67400000D03*
X224400000Y-67400000D03*
X225200000Y-67400000D03*
X226000000Y-67400000D03*
X226800000Y-67400000D03*
X227600000Y-67400000D03*
X228400000Y-67400000D03*
X229200000Y-67400000D03*
X230000000Y-67400000D03*
X230800000Y-67400000D03*
X231600000Y-67400000D03*
X232400000Y-67400000D03*
X233200000Y-67400000D03*
X234000000Y-67400000D03*
X234800000Y-67400000D03*
X235600000Y-67400000D03*
X236400000Y-67400000D03*
X237200000Y-67400000D03*
X238000000Y-67400000D03*
X238800000Y-67400000D03*
X239600000Y-67400000D03*
X200400000Y-68200000D03*
X201200000Y-68200000D03*
X202000000Y-68200000D03*
X202800000Y-68200000D03*
X203600000Y-68200000D03*
X204400000Y-68200000D03*
X205200000Y-68200000D03*
X206000000Y-68200000D03*
X206800000Y-68200000D03*
X207600000Y-68200000D03*
X208400000Y-68200000D03*
X209200000Y-68200000D03*
X210000000Y-68200000D03*
X210800000Y-68200000D03*
X211600000Y-68200000D03*
X212400000Y-68200000D03*
X213200000Y-68200000D03*
X214000000Y-68200000D03*
X214800000Y-68200000D03*
X215600000Y-68200000D03*
X216400000Y-68200000D03*
X217200000Y-68200000D03*
X218000000Y-68200000D03*
X218800000Y-68200000D03*
X219600000Y-68200000D03*
X220400000Y-68200000D03*
X221200000Y-68200000D03*
X222000000Y-68200000D03*
X222800000Y-68200000D03*
X223600000Y-68200000D03*
X224400000Y-68200000D03*
X225200000Y-68200000D03*
X226000000Y-68200000D03*
X226800000Y-68200000D03*
X227600000Y-68200000D03*
X228400000Y-68200000D03*
X229200000Y-68200000D03*
X230000000Y-68200000D03*
X230800000Y-68200000D03*
X231600000Y-68200000D03*
X232400000Y-68200000D03*
X233200000Y-68200000D03*
X234000000Y-68200000D03*
X234800000Y-68200000D03*
X235600000Y-68200000D03*
X236400000Y-68200000D03*
X237200000Y-68200000D03*
X238000000Y-68200000D03*
X238800000Y-68200000D03*
X239600000Y-68200000D03*
X200400000Y-69000000D03*
X201200000Y-69000000D03*
X202000000Y-69000000D03*
X202800000Y-69000000D03*
X203600000Y-69000000D03*
X204400000Y-69000000D03*
X205200000Y-69000000D03*
X206000000Y-69000000D03*
X206800000Y-69000000D03*
X207600000Y-69000000D03*
X208400000Y-69000000D03*
X209200000Y-69000000D03*
X210000000Y-69000000D03*
X210800000Y-69000000D03*
X211600000Y-69000000D03*
X212400000Y-69000000D03*
X213200000Y-69000000D03*
X214000000Y-69000000D03*
X214800000Y-69000000D03*
X215600000Y-69000000D03*
X216400000Y-69000000D03*
X217200000Y-69000000D03*
X218000000Y-69000000D03*
X218800000Y-69000000D03*
X219600000Y-69000000D03*
X220400000Y-69000000D03*
X221200000Y-69000000D03*
X222000000Y-69000000D03*
X222800000Y-69000000D03*
X223600000Y-69000000D03*
X224400000Y-69000000D03*
X225200000Y-69000000D03*
X226000000Y-69000000D03*
X226800000Y-69000000D03*
X227600000Y-69000000D03*
X228400000Y-69000000D03*
X229200000Y-69000000D03*
X230000000Y-69000000D03*
X230800000Y-69000000D03*
X231600000Y-69000000D03*
X232400000Y-69000000D03*
X233200000Y-69000000D03*
X234000000Y-69000000D03*
X234800000Y-69000000D03*
X235600000Y-69000000D03*
X236400000Y-69000000D03*
X237200000Y-69000000D03*
X238000000Y-69000000D03*
X238800000Y-69000000D03*
X239600000Y-69000000D03*
X200400000Y-69800000D03*
X201200000Y-69800000D03*
X202000000Y-69800000D03*
X202800000Y-69800000D03*
X203600000Y-69800000D03*
X204400000Y-69800000D03*
X205200000Y-69800000D03*
X206000000Y-69800000D03*
X206800000Y-69800000D03*
X207600000Y-69800000D03*
X208400000Y-69800000D03*
X209200000Y-69800000D03*
X210000000Y-69800000D03*
X210800000Y-69800000D03*
X211600000Y-69800000D03*
X212400000Y-69800000D03*
X213200000Y-69800000D03*
X214000000Y-69800000D03*
X214800000Y-69800000D03*
X215600000Y-69800000D03*
X216400000Y-69800000D03*
X217200000Y-69800000D03*
X218000000Y-69800000D03*
X218800000Y-69800000D03*
X219600000Y-69800000D03*
X220400000Y-69800000D03*
X221200000Y-69800000D03*
X222000000Y-69800000D03*
X222800000Y-69800000D03*
X223600000Y-69800000D03*
X224400000Y-69800000D03*
X225200000Y-69800000D03*
X226000000Y-69800000D03*
X226800000Y-69800000D03*
X227600000Y-69800000D03*
X228400000Y-69800000D03*
X229200000Y-69800000D03*
X230000000Y-69800000D03*
X230800000Y-69800000D03*
X231600000Y-69800000D03*
X232400000Y-69800000D03*
X233200000Y-69800000D03*
X234000000Y-69800000D03*
X234800000Y-69800000D03*
X235600000Y-69800000D03*
X236400000Y-69800000D03*
X237200000Y-69800000D03*
X238000000Y-69800000D03*
X238800000Y-69800000D03*
X239600000Y-69800000D03*
X200400000Y-70600000D03*
X201200000Y-70600000D03*
X202000000Y-70600000D03*
X202800000Y-70600000D03*
X203600000Y-70600000D03*
X204400000Y-70600000D03*
X205200000Y-70600000D03*
X206000000Y-70600000D03*
X206800000Y-70600000D03*
X207600000Y-70600000D03*
X208400000Y-70600000D03*
X209200000Y-70600000D03*
X210000000Y-70600000D03*
X210800000Y-70600000D03*
X211600000Y-70600000D03*
X212400000Y-70600000D03*
X213200000Y-70600000D03*
X214000000Y-70600000D03*
X214800000Y-70600000D03*
X215600000Y-70600000D03*
X216400000Y-70600000D03*
X217200000Y-70600000D03*
X218000000Y-70600000D03*
X218800000Y-70600000D03*
X219600000Y-70600000D03*
X220400000Y-70600000D03*
X221200000Y-70600000D03*
X222000000Y-70600000D03*
X222800000Y-70600000D03*
X223600000Y-70600000D03*
X224400000Y-70600000D03*
X225200000Y-70600000D03*
X226000000Y-70600000D03*
X226800000Y-70600000D03*
X227600000Y-70600000D03*
X228400000Y-70600000D03*
X229200000Y-70600000D03*
X230000000Y-70600000D03*
X230800000Y-70600000D03*
X231600000Y-70600000D03*
X232400000Y-70600000D03*
X233200000Y-70600000D03*
X234000000Y-70600000D03*
X234800000Y-70600000D03*
X235600000Y-70600000D03*
X236400000Y-70600000D03*
X237200000Y-70600000D03*
X238000000Y-70600000D03*
X238800000Y-70600000D03*
X239600000Y-70600000D03*
X200400000Y-71400000D03*
X201200000Y-71400000D03*
X202000000Y-71400000D03*
X202800000Y-71400000D03*
X203600000Y-71400000D03*
X204400000Y-71400000D03*
X205200000Y-71400000D03*
X206000000Y-71400000D03*
X206800000Y-71400000D03*
X207600000Y-71400000D03*
X208400000Y-71400000D03*
X209200000Y-71400000D03*
X210000000Y-71400000D03*
X210800000Y-71400000D03*
X211600000Y-71400000D03*
X212400000Y-71400000D03*
X213200000Y-71400000D03*
X214000000Y-71400000D03*
X214800000Y-71400000D03*
X215600000Y-71400000D03*
X216400000Y-71400000D03*
X217200000Y-71400000D03*
X218000000Y-71400000D03*
X218800000Y-71400000D03*
X219600000Y-71400000D03*
X220400000Y-71400000D03*
X221200000Y-71400000D03*
X222000000Y-71400000D03*
X222800000Y-71400000D03*
X223600000Y-71400000D03*
X224400000Y-71400000D03*
X225200000Y-71400000D03*
X226000000Y-71400000D03*
X226800000Y-71400000D03*
X227600000Y-71400000D03*
X228400000Y-71400000D03*
X229200000Y-71400000D03*
X230000000Y-71400000D03*
X230800000Y-71400000D03*
X231600000Y-71400000D03*
X232400000Y-71400000D03*
X233200000Y-71400000D03*
X234000000Y-71400000D03*
X234800000Y-71400000D03*
X235600000Y-71400000D03*
X236400000Y-71400000D03*
X237200000Y-71400000D03*
X238000000Y-71400000D03*
X238800000Y-71400000D03*
X239600000Y-71400000D03*
X200400000Y-72200000D03*
X201200000Y-72200000D03*
X202000000Y-72200000D03*
X202800000Y-72200000D03*
X203600000Y-72200000D03*
X204400000Y-72200000D03*
X205200000Y-72200000D03*
X206000000Y-72200000D03*
X206800000Y-72200000D03*
X207600000Y-72200000D03*
X208400000Y-72200000D03*
X209200000Y-72200000D03*
X210000000Y-72200000D03*
X210800000Y-72200000D03*
X211600000Y-72200000D03*
X212400000Y-72200000D03*
X213200000Y-72200000D03*
X214000000Y-72200000D03*
X214800000Y-72200000D03*
X215600000Y-72200000D03*
X216400000Y-72200000D03*
X217200000Y-72200000D03*
X218000000Y-72200000D03*
X218800000Y-72200000D03*
X219600000Y-72200000D03*
X220400000Y-72200000D03*
X221200000Y-72200000D03*
X222000000Y-72200000D03*
X222800000Y-72200000D03*
X223600000Y-72200000D03*
X224400000Y-72200000D03*
X225200000Y-72200000D03*
X226000000Y-72200000D03*
X226800000Y-72200000D03*
X227600000Y-72200000D03*
X228400000Y-72200000D03*
X229200000Y-72200000D03*
X230000000Y-72200000D03*
X230800000Y-72200000D03*
X231600000Y-72200000D03*
X232400000Y-72200000D03*
X233200000Y-72200000D03*
X234000000Y-72200000D03*
X234800000Y-72200000D03*
X235600000Y-72200000D03*
X236400000Y-72200000D03*
X237200000Y-72200000D03*
X238000000Y-72200000D03*
X238800000Y-72200000D03*
X239600000Y-72200000D03*
X200400000Y-73000000D03*
X201200000Y-73000000D03*
X202000000Y-73000000D03*
X202800000Y-73000000D03*
X203600000Y-73000000D03*
X204400000Y-73000000D03*
X205200000Y-73000000D03*
X206000000Y-73000000D03*
X206800000Y-73000000D03*
X207600000Y-73000000D03*
X208400000Y-73000000D03*
X209200000Y-73000000D03*
X210000000Y-73000000D03*
X210800000Y-73000000D03*
X211600000Y-73000000D03*
X212400000Y-73000000D03*
X213200000Y-73000000D03*
X214000000Y-73000000D03*
X214800000Y-73000000D03*
X215600000Y-73000000D03*
X216400000Y-73000000D03*
X217200000Y-73000000D03*
X218000000Y-73000000D03*
X218800000Y-73000000D03*
X219600000Y-73000000D03*
X220400000Y-73000000D03*
X221200000Y-73000000D03*
X222000000Y-73000000D03*
X222800000Y-73000000D03*
X223600000Y-73000000D03*
X224400000Y-73000000D03*
X225200000Y-73000000D03*
X226000000Y-73000000D03*
X226800000Y-73000000D03*
X227600000Y-73000000D03*
X228400000Y-73000000D03*
X229200000Y-73000000D03*
X230000000Y-73000000D03*
X230800000Y-73000000D03*
X231600000Y-73000000D03*
X232400000Y-73000000D03*
X233200000Y-73000000D03*
X234000000Y-73000000D03*
X234800000Y-73000000D03*
X235600000Y-73000000D03*
X236400000Y-73000000D03*
X237200000Y-73000000D03*
X238000000Y-73000000D03*
X238800000Y-73000000D03*
X239600000Y-73000000D03*
X200400000Y-73800000D03*
X201200000Y-73800000D03*
X202000000Y-73800000D03*
X202800000Y-73800000D03*
X203600000Y-73800000D03*
X204400000Y-73800000D03*
X205200000Y-73800000D03*
X206000000Y-73800000D03*
X206800000Y-73800000D03*
X207600000Y-73800000D03*
X208400000Y-73800000D03*
X209200000Y-73800000D03*
X210000000Y-73800000D03*
X210800000Y-73800000D03*
X211600000Y-73800000D03*
X212400000Y-73800000D03*
X213200000Y-73800000D03*
X214000000Y-73800000D03*
X214800000Y-73800000D03*
X215600000Y-73800000D03*
X216400000Y-73800000D03*
X217200000Y-73800000D03*
X218000000Y-73800000D03*
X218800000Y-73800000D03*
X219600000Y-73800000D03*
X220400000Y-73800000D03*
X221200000Y-73800000D03*
X222000000Y-73800000D03*
X222800000Y-73800000D03*
X223600000Y-73800000D03*
X224400000Y-73800000D03*
X225200000Y-73800000D03*
X226000000Y-73800000D03*
X226800000Y-73800000D03*
X227600000Y-73800000D03*
X228400000Y-73800000D03*
X229200000Y-73800000D03*
X230000000Y-73800000D03*
X230800000Y-73800000D03*
X231600000Y-73800000D03*
X232400000Y-73800000D03*
X233200000Y-73800000D03*
X234000000Y-73800000D03*
X234800000Y-73800000D03*
X235600000Y-73800000D03*
X236400000Y-73800000D03*
X237200000Y-73800000D03*
X238000000Y-73800000D03*
X238800000Y-73800000D03*
X239600000Y-73800000D03*
X200400000Y-74600000D03*
X201200000Y-74600000D03*
X202000000Y-74600000D03*
X202800000Y-74600000D03*
X203600000Y-74600000D03*
X204400000Y-74600000D03*
X205200000Y-74600000D03*
X206000000Y-74600000D03*
X206800000Y-74600000D03*
X207600000Y-74600000D03*
X208400000Y-74600000D03*
X209200000Y-74600000D03*
X210000000Y-74600000D03*
X210800000Y-74600000D03*
X211600000Y-74600000D03*
X212400000Y-74600000D03*
X213200000Y-74600000D03*
X214000000Y-74600000D03*
X214800000Y-74600000D03*
X215600000Y-74600000D03*
X216400000Y-74600000D03*
X217200000Y-74600000D03*
X218000000Y-74600000D03*
X218800000Y-74600000D03*
X219600000Y-74600000D03*
X220400000Y-74600000D03*
X221200000Y-74600000D03*
X222000000Y-74600000D03*
X222800000Y-74600000D03*
X223600000Y-74600000D03*
X224400000Y-74600000D03*
X225200000Y-74600000D03*
X226000000Y-74600000D03*
X226800000Y-74600000D03*
X227600000Y-74600000D03*
X228400000Y-74600000D03*
X229200000Y-74600000D03*
X230000000Y-74600000D03*
X230800000Y-74600000D03*
X231600000Y-74600000D03*
X232400000Y-74600000D03*
X233200000Y-74600000D03*
X234000000Y-74600000D03*
X234800000Y-74600000D03*
X235600000Y-74600000D03*
X236400000Y-74600000D03*
X237200000Y-74600000D03*
X238000000Y-74600000D03*
X238800000Y-74600000D03*
X239600000Y-74600000D03*
%TD*%
D11*
%TO.C,U102*%
X70000000Y-110000000D03*
X80000000Y-110000000D03*
X70000000Y-120000000D03*
X80000000Y-120000000D03*
%TD*%
%TO.C,U202*%
X215000000Y-110000000D03*
X225000000Y-110000000D03*
X215000000Y-120000000D03*
X225000000Y-120000000D03*
%TD*%
D12*
X50000000Y-30000000D03*
X100000000Y-30000000D03*
X100000000Y-80000000D03*
X50000000Y-80000000D03*
X195000000Y-30000000D03*
X245000000Y-30000000D03*
X245000000Y-80000000D03*
X195000000Y-80000000D03*
M02*
