<svg xmlns="http://www.w3.org/2000/svg" viewBox="-10 -10 315 160" width="1260" height="640" style="background-color: #121214;">
  <!-- Board Outline -->
  <line x1="0" y1="0" x2="295" y2="0" stroke="#2d8cf0" stroke-width="1.0" stroke-linecap="round" />
  <line x1="295" y1="0" x2="295" y2="140" stroke="#2d8cf0" stroke-width="1.0" stroke-linecap="round" />
  <line x1="295" y1="140" x2="0" y2="140" stroke="#2d8cf0" stroke-width="1.0" stroke-linecap="round" />
  <line x1="0" y1="140" x2="0" y2="0" stroke="#2d8cf0" stroke-width="1.0" stroke-linecap="round" />
  <!-- Component Placements (Top Layer) -->
  <g transform="translate(85.0,60.0) rotate(0.0)">
    <rect x="-7.5" y="-7.5" width="15" height="15" fill="none" stroke="#19be6b" stroke-width="0.4" rx="0.5" />
    <circle cx="-6.5" cy="-6.5" r="0.4" fill="#19be6b" />
  </g>
  <text x="85.0" y="61.0" font-family="monospace" font-size="2.2" font-weight="bold" fill="#ffffff" text-anchor="middle" dominant-baseline="middle">U1</text>
  <g transform="translate(30.0,30.0) rotate(0.0)">
    <rect x="-4.0" y="-4.0" width="8" height="8" fill="none" stroke="#19be6b" stroke-width="0.4" rx="0.5" />
    <circle cx="-3.0" cy="-3.0" r="0.4" fill="#19be6b" />
  </g>
  <text x="30.0" y="31.0" font-family="monospace" font-size="2.2" font-weight="bold" fill="#ffffff" text-anchor="middle" dominant-baseline="middle">U2</text>
  <g transform="translate(120.0,30.0) rotate(0.0)">
    <rect x="-6.0" y="-5.0" width="12" height="10" fill="none" stroke="#19be6b" stroke-width="0.4" rx="0.5" />
    <circle cx="-5.0" cy="-4.0" r="0.4" fill="#19be6b" />
  </g>
  <text x="120.0" y="31.0" font-family="monospace" font-size="2.2" font-weight="bold" fill="#ffffff" text-anchor="middle" dominant-baseline="middle">U3</text>
  <g transform="translate(92.0,25.0) rotate(0.0)">
    <rect x="-2.0" y="-2.0" width="4" height="4" fill="none" stroke="#19be6b" stroke-width="0.4" rx="0.5" />
    <circle cx="-1.0" cy="-1.0" r="0.4" fill="#19be6b" />
  </g>
  <text x="92.0" y="26.0" font-family="monospace" font-size="2.2" font-weight="bold" fill="#ffffff" text-anchor="middle" dominant-baseline="middle">U4</text>
  <g transform="translate(10.0,10.0) rotate(0.0)">
    <circle cx="0" cy="0" r="3.0" fill="none" stroke="#ff9900" stroke-width="0.5" />
  </g>
  <text x="10.0" y="11.0" font-family="monospace" font-size="2.2" font-weight="bold" fill="#ffffff" text-anchor="middle" dominant-baseline="middle">H1</text>
  <g transform="translate(30.0,10.0) rotate(0.0)">
    <circle cx="0" cy="0" r="3.0" fill="none" stroke="#ff9900" stroke-width="0.5" />
  </g>
  <text x="30.0" y="11.0" font-family="monospace" font-size="2.2" font-weight="bold" fill="#ffffff" text-anchor="middle" dominant-baseline="middle">H2</text>
  <g transform="translate(50.0,10.0) rotate(0.0)">
    <circle cx="0" cy="0" r="3.0" fill="none" stroke="#ff9900" stroke-width="0.5" />
  </g>
  <text x="50.0" y="11.0" font-family="monospace" font-size="2.2" font-weight="bold" fill="#ffffff" text-anchor="middle" dominant-baseline="middle">H3</text>
  <g transform="translate(70.0,10.0) rotate(0.0)">
    <circle cx="0" cy="0" r="3.0" fill="none" stroke="#ff9900" stroke-width="0.5" />
  </g>
  <text x="70.0" y="11.0" font-family="monospace" font-size="2.2" font-weight="bold" fill="#ffffff" text-anchor="middle" dominant-baseline="middle">H4</text>
  <g transform="translate(90.0,10.0) rotate(0.0)">
    <circle cx="0" cy="0" r="1.5" fill="none" stroke="#e0e0e0" stroke-width="0.3" />
    <line x1="-2" y1="0" x2="2" y2="0" stroke="#e0e0e0" stroke-width="0.2" />
    <line x1="0" y1="-2" x2="0" y2="2" stroke="#e0e0e0" stroke-width="0.2" />
  </g>
  <text x="90.0" y="11.0" font-family="monospace" font-size="2.2" font-weight="bold" fill="#ffffff" text-anchor="middle" dominant-baseline="middle">FID1</text>
  <g transform="translate(110.0,10.0) rotate(0.0)">
    <circle cx="0" cy="0" r="1.5" fill="none" stroke="#e0e0e0" stroke-width="0.3" />
    <line x1="-2" y1="0" x2="2" y2="0" stroke="#e0e0e0" stroke-width="0.2" />
    <line x1="0" y1="-2" x2="0" y2="2" stroke="#e0e0e0" stroke-width="0.2" />
  </g>
  <text x="110.0" y="11.0" font-family="monospace" font-size="2.2" font-weight="bold" fill="#ffffff" text-anchor="middle" dominant-baseline="middle">FID2</text>
  <g transform="translate(130.0,10.0) rotate(0.0)">
    <circle cx="0" cy="0" r="1.5" fill="none" stroke="#e0e0e0" stroke-width="0.3" />
    <line x1="-2" y1="0" x2="2" y2="0" stroke="#e0e0e0" stroke-width="0.2" />
    <line x1="0" y1="-2" x2="0" y2="2" stroke="#e0e0e0" stroke-width="0.2" />
  </g>
  <text x="130.0" y="11.0" font-family="monospace" font-size="2.2" font-weight="bold" fill="#ffffff" text-anchor="middle" dominant-baseline="middle">FID3</text>
  <g transform="translate(10.0,200.0) rotate(0.0)">
    <rect x="-3.0" y="-4.0" width="6" height="8" fill="none" stroke="#19be6b" stroke-width="0.4" rx="0.5" />
    <circle cx="-2.0" cy="-3.0" r="0.4" fill="#19be6b" />
  </g>
  <text x="10.0" y="201.0" font-family="monospace" font-size="2.2" font-weight="bold" fill="#ffffff" text-anchor="middle" dominant-baseline="middle">J1</text>
  <g transform="translate(30.0,200.0) rotate(0.0)">
    <rect x="-3.0" y="-4.0" width="6" height="8" fill="none" stroke="#19be6b" stroke-width="0.4" rx="0.5" />
    <circle cx="-2.0" cy="-3.0" r="0.4" fill="#19be6b" />
  </g>
  <text x="30.0" y="201.0" font-family="monospace" font-size="2.2" font-weight="bold" fill="#ffffff" text-anchor="middle" dominant-baseline="middle">J2</text>
  <g transform="translate(50.0,200.0) rotate(0.0)">
    <rect x="-3.0" y="-4.0" width="6" height="8" fill="none" stroke="#19be6b" stroke-width="0.4" rx="0.5" />
    <circle cx="-2.0" cy="-3.0" r="0.4" fill="#19be6b" />
  </g>
  <text x="50.0" y="201.0" font-family="monospace" font-size="2.2" font-weight="bold" fill="#ffffff" text-anchor="middle" dominant-baseline="middle">J3</text>
  <g transform="translate(70.0,200.0) rotate(0.0)">
    <rect x="-3.0" y="-4.0" width="6" height="8" fill="none" stroke="#19be6b" stroke-width="0.4" rx="0.5" />
    <circle cx="-2.0" cy="-3.0" r="0.4" fill="#19be6b" />
  </g>
  <text x="70.0" y="201.0" font-family="monospace" font-size="2.2" font-weight="bold" fill="#ffffff" text-anchor="middle" dominant-baseline="middle">J4</text>
  <text x="147.5" y="145.0" font-family="sans-serif" font-size="4" font-weight="bold" fill="#2d8cf0" text-anchor="middle">LightRail LPO MVP — Assembly Drawing (Top Layer)</text>
</svg>