%TF.GenerationSoftware,KiCad,Pcbnew,10.0.3*%
%TF.CreationDate,2026-07-12T23:10:44-07:00*%
%TF.ProjectId,LightRail_LPO_MVP,4c696768-7452-4616-996c-5f4c504f5f4d,rev?*%
%TF.SameCoordinates,Original*%
%TF.FileFunction,Copper,L1,Top*%
%TF.FilePolarity,Positive*%
%FSLAX46Y46*%
G04 Gerber Fmt 4.6, Leading zero omitted, Abs format (unit mm)*
G04 Created by KiCad (PCBNEW 10.0.3) date 2026-07-12 23:10:44*
%MOMM*%
%LPD*%
G01*
G04 APERTURE LIST*
%TA.AperFunction,SMDPad,CuDef*%
%ADD10R,1.000000X1.000000*%
%TD*%
%TA.AperFunction,SMDPad,CuDef*%
%ADD11R,0.500000X0.500000*%
%TD*%
%TA.AperFunction,ComponentPad*%
%ADD12C,6.000000*%
%TD*%
%TA.AperFunction,SMDPad,CuDef*%
%ADD13C,1.000000*%
%TD*%
%TA.AperFunction,SMDPad,CuDef*%
%ADD14R,2.000000X2.000000*%
%TD*%
%TA.AperFunction,Conductor*%
%ADD15C,0.150000*%
%TD*%
%ADD16C,0.350000*%
G04 APERTURE END LIST*
D10*
%TO.P,U1,1*%
%TO.N,net_1*%
X80000000Y-55000000D03*
%TO.P,U1,2*%
%TO.N,net_2*%
X90000000Y-55000000D03*
%TO.P,U1,3*%
%TO.N,net_3*%
X80000000Y-65000000D03*
%TO.P,U1,4*%
%TO.N,net_4*%
X90000000Y-65000000D03*
%TD*%
%TO.P,U2,1*%
%TO.N,net_5*%
X28000000Y-28000000D03*
%TO.P,U2,2*%
%TO.N,net_6*%
X32000000Y-28000000D03*
%TO.P,U2,3*%
%TO.N,net_7*%
X28000000Y-32000000D03*
%TO.P,U2,4*%
%TO.N,net_8*%
X32000000Y-32000000D03*
%TD*%
%TO.P,U3,1*%
%TO.N,net_9*%
X117000000Y-27000000D03*
%TO.P,U3,2*%
%TO.N,net_10*%
X123000000Y-27000000D03*
%TO.P,U3,3*%
%TO.N,net_11*%
X117000000Y-33000000D03*
%TO.P,U3,4*%
%TO.N,net_12*%
X123000000Y-33000000D03*
%TD*%
D11*
%TO.P,U4,1*%
%TO.N,net_1*%
X90000000Y-23000000D03*
%TO.P,U4,2*%
%TO.N,net_2*%
X94000000Y-27000000D03*
%TO.P,U4,3*%
%TO.N,net_3*%
X90000000Y-27000000D03*
%TO.P,U4,4*%
%TO.N,net_13*%
X94000000Y-23000000D03*
%TD*%
D12*
%TO.P,H1,1*%
%TO.N,N/C*%
X10000000Y-10000000D03*
%TD*%
%TO.P,H2,1*%
%TO.N,N/C*%
X30000000Y-10000000D03*
%TD*%
%TO.P,H3,1*%
%TO.N,N/C*%
X50000000Y-10000000D03*
%TD*%
%TO.P,H4,1*%
%TO.N,N/C*%
X70000000Y-10000000D03*
%TD*%
D13*
%TO.P,FID1,1*%
%TO.N,N/C*%
X90000000Y-10000000D03*
%TD*%
%TO.P,FID2,1*%
%TO.N,N/C*%
X110000000Y-10000000D03*
%TD*%
%TO.P,FID3,1*%
%TO.N,N/C*%
X130000000Y-10000000D03*
%TD*%
D14*
%TO.P,J1,1*%
%TO.N,net_14*%
X10000000Y-200000000D03*
%TD*%
%TO.P,J2,1*%
%TO.N,net_15*%
X30000000Y-200000000D03*
%TD*%
%TO.P,J3,1*%
%TO.N,net_16*%
X50000000Y-200000000D03*
%TD*%
%TO.P,J4,1*%
%TO.N,net_17*%
X70000000Y-200000000D03*
%TD*%
%TO.N,net_1*%
D15*
X92000000Y-24000000D02*
X85000000Y-58000000D01*
%TO.N,net_2*%
X92000000Y-26000000D02*
X85000000Y-62000000D01*
%TO.N,net_3*%
X95000000Y-58000000D02*
X143000000Y-60000000D01*
%TO.N,net_8*%
X30000000Y-30000000D02*
X32000000Y-32000000D01*
X30000000Y-30000000D02*
X32000000Y-32000000D01*
X30000000Y-30000000D02*
X32000000Y-32000000D01*
X30000000Y-30000000D02*
X32000000Y-32000000D01*
X30000000Y-30000000D02*
X32000000Y-32000000D01*
X30000000Y-30000000D02*
X32000000Y-32000000D01*
X30000000Y-30000000D02*
X32000000Y-32000000D01*
X30000000Y-30000000D02*
X32000000Y-32000000D01*
X30000000Y-30000000D02*
X32000000Y-32000000D01*
X30000000Y-30000000D02*
X32000000Y-32000000D01*
X30000000Y-30000000D02*
X32000000Y-32000000D01*
X30000000Y-30000000D02*
X32000000Y-32000000D01*
X30000000Y-30000000D02*
X32000000Y-32000000D01*
X30000000Y-30000000D02*
X32000000Y-32000000D01*
X30000000Y-30000000D02*
X32000000Y-32000000D01*
X30000000Y-30000000D02*
X32000000Y-32000000D01*
X30000000Y-30000000D02*
X32000000Y-32000000D01*
X30000000Y-30000000D02*
X32000000Y-32000000D01*
%TD*%
D16*
X10000000Y-10000000D03*
X30000000Y-10000000D03*
X50000000Y-10000000D03*
X70000000Y-10000000D03*
M02*
