<?xml version="1.0" standalone="no"?>
 <!DOCTYPE svg PUBLIC "-//W3C//DTD SVG 1.1//EN" 
 "http://www.w3.org/Graphics/SVG/1.1/DTD/svg11.dtd"> 
<svg
  xmlns:svg="http://www.w3.org/2000/svg"
  xmlns="http://www.w3.org/2000/svg"
  xmlns:xlink="http://www.w3.org/1999/xlink"
  xmlns:inkscape="http://www.inkscape.org/namespaces/inkscape"
  version="1.1"
  width="297.0022mm" height="210.0072mm" viewBox="0.0000 0.0000 297.0022 210.0072">
<title>SVG Image created as Assembly_Top.svg date 2026-07-13T19:42:09 </title>
  <desc>Image generated by PCBNEW </desc>
<g style="fill:#000000; fill-opacity:1.0000;stroke:#000000; stroke-opacity:1.0000;
stroke-linecap:round; stroke-linejoin:round;"
 transform="translate(0 0) scale(1 1)">
</g>
<g style="fill:none; 
stroke:#C872AB; stroke-width:0.1500; stroke-opacity:1; 
stroke-linecap:round; stroke-linejoin:round;">
<path d="M177.0022 166.0072
L285.0022 166.0072
L285.0022 198.0072
L177.0022 198.0072
L177.0022 166.0072
" />
<path d="M10.0000 10.0000
L287.0022 10.0000
L287.0022 200.0072
L10.0000 200.0072
L10.0000 10.0000
" />
<path d="M12.0000 12.0000
L285.0022 12.0000
L285.0022 198.0072
L12.0000 198.0072
L12.0000 12.0000
" />
<path d="M60.0000 12.0000
L60.0000 10.0000
" />
<path d="M110.0000 12.0000
L110.0000 10.0000
" />
<path d="M160.0000 12.0000
L160.0000 10.0000
" />
<path d="M210.0000 12.0000
L210.0000 10.0000
" />
<path d="M260.0000 12.0000
L260.0000 10.0000
" />
<text x="35.0000" y="11.6500"
textLength="1.4281" font-size="1.7333" lengthAdjust="spacingAndGlyphs"
text-anchor="start" opacity="0" stroke-opacity="0">1</text>
<g class="stroked-text"><desc>1</desc>
<path d="M36.0892 11.5936
L35.3463 11.5936
" />
<path d="M35.7177 11.5936
L35.7177 10.2936
" />
<path d="M35.7177 10.2936
L35.5939 10.4793
" />
<path d="M35.5939 10.4793
L35.4701 10.6031
" />
<path d="M35.4701 10.6031
L35.3463 10.6650
" />
</g><text x="85.0000" y="11.6500"
textLength="1.4281" font-size="1.7333" lengthAdjust="spacingAndGlyphs"
text-anchor="start" opacity="0" stroke-opacity="0">2</text>
<g class="stroked-text"><desc>2</desc>
<path d="M85.3463 10.4174
L85.4082 10.3555
" />
<path d="M85.4082 10.3555
L85.5320 10.2936
" />
<path d="M85.5320 10.2936
L85.8415 10.2936
" />
<path d="M85.8415 10.2936
L85.9654 10.3555
" />
<path d="M85.9654 10.3555
L86.0273 10.4174
" />
<path d="M86.0273 10.4174
L86.0892 10.5412
" />
<path d="M86.0892 10.5412
L86.0892 10.6650
" />
<path d="M86.0892 10.6650
L86.0273 10.8507
" />
<path d="M86.0273 10.8507
L85.2844 11.5936
" />
<path d="M85.2844 11.5936
L86.0892 11.5936
" />
</g><text x="135.0000" y="11.6500"
textLength="1.4281" font-size="1.7333" lengthAdjust="spacingAndGlyphs"
text-anchor="start" opacity="0" stroke-opacity="0">3</text>
<g class="stroked-text"><desc>3</desc>
<path d="M135.2844 10.2936
L136.0892 10.2936
" />
<path d="M136.0892 10.2936
L135.6558 10.7888
" />
<path d="M135.6558 10.7888
L135.8415 10.7888
" />
<path d="M135.8415 10.7888
L135.9654 10.8507
" />
<path d="M135.9654 10.8507
L136.0273 10.9127
" />
<path d="M136.0273 10.9127
L136.0892 11.0365
" />
<path d="M136.0892 11.0365
L136.0892 11.3460
" />
<path d="M136.0892 11.3460
L136.0273 11.4698
" />
<path d="M136.0273 11.4698
L135.9654 11.5317
" />
<path d="M135.9654 11.5317
L135.8415 11.5936
" />
<path d="M135.8415 11.5936
L135.4701 11.5936
" />
<path d="M135.4701 11.5936
L135.3463 11.5317
" />
<path d="M135.3463 11.5317
L135.2844 11.4698
" />
</g><text x="185.0000" y="11.6500"
textLength="1.4281" font-size="1.7333" lengthAdjust="spacingAndGlyphs"
text-anchor="start" opacity="0" stroke-opacity="0">4</text>
<g class="stroked-text"><desc>4</desc>
<path d="M185.9654 10.7269
L185.9654 11.5936
" />
<path d="M185.6558 10.2317
L185.3463 11.1603
" />
<path d="M185.3463 11.1603
L186.1511 11.1603
" />
</g><text x="235.0000" y="11.6500"
textLength="1.4281" font-size="1.7333" lengthAdjust="spacingAndGlyphs"
text-anchor="start" opacity="0" stroke-opacity="0">5</text>
<g class="stroked-text"><desc>5</desc>
<path d="M236.0273 10.2936
L235.4082 10.2936
" />
<path d="M235.4082 10.2936
L235.3463 10.9127
" />
<path d="M235.3463 10.9127
L235.4082 10.8507
" />
<path d="M235.4082 10.8507
L235.5320 10.7888
" />
<path d="M235.5320 10.7888
L235.8415 10.7888
" />
<path d="M235.8415 10.7888
L235.9654 10.8507
" />
<path d="M235.9654 10.8507
L236.0273 10.9127
" />
<path d="M236.0273 10.9127
L236.0892 11.0365
" />
<path d="M236.0892 11.0365
L236.0892 11.3460
" />
<path d="M236.0892 11.3460
L236.0273 11.4698
" />
<path d="M236.0273 11.4698
L235.9654 11.5317
" />
<path d="M235.9654 11.5317
L235.8415 11.5936
" />
<path d="M235.8415 11.5936
L235.5320 11.5936
" />
<path d="M235.5320 11.5936
L235.4082 11.5317
" />
<path d="M235.4082 11.5317
L235.3463 11.4698
" />
</g><text x="285.0000" y="11.6500"
textLength="1.4281" font-size="1.7333" lengthAdjust="spacingAndGlyphs"
text-anchor="start" opacity="0" stroke-opacity="0">6</text>
<g class="stroked-text"><desc>6</desc>
<path d="M285.9654 10.2936
L285.7177 10.2936
" />
<path d="M285.7177 10.2936
L285.5939 10.3555
" />
<path d="M285.5939 10.3555
L285.5320 10.4174
" />
<path d="M285.5320 10.4174
L285.4082 10.6031
" />
<path d="M285.4082 10.6031
L285.3463 10.8507
" />
<path d="M285.3463 10.8507
L285.3463 11.3460
" />
<path d="M285.3463 11.3460
L285.4082 11.4698
" />
<path d="M285.4082 11.4698
L285.4701 11.5317
" />
<path d="M285.4701 11.5317
L285.5939 11.5936
" />
<path d="M285.5939 11.5936
L285.8415 11.5936
" />
<path d="M285.8415 11.5936
L285.9654 11.5317
" />
<path d="M285.9654 11.5317
L286.0273 11.4698
" />
<path d="M286.0273 11.4698
L286.0892 11.3460
" />
<path d="M286.0892 11.3460
L286.0892 11.0365
" />
<path d="M286.0892 11.0365
L286.0273 10.9127
" />
<path d="M286.0273 10.9127
L285.9654 10.8507
" />
<path d="M285.9654 10.8507
L285.8415 10.7888
" />
<path d="M285.8415 10.7888
L285.5939 10.7888
" />
<path d="M285.5939 10.7888
L285.4701 10.8507
" />
<path d="M285.4701 10.8507
L285.4082 10.9127
" />
<path d="M285.4082 10.9127
L285.3463 11.0365
" />
</g><path d="M60.0000 198.0072
L60.0000 200.0072
" />
<path d="M110.0000 198.0072
L110.0000 200.0072
" />
<path d="M160.0000 198.0072
L160.0000 200.0072
" />
<path d="M210.0000 198.0072
L210.0000 200.0072
" />
<path d="M260.0000 198.0072
L260.0000 200.0072
" />
<text x="35.0000" y="199.6572"
textLength="1.4281" font-size="1.7333" lengthAdjust="spacingAndGlyphs"
text-anchor="start" opacity="0" stroke-opacity="0">1</text>
<g class="stroked-text"><desc>1</desc>
<path d="M36.0892 199.6008
L35.3463 199.6008
" />
<path d="M35.7177 199.6008
L35.7177 198.3008
" />
<path d="M35.7177 198.3008
L35.5939 198.4865
" />
<path d="M35.5939 198.4865
L35.4701 198.6103
" />
<path d="M35.4701 198.6103
L35.3463 198.6722
" />
</g><text x="85.0000" y="199.6572"
textLength="1.4281" font-size="1.7333" lengthAdjust="spacingAndGlyphs"
text-anchor="start" opacity="0" stroke-opacity="0">2</text>
<g class="stroked-text"><desc>2</desc>
<path d="M85.3463 198.4246
L85.4082 198.3627
" />
<path d="M85.4082 198.3627
L85.5320 198.3008
" />
<path d="M85.5320 198.3008
L85.8415 198.3008
" />
<path d="M85.8415 198.3008
L85.9654 198.3627
" />
<path d="M85.9654 198.3627
L86.0273 198.4246
" />
<path d="M86.0273 198.4246
L86.0892 198.5484
" />
<path d="M86.0892 198.5484
L86.0892 198.6722
" />
<path d="M86.0892 198.6722
L86.0273 198.8579
" />
<path d="M86.0273 198.8579
L85.2844 199.6008
" />
<path d="M85.2844 199.6008
L86.0892 199.6008
" />
</g><text x="135.0000" y="199.6572"
textLength="1.4281" font-size="1.7333" lengthAdjust="spacingAndGlyphs"
text-anchor="start" opacity="0" stroke-opacity="0">3</text>
<g class="stroked-text"><desc>3</desc>
<path d="M135.2844 198.3008
L136.0892 198.3008
" />
<path d="M136.0892 198.3008
L135.6558 198.7960
" />
<path d="M135.6558 198.7960
L135.8415 198.7960
" />
<path d="M135.8415 198.7960
L135.9654 198.8579
" />
<path d="M135.9654 198.8579
L136.0273 198.9199
" />
<path d="M136.0273 198.9199
L136.0892 199.0437
" />
<path d="M136.0892 199.0437
L136.0892 199.3532
" />
<path d="M136.0892 199.3532
L136.0273 199.4770
" />
<path d="M136.0273 199.4770
L135.9654 199.5389
" />
<path d="M135.9654 199.5389
L135.8415 199.6008
" />
<path d="M135.8415 199.6008
L135.4701 199.6008
" />
<path d="M135.4701 199.6008
L135.3463 199.5389
" />
<path d="M135.3463 199.5389
L135.2844 199.4770
" />
</g><text x="185.0000" y="199.6572"
textLength="1.4281" font-size="1.7333" lengthAdjust="spacingAndGlyphs"
text-anchor="start" opacity="0" stroke-opacity="0">4</text>
<g class="stroked-text"><desc>4</desc>
<path d="M185.9654 198.7341
L185.9654 199.6008
" />
<path d="M185.6558 198.2389
L185.3463 199.1675
" />
<path d="M185.3463 199.1675
L186.1511 199.1675
" />
</g><text x="235.0000" y="199.6572"
textLength="1.4281" font-size="1.7333" lengthAdjust="spacingAndGlyphs"
text-anchor="start" opacity="0" stroke-opacity="0">5</text>
<g class="stroked-text"><desc>5</desc>
<path d="M236.0273 198.3008
L235.4082 198.3008
" />
<path d="M235.4082 198.3008
L235.3463 198.9199
" />
<path d="M235.3463 198.9199
L235.4082 198.8579
" />
<path d="M235.4082 198.8579
L235.5320 198.7960
" />
<path d="M235.5320 198.7960
L235.8415 198.7960
" />
<path d="M235.8415 198.7960
L235.9654 198.8579
" />
<path d="M235.9654 198.8579
L236.0273 198.9199
" />
<path d="M236.0273 198.9199
L236.0892 199.0437
" />
<path d="M236.0892 199.0437
L236.0892 199.3532
" />
<path d="M236.0892 199.3532
L236.0273 199.4770
" />
<path d="M236.0273 199.4770
L235.9654 199.5389
" />
<path d="M235.9654 199.5389
L235.8415 199.6008
" />
<path d="M235.8415 199.6008
L235.5320 199.6008
" />
<path d="M235.5320 199.6008
L235.4082 199.5389
" />
<path d="M235.4082 199.5389
L235.3463 199.4770
" />
</g><text x="285.0000" y="199.6572"
textLength="1.4281" font-size="1.7333" lengthAdjust="spacingAndGlyphs"
text-anchor="start" opacity="0" stroke-opacity="0">6</text>
<g class="stroked-text"><desc>6</desc>
<path d="M285.9654 198.3008
L285.7177 198.3008
" />
<path d="M285.7177 198.3008
L285.5939 198.3627
" />
<path d="M285.5939 198.3627
L285.5320 198.4246
" />
<path d="M285.5320 198.4246
L285.4082 198.6103
" />
<path d="M285.4082 198.6103
L285.3463 198.8579
" />
<path d="M285.3463 198.8579
L285.3463 199.3532
" />
<path d="M285.3463 199.3532
L285.4082 199.4770
" />
<path d="M285.4082 199.4770
L285.4701 199.5389
" />
<path d="M285.4701 199.5389
L285.5939 199.6008
" />
<path d="M285.5939 199.6008
L285.8415 199.6008
" />
<path d="M285.8415 199.6008
L285.9654 199.5389
" />
<path d="M285.9654 199.5389
L286.0273 199.4770
" />
<path d="M286.0273 199.4770
L286.0892 199.3532
" />
<path d="M286.0892 199.3532
L286.0892 199.0437
" />
<path d="M286.0892 199.0437
L286.0273 198.9199
" />
<path d="M286.0273 198.9199
L285.9654 198.8579
" />
<path d="M285.9654 198.8579
L285.8415 198.7960
" />
<path d="M285.8415 198.7960
L285.5939 198.7960
" />
<path d="M285.5939 198.7960
L285.4701 198.8579
" />
<path d="M285.4701 198.8579
L285.4082 198.9199
" />
<path d="M285.4082 198.9199
L285.3463 199.0437
" />
</g><path d="M10.0000 60.0000
L12.0000 60.0000
" />
<path d="M10.0000 110.0000
L12.0000 110.0000
" />
<path d="M10.0000 160.0000
L12.0000 160.0000
" />
<text x="11.0000" y="35.6500"
textLength="1.3043" font-size="1.7333" lengthAdjust="spacingAndGlyphs"
text-anchor="middle" opacity="0" stroke-opacity="0">A</text>
<g class="stroked-text"><desc>A</desc>
<path d="M10.6905 35.2222
L11.3095 35.2222
" />
<path d="M10.5667 35.5936
L11.0000 34.2936
" />
<path d="M11.0000 34.2936
L11.4333 35.5936
" />
</g><text x="11.0000" y="85.6500"
textLength="1.4900" font-size="1.7333" lengthAdjust="spacingAndGlyphs"
text-anchor="middle" opacity="0" stroke-opacity="0">B</text>
<g class="stroked-text"><desc>B</desc>
<path d="M11.0929 84.9127
L11.2786 84.9746
" />
<path d="M11.2786 84.9746
L11.3405 85.0365
" />
<path d="M11.3405 85.0365
L11.4024 85.1603
" />
<path d="M11.4024 85.1603
L11.4024 85.3460
" />
<path d="M11.4024 85.3460
L11.3405 85.4698
" />
<path d="M11.3405 85.4698
L11.2786 85.5317
" />
<path d="M11.2786 85.5317
L11.1548 85.5936
" />
<path d="M11.1548 85.5936
L10.6595 85.5936
" />
<path d="M10.6595 85.5936
L10.6595 84.2936
" />
<path d="M10.6595 84.2936
L11.0929 84.2936
" />
<path d="M11.0929 84.2936
L11.2167 84.3555
" />
<path d="M11.2167 84.3555
L11.2786 84.4174
" />
<path d="M11.2786 84.4174
L11.3405 84.5412
" />
<path d="M11.3405 84.5412
L11.3405 84.6650
" />
<path d="M11.3405 84.6650
L11.2786 84.7888
" />
<path d="M11.2786 84.7888
L11.2167 84.8507
" />
<path d="M11.2167 84.8507
L11.0929 84.9127
" />
<path d="M11.0929 84.9127
L10.6595 84.9127
" />
</g><text x="11.0000" y="135.6500"
textLength="1.4900" font-size="1.7333" lengthAdjust="spacingAndGlyphs"
text-anchor="middle" opacity="0" stroke-opacity="0">C</text>
<g class="stroked-text"><desc>C</desc>
<path d="M11.4024 135.4698
L11.3405 135.5317
" />
<path d="M11.3405 135.5317
L11.1548 135.5936
" />
<path d="M11.1548 135.5936
L11.0310 135.5936
" />
<path d="M11.0310 135.5936
L10.8452 135.5317
" />
<path d="M10.8452 135.5317
L10.7214 135.4079
" />
<path d="M10.7214 135.4079
L10.6595 135.2841
" />
<path d="M10.6595 135.2841
L10.5976 135.0365
" />
<path d="M10.5976 135.0365
L10.5976 134.8507
" />
<path d="M10.5976 134.8507
L10.6595 134.6031
" />
<path d="M10.6595 134.6031
L10.7214 134.4793
" />
<path d="M10.7214 134.4793
L10.8452 134.3555
" />
<path d="M10.8452 134.3555
L11.0310 134.2936
" />
<path d="M11.0310 134.2936
L11.1548 134.2936
" />
<path d="M11.1548 134.2936
L11.3405 134.3555
" />
<path d="M11.3405 134.3555
L11.4024 134.4174
" />
</g><text x="11.0000" y="185.6500"
textLength="1.4900" font-size="1.7333" lengthAdjust="spacingAndGlyphs"
text-anchor="middle" opacity="0" stroke-opacity="0">D</text>
<g class="stroked-text"><desc>D</desc>
<path d="M10.6595 185.5936
L10.6595 184.2936
" />
<path d="M10.6595 184.2936
L10.9690 184.2936
" />
<path d="M10.9690 184.2936
L11.1548 184.3555
" />
<path d="M11.1548 184.3555
L11.2786 184.4793
" />
<path d="M11.2786 184.4793
L11.3405 184.6031
" />
<path d="M11.3405 184.6031
L11.4024 184.8507
" />
<path d="M11.4024 184.8507
L11.4024 185.0365
" />
<path d="M11.4024 185.0365
L11.3405 185.2841
" />
<path d="M11.3405 185.2841
L11.2786 185.4079
" />
<path d="M11.2786 185.4079
L11.1548 185.5317
" />
<path d="M11.1548 185.5317
L10.9690 185.5936
" />
<path d="M10.9690 185.5936
L10.6595 185.5936
" />
</g><path d="M287.0022 60.0000
L285.0022 60.0000
" />
<path d="M287.0022 110.0000
L285.0022 110.0000
" />
<path d="M287.0022 160.0000
L285.0022 160.0000
" />
<text x="286.0022" y="35.6500"
textLength="1.3043" font-size="1.7333" lengthAdjust="spacingAndGlyphs"
text-anchor="middle" opacity="0" stroke-opacity="0">A</text>
<g class="stroked-text"><desc>A</desc>
<path d="M285.6927 35.2222
L286.3117 35.2222
" />
<path d="M285.5689 35.5936
L286.0022 34.2936
" />
<path d="M286.0022 34.2936
L286.4355 35.5936
" />
</g><text x="286.0022" y="85.6500"
textLength="1.4900" font-size="1.7333" lengthAdjust="spacingAndGlyphs"
text-anchor="middle" opacity="0" stroke-opacity="0">B</text>
<g class="stroked-text"><desc>B</desc>
<path d="M286.0951 84.9127
L286.2808 84.9746
" />
<path d="M286.2808 84.9746
L286.3427 85.0365
" />
<path d="M286.3427 85.0365
L286.4046 85.1603
" />
<path d="M286.4046 85.1603
L286.4046 85.3460
" />
<path d="M286.4046 85.3460
L286.3427 85.4698
" />
<path d="M286.3427 85.4698
L286.2808 85.5317
" />
<path d="M286.2808 85.5317
L286.1570 85.5936
" />
<path d="M286.1570 85.5936
L285.6617 85.5936
" />
<path d="M285.6617 85.5936
L285.6617 84.2936
" />
<path d="M285.6617 84.2936
L286.0951 84.2936
" />
<path d="M286.0951 84.2936
L286.2189 84.3555
" />
<path d="M286.2189 84.3555
L286.2808 84.4174
" />
<path d="M286.2808 84.4174
L286.3427 84.5412
" />
<path d="M286.3427 84.5412
L286.3427 84.6650
" />
<path d="M286.3427 84.6650
L286.2808 84.7888
" />
<path d="M286.2808 84.7888
L286.2189 84.8507
" />
<path d="M286.2189 84.8507
L286.0951 84.9127
" />
<path d="M286.0951 84.9127
L285.6617 84.9127
" />
</g><text x="286.0022" y="135.6500"
textLength="1.4900" font-size="1.7333" lengthAdjust="spacingAndGlyphs"
text-anchor="middle" opacity="0" stroke-opacity="0">C</text>
<g class="stroked-text"><desc>C</desc>
<path d="M286.4046 135.4698
L286.3427 135.5317
" />
<path d="M286.3427 135.5317
L286.1570 135.5936
" />
<path d="M286.1570 135.5936
L286.0332 135.5936
" />
<path d="M286.0332 135.5936
L285.8474 135.5317
" />
<path d="M285.8474 135.5317
L285.7236 135.4079
" />
<path d="M285.7236 135.4079
L285.6617 135.2841
" />
<path d="M285.6617 135.2841
L285.5998 135.0365
" />
<path d="M285.5998 135.0365
L285.5998 134.8507
" />
<path d="M285.5998 134.8507
L285.6617 134.6031
" />
<path d="M285.6617 134.6031
L285.7236 134.4793
" />
<path d="M285.7236 134.4793
L285.8474 134.3555
" />
<path d="M285.8474 134.3555
L286.0332 134.2936
" />
<path d="M286.0332 134.2936
L286.1570 134.2936
" />
<path d="M286.1570 134.2936
L286.3427 134.3555
" />
<path d="M286.3427 134.3555
L286.4046 134.4174
" />
</g><text x="286.0022" y="185.6500"
textLength="1.4900" font-size="1.7333" lengthAdjust="spacingAndGlyphs"
text-anchor="middle" opacity="0" stroke-opacity="0">D</text>
<g class="stroked-text"><desc>D</desc>
<path d="M285.6617 185.5936
L285.6617 184.2936
" />
<path d="M285.6617 184.2936
L285.9712 184.2936
" />
<path d="M285.9712 184.2936
L286.1570 184.3555
" />
<path d="M286.1570 184.3555
L286.2808 184.4793
" />
<path d="M286.2808 184.4793
L286.3427 184.6031
" />
<path d="M286.3427 184.6031
L286.4046 184.8507
" />
<path d="M286.4046 184.8507
L286.4046 185.0365
" />
<path d="M286.4046 185.0365
L286.3427 185.2841
" />
<path d="M286.3427 185.2841
L286.2808 185.4079
" />
<path d="M286.2808 185.4079
L286.1570 185.5317
" />
<path d="M286.1570 185.5317
L285.9712 185.5936
" />
<path d="M285.9712 185.5936
L285.6617 185.5936
" />
</g><text x="200.0022" y="193.8572"
textLength="7.0071" font-size="2.0000" lengthAdjust="spacingAndGlyphs"
text-anchor="start" opacity="0" stroke-opacity="0">Date: </text>
<g class="stroked-text"><desc>Date: </desc>
<path d="M200.4580 193.7933
L200.4580 192.2933
" />
<path d="M200.4580 192.2933
L200.8152 192.2933
" />
<path d="M200.8152 192.2933
L201.0295 192.3648
" />
<path d="M201.0295 192.3648
L201.1723 192.5076
" />
<path d="M201.1723 192.5076
L201.2437 192.6505
" />
<path d="M201.2437 192.6505
L201.3152 192.9362
" />
<path d="M201.3152 192.9362
L201.3152 193.1505
" />
<path d="M201.3152 193.1505
L201.2437 193.4362
" />
<path d="M201.2437 193.4362
L201.1723 193.5790
" />
<path d="M201.1723 193.5790
L201.0295 193.7219
" />
<path d="M201.0295 193.7219
L200.8152 193.7933
" />
<path d="M200.8152 193.7933
L200.4580 193.7933
" />
<path d="M202.6009 193.7933
L202.6009 193.0076
" />
<path d="M202.6009 193.0076
L202.5295 192.8648
" />
<path d="M202.5295 192.8648
L202.3866 192.7933
" />
<path d="M202.3866 192.7933
L202.1009 192.7933
" />
<path d="M202.1009 192.7933
L201.9580 192.8648
" />
<path d="M202.6009 193.7219
L202.4580 193.7933
" />
<path d="M202.4580 193.7933
L202.1009 193.7933
" />
<path d="M202.1009 193.7933
L201.9580 193.7219
" />
<path d="M201.9580 193.7219
L201.8866 193.5790
" />
<path d="M201.8866 193.5790
L201.8866 193.4362
" />
<path d="M201.8866 193.4362
L201.9580 193.2933
" />
<path d="M201.9580 193.2933
L202.1009 193.2219
" />
<path d="M202.1009 193.2219
L202.4580 193.2219
" />
<path d="M202.4580 193.2219
L202.6009 193.1505
" />
<path d="M203.1009 192.7933
L203.6723 192.7933
" />
<path d="M203.3152 192.2933
L203.3152 193.5790
" />
<path d="M203.3152 193.5790
L203.3866 193.7219
" />
<path d="M203.3866 193.7219
L203.5295 193.7933
" />
<path d="M203.5295 193.7933
L203.6723 193.7933
" />
<path d="M204.7437 193.7219
L204.6009 193.7933
" />
<path d="M204.6009 193.7933
L204.3152 193.7933
" />
<path d="M204.3152 193.7933
L204.1723 193.7219
" />
<path d="M204.1723 193.7219
L204.1009 193.5790
" />
<path d="M204.1009 193.5790
L204.1009 193.0076
" />
<path d="M204.1009 193.0076
L204.1723 192.8648
" />
<path d="M204.1723 192.8648
L204.3152 192.7933
" />
<path d="M204.3152 192.7933
L204.6009 192.7933
" />
<path d="M204.6009 192.7933
L204.7437 192.8648
" />
<path d="M204.7437 192.8648
L204.8152 193.0076
" />
<path d="M204.8152 193.0076
L204.8152 193.1505
" />
<path d="M204.8152 193.1505
L204.1009 193.2933
" />
<path d="M205.4580 193.6505
L205.5295 193.7219
" />
<path d="M205.5295 193.7219
L205.4580 193.7933
" />
<path d="M205.4580 193.7933
L205.3866 193.7219
" />
<path d="M205.3866 193.7219
L205.4580 193.6505
" />
<path d="M205.4580 193.6505
L205.4580 193.7933
" />
<path d="M205.4580 192.8648
L205.5295 192.9362
" />
<path d="M205.5295 192.9362
L205.4580 193.0076
" />
<path d="M205.4580 193.0076
L205.3866 192.9362
" />
<path d="M205.3866 192.9362
L205.4580 192.8648
" />
<path d="M205.4580 192.8648
L205.4580 193.0076
" />
</g><path d="M177.0022 194.5072
L285.0022 194.5072
" />
<text x="178.0022" y="196.6572"
textLength="22.2929" font-size="2.0000" lengthAdjust="spacingAndGlyphs"
text-anchor="start" opacity="0" stroke-opacity="0">KiCad E.D.A. 10.0.3</text>
<g class="stroked-text"><desc>KiCad E.D.A. 10.0.3</desc>
<path d="M178.4580 196.5933
L178.4580 195.0933
" />
<path d="M179.3152 196.5933
L178.6723 195.7362
" />
<path d="M179.3152 195.0933
L178.4580 195.9505
" />
<path d="M179.9580 196.5933
L179.9580 195.5933
" />
<path d="M179.9580 195.0933
L179.8866 195.1648
" />
<path d="M179.8866 195.1648
L179.9580 195.2362
" />
<path d="M179.9580 195.2362
L180.0295 195.1648
" />
<path d="M180.0295 195.1648
L179.9580 195.0933
" />
<path d="M179.9580 195.0933
L179.9580 195.2362
" />
<path d="M181.5295 196.4505
L181.4580 196.5219
" />
<path d="M181.4580 196.5219
L181.2437 196.5933
" />
<path d="M181.2437 196.5933
L181.1009 196.5933
" />
<path d="M181.1009 196.5933
L180.8866 196.5219
" />
<path d="M180.8866 196.5219
L180.7437 196.3790
" />
<path d="M180.7437 196.3790
L180.6723 196.2362
" />
<path d="M180.6723 196.2362
L180.6009 195.9505
" />
<path d="M180.6009 195.9505
L180.6009 195.7362
" />
<path d="M180.6009 195.7362
L180.6723 195.4505
" />
<path d="M180.6723 195.4505
L180.7437 195.3076
" />
<path d="M180.7437 195.3076
L180.8866 195.1648
" />
<path d="M180.8866 195.1648
L181.1009 195.0933
" />
<path d="M181.1009 195.0933
L181.2437 195.0933
" />
<path d="M181.2437 195.0933
L181.4580 195.1648
" />
<path d="M181.4580 195.1648
L181.5295 195.2362
" />
<path d="M182.8152 196.5933
L182.8152 195.8076
" />
<path d="M182.8152 195.8076
L182.7437 195.6648
" />
<path d="M182.7437 195.6648
L182.6009 195.5933
" />
<path d="M182.6009 195.5933
L182.3152 195.5933
" />
<path d="M182.3152 195.5933
L182.1723 195.6648
" />
<path d="M182.8152 196.5219
L182.6723 196.5933
" />
<path d="M182.6723 196.5933
L182.3152 196.5933
" />
<path d="M182.3152 196.5933
L182.1723 196.5219
" />
<path d="M182.1723 196.5219
L182.1009 196.3790
" />
<path d="M182.1009 196.3790
L182.1009 196.2362
" />
<path d="M182.1009 196.2362
L182.1723 196.0933
" />
<path d="M182.1723 196.0933
L182.3152 196.0219
" />
<path d="M182.3152 196.0219
L182.6723 196.0219
" />
<path d="M182.6723 196.0219
L182.8152 195.9505
" />
<path d="M184.1723 196.5933
L184.1723 195.0933
" />
<path d="M184.1723 196.5219
L184.0295 196.5933
" />
<path d="M184.0295 196.5933
L183.7437 196.5933
" />
<path d="M183.7437 196.5933
L183.6009 196.5219
" />
<path d="M183.6009 196.5219
L183.5295 196.4505
" />
<path d="M183.5295 196.4505
L183.4580 196.3076
" />
<path d="M183.4580 196.3076
L183.4580 195.8790
" />
<path d="M183.4580 195.8790
L183.5295 195.7362
" />
<path d="M183.5295 195.7362
L183.6009 195.6648
" />
<path d="M183.6009 195.6648
L183.7437 195.5933
" />
<path d="M183.7437 195.5933
L184.0295 195.5933
" />
<path d="M184.0295 195.5933
L184.1723 195.6648
" />
<path d="M186.0295 195.8076
L186.5295 195.8076
" />
<path d="M186.7437 196.5933
L186.0295 196.5933
" />
<path d="M186.0295 196.5933
L186.0295 195.0933
" />
<path d="M186.0295 195.0933
L186.7437 195.0933
" />
<path d="M187.3866 196.4505
L187.4580 196.5219
" />
<path d="M187.4580 196.5219
L187.3866 196.5933
" />
<path d="M187.3866 196.5933
L187.3152 196.5219
" />
<path d="M187.3152 196.5219
L187.3866 196.4505
" />
<path d="M187.3866 196.4505
L187.3866 196.5933
" />
<path d="M188.1009 196.5933
L188.1009 195.0933
" />
<path d="M188.1009 195.0933
L188.4580 195.0933
" />
<path d="M188.4580 195.0933
L188.6723 195.1648
" />
<path d="M188.6723 195.1648
L188.8152 195.3076
" />
<path d="M188.8152 195.3076
L188.8866 195.4505
" />
<path d="M188.8866 195.4505
L188.9580 195.7362
" />
<path d="M188.9580 195.7362
L188.9580 195.9505
" />
<path d="M188.9580 195.9505
L188.8866 196.2362
" />
<path d="M188.8866 196.2362
L188.8152 196.3790
" />
<path d="M188.8152 196.3790
L188.6723 196.5219
" />
<path d="M188.6723 196.5219
L188.4580 196.5933
" />
<path d="M188.4580 196.5933
L188.1009 196.5933
" />
<path d="M189.6009 196.4505
L189.6723 196.5219
" />
<path d="M189.6723 196.5219
L189.6009 196.5933
" />
<path d="M189.6009 196.5933
L189.5295 196.5219
" />
<path d="M189.5295 196.5219
L189.6009 196.4505
" />
<path d="M189.6009 196.4505
L189.6009 196.5933
" />
<path d="M190.2437 196.1648
L190.9580 196.1648
" />
<path d="M190.1009 196.5933
L190.6009 195.0933
" />
<path d="M190.6009 195.0933
L191.1009 196.5933
" />
<path d="M191.6009 196.4505
L191.6723 196.5219
" />
<path d="M191.6723 196.5219
L191.6009 196.5933
" />
<path d="M191.6009 196.5933
L191.5295 196.5219
" />
<path d="M191.5295 196.5219
L191.6009 196.4505
" />
<path d="M191.6009 196.4505
L191.6009 196.5933
" />
<path d="M194.2437 196.5933
L193.3866 196.5933
" />
<path d="M193.8152 196.5933
L193.8152 195.0933
" />
<path d="M193.8152 195.0933
L193.6723 195.3076
" />
<path d="M193.6723 195.3076
L193.5295 195.4505
" />
<path d="M193.5295 195.4505
L193.3866 195.5219
" />
<path d="M195.1723 195.0933
L195.3152 195.0933
" />
<path d="M195.3152 195.0933
L195.4580 195.1648
" />
<path d="M195.4580 195.1648
L195.5295 195.2362
" />
<path d="M195.5295 195.2362
L195.6009 195.3790
" />
<path d="M195.6009 195.3790
L195.6723 195.6648
" />
<path d="M195.6723 195.6648
L195.6723 196.0219
" />
<path d="M195.6723 196.0219
L195.6009 196.3076
" />
<path d="M195.6009 196.3076
L195.5295 196.4505
" />
<path d="M195.5295 196.4505
L195.4580 196.5219
" />
<path d="M195.4580 196.5219
L195.3152 196.5933
" />
<path d="M195.3152 196.5933
L195.1723 196.5933
" />
<path d="M195.1723 196.5933
L195.0295 196.5219
" />
<path d="M195.0295 196.5219
L194.9580 196.4505
" />
<path d="M194.9580 196.4505
L194.8866 196.3076
" />
<path d="M194.8866 196.3076
L194.8152 196.0219
" />
<path d="M194.8152 196.0219
L194.8152 195.6648
" />
<path d="M194.8152 195.6648
L194.8866 195.3790
" />
<path d="M194.8866 195.3790
L194.9580 195.2362
" />
<path d="M194.9580 195.2362
L195.0295 195.1648
" />
<path d="M195.0295 195.1648
L195.1723 195.0933
" />
<path d="M196.3152 196.4505
L196.3866 196.5219
" />
<path d="M196.3866 196.5219
L196.3152 196.5933
" />
<path d="M196.3152 196.5933
L196.2437 196.5219
" />
<path d="M196.2437 196.5219
L196.3152 196.4505
" />
<path d="M196.3152 196.4505
L196.3152 196.5933
" />
<path d="M197.3152 195.0933
L197.4580 195.0933
" />
<path d="M197.4580 195.0933
L197.6009 195.1648
" />
<path d="M197.6009 195.1648
L197.6723 195.2362
" />
<path d="M197.6723 195.2362
L197.7437 195.3790
" />
<path d="M197.7437 195.3790
L197.8152 195.6648
" />
<path d="M197.8152 195.6648
L197.8152 196.0219
" />
<path d="M197.8152 196.0219
L197.7437 196.3076
" />
<path d="M197.7437 196.3076
L197.6723 196.4505
" />
<path d="M197.6723 196.4505
L197.6009 196.5219
" />
<path d="M197.6009 196.5219
L197.4580 196.5933
" />
<path d="M197.4580 196.5933
L197.3152 196.5933
" />
<path d="M197.3152 196.5933
L197.1723 196.5219
" />
<path d="M197.1723 196.5219
L197.1009 196.4505
" />
<path d="M197.1009 196.4505
L197.0295 196.3076
" />
<path d="M197.0295 196.3076
L196.9580 196.0219
" />
<path d="M196.9580 196.0219
L196.9580 195.6648
" />
<path d="M196.9580 195.6648
L197.0295 195.3790
" />
<path d="M197.0295 195.3790
L197.1009 195.2362
" />
<path d="M197.1009 195.2362
L197.1723 195.1648
" />
<path d="M197.1723 195.1648
L197.3152 195.0933
" />
<path d="M198.4580 196.4505
L198.5295 196.5219
" />
<path d="M198.5295 196.5219
L198.4580 196.5933
" />
<path d="M198.4580 196.5933
L198.3866 196.5219
" />
<path d="M198.3866 196.5219
L198.4580 196.4505
" />
<path d="M198.4580 196.4505
L198.4580 196.5933
" />
<path d="M199.0295 195.0933
L199.9580 195.0933
" />
<path d="M199.9580 195.0933
L199.4580 195.6648
" />
<path d="M199.4580 195.6648
L199.6723 195.6648
" />
<path d="M199.6723 195.6648
L199.8152 195.7362
" />
<path d="M199.8152 195.7362
L199.8866 195.8076
" />
<path d="M199.8866 195.8076
L199.9580 195.9505
" />
<path d="M199.9580 195.9505
L199.9580 196.3076
" />
<path d="M199.9580 196.3076
L199.8866 196.4505
" />
<path d="M199.8866 196.4505
L199.8152 196.5219
" />
<path d="M199.8152 196.5219
L199.6723 196.5933
" />
<path d="M199.6723 196.5933
L199.2437 196.5933
" />
<path d="M199.2437 196.5933
L199.1009 196.5219
" />
<path d="M199.1009 196.5219
L199.0295 196.4505
" />
</g><path d="M177.0022 191.5072
L285.0022 191.5072
" />
</g>
<g style="fill:none; 
stroke:#C872AB; stroke-width:0.3000; stroke-opacity:1; 
stroke-linecap:round; stroke-linejoin:round;">
<text x="263.0022" y="193.8572"
textLength="6.3857" font-size="2.0000" lengthAdjust="spacingAndGlyphs"
text-anchor="start" opacity="0" stroke-opacity="0">Rev: </text>
<g class="stroked-text"><desc>Rev: </desc>
<path d="M264.4139 193.7855
L263.9139 193.0712
" />
<path d="M263.5567 193.7855
L263.5567 192.2855
" />
<path d="M263.5567 192.2855
L264.1281 192.2855
" />
<path d="M264.1281 192.2855
L264.2710 192.3570
" />
<path d="M264.2710 192.3570
L264.3424 192.4284
" />
<path d="M264.3424 192.4284
L264.4139 192.5712
" />
<path d="M264.4139 192.5712
L264.4139 192.7855
" />
<path d="M264.4139 192.7855
L264.3424 192.9284
" />
<path d="M264.3424 192.9284
L264.2710 192.9998
" />
<path d="M264.2710 192.9998
L264.1281 193.0712
" />
<path d="M264.1281 193.0712
L263.5567 193.0712
" />
<path d="M265.6281 193.7141
L265.4853 193.7855
" />
<path d="M265.4853 193.7855
L265.1996 193.7855
" />
<path d="M265.1996 193.7855
L265.0567 193.7141
" />
<path d="M265.0567 193.7141
L264.9853 193.5712
" />
<path d="M264.9853 193.5712
L264.9853 192.9998
" />
<path d="M264.9853 192.9998
L265.0567 192.8570
" />
<path d="M265.0567 192.8570
L265.1996 192.7855
" />
<path d="M265.1996 192.7855
L265.4853 192.7855
" />
<path d="M265.4853 192.7855
L265.6281 192.8570
" />
<path d="M265.6281 192.8570
L265.6996 192.9998
" />
<path d="M265.6996 192.9998
L265.6996 193.1427
" />
<path d="M265.6996 193.1427
L264.9853 193.2855
" />
<path d="M266.1996 192.7855
L266.5567 193.7855
" />
<path d="M266.5567 193.7855
L266.9139 192.7855
" />
<path d="M267.4853 193.6427
L267.5567 193.7141
" />
<path d="M267.5567 193.7141
L267.4853 193.7855
" />
<path d="M267.4853 193.7855
L267.4139 193.7141
" />
<path d="M267.4139 193.7141
L267.4853 193.6427
" />
<path d="M267.4853 193.6427
L267.4853 193.7855
" />
<path d="M267.4853 192.8570
L267.5567 192.9284
" />
<path d="M267.5567 192.9284
L267.4853 192.9998
" />
<path d="M267.4853 192.9998
L267.4139 192.9284
" />
<path d="M267.4139 192.9284
L267.4853 192.8570
" />
<path d="M267.4853 192.8570
L267.4853 192.9998
" />
</g></g>
<g style="fill:none; 
stroke:#C872AB; stroke-width:0.1500; stroke-opacity:1; 
stroke-linecap:round; stroke-linejoin:round;">
<text x="178.0022" y="193.8572"
textLength="9.3643" font-size="2.0000" lengthAdjust="spacingAndGlyphs"
text-anchor="start" opacity="0" stroke-opacity="0">Size: A4</text>
<g class="stroked-text"><desc>Size: A4</desc>
<path d="M178.3866 193.7219
L178.6009 193.7933
" />
<path d="M178.6009 193.7933
L178.9580 193.7933
" />
<path d="M178.9580 193.7933
L179.1009 193.7219
" />
<path d="M179.1009 193.7219
L179.1723 193.6505
" />
<path d="M179.1723 193.6505
L179.2437 193.5076
" />
<path d="M179.2437 193.5076
L179.2437 193.3648
" />
<path d="M179.2437 193.3648
L179.1723 193.2219
" />
<path d="M179.1723 193.2219
L179.1009 193.1505
" />
<path d="M179.1009 193.1505
L178.9580 193.0790
" />
<path d="M178.9580 193.0790
L178.6723 193.0076
" />
<path d="M178.6723 193.0076
L178.5295 192.9362
" />
<path d="M178.5295 192.9362
L178.4580 192.8648
" />
<path d="M178.4580 192.8648
L178.3866 192.7219
" />
<path d="M178.3866 192.7219
L178.3866 192.5790
" />
<path d="M178.3866 192.5790
L178.4580 192.4362
" />
<path d="M178.4580 192.4362
L178.5295 192.3648
" />
<path d="M178.5295 192.3648
L178.6723 192.2933
" />
<path d="M178.6723 192.2933
L179.0295 192.2933
" />
<path d="M179.0295 192.2933
L179.2437 192.3648
" />
<path d="M179.8866 193.7933
L179.8866 192.7933
" />
<path d="M179.8866 192.2933
L179.8152 192.3648
" />
<path d="M179.8152 192.3648
L179.8866 192.4362
" />
<path d="M179.8866 192.4362
L179.9580 192.3648
" />
<path d="M179.9580 192.3648
L179.8866 192.2933
" />
<path d="M179.8866 192.2933
L179.8866 192.4362
" />
<path d="M180.4580 192.7933
L181.2437 192.7933
" />
<path d="M181.2437 192.7933
L180.4580 193.7933
" />
<path d="M180.4580 193.7933
L181.2437 193.7933
" />
<path d="M182.3866 193.7219
L182.2437 193.7933
" />
<path d="M182.2437 193.7933
L181.9580 193.7933
" />
<path d="M181.9580 193.7933
L181.8152 193.7219
" />
<path d="M181.8152 193.7219
L181.7437 193.5790
" />
<path d="M181.7437 193.5790
L181.7437 193.0076
" />
<path d="M181.7437 193.0076
L181.8152 192.8648
" />
<path d="M181.8152 192.8648
L181.9580 192.7933
" />
<path d="M181.9580 192.7933
L182.2437 192.7933
" />
<path d="M182.2437 192.7933
L182.3866 192.8648
" />
<path d="M182.3866 192.8648
L182.4580 193.0076
" />
<path d="M182.4580 193.0076
L182.4580 193.1505
" />
<path d="M182.4580 193.1505
L181.7437 193.2933
" />
<path d="M183.1009 193.6505
L183.1723 193.7219
" />
<path d="M183.1723 193.7219
L183.1009 193.7933
" />
<path d="M183.1009 193.7933
L183.0295 193.7219
" />
<path d="M183.0295 193.7219
L183.1009 193.6505
" />
<path d="M183.1009 193.6505
L183.1009 193.7933
" />
<path d="M183.1009 192.8648
L183.1723 192.9362
" />
<path d="M183.1723 192.9362
L183.1009 193.0076
" />
<path d="M183.1009 193.0076
L183.0295 192.9362
" />
<path d="M183.0295 192.9362
L183.1009 192.8648
" />
<path d="M183.1009 192.8648
L183.1009 193.0076
" />
<path d="M184.8866 193.3648
L185.6009 193.3648
" />
<path d="M184.7437 193.7933
L185.2437 192.2933
" />
<path d="M185.2437 192.2933
L185.7437 193.7933
" />
<path d="M186.8866 192.7933
L186.8866 193.7933
" />
<path d="M186.5295 192.2219
L186.1723 193.2933
" />
<path d="M186.1723 193.2933
L187.1009 193.2933
" />
</g><text x="263.0022" y="196.6572"
textLength="8.5071" font-size="2.0000" lengthAdjust="spacingAndGlyphs"
text-anchor="start" opacity="0" stroke-opacity="0">Id: 1/1</text>
<g class="stroked-text"><desc>Id: 1/1</desc>
<path d="M263.4580 196.5933
L263.4580 195.0933
" />
<path d="M264.8152 196.5933
L264.8152 195.0933
" />
<path d="M264.8152 196.5219
L264.6723 196.5933
" />
<path d="M264.6723 196.5933
L264.3866 196.5933
" />
<path d="M264.3866 196.5933
L264.2437 196.5219
" />
<path d="M264.2437 196.5219
L264.1723 196.4505
" />
<path d="M264.1723 196.4505
L264.1009 196.3076
" />
<path d="M264.1009 196.3076
L264.1009 195.8790
" />
<path d="M264.1009 195.8790
L264.1723 195.7362
" />
<path d="M264.1723 195.7362
L264.2437 195.6648
" />
<path d="M264.2437 195.6648
L264.3866 195.5933
" />
<path d="M264.3866 195.5933
L264.6723 195.5933
" />
<path d="M264.6723 195.5933
L264.8152 195.6648
" />
<path d="M265.5295 196.4505
L265.6009 196.5219
" />
<path d="M265.6009 196.5219
L265.5295 196.5933
" />
<path d="M265.5295 196.5933
L265.4580 196.5219
" />
<path d="M265.4580 196.5219
L265.5295 196.4505
" />
<path d="M265.5295 196.4505
L265.5295 196.5933
" />
<path d="M265.5295 195.6648
L265.6009 195.7362
" />
<path d="M265.6009 195.7362
L265.5295 195.8076
" />
<path d="M265.5295 195.8076
L265.4580 195.7362
" />
<path d="M265.4580 195.7362
L265.5295 195.6648
" />
<path d="M265.5295 195.6648
L265.5295 195.8076
" />
<path d="M268.1723 196.5933
L267.3152 196.5933
" />
<path d="M267.7437 196.5933
L267.7437 195.0933
" />
<path d="M267.7437 195.0933
L267.6009 195.3076
" />
<path d="M267.6009 195.3076
L267.4580 195.4505
" />
<path d="M267.4580 195.4505
L267.3152 195.5219
" />
<path d="M269.8866 195.0219
L268.6009 196.9505
" />
<path d="M271.1723 196.5933
L270.3152 196.5933
" />
<path d="M270.7437 196.5933
L270.7437 195.0933
" />
<path d="M270.7437 195.0933
L270.6009 195.3076
" />
<path d="M270.6009 195.3076
L270.4580 195.4505
" />
<path d="M270.4580 195.4505
L270.3152 195.5219
" />
</g><path d="M177.0022 187.5072
L285.0022 187.5072
" />
</g>
<g style="fill:none; 
stroke:#C872AB; stroke-width:0.4000; stroke-opacity:1; 
stroke-linecap:round; stroke-linejoin:round;">
<text x="178.0022" y="190.3072"
textLength="9.6571" font-size="2.6667" lengthAdjust="spacingAndGlyphs"
text-anchor="start" opacity="0" stroke-opacity="0">Title: </text>
<g class="stroked-text"><desc>Title: </desc>
<path d="M178.6939 188.2116
L179.8368 188.2116
" />
<path d="M179.0154 190.2116
L179.2654 188.2116
" />
<path d="M180.2535 190.2116
L180.4201 188.8783
" />
<path d="M180.5035 188.2116
L180.3963 188.3069
" />
<path d="M180.3963 188.3069
L180.4796 188.4021
" />
<path d="M180.4796 188.4021
L180.5868 188.3069
" />
<path d="M180.5868 188.3069
L180.5035 188.2116
" />
<path d="M180.5035 188.2116
L180.4796 188.4021
" />
<path d="M181.0868 188.8783
L181.8487 188.8783
" />
<path d="M181.4558 188.2116
L181.2415 189.9259
" />
<path d="M181.2415 189.9259
L181.3130 190.1164
" />
<path d="M181.3130 190.1164
L181.4915 190.2116
" />
<path d="M181.4915 190.2116
L181.6820 190.2116
" />
<path d="M182.6344 190.2116
L182.4558 190.1164
" />
<path d="M182.4558 190.1164
L182.3844 189.9259
" />
<path d="M182.3844 189.9259
L182.5987 188.2116
" />
<path d="M184.1701 190.1164
L183.9677 190.2116
" />
<path d="M183.9677 190.2116
L183.5868 190.2116
" />
<path d="M183.5868 190.2116
L183.4082 190.1164
" />
<path d="M183.4082 190.1164
L183.3368 189.9259
" />
<path d="M183.3368 189.9259
L183.4320 189.1640
" />
<path d="M183.4320 189.1640
L183.5511 188.9735
" />
<path d="M183.5511 188.9735
L183.7535 188.8783
" />
<path d="M183.7535 188.8783
L184.1344 188.8783
" />
<path d="M184.1344 188.8783
L184.3130 188.9735
" />
<path d="M184.3130 188.9735
L184.3844 189.1640
" />
<path d="M184.3844 189.1640
L184.3606 189.3545
" />
<path d="M184.3606 189.3545
L183.3844 189.5450
" />
<path d="M185.1344 190.0212
L185.2177 190.1164
" />
<path d="M185.2177 190.1164
L185.1106 190.2116
" />
<path d="M185.1106 190.2116
L185.0273 190.1164
" />
<path d="M185.0273 190.1164
L185.1344 190.0212
" />
<path d="M185.1344 190.0212
L185.1106 190.2116
" />
<path d="M185.2654 188.9735
L185.3487 189.0688
" />
<path d="M185.3487 189.0688
L185.2415 189.1640
" />
<path d="M185.2415 189.1640
L185.1582 189.0688
" />
<path d="M185.1582 189.0688
L185.2654 188.9735
" />
<path d="M185.2654 188.9735
L185.2415 189.1640
" />
</g></g>
<g style="fill:none; 
stroke:#C872AB; stroke-width:0.1500; stroke-opacity:1; 
stroke-linecap:round; stroke-linejoin:round;">
<text x="178.0022" y="186.4572"
textLength="36.5071" font-size="2.0000" lengthAdjust="spacingAndGlyphs"
text-anchor="start" opacity="0" stroke-opacity="0">File: LR_P3A_DualNCE.kicad_pcb</text>
<g class="stroked-text"><desc>File: LR_P3A_DualNCE.kicad_pcb</desc>
<path d="M178.9580 185.6076
L178.4580 185.6076
" />
<path d="M178.4580 186.3933
L178.4580 184.8933
" />
<path d="M178.4580 184.8933
L179.1723 184.8933
" />
<path d="M179.7437 186.3933
L179.7437 185.3933
" />
<path d="M179.7437 184.8933
L179.6723 184.9648
" />
<path d="M179.6723 184.9648
L179.7437 185.0362
" />
<path d="M179.7437 185.0362
L179.8152 184.9648
" />
<path d="M179.8152 184.9648
L179.7437 184.8933
" />
<path d="M179.7437 184.8933
L179.7437 185.0362
" />
<path d="M180.6723 186.3933
L180.5295 186.3219
" />
<path d="M180.5295 186.3219
L180.4580 186.1790
" />
<path d="M180.4580 186.1790
L180.4580 184.8933
" />
<path d="M181.8152 186.3219
L181.6723 186.3933
" />
<path d="M181.6723 186.3933
L181.3866 186.3933
" />
<path d="M181.3866 186.3933
L181.2437 186.3219
" />
<path d="M181.2437 186.3219
L181.1723 186.1790
" />
<path d="M181.1723 186.1790
L181.1723 185.6076
" />
<path d="M181.1723 185.6076
L181.2437 185.4648
" />
<path d="M181.2437 185.4648
L181.3866 185.3933
" />
<path d="M181.3866 185.3933
L181.6723 185.3933
" />
<path d="M181.6723 185.3933
L181.8152 185.4648
" />
<path d="M181.8152 185.4648
L181.8866 185.6076
" />
<path d="M181.8866 185.6076
L181.8866 185.7505
" />
<path d="M181.8866 185.7505
L181.1723 185.8933
" />
<path d="M182.5295 186.2505
L182.6009 186.3219
" />
<path d="M182.6009 186.3219
L182.5295 186.3933
" />
<path d="M182.5295 186.3933
L182.4580 186.3219
" />
<path d="M182.4580 186.3219
L182.5295 186.2505
" />
<path d="M182.5295 186.2505
L182.5295 186.3933
" />
<path d="M182.5295 185.4648
L182.6009 185.5362
" />
<path d="M182.6009 185.5362
L182.5295 185.6076
" />
<path d="M182.5295 185.6076
L182.4580 185.5362
" />
<path d="M182.4580 185.5362
L182.5295 185.4648
" />
<path d="M182.5295 185.4648
L182.5295 185.6076
" />
<path d="M185.1009 186.3933
L184.3866 186.3933
" />
<path d="M184.3866 186.3933
L184.3866 184.8933
" />
<path d="M186.4580 186.3933
L185.9580 185.6790
" />
<path d="M185.6009 186.3933
L185.6009 184.8933
" />
<path d="M185.6009 184.8933
L186.1723 184.8933
" />
<path d="M186.1723 184.8933
L186.3152 184.9648
" />
<path d="M186.3152 184.9648
L186.3866 185.0362
" />
<path d="M186.3866 185.0362
L186.4580 185.1790
" />
<path d="M186.4580 185.1790
L186.4580 185.3933
" />
<path d="M186.4580 185.3933
L186.3866 185.5362
" />
<path d="M186.3866 185.5362
L186.3152 185.6076
" />
<path d="M186.3152 185.6076
L186.1723 185.6790
" />
<path d="M186.1723 185.6790
L185.6009 185.6790
" />
<path d="M186.7437 186.5362
L187.8866 186.5362
" />
<path d="M188.2437 186.3933
L188.2437 184.8933
" />
<path d="M188.2437 184.8933
L188.8152 184.8933
" />
<path d="M188.8152 184.8933
L188.9580 184.9648
" />
<path d="M188.9580 184.9648
L189.0295 185.0362
" />
<path d="M189.0295 185.0362
L189.1009 185.1790
" />
<path d="M189.1009 185.1790
L189.1009 185.3933
" />
<path d="M189.1009 185.3933
L189.0295 185.5362
" />
<path d="M189.0295 185.5362
L188.9580 185.6076
" />
<path d="M188.9580 185.6076
L188.8152 185.6790
" />
<path d="M188.8152 185.6790
L188.2437 185.6790
" />
<path d="M189.6009 184.8933
L190.5295 184.8933
" />
<path d="M190.5295 184.8933
L190.0295 185.4648
" />
<path d="M190.0295 185.4648
L190.2437 185.4648
" />
<path d="M190.2437 185.4648
L190.3866 185.5362
" />
<path d="M190.3866 185.5362
L190.4580 185.6076
" />
<path d="M190.4580 185.6076
L190.5295 185.7505
" />
<path d="M190.5295 185.7505
L190.5295 186.1076
" />
<path d="M190.5295 186.1076
L190.4580 186.2505
" />
<path d="M190.4580 186.2505
L190.3866 186.3219
" />
<path d="M190.3866 186.3219
L190.2437 186.3933
" />
<path d="M190.2437 186.3933
L189.8152 186.3933
" />
<path d="M189.8152 186.3933
L189.6723 186.3219
" />
<path d="M189.6723 186.3219
L189.6009 186.2505
" />
<path d="M191.1009 185.9648
L191.8152 185.9648
" />
<path d="M190.9580 186.3933
L191.4580 184.8933
" />
<path d="M191.4580 184.8933
L191.9580 186.3933
" />
<path d="M192.1009 186.5362
L193.2437 186.5362
" />
<path d="M193.6009 186.3933
L193.6009 184.8933
" />
<path d="M193.6009 184.8933
L193.9580 184.8933
" />
<path d="M193.9580 184.8933
L194.1723 184.9648
" />
<path d="M194.1723 184.9648
L194.3152 185.1076
" />
<path d="M194.3152 185.1076
L194.3866 185.2505
" />
<path d="M194.3866 185.2505
L194.4580 185.5362
" />
<path d="M194.4580 185.5362
L194.4580 185.7505
" />
<path d="M194.4580 185.7505
L194.3866 186.0362
" />
<path d="M194.3866 186.0362
L194.3152 186.1790
" />
<path d="M194.3152 186.1790
L194.1723 186.3219
" />
<path d="M194.1723 186.3219
L193.9580 186.3933
" />
<path d="M193.9580 186.3933
L193.6009 186.3933
" />
<path d="M195.7437 185.3933
L195.7437 186.3933
" />
<path d="M195.1009 185.3933
L195.1009 186.1790
" />
<path d="M195.1009 186.1790
L195.1723 186.3219
" />
<path d="M195.1723 186.3219
L195.3152 186.3933
" />
<path d="M195.3152 186.3933
L195.5295 186.3933
" />
<path d="M195.5295 186.3933
L195.6723 186.3219
" />
<path d="M195.6723 186.3219
L195.7437 186.2505
" />
<path d="M197.1009 186.3933
L197.1009 185.6076
" />
<path d="M197.1009 185.6076
L197.0295 185.4648
" />
<path d="M197.0295 185.4648
L196.8866 185.3933
" />
<path d="M196.8866 185.3933
L196.6009 185.3933
" />
<path d="M196.6009 185.3933
L196.4580 185.4648
" />
<path d="M197.1009 186.3219
L196.9580 186.3933
" />
<path d="M196.9580 186.3933
L196.6009 186.3933
" />
<path d="M196.6009 186.3933
L196.4580 186.3219
" />
<path d="M196.4580 186.3219
L196.3866 186.1790
" />
<path d="M196.3866 186.1790
L196.3866 186.0362
" />
<path d="M196.3866 186.0362
L196.4580 185.8933
" />
<path d="M196.4580 185.8933
L196.6009 185.8219
" />
<path d="M196.6009 185.8219
L196.9580 185.8219
" />
<path d="M196.9580 185.8219
L197.1009 185.7505
" />
<path d="M198.0295 186.3933
L197.8866 186.3219
" />
<path d="M197.8866 186.3219
L197.8152 186.1790
" />
<path d="M197.8152 186.1790
L197.8152 184.8933
" />
<path d="M198.6009 186.3933
L198.6009 184.8933
" />
<path d="M198.6009 184.8933
L199.4580 186.3933
" />
<path d="M199.4580 186.3933
L199.4580 184.8933
" />
<path d="M201.0295 186.2505
L200.9580 186.3219
" />
<path d="M200.9580 186.3219
L200.7437 186.3933
" />
<path d="M200.7437 186.3933
L200.6009 186.3933
" />
<path d="M200.6009 186.3933
L200.3866 186.3219
" />
<path d="M200.3866 186.3219
L200.2437 186.1790
" />
<path d="M200.2437 186.1790
L200.1723 186.0362
" />
<path d="M200.1723 186.0362
L200.1009 185.7505
" />
<path d="M200.1009 185.7505
L200.1009 185.5362
" />
<path d="M200.1009 185.5362
L200.1723 185.2505
" />
<path d="M200.1723 185.2505
L200.2437 185.1076
" />
<path d="M200.2437 185.1076
L200.3866 184.9648
" />
<path d="M200.3866 184.9648
L200.6009 184.8933
" />
<path d="M200.6009 184.8933
L200.7437 184.8933
" />
<path d="M200.7437 184.8933
L200.9580 184.9648
" />
<path d="M200.9580 184.9648
L201.0295 185.0362
" />
<path d="M201.6723 185.6076
L202.1723 185.6076
" />
<path d="M202.3866 186.3933
L201.6723 186.3933
" />
<path d="M201.6723 186.3933
L201.6723 184.8933
" />
<path d="M201.6723 184.8933
L202.3866 184.8933
" />
<path d="M203.0295 186.2505
L203.1009 186.3219
" />
<path d="M203.1009 186.3219
L203.0295 186.3933
" />
<path d="M203.0295 186.3933
L202.9580 186.3219
" />
<path d="M202.9580 186.3219
L203.0295 186.2505
" />
<path d="M203.0295 186.2505
L203.0295 186.3933
" />
<path d="M203.7437 186.3933
L203.7437 184.8933
" />
<path d="M203.8866 185.8219
L204.3152 186.3933
" />
<path d="M204.3152 185.3933
L203.7437 185.9648
" />
<path d="M204.9580 186.3933
L204.9580 185.3933
" />
<path d="M204.9580 184.8933
L204.8866 184.9648
" />
<path d="M204.8866 184.9648
L204.9580 185.0362
" />
<path d="M204.9580 185.0362
L205.0295 184.9648
" />
<path d="M205.0295 184.9648
L204.9580 184.8933
" />
<path d="M204.9580 184.8933
L204.9580 185.0362
" />
<path d="M206.3152 186.3219
L206.1723 186.3933
" />
<path d="M206.1723 186.3933
L205.8866 186.3933
" />
<path d="M205.8866 186.3933
L205.7437 186.3219
" />
<path d="M205.7437 186.3219
L205.6723 186.2505
" />
<path d="M205.6723 186.2505
L205.6009 186.1076
" />
<path d="M205.6009 186.1076
L205.6009 185.6790
" />
<path d="M205.6009 185.6790
L205.6723 185.5362
" />
<path d="M205.6723 185.5362
L205.7437 185.4648
" />
<path d="M205.7437 185.4648
L205.8866 185.3933
" />
<path d="M205.8866 185.3933
L206.1723 185.3933
" />
<path d="M206.1723 185.3933
L206.3152 185.4648
" />
<path d="M207.6009 186.3933
L207.6009 185.6076
" />
<path d="M207.6009 185.6076
L207.5295 185.4648
" />
<path d="M207.5295 185.4648
L207.3866 185.3933
" />
<path d="M207.3866 185.3933
L207.1009 185.3933
" />
<path d="M207.1009 185.3933
L206.9580 185.4648
" />
<path d="M207.6009 186.3219
L207.4580 186.3933
" />
<path d="M207.4580 186.3933
L207.1009 186.3933
" />
<path d="M207.1009 186.3933
L206.9580 186.3219
" />
<path d="M206.9580 186.3219
L206.8866 186.1790
" />
<path d="M206.8866 186.1790
L206.8866 186.0362
" />
<path d="M206.8866 186.0362
L206.9580 185.8933
" />
<path d="M206.9580 185.8933
L207.1009 185.8219
" />
<path d="M207.1009 185.8219
L207.4580 185.8219
" />
<path d="M207.4580 185.8219
L207.6009 185.7505
" />
<path d="M208.9580 186.3933
L208.9580 184.8933
" />
<path d="M208.9580 186.3219
L208.8152 186.3933
" />
<path d="M208.8152 186.3933
L208.5295 186.3933
" />
<path d="M208.5295 186.3933
L208.3866 186.3219
" />
<path d="M208.3866 186.3219
L208.3152 186.2505
" />
<path d="M208.3152 186.2505
L208.2437 186.1076
" />
<path d="M208.2437 186.1076
L208.2437 185.6790
" />
<path d="M208.2437 185.6790
L208.3152 185.5362
" />
<path d="M208.3152 185.5362
L208.3866 185.4648
" />
<path d="M208.3866 185.4648
L208.5295 185.3933
" />
<path d="M208.5295 185.3933
L208.8152 185.3933
" />
<path d="M208.8152 185.3933
L208.9580 185.4648
" />
<path d="M209.3152 186.5362
L210.4580 186.5362
" />
<path d="M210.8152 185.3933
L210.8152 186.8933
" />
<path d="M210.8152 185.4648
L210.9580 185.3933
" />
<path d="M210.9580 185.3933
L211.2437 185.3933
" />
<path d="M211.2437 185.3933
L211.3866 185.4648
" />
<path d="M211.3866 185.4648
L211.4580 185.5362
" />
<path d="M211.4580 185.5362
L211.5295 185.6790
" />
<path d="M211.5295 185.6790
L211.5295 186.1076
" />
<path d="M211.5295 186.1076
L211.4580 186.2505
" />
<path d="M211.4580 186.2505
L211.3866 186.3219
" />
<path d="M211.3866 186.3219
L211.2437 186.3933
" />
<path d="M211.2437 186.3933
L210.9580 186.3933
" />
<path d="M210.9580 186.3933
L210.8152 186.3219
" />
<path d="M212.8152 186.3219
L212.6723 186.3933
" />
<path d="M212.6723 186.3933
L212.3866 186.3933
" />
<path d="M212.3866 186.3933
L212.2437 186.3219
" />
<path d="M212.2437 186.3219
L212.1723 186.2505
" />
<path d="M212.1723 186.2505
L212.1009 186.1076
" />
<path d="M212.1009 186.1076
L212.1009 185.6790
" />
<path d="M212.1009 185.6790
L212.1723 185.5362
" />
<path d="M212.1723 185.5362
L212.2437 185.4648
" />
<path d="M212.2437 185.4648
L212.3866 185.3933
" />
<path d="M212.3866 185.3933
L212.6723 185.3933
" />
<path d="M212.6723 185.3933
L212.8152 185.4648
" />
<path d="M213.4580 186.3933
L213.4580 184.8933
" />
<path d="M213.4580 185.4648
L213.6009 185.3933
" />
<path d="M213.6009 185.3933
L213.8866 185.3933
" />
<path d="M213.8866 185.3933
L214.0295 185.4648
" />
<path d="M214.0295 185.4648
L214.1009 185.5362
" />
<path d="M214.1009 185.5362
L214.1723 185.6790
" />
<path d="M214.1723 185.6790
L214.1723 186.1076
" />
<path d="M214.1723 186.1076
L214.1009 186.2505
" />
<path d="M214.1009 186.2505
L214.0295 186.3219
" />
<path d="M214.0295 186.3219
L213.8866 186.3933
" />
<path d="M213.8866 186.3933
L213.6009 186.3933
" />
<path d="M213.6009 186.3933
L213.4580 186.3219
" />
</g><path d="M177.0022 181.5072
L285.0022 181.5072
" />
<text x="178.0022" y="183.7572"
textLength="8.2214" font-size="2.0000" lengthAdjust="spacingAndGlyphs"
text-anchor="start" opacity="0" stroke-opacity="0">Sheet: </text>
<g class="stroked-text"><desc>Sheet: </desc>
<path d="M178.3866 183.6219
L178.6009 183.6933
" />
<path d="M178.6009 183.6933
L178.9580 183.6933
" />
<path d="M178.9580 183.6933
L179.1009 183.6219
" />
<path d="M179.1009 183.6219
L179.1723 183.5505
" />
<path d="M179.1723 183.5505
L179.2437 183.4076
" />
<path d="M179.2437 183.4076
L179.2437 183.2648
" />
<path d="M179.2437 183.2648
L179.1723 183.1219
" />
<path d="M179.1723 183.1219
L179.1009 183.0505
" />
<path d="M179.1009 183.0505
L178.9580 182.9790
" />
<path d="M178.9580 182.9790
L178.6723 182.9076
" />
<path d="M178.6723 182.9076
L178.5295 182.8362
" />
<path d="M178.5295 182.8362
L178.4580 182.7648
" />
<path d="M178.4580 182.7648
L178.3866 182.6219
" />
<path d="M178.3866 182.6219
L178.3866 182.4790
" />
<path d="M178.3866 182.4790
L178.4580 182.3362
" />
<path d="M178.4580 182.3362
L178.5295 182.2648
" />
<path d="M178.5295 182.2648
L178.6723 182.1933
" />
<path d="M178.6723 182.1933
L179.0295 182.1933
" />
<path d="M179.0295 182.1933
L179.2437 182.2648
" />
<path d="M179.8866 183.6933
L179.8866 182.1933
" />
<path d="M180.5295 183.6933
L180.5295 182.9076
" />
<path d="M180.5295 182.9076
L180.4580 182.7648
" />
<path d="M180.4580 182.7648
L180.3152 182.6933
" />
<path d="M180.3152 182.6933
L180.1009 182.6933
" />
<path d="M180.1009 182.6933
L179.9580 182.7648
" />
<path d="M179.9580 182.7648
L179.8866 182.8362
" />
<path d="M181.8152 183.6219
L181.6723 183.6933
" />
<path d="M181.6723 183.6933
L181.3866 183.6933
" />
<path d="M181.3866 183.6933
L181.2437 183.6219
" />
<path d="M181.2437 183.6219
L181.1723 183.4790
" />
<path d="M181.1723 183.4790
L181.1723 182.9076
" />
<path d="M181.1723 182.9076
L181.2437 182.7648
" />
<path d="M181.2437 182.7648
L181.3866 182.6933
" />
<path d="M181.3866 182.6933
L181.6723 182.6933
" />
<path d="M181.6723 182.6933
L181.8152 182.7648
" />
<path d="M181.8152 182.7648
L181.8866 182.9076
" />
<path d="M181.8866 182.9076
L181.8866 183.0505
" />
<path d="M181.8866 183.0505
L181.1723 183.1933
" />
<path d="M183.1009 183.6219
L182.9580 183.6933
" />
<path d="M182.9580 183.6933
L182.6723 183.6933
" />
<path d="M182.6723 183.6933
L182.5295 183.6219
" />
<path d="M182.5295 183.6219
L182.4580 183.4790
" />
<path d="M182.4580 183.4790
L182.4580 182.9076
" />
<path d="M182.4580 182.9076
L182.5295 182.7648
" />
<path d="M182.5295 182.7648
L182.6723 182.6933
" />
<path d="M182.6723 182.6933
L182.9580 182.6933
" />
<path d="M182.9580 182.6933
L183.1009 182.7648
" />
<path d="M183.1009 182.7648
L183.1723 182.9076
" />
<path d="M183.1723 182.9076
L183.1723 183.0505
" />
<path d="M183.1723 183.0505
L182.4580 183.1933
" />
<path d="M183.6009 182.6933
L184.1723 182.6933
" />
<path d="M183.8152 182.1933
L183.8152 183.4790
" />
<path d="M183.8152 183.4790
L183.8866 183.6219
" />
<path d="M183.8866 183.6219
L184.0295 183.6933
" />
<path d="M184.0295 183.6933
L184.1723 183.6933
" />
<path d="M184.6723 183.5505
L184.7437 183.6219
" />
<path d="M184.7437 183.6219
L184.6723 183.6933
" />
<path d="M184.6723 183.6933
L184.6009 183.6219
" />
<path d="M184.6009 183.6219
L184.6723 183.5505
" />
<path d="M184.6723 183.5505
L184.6723 183.6933
" />
<path d="M184.6723 182.7648
L184.7437 182.8362
" />
<path d="M184.7437 182.8362
L184.6723 182.9076
" />
<path d="M184.6723 182.9076
L184.6009 182.8362
" />
<path d="M184.6009 182.8362
L184.6723 182.7648
" />
<path d="M184.6723 182.7648
L184.6723 182.9076
" />
</g></g>
<g style="fill:none; 
stroke:#C872AB; stroke-width:0.3000; stroke-opacity:1; 
stroke-linecap:round; stroke-linejoin:round;">
<text x="178.0022" y="180.7572"
textLength="0.9000" font-size="2.0000" lengthAdjust="spacingAndGlyphs"
text-anchor="start" opacity="0" stroke-opacity="0"></text>
<g class="stroked-text"><desc></desc>
</g></g>
<g style="fill:none; 
stroke:#C872AB; stroke-width:0.1500; stroke-opacity:1; 
stroke-linecap:round; stroke-linejoin:round;">
<text x="178.0022" y="177.7572"
textLength="0.4500" font-size="2.0000" lengthAdjust="spacingAndGlyphs"
text-anchor="start" opacity="0" stroke-opacity="0"></text>
<g class="stroked-text"><desc></desc>
</g><text x="178.0022" y="174.7572"
textLength="0.4500" font-size="2.0000" lengthAdjust="spacingAndGlyphs"
text-anchor="start" opacity="0" stroke-opacity="0"></text>
<g class="stroked-text"><desc></desc>
</g><text x="178.0022" y="171.7572"
textLength="0.4500" font-size="2.0000" lengthAdjust="spacingAndGlyphs"
text-anchor="start" opacity="0" stroke-opacity="0"></text>
<g class="stroked-text"><desc></desc>
</g><text x="178.0022" y="168.7572"
textLength="0.4500" font-size="2.0000" lengthAdjust="spacingAndGlyphs"
text-anchor="start" opacity="0" stroke-opacity="0"></text>
<g class="stroked-text"><desc></desc>
</g><path d="M197.0022 191.5072
L197.0022 194.5072
" />
<path d="M261.0022 191.5072
L261.0022 198.0072
" />
</g>
<g style="fill:none; 
stroke:#AFAFAF; stroke-width:0.1500; stroke-opacity:1; 
stroke-linecap:round; stroke-linejoin:round;">
<text x="160.0000" y="120.6350"
textLength="19.6089" font-size="1.6933" lengthAdjust="spacingAndGlyphs"
text-anchor="middle" opacity="0" stroke-opacity="0">TFLN-MZM-400G-C</text>
<g class="stroked-text"><desc>TFLN-MZM-400G-C</desc>
<path d="M150.4145 119.3097
L151.1402 119.3097
" />
<path d="M150.7774 120.5797
L150.7774 119.3097
" />
<path d="M151.9869 119.9145
L151.5636 119.9145
" />
<path d="M151.5636 120.5797
L151.5636 119.3097
" />
<path d="M151.5636 119.3097
L152.1683 119.3097
" />
<path d="M153.2569 120.5797
L152.6521 120.5797
" />
<path d="M152.6521 120.5797
L152.6521 119.3097
" />
<path d="M153.6802 120.5797
L153.6802 119.3097
" />
<path d="M153.6802 119.3097
L154.4060 120.5797
" />
<path d="M154.4060 120.5797
L154.4060 119.3097
" />
<path d="M155.0107 120.0959
L155.9783 120.0959
" />
<path d="M156.5831 120.5797
L156.5831 119.3097
" />
<path d="M156.5831 119.3097
L157.0064 120.2169
" />
<path d="M157.0064 120.2169
L157.4298 119.3097
" />
<path d="M157.4298 119.3097
L157.4298 120.5797
" />
<path d="M157.9136 119.3097
L158.7602 119.3097
" />
<path d="M158.7602 119.3097
L157.9136 120.5797
" />
<path d="M157.9136 120.5797
L158.7602 120.5797
" />
<path d="M159.2440 120.5797
L159.2440 119.3097
" />
<path d="M159.2440 119.3097
L159.6674 120.2169
" />
<path d="M159.6674 120.2169
L160.0907 119.3097
" />
<path d="M160.0907 119.3097
L160.0907 120.5797
" />
<path d="M160.6955 120.0959
L161.6631 120.0959
" />
<path d="M162.8121 119.7331
L162.8121 120.5797
" />
<path d="M162.5098 119.2492
L162.2074 120.1564
" />
<path d="M162.2074 120.1564
L162.9936 120.1564
" />
<path d="M163.7193 119.3097
L163.8402 119.3097
" />
<path d="M163.8402 119.3097
L163.9612 119.3702
" />
<path d="M163.9612 119.3702
L164.0217 119.4307
" />
<path d="M164.0217 119.4307
L164.0821 119.5516
" />
<path d="M164.0821 119.5516
L164.1426 119.7935
" />
<path d="M164.1426 119.7935
L164.1426 120.0959
" />
<path d="M164.1426 120.0959
L164.0821 120.3378
" />
<path d="M164.0821 120.3378
L164.0217 120.4588
" />
<path d="M164.0217 120.4588
L163.9612 120.5192
" />
<path d="M163.9612 120.5192
L163.8402 120.5797
" />
<path d="M163.8402 120.5797
L163.7193 120.5797
" />
<path d="M163.7193 120.5797
L163.5983 120.5192
" />
<path d="M163.5983 120.5192
L163.5379 120.4588
" />
<path d="M163.5379 120.4588
L163.4774 120.3378
" />
<path d="M163.4774 120.3378
L163.4169 120.0959
" />
<path d="M163.4169 120.0959
L163.4169 119.7935
" />
<path d="M163.4169 119.7935
L163.4774 119.5516
" />
<path d="M163.4774 119.5516
L163.5379 119.4307
" />
<path d="M163.5379 119.4307
L163.5983 119.3702
" />
<path d="M163.5983 119.3702
L163.7193 119.3097
" />
<path d="M164.9288 119.3097
L165.0498 119.3097
" />
<path d="M165.0498 119.3097
L165.1707 119.3702
" />
<path d="M165.1707 119.3702
L165.2312 119.4307
" />
<path d="M165.2312 119.4307
L165.2917 119.5516
" />
<path d="M165.2917 119.5516
L165.3521 119.7935
" />
<path d="M165.3521 119.7935
L165.3521 120.0959
" />
<path d="M165.3521 120.0959
L165.2917 120.3378
" />
<path d="M165.2917 120.3378
L165.2312 120.4588
" />
<path d="M165.2312 120.4588
L165.1707 120.5192
" />
<path d="M165.1707 120.5192
L165.0498 120.5797
" />
<path d="M165.0498 120.5797
L164.9288 120.5797
" />
<path d="M164.9288 120.5797
L164.8079 120.5192
" />
<path d="M164.8079 120.5192
L164.7474 120.4588
" />
<path d="M164.7474 120.4588
L164.6869 120.3378
" />
<path d="M164.6869 120.3378
L164.6264 120.0959
" />
<path d="M164.6264 120.0959
L164.6264 119.7935
" />
<path d="M164.6264 119.7935
L164.6869 119.5516
" />
<path d="M164.6869 119.5516
L164.7474 119.4307
" />
<path d="M164.7474 119.4307
L164.8079 119.3702
" />
<path d="M164.8079 119.3702
L164.9288 119.3097
" />
<path d="M166.5617 119.3702
L166.4407 119.3097
" />
<path d="M166.4407 119.3097
L166.2593 119.3097
" />
<path d="M166.2593 119.3097
L166.0779 119.3702
" />
<path d="M166.0779 119.3702
L165.9569 119.4912
" />
<path d="M165.9569 119.4912
L165.8964 119.6121
" />
<path d="M165.8964 119.6121
L165.8360 119.8540
" />
<path d="M165.8360 119.8540
L165.8360 120.0354
" />
<path d="M165.8360 120.0354
L165.8964 120.2773
" />
<path d="M165.8964 120.2773
L165.9569 120.3983
" />
<path d="M165.9569 120.3983
L166.0779 120.5192
" />
<path d="M166.0779 120.5192
L166.2593 120.5797
" />
<path d="M166.2593 120.5797
L166.3802 120.5797
" />
<path d="M166.3802 120.5797
L166.5617 120.5192
" />
<path d="M166.5617 120.5192
L166.6221 120.4588
" />
<path d="M166.6221 120.4588
L166.6221 120.0354
" />
<path d="M166.6221 120.0354
L166.3802 120.0354
" />
<path d="M167.1664 120.0959
L168.1340 120.0959
" />
<path d="M169.4645 120.4588
L169.4040 120.5192
" />
<path d="M169.4040 120.5192
L169.2226 120.5797
" />
<path d="M169.2226 120.5797
L169.1017 120.5797
" />
<path d="M169.1017 120.5797
L168.9202 120.5192
" />
<path d="M168.9202 120.5192
L168.7993 120.3983
" />
<path d="M168.7993 120.3983
L168.7388 120.2773
" />
<path d="M168.7388 120.2773
L168.6783 120.0354
" />
<path d="M168.6783 120.0354
L168.6783 119.8540
" />
<path d="M168.6783 119.8540
L168.7388 119.6121
" />
<path d="M168.7388 119.6121
L168.7993 119.4912
" />
<path d="M168.7993 119.4912
L168.9202 119.3702
" />
<path d="M168.9202 119.3702
L169.1017 119.3097
" />
<path d="M169.1017 119.3097
L169.2226 119.3097
" />
<path d="M169.2226 119.3097
L169.4040 119.3702
" />
<path d="M169.4040 119.3702
L169.4645 119.4307
" />
</g><text x="70.0000" y="120.6350"
textLength="19.6089" font-size="1.6933" lengthAdjust="spacingAndGlyphs"
text-anchor="middle" opacity="0" stroke-opacity="0">TFLN-MZM-400G-C</text>
<g class="stroked-text"><desc>TFLN-MZM-400G-C</desc>
<path d="M60.4145 119.3097
L61.1402 119.3097
" />
<path d="M60.7774 120.5797
L60.7774 119.3097
" />
<path d="M61.9869 119.9145
L61.5636 119.9145
" />
<path d="M61.5636 120.5797
L61.5636 119.3097
" />
<path d="M61.5636 119.3097
L62.1683 119.3097
" />
<path d="M63.2569 120.5797
L62.6521 120.5797
" />
<path d="M62.6521 120.5797
L62.6521 119.3097
" />
<path d="M63.6802 120.5797
L63.6802 119.3097
" />
<path d="M63.6802 119.3097
L64.4060 120.5797
" />
<path d="M64.4060 120.5797
L64.4060 119.3097
" />
<path d="M65.0107 120.0959
L65.9783 120.0959
" />
<path d="M66.5831 120.5797
L66.5831 119.3097
" />
<path d="M66.5831 119.3097
L67.0064 120.2169
" />
<path d="M67.0064 120.2169
L67.4298 119.3097
" />
<path d="M67.4298 119.3097
L67.4298 120.5797
" />
<path d="M67.9136 119.3097
L68.7602 119.3097
" />
<path d="M68.7602 119.3097
L67.9136 120.5797
" />
<path d="M67.9136 120.5797
L68.7602 120.5797
" />
<path d="M69.2440 120.5797
L69.2440 119.3097
" />
<path d="M69.2440 119.3097
L69.6674 120.2169
" />
<path d="M69.6674 120.2169
L70.0907 119.3097
" />
<path d="M70.0907 119.3097
L70.0907 120.5797
" />
<path d="M70.6955 120.0959
L71.6631 120.0959
" />
<path d="M72.8121 119.7331
L72.8121 120.5797
" />
<path d="M72.5098 119.2492
L72.2074 120.1564
" />
<path d="M72.2074 120.1564
L72.9936 120.1564
" />
<path d="M73.7193 119.3097
L73.8402 119.3097
" />
<path d="M73.8402 119.3097
L73.9612 119.3702
" />
<path d="M73.9612 119.3702
L74.0217 119.4307
" />
<path d="M74.0217 119.4307
L74.0821 119.5516
" />
<path d="M74.0821 119.5516
L74.1426 119.7935
" />
<path d="M74.1426 119.7935
L74.1426 120.0959
" />
<path d="M74.1426 120.0959
L74.0821 120.3378
" />
<path d="M74.0821 120.3378
L74.0217 120.4588
" />
<path d="M74.0217 120.4588
L73.9612 120.5192
" />
<path d="M73.9612 120.5192
L73.8402 120.5797
" />
<path d="M73.8402 120.5797
L73.7193 120.5797
" />
<path d="M73.7193 120.5797
L73.5983 120.5192
" />
<path d="M73.5983 120.5192
L73.5379 120.4588
" />
<path d="M73.5379 120.4588
L73.4774 120.3378
" />
<path d="M73.4774 120.3378
L73.4169 120.0959
" />
<path d="M73.4169 120.0959
L73.4169 119.7935
" />
<path d="M73.4169 119.7935
L73.4774 119.5516
" />
<path d="M73.4774 119.5516
L73.5379 119.4307
" />
<path d="M73.5379 119.4307
L73.5983 119.3702
" />
<path d="M73.5983 119.3702
L73.7193 119.3097
" />
<path d="M74.9288 119.3097
L75.0498 119.3097
" />
<path d="M75.0498 119.3097
L75.1707 119.3702
" />
<path d="M75.1707 119.3702
L75.2312 119.4307
" />
<path d="M75.2312 119.4307
L75.2917 119.5516
" />
<path d="M75.2917 119.5516
L75.3521 119.7935
" />
<path d="M75.3521 119.7935
L75.3521 120.0959
" />
<path d="M75.3521 120.0959
L75.2917 120.3378
" />
<path d="M75.2917 120.3378
L75.2312 120.4588
" />
<path d="M75.2312 120.4588
L75.1707 120.5192
" />
<path d="M75.1707 120.5192
L75.0498 120.5797
" />
<path d="M75.0498 120.5797
L74.9288 120.5797
" />
<path d="M74.9288 120.5797
L74.8079 120.5192
" />
<path d="M74.8079 120.5192
L74.7474 120.4588
" />
<path d="M74.7474 120.4588
L74.6869 120.3378
" />
<path d="M74.6869 120.3378
L74.6264 120.0959
" />
<path d="M74.6264 120.0959
L74.6264 119.7935
" />
<path d="M74.6264 119.7935
L74.6869 119.5516
" />
<path d="M74.6869 119.5516
L74.7474 119.4307
" />
<path d="M74.7474 119.4307
L74.8079 119.3702
" />
<path d="M74.8079 119.3702
L74.9288 119.3097
" />
<path d="M76.5617 119.3702
L76.4407 119.3097
" />
<path d="M76.4407 119.3097
L76.2593 119.3097
" />
<path d="M76.2593 119.3097
L76.0779 119.3702
" />
<path d="M76.0779 119.3702
L75.9569 119.4912
" />
<path d="M75.9569 119.4912
L75.8964 119.6121
" />
<path d="M75.8964 119.6121
L75.8360 119.8540
" />
<path d="M75.8360 119.8540
L75.8360 120.0354
" />
<path d="M75.8360 120.0354
L75.8964 120.2773
" />
<path d="M75.8964 120.2773
L75.9569 120.3983
" />
<path d="M75.9569 120.3983
L76.0779 120.5192
" />
<path d="M76.0779 120.5192
L76.2593 120.5797
" />
<path d="M76.2593 120.5797
L76.3802 120.5797
" />
<path d="M76.3802 120.5797
L76.5617 120.5192
" />
<path d="M76.5617 120.5192
L76.6221 120.4588
" />
<path d="M76.6221 120.4588
L76.6221 120.0354
" />
<path d="M76.6221 120.0354
L76.3802 120.0354
" />
<path d="M77.1664 120.0959
L78.1340 120.0959
" />
<path d="M79.4645 120.4588
L79.4040 120.5192
" />
<path d="M79.4040 120.5192
L79.2226 120.5797
" />
<path d="M79.2226 120.5797
L79.1017 120.5797
" />
<path d="M79.1017 120.5797
L78.9202 120.5192
" />
<path d="M78.9202 120.5192
L78.7993 120.3983
" />
<path d="M78.7993 120.3983
L78.7388 120.2773
" />
<path d="M78.7388 120.2773
L78.6783 120.0354
" />
<path d="M78.6783 120.0354
L78.6783 119.8540
" />
<path d="M78.6783 119.8540
L78.7388 119.6121
" />
<path d="M78.7388 119.6121
L78.7993 119.4912
" />
<path d="M78.7993 119.4912
L78.9202 119.3702
" />
<path d="M78.9202 119.3702
L79.1017 119.3097
" />
<path d="M79.1017 119.3097
L79.2226 119.3097
" />
<path d="M79.2226 119.3097
L79.4040 119.3702
" />
<path d="M79.4040 119.3702
L79.4645 119.4307
" />
</g></g>
<g style="fill:none; 
stroke:#F2EDA1; stroke-width:0.1500; stroke-opacity:1; 
stroke-linecap:round; stroke-linejoin:round;">
<text x="185.0000" y="85.6350"
textLength="4.0060" font-size="1.6933" lengthAdjust="spacingAndGlyphs"
text-anchor="middle" opacity="0" stroke-opacity="0">BH8</text>
<g class="stroked-text"><desc>BH8</desc>
<path d="M183.8207 84.9145
L184.0021 84.9750
" />
<path d="M184.0021 84.9750
L184.0626 85.0354
" />
<path d="M184.0626 85.0354
L184.1231 85.1564
" />
<path d="M184.1231 85.1564
L184.1231 85.3378
" />
<path d="M184.1231 85.3378
L184.0626 85.4588
" />
<path d="M184.0626 85.4588
L184.0021 85.5192
" />
<path d="M184.0021 85.5192
L183.8812 85.5797
" />
<path d="M183.8812 85.5797
L183.3974 85.5797
" />
<path d="M183.3974 85.5797
L183.3974 84.3097
" />
<path d="M183.3974 84.3097
L183.8207 84.3097
" />
<path d="M183.8207 84.3097
L183.9417 84.3702
" />
<path d="M183.9417 84.3702
L184.0021 84.4307
" />
<path d="M184.0021 84.4307
L184.0626 84.5516
" />
<path d="M184.0626 84.5516
L184.0626 84.6726
" />
<path d="M184.0626 84.6726
L184.0021 84.7935
" />
<path d="M184.0021 84.7935
L183.9417 84.8540
" />
<path d="M183.9417 84.8540
L183.8207 84.9145
" />
<path d="M183.8207 84.9145
L183.3974 84.9145
" />
<path d="M184.6674 85.5797
L184.6674 84.3097
" />
<path d="M184.6674 84.9145
L185.3931 84.9145
" />
<path d="M185.3931 85.5797
L185.3931 84.3097
" />
<path d="M186.1793 84.8540
L186.0583 84.7935
" />
<path d="M186.0583 84.7935
L185.9979 84.7331
" />
<path d="M185.9979 84.7331
L185.9374 84.6121
" />
<path d="M185.9374 84.6121
L185.9374 84.5516
" />
<path d="M185.9374 84.5516
L185.9979 84.4307
" />
<path d="M185.9979 84.4307
L186.0583 84.3702
" />
<path d="M186.0583 84.3702
L186.1793 84.3097
" />
<path d="M186.1793 84.3097
L186.4212 84.3097
" />
<path d="M186.4212 84.3097
L186.5421 84.3702
" />
<path d="M186.5421 84.3702
L186.6026 84.4307
" />
<path d="M186.6026 84.4307
L186.6631 84.5516
" />
<path d="M186.6631 84.5516
L186.6631 84.6121
" />
<path d="M186.6631 84.6121
L186.6026 84.7331
" />
<path d="M186.6026 84.7331
L186.5421 84.7935
" />
<path d="M186.5421 84.7935
L186.4212 84.8540
" />
<path d="M186.4212 84.8540
L186.1793 84.8540
" />
<path d="M186.1793 84.8540
L186.0583 84.9145
" />
<path d="M186.0583 84.9145
L185.9979 84.9750
" />
<path d="M185.9979 84.9750
L185.9374 85.0959
" />
<path d="M185.9374 85.0959
L185.9374 85.3378
" />
<path d="M185.9374 85.3378
L185.9979 85.4588
" />
<path d="M185.9979 85.4588
L186.0583 85.5192
" />
<path d="M186.0583 85.5192
L186.1793 85.5797
" />
<path d="M186.1793 85.5797
L186.4212 85.5797
" />
<path d="M186.4212 85.5797
L186.5421 85.5192
" />
<path d="M186.5421 85.5192
L186.6026 85.4588
" />
<path d="M186.6026 85.4588
L186.6631 85.3378
" />
<path d="M186.6631 85.3378
L186.6631 85.0959
" />
<path d="M186.6631 85.0959
L186.6026 84.9750
" />
<path d="M186.6026 84.9750
L186.5421 84.9145
" />
<path d="M186.5421 84.9145
L186.4212 84.8540
" />
</g><text x="135.0000" y="85.6350"
textLength="4.0060" font-size="1.6933" lengthAdjust="spacingAndGlyphs"
text-anchor="middle" opacity="0" stroke-opacity="0">BH7</text>
<g class="stroked-text"><desc>BH7</desc>
<path d="M133.8207 84.9145
L134.0021 84.9750
" />
<path d="M134.0021 84.9750
L134.0626 85.0354
" />
<path d="M134.0626 85.0354
L134.1231 85.1564
" />
<path d="M134.1231 85.1564
L134.1231 85.3378
" />
<path d="M134.1231 85.3378
L134.0626 85.4588
" />
<path d="M134.0626 85.4588
L134.0021 85.5192
" />
<path d="M134.0021 85.5192
L133.8812 85.5797
" />
<path d="M133.8812 85.5797
L133.3974 85.5797
" />
<path d="M133.3974 85.5797
L133.3974 84.3097
" />
<path d="M133.3974 84.3097
L133.8207 84.3097
" />
<path d="M133.8207 84.3097
L133.9417 84.3702
" />
<path d="M133.9417 84.3702
L134.0021 84.4307
" />
<path d="M134.0021 84.4307
L134.0626 84.5516
" />
<path d="M134.0626 84.5516
L134.0626 84.6726
" />
<path d="M134.0626 84.6726
L134.0021 84.7935
" />
<path d="M134.0021 84.7935
L133.9417 84.8540
" />
<path d="M133.9417 84.8540
L133.8207 84.9145
" />
<path d="M133.8207 84.9145
L133.3974 84.9145
" />
<path d="M134.6674 85.5797
L134.6674 84.3097
" />
<path d="M134.6674 84.9145
L135.3931 84.9145
" />
<path d="M135.3931 85.5797
L135.3931 84.3097
" />
<path d="M135.8769 84.3097
L136.7236 84.3097
" />
<path d="M136.7236 84.3097
L136.1793 85.5797
" />
</g><text x="160.0000" y="120.6350"
textLength="5.1550" font-size="1.6933" lengthAdjust="spacingAndGlyphs"
text-anchor="middle" opacity="0" stroke-opacity="0">U202</text>
<g class="stroked-text"><desc>U202</desc>
<path d="M157.8229 119.3097
L157.8229 120.3378
" />
<path d="M157.8229 120.3378
L157.8833 120.4588
" />
<path d="M157.8833 120.4588
L157.9438 120.5192
" />
<path d="M157.9438 120.5192
L158.0648 120.5797
" />
<path d="M158.0648 120.5797
L158.3067 120.5797
" />
<path d="M158.3067 120.5797
L158.4276 120.5192
" />
<path d="M158.4276 120.5192
L158.4881 120.4588
" />
<path d="M158.4881 120.4588
L158.5486 120.3378
" />
<path d="M158.5486 120.3378
L158.5486 119.3097
" />
<path d="M159.0929 119.4307
L159.1533 119.3702
" />
<path d="M159.1533 119.3702
L159.2743 119.3097
" />
<path d="M159.2743 119.3097
L159.5767 119.3097
" />
<path d="M159.5767 119.3097
L159.6976 119.3702
" />
<path d="M159.6976 119.3702
L159.7581 119.4307
" />
<path d="M159.7581 119.4307
L159.8186 119.5516
" />
<path d="M159.8186 119.5516
L159.8186 119.6726
" />
<path d="M159.8186 119.6726
L159.7581 119.8540
" />
<path d="M159.7581 119.8540
L159.0324 120.5797
" />
<path d="M159.0324 120.5797
L159.8186 120.5797
" />
<path d="M160.6048 119.3097
L160.7257 119.3097
" />
<path d="M160.7257 119.3097
L160.8467 119.3702
" />
<path d="M160.8467 119.3702
L160.9071 119.4307
" />
<path d="M160.9071 119.4307
L160.9676 119.5516
" />
<path d="M160.9676 119.5516
L161.0281 119.7935
" />
<path d="M161.0281 119.7935
L161.0281 120.0959
" />
<path d="M161.0281 120.0959
L160.9676 120.3378
" />
<path d="M160.9676 120.3378
L160.9071 120.4588
" />
<path d="M160.9071 120.4588
L160.8467 120.5192
" />
<path d="M160.8467 120.5192
L160.7257 120.5797
" />
<path d="M160.7257 120.5797
L160.6048 120.5797
" />
<path d="M160.6048 120.5797
L160.4838 120.5192
" />
<path d="M160.4838 120.5192
L160.4233 120.4588
" />
<path d="M160.4233 120.4588
L160.3629 120.3378
" />
<path d="M160.3629 120.3378
L160.3024 120.0959
" />
<path d="M160.3024 120.0959
L160.3024 119.7935
" />
<path d="M160.3024 119.7935
L160.3629 119.5516
" />
<path d="M160.3629 119.5516
L160.4233 119.4307
" />
<path d="M160.4233 119.4307
L160.4838 119.3702
" />
<path d="M160.4838 119.3702
L160.6048 119.3097
" />
<path d="M161.5119 119.4307
L161.5724 119.3702
" />
<path d="M161.5724 119.3702
L161.6933 119.3097
" />
<path d="M161.6933 119.3097
L161.9957 119.3097
" />
<path d="M161.9957 119.3097
L162.1167 119.3702
" />
<path d="M162.1167 119.3702
L162.1771 119.4307
" />
<path d="M162.1771 119.4307
L162.2376 119.5516
" />
<path d="M162.2376 119.5516
L162.2376 119.6726
" />
<path d="M162.2376 119.6726
L162.1771 119.8540
" />
<path d="M162.1771 119.8540
L161.4514 120.5797
" />
<path d="M161.4514 120.5797
L162.2376 120.5797
" />
</g><text x="185.0000" y="35.6350"
textLength="4.0060" font-size="1.6933" lengthAdjust="spacingAndGlyphs"
text-anchor="middle" opacity="0" stroke-opacity="0">BH6</text>
<g class="stroked-text"><desc>BH6</desc>
<path d="M183.8207 34.9145
L184.0021 34.9750
" />
<path d="M184.0021 34.9750
L184.0626 35.0354
" />
<path d="M184.0626 35.0354
L184.1231 35.1564
" />
<path d="M184.1231 35.1564
L184.1231 35.3378
" />
<path d="M184.1231 35.3378
L184.0626 35.4588
" />
<path d="M184.0626 35.4588
L184.0021 35.5192
" />
<path d="M184.0021 35.5192
L183.8812 35.5797
" />
<path d="M183.8812 35.5797
L183.3974 35.5797
" />
<path d="M183.3974 35.5797
L183.3974 34.3097
" />
<path d="M183.3974 34.3097
L183.8207 34.3097
" />
<path d="M183.8207 34.3097
L183.9417 34.3702
" />
<path d="M183.9417 34.3702
L184.0021 34.4307
" />
<path d="M184.0021 34.4307
L184.0626 34.5516
" />
<path d="M184.0626 34.5516
L184.0626 34.6726
" />
<path d="M184.0626 34.6726
L184.0021 34.7935
" />
<path d="M184.0021 34.7935
L183.9417 34.8540
" />
<path d="M183.9417 34.8540
L183.8207 34.9145
" />
<path d="M183.8207 34.9145
L183.3974 34.9145
" />
<path d="M184.6674 35.5797
L184.6674 34.3097
" />
<path d="M184.6674 34.9145
L185.3931 34.9145
" />
<path d="M185.3931 35.5797
L185.3931 34.3097
" />
<path d="M186.5421 34.3097
L186.3002 34.3097
" />
<path d="M186.3002 34.3097
L186.1793 34.3702
" />
<path d="M186.1793 34.3702
L186.1188 34.4307
" />
<path d="M186.1188 34.4307
L185.9979 34.6121
" />
<path d="M185.9979 34.6121
L185.9374 34.8540
" />
<path d="M185.9374 34.8540
L185.9374 35.3378
" />
<path d="M185.9374 35.3378
L185.9979 35.4588
" />
<path d="M185.9979 35.4588
L186.0583 35.5192
" />
<path d="M186.0583 35.5192
L186.1793 35.5797
" />
<path d="M186.1793 35.5797
L186.4212 35.5797
" />
<path d="M186.4212 35.5797
L186.5421 35.5192
" />
<path d="M186.5421 35.5192
L186.6026 35.4588
" />
<path d="M186.6026 35.4588
L186.6631 35.3378
" />
<path d="M186.6631 35.3378
L186.6631 35.0354
" />
<path d="M186.6631 35.0354
L186.6026 34.9145
" />
<path d="M186.6026 34.9145
L186.5421 34.8540
" />
<path d="M186.5421 34.8540
L186.4212 34.7935
" />
<path d="M186.4212 34.7935
L186.1793 34.7935
" />
<path d="M186.1793 34.7935
L186.0583 34.8540
" />
<path d="M186.0583 34.8540
L185.9979 34.9145
" />
<path d="M185.9979 34.9145
L185.9374 35.0354
" />
</g><text x="160.0000" y="60.6350"
textLength="5.1550" font-size="1.6933" lengthAdjust="spacingAndGlyphs"
text-anchor="middle" opacity="0" stroke-opacity="0">U201</text>
<g class="stroked-text"><desc>U201</desc>
<path d="M157.8229 59.3097
L157.8229 60.3378
" />
<path d="M157.8229 60.3378
L157.8833 60.4588
" />
<path d="M157.8833 60.4588
L157.9438 60.5192
" />
<path d="M157.9438 60.5192
L158.0648 60.5797
" />
<path d="M158.0648 60.5797
L158.3067 60.5797
" />
<path d="M158.3067 60.5797
L158.4276 60.5192
" />
<path d="M158.4276 60.5192
L158.4881 60.4588
" />
<path d="M158.4881 60.4588
L158.5486 60.3378
" />
<path d="M158.5486 60.3378
L158.5486 59.3097
" />
<path d="M159.0929 59.4307
L159.1533 59.3702
" />
<path d="M159.1533 59.3702
L159.2743 59.3097
" />
<path d="M159.2743 59.3097
L159.5767 59.3097
" />
<path d="M159.5767 59.3097
L159.6976 59.3702
" />
<path d="M159.6976 59.3702
L159.7581 59.4307
" />
<path d="M159.7581 59.4307
L159.8186 59.5516
" />
<path d="M159.8186 59.5516
L159.8186 59.6726
" />
<path d="M159.8186 59.6726
L159.7581 59.8540
" />
<path d="M159.7581 59.8540
L159.0324 60.5797
" />
<path d="M159.0324 60.5797
L159.8186 60.5797
" />
<path d="M160.6048 59.3097
L160.7257 59.3097
" />
<path d="M160.7257 59.3097
L160.8467 59.3702
" />
<path d="M160.8467 59.3702
L160.9071 59.4307
" />
<path d="M160.9071 59.4307
L160.9676 59.5516
" />
<path d="M160.9676 59.5516
L161.0281 59.7935
" />
<path d="M161.0281 59.7935
L161.0281 60.0959
" />
<path d="M161.0281 60.0959
L160.9676 60.3378
" />
<path d="M160.9676 60.3378
L160.9071 60.4588
" />
<path d="M160.9071 60.4588
L160.8467 60.5192
" />
<path d="M160.8467 60.5192
L160.7257 60.5797
" />
<path d="M160.7257 60.5797
L160.6048 60.5797
" />
<path d="M160.6048 60.5797
L160.4838 60.5192
" />
<path d="M160.4838 60.5192
L160.4233 60.4588
" />
<path d="M160.4233 60.4588
L160.3629 60.3378
" />
<path d="M160.3629 60.3378
L160.3024 60.0959
" />
<path d="M160.3024 60.0959
L160.3024 59.7935
" />
<path d="M160.3024 59.7935
L160.3629 59.5516
" />
<path d="M160.3629 59.5516
L160.4233 59.4307
" />
<path d="M160.4233 59.4307
L160.4838 59.3702
" />
<path d="M160.4838 59.3702
L160.6048 59.3097
" />
<path d="M162.2376 60.5797
L161.5119 60.5797
" />
<path d="M161.8748 60.5797
L161.8748 59.3097
" />
<path d="M161.8748 59.3097
L161.7538 59.4912
" />
<path d="M161.7538 59.4912
L161.6329 59.6121
" />
<path d="M161.6329 59.6121
L161.5119 59.6726
" />
</g><text x="95.0000" y="85.6350"
textLength="4.0060" font-size="1.6933" lengthAdjust="spacingAndGlyphs"
text-anchor="middle" opacity="0" stroke-opacity="0">BH4</text>
<g class="stroked-text"><desc>BH4</desc>
<path d="M93.8207 84.9145
L94.0021 84.9750
" />
<path d="M94.0021 84.9750
L94.0626 85.0354
" />
<path d="M94.0626 85.0354
L94.1231 85.1564
" />
<path d="M94.1231 85.1564
L94.1231 85.3378
" />
<path d="M94.1231 85.3378
L94.0626 85.4588
" />
<path d="M94.0626 85.4588
L94.0021 85.5192
" />
<path d="M94.0021 85.5192
L93.8812 85.5797
" />
<path d="M93.8812 85.5797
L93.3974 85.5797
" />
<path d="M93.3974 85.5797
L93.3974 84.3097
" />
<path d="M93.3974 84.3097
L93.8207 84.3097
" />
<path d="M93.8207 84.3097
L93.9417 84.3702
" />
<path d="M93.9417 84.3702
L94.0021 84.4307
" />
<path d="M94.0021 84.4307
L94.0626 84.5516
" />
<path d="M94.0626 84.5516
L94.0626 84.6726
" />
<path d="M94.0626 84.6726
L94.0021 84.7935
" />
<path d="M94.0021 84.7935
L93.9417 84.8540
" />
<path d="M93.9417 84.8540
L93.8207 84.9145
" />
<path d="M93.8207 84.9145
L93.3974 84.9145
" />
<path d="M94.6674 85.5797
L94.6674 84.3097
" />
<path d="M94.6674 84.9145
L95.3931 84.9145
" />
<path d="M95.3931 85.5797
L95.3931 84.3097
" />
<path d="M96.5421 84.7331
L96.5421 85.5797
" />
<path d="M96.2398 84.2492
L95.9374 85.1564
" />
<path d="M95.9374 85.1564
L96.7236 85.1564
" />
</g><text x="45.0000" y="85.6350"
textLength="4.0060" font-size="1.6933" lengthAdjust="spacingAndGlyphs"
text-anchor="middle" opacity="0" stroke-opacity="0">BH3</text>
<g class="stroked-text"><desc>BH3</desc>
<path d="M43.8207 84.9145
L44.0021 84.9750
" />
<path d="M44.0021 84.9750
L44.0626 85.0354
" />
<path d="M44.0626 85.0354
L44.1231 85.1564
" />
<path d="M44.1231 85.1564
L44.1231 85.3378
" />
<path d="M44.1231 85.3378
L44.0626 85.4588
" />
<path d="M44.0626 85.4588
L44.0021 85.5192
" />
<path d="M44.0021 85.5192
L43.8812 85.5797
" />
<path d="M43.8812 85.5797
L43.3974 85.5797
" />
<path d="M43.3974 85.5797
L43.3974 84.3097
" />
<path d="M43.3974 84.3097
L43.8207 84.3097
" />
<path d="M43.8207 84.3097
L43.9417 84.3702
" />
<path d="M43.9417 84.3702
L44.0021 84.4307
" />
<path d="M44.0021 84.4307
L44.0626 84.5516
" />
<path d="M44.0626 84.5516
L44.0626 84.6726
" />
<path d="M44.0626 84.6726
L44.0021 84.7935
" />
<path d="M44.0021 84.7935
L43.9417 84.8540
" />
<path d="M43.9417 84.8540
L43.8207 84.9145
" />
<path d="M43.8207 84.9145
L43.3974 84.9145
" />
<path d="M44.6674 85.5797
L44.6674 84.3097
" />
<path d="M44.6674 84.9145
L45.3931 84.9145
" />
<path d="M45.3931 85.5797
L45.3931 84.3097
" />
<path d="M45.8769 84.3097
L46.6631 84.3097
" />
<path d="M46.6631 84.3097
L46.2398 84.7935
" />
<path d="M46.2398 84.7935
L46.4212 84.7935
" />
<path d="M46.4212 84.7935
L46.5421 84.8540
" />
<path d="M46.5421 84.8540
L46.6026 84.9145
" />
<path d="M46.6026 84.9145
L46.6631 85.0354
" />
<path d="M46.6631 85.0354
L46.6631 85.3378
" />
<path d="M46.6631 85.3378
L46.6026 85.4588
" />
<path d="M46.6026 85.4588
L46.5421 85.5192
" />
<path d="M46.5421 85.5192
L46.4212 85.5797
" />
<path d="M46.4212 85.5797
L46.0583 85.5797
" />
<path d="M46.0583 85.5797
L45.9374 85.5192
" />
<path d="M45.9374 85.5192
L45.8769 85.4588
" />
</g><text x="95.0000" y="35.6350"
textLength="4.0060" font-size="1.6933" lengthAdjust="spacingAndGlyphs"
text-anchor="middle" opacity="0" stroke-opacity="0">BH2</text>
<g class="stroked-text"><desc>BH2</desc>
<path d="M93.8207 34.9145
L94.0021 34.9750
" />
<path d="M94.0021 34.9750
L94.0626 35.0354
" />
<path d="M94.0626 35.0354
L94.1231 35.1564
" />
<path d="M94.1231 35.1564
L94.1231 35.3378
" />
<path d="M94.1231 35.3378
L94.0626 35.4588
" />
<path d="M94.0626 35.4588
L94.0021 35.5192
" />
<path d="M94.0021 35.5192
L93.8812 35.5797
" />
<path d="M93.8812 35.5797
L93.3974 35.5797
" />
<path d="M93.3974 35.5797
L93.3974 34.3097
" />
<path d="M93.3974 34.3097
L93.8207 34.3097
" />
<path d="M93.8207 34.3097
L93.9417 34.3702
" />
<path d="M93.9417 34.3702
L94.0021 34.4307
" />
<path d="M94.0021 34.4307
L94.0626 34.5516
" />
<path d="M94.0626 34.5516
L94.0626 34.6726
" />
<path d="M94.0626 34.6726
L94.0021 34.7935
" />
<path d="M94.0021 34.7935
L93.9417 34.8540
" />
<path d="M93.9417 34.8540
L93.8207 34.9145
" />
<path d="M93.8207 34.9145
L93.3974 34.9145
" />
<path d="M94.6674 35.5797
L94.6674 34.3097
" />
<path d="M94.6674 34.9145
L95.3931 34.9145
" />
<path d="M95.3931 35.5797
L95.3931 34.3097
" />
<path d="M95.9374 34.4307
L95.9979 34.3702
" />
<path d="M95.9979 34.3702
L96.1188 34.3097
" />
<path d="M96.1188 34.3097
L96.4212 34.3097
" />
<path d="M96.4212 34.3097
L96.5421 34.3702
" />
<path d="M96.5421 34.3702
L96.6026 34.4307
" />
<path d="M96.6026 34.4307
L96.6631 34.5516
" />
<path d="M96.6631 34.5516
L96.6631 34.6726
" />
<path d="M96.6631 34.6726
L96.6026 34.8540
" />
<path d="M96.6026 34.8540
L95.8769 35.5797
" />
<path d="M95.8769 35.5797
L96.6631 35.5797
" />
</g><text x="135.0000" y="35.6350"
textLength="4.0060" font-size="1.6933" lengthAdjust="spacingAndGlyphs"
text-anchor="middle" opacity="0" stroke-opacity="0">BH5</text>
<g class="stroked-text"><desc>BH5</desc>
<path d="M133.8207 34.9145
L134.0021 34.9750
" />
<path d="M134.0021 34.9750
L134.0626 35.0354
" />
<path d="M134.0626 35.0354
L134.1231 35.1564
" />
<path d="M134.1231 35.1564
L134.1231 35.3378
" />
<path d="M134.1231 35.3378
L134.0626 35.4588
" />
<path d="M134.0626 35.4588
L134.0021 35.5192
" />
<path d="M134.0021 35.5192
L133.8812 35.5797
" />
<path d="M133.8812 35.5797
L133.3974 35.5797
" />
<path d="M133.3974 35.5797
L133.3974 34.3097
" />
<path d="M133.3974 34.3097
L133.8207 34.3097
" />
<path d="M133.8207 34.3097
L133.9417 34.3702
" />
<path d="M133.9417 34.3702
L134.0021 34.4307
" />
<path d="M134.0021 34.4307
L134.0626 34.5516
" />
<path d="M134.0626 34.5516
L134.0626 34.6726
" />
<path d="M134.0626 34.6726
L134.0021 34.7935
" />
<path d="M134.0021 34.7935
L133.9417 34.8540
" />
<path d="M133.9417 34.8540
L133.8207 34.9145
" />
<path d="M133.8207 34.9145
L133.3974 34.9145
" />
<path d="M134.6674 35.5797
L134.6674 34.3097
" />
<path d="M134.6674 34.9145
L135.3931 34.9145
" />
<path d="M135.3931 35.5797
L135.3931 34.3097
" />
<path d="M136.6026 34.3097
L135.9979 34.3097
" />
<path d="M135.9979 34.3097
L135.9374 34.9145
" />
<path d="M135.9374 34.9145
L135.9979 34.8540
" />
<path d="M135.9979 34.8540
L136.1188 34.7935
" />
<path d="M136.1188 34.7935
L136.4212 34.7935
" />
<path d="M136.4212 34.7935
L136.5421 34.8540
" />
<path d="M136.5421 34.8540
L136.6026 34.9145
" />
<path d="M136.6026 34.9145
L136.6631 35.0354
" />
<path d="M136.6631 35.0354
L136.6631 35.3378
" />
<path d="M136.6631 35.3378
L136.6026 35.4588
" />
<path d="M136.6026 35.4588
L136.5421 35.5192
" />
<path d="M136.5421 35.5192
L136.4212 35.5797
" />
<path d="M136.4212 35.5797
L136.1188 35.5797
" />
<path d="M136.1188 35.5797
L135.9979 35.5192
" />
<path d="M135.9979 35.5192
L135.9374 35.4588
" />
</g><text x="70.0000" y="60.6350"
textLength="5.1550" font-size="1.6933" lengthAdjust="spacingAndGlyphs"
text-anchor="middle" opacity="0" stroke-opacity="0">U101</text>
<g class="stroked-text"><desc>U101</desc>
<path d="M67.8229 59.3097
L67.8229 60.3378
" />
<path d="M67.8229 60.3378
L67.8833 60.4588
" />
<path d="M67.8833 60.4588
L67.9438 60.5192
" />
<path d="M67.9438 60.5192
L68.0648 60.5797
" />
<path d="M68.0648 60.5797
L68.3067 60.5797
" />
<path d="M68.3067 60.5797
L68.4276 60.5192
" />
<path d="M68.4276 60.5192
L68.4881 60.4588
" />
<path d="M68.4881 60.4588
L68.5486 60.3378
" />
<path d="M68.5486 60.3378
L68.5486 59.3097
" />
<path d="M69.8186 60.5797
L69.0929 60.5797
" />
<path d="M69.4557 60.5797
L69.4557 59.3097
" />
<path d="M69.4557 59.3097
L69.3348 59.4912
" />
<path d="M69.3348 59.4912
L69.2138 59.6121
" />
<path d="M69.2138 59.6121
L69.0929 59.6726
" />
<path d="M70.6048 59.3097
L70.7257 59.3097
" />
<path d="M70.7257 59.3097
L70.8467 59.3702
" />
<path d="M70.8467 59.3702
L70.9071 59.4307
" />
<path d="M70.9071 59.4307
L70.9676 59.5516
" />
<path d="M70.9676 59.5516
L71.0281 59.7935
" />
<path d="M71.0281 59.7935
L71.0281 60.0959
" />
<path d="M71.0281 60.0959
L70.9676 60.3378
" />
<path d="M70.9676 60.3378
L70.9071 60.4588
" />
<path d="M70.9071 60.4588
L70.8467 60.5192
" />
<path d="M70.8467 60.5192
L70.7257 60.5797
" />
<path d="M70.7257 60.5797
L70.6048 60.5797
" />
<path d="M70.6048 60.5797
L70.4838 60.5192
" />
<path d="M70.4838 60.5192
L70.4233 60.4588
" />
<path d="M70.4233 60.4588
L70.3629 60.3378
" />
<path d="M70.3629 60.3378
L70.3024 60.0959
" />
<path d="M70.3024 60.0959
L70.3024 59.7935
" />
<path d="M70.3024 59.7935
L70.3629 59.5516
" />
<path d="M70.3629 59.5516
L70.4233 59.4307
" />
<path d="M70.4233 59.4307
L70.4838 59.3702
" />
<path d="M70.4838 59.3702
L70.6048 59.3097
" />
<path d="M72.2376 60.5797
L71.5119 60.5797
" />
<path d="M71.8748 60.5797
L71.8748 59.3097
" />
<path d="M71.8748 59.3097
L71.7538 59.4912
" />
<path d="M71.7538 59.4912
L71.6329 59.6121
" />
<path d="M71.6329 59.6121
L71.5119 59.6726
" />
</g><text x="45.0000" y="35.6350"
textLength="4.0060" font-size="1.6933" lengthAdjust="spacingAndGlyphs"
text-anchor="middle" opacity="0" stroke-opacity="0">BH1</text>
<g class="stroked-text"><desc>BH1</desc>
<path d="M43.8207 34.9145
L44.0021 34.9750
" />
<path d="M44.0021 34.9750
L44.0626 35.0354
" />
<path d="M44.0626 35.0354
L44.1231 35.1564
" />
<path d="M44.1231 35.1564
L44.1231 35.3378
" />
<path d="M44.1231 35.3378
L44.0626 35.4588
" />
<path d="M44.0626 35.4588
L44.0021 35.5192
" />
<path d="M44.0021 35.5192
L43.8812 35.5797
" />
<path d="M43.8812 35.5797
L43.3974 35.5797
" />
<path d="M43.3974 35.5797
L43.3974 34.3097
" />
<path d="M43.3974 34.3097
L43.8207 34.3097
" />
<path d="M43.8207 34.3097
L43.9417 34.3702
" />
<path d="M43.9417 34.3702
L44.0021 34.4307
" />
<path d="M44.0021 34.4307
L44.0626 34.5516
" />
<path d="M44.0626 34.5516
L44.0626 34.6726
" />
<path d="M44.0626 34.6726
L44.0021 34.7935
" />
<path d="M44.0021 34.7935
L43.9417 34.8540
" />
<path d="M43.9417 34.8540
L43.8207 34.9145
" />
<path d="M43.8207 34.9145
L43.3974 34.9145
" />
<path d="M44.6674 35.5797
L44.6674 34.3097
" />
<path d="M44.6674 34.9145
L45.3931 34.9145
" />
<path d="M45.3931 35.5797
L45.3931 34.3097
" />
<path d="M46.6631 35.5797
L45.9374 35.5797
" />
<path d="M46.3002 35.5797
L46.3002 34.3097
" />
<path d="M46.3002 34.3097
L46.1793 34.4912
" />
<path d="M46.1793 34.4912
L46.0583 34.6121
" />
<path d="M46.0583 34.6121
L45.9374 34.6726
" />
</g><text x="70.0000" y="120.6350"
textLength="5.1550" font-size="1.6933" lengthAdjust="spacingAndGlyphs"
text-anchor="middle" opacity="0" stroke-opacity="0">U102</text>
<g class="stroked-text"><desc>U102</desc>
<path d="M67.8229 119.3097
L67.8229 120.3378
" />
<path d="M67.8229 120.3378
L67.8833 120.4588
" />
<path d="M67.8833 120.4588
L67.9438 120.5192
" />
<path d="M67.9438 120.5192
L68.0648 120.5797
" />
<path d="M68.0648 120.5797
L68.3067 120.5797
" />
<path d="M68.3067 120.5797
L68.4276 120.5192
" />
<path d="M68.4276 120.5192
L68.4881 120.4588
" />
<path d="M68.4881 120.4588
L68.5486 120.3378
" />
<path d="M68.5486 120.3378
L68.5486 119.3097
" />
<path d="M69.8186 120.5797
L69.0929 120.5797
" />
<path d="M69.4557 120.5797
L69.4557 119.3097
" />
<path d="M69.4557 119.3097
L69.3348 119.4912
" />
<path d="M69.3348 119.4912
L69.2138 119.6121
" />
<path d="M69.2138 119.6121
L69.0929 119.6726
" />
<path d="M70.6048 119.3097
L70.7257 119.3097
" />
<path d="M70.7257 119.3097
L70.8467 119.3702
" />
<path d="M70.8467 119.3702
L70.9071 119.4307
" />
<path d="M70.9071 119.4307
L70.9676 119.5516
" />
<path d="M70.9676 119.5516
L71.0281 119.7935
" />
<path d="M71.0281 119.7935
L71.0281 120.0959
" />
<path d="M71.0281 120.0959
L70.9676 120.3378
" />
<path d="M70.9676 120.3378
L70.9071 120.4588
" />
<path d="M70.9071 120.4588
L70.8467 120.5192
" />
<path d="M70.8467 120.5192
L70.7257 120.5797
" />
<path d="M70.7257 120.5797
L70.6048 120.5797
" />
<path d="M70.6048 120.5797
L70.4838 120.5192
" />
<path d="M70.4838 120.5192
L70.4233 120.4588
" />
<path d="M70.4233 120.4588
L70.3629 120.3378
" />
<path d="M70.3629 120.3378
L70.3024 120.0959
" />
<path d="M70.3024 120.0959
L70.3024 119.7935
" />
<path d="M70.3024 119.7935
L70.3629 119.5516
" />
<path d="M70.3629 119.5516
L70.4233 119.4307
" />
<path d="M70.4233 119.4307
L70.4838 119.3702
" />
<path d="M70.4838 119.3702
L70.6048 119.3097
" />
<path d="M71.5119 119.4307
L71.5724 119.3702
" />
<path d="M71.5724 119.3702
L71.6933 119.3097
" />
<path d="M71.6933 119.3097
L71.9957 119.3097
" />
<path d="M71.9957 119.3097
L72.1167 119.3702
" />
<path d="M72.1167 119.3702
L72.1771 119.4307
" />
<path d="M72.1771 119.4307
L72.2376 119.5516
" />
<path d="M72.2376 119.5516
L72.2376 119.6726
" />
<path d="M72.2376 119.6726
L72.1771 119.8540
" />
<path d="M72.1771 119.8540
L71.4514 120.5797
" />
<path d="M71.4514 120.5797
L72.2376 120.5797
" />
</g><path style="fill:none; 
stroke:#FF26E2; stroke-width:0.0500; stroke-opacity:1; 
stroke-linecap:round; stroke-linejoin:round;fill:none"
d="M 140.0000,40.0000
180.0000,40.0000
180.0000,80.0000
140.0000,80.0000
Z" /> 
<path style="fill:none; 
stroke:#FF26E2; stroke-width:0.0500; stroke-opacity:1; 
stroke-linecap:round; stroke-linejoin:round;fill:none"
d="M 50.0000,40.0000
90.0000,40.0000
90.0000,80.0000
50.0000,80.0000
Z" /> 
</g>
<g style="fill:none; 
stroke:#D0D2CD; stroke-width:0.1500; stroke-opacity:1; 
stroke-linecap:round; stroke-linejoin:round;">
<path d="M0.0000 0.0000
L230.0000 0.0000
" />
<path d="M0.0000 150.0000
L0.0000 0.0000
" />
<path d="M230.0000 0.0000
L230.0000 150.0000
" />
<path d="M230.0000 150.0000
L0.0000 150.0000
" />
</g>
<g style="fill:#000000; fill-opacity:1.0000; stroke:none;">
<circle cx="185.0000" cy="85.0000" r="1.6000" /> 
<circle cx="135.0000" cy="85.0000" r="1.6000" /> 
<circle cx="185.0000" cy="35.0000" r="1.6000" /> 
<circle cx="95.0000" cy="85.0000" r="1.6000" /> 
<circle cx="45.0000" cy="85.0000" r="1.6000" /> 
<circle cx="95.0000" cy="35.0000" r="1.6000" /> 
<circle cx="135.0000" cy="35.0000" r="1.6000" /> 
<circle cx="45.0000" cy="35.0000" r="1.6000" /> 
</g> 
</svg>
