M48
; DRILL file KiCad 10.0.3 date 2026-07-07T21:47:21
; FORMAT={-:-/ absolute / metric / decimal}
; #@! TF.CreationDate,2026-07-07T21:47:21-07:00
; #@! TF.GenerationSoftware,Kicad,Pcbnew,10.0.3
; #@! TF.FileFunction,MixedPlating,1,4
FMAT,2
METRIC
; #@! TA.AperFunction,Plated,PTH,ComponentDrill
T1C0.350
; #@! TA.AperFunction,Plated,PTH,ComponentDrill
T2C0.450
; #@! TA.AperFunction,Plated,PTH,ComponentDrill
T3C0.500
; #@! TA.AperFunction,Plated,PTH,ComponentDrill
T4C0.900
; #@! TA.AperFunction,NonPlated,NPTH,ComponentDrill
T5C3.200
%
G90
G05
T1
X29.0Y-182.3
X29.0Y-186.7
X31.1Y-182.3
X31.1Y-186.7
X33.2Y-182.3
X33.2Y-186.7
X35.3Y-182.3
X35.3Y-186.7
X37.4Y-182.3
X37.4Y-186.7
X39.5Y-182.3
X39.5Y-186.7
X41.6Y-182.3
X41.6Y-186.7
X43.7Y-182.3
X43.7Y-186.7
X45.8Y-182.3
X45.8Y-186.7
X47.9Y-182.3
X47.9Y-186.7
X50.0Y-182.3
X50.0Y-186.7
X52.1Y-182.3
X52.1Y-186.7
X54.2Y-182.3
X54.2Y-186.7
X56.3Y-182.3
X56.3Y-186.7
X58.4Y-182.3
X58.4Y-186.7
X60.5Y-182.3
X60.5Y-186.7
X62.6Y-182.3
X62.6Y-186.7
X64.7Y-182.3
X64.7Y-186.7
X66.8Y-182.3
X66.8Y-186.7
X68.9Y-182.3
X68.9Y-186.7
X71.0Y-182.3
X71.0Y-186.7
X73.1Y-182.3
X73.1Y-186.7
X75.2Y-182.3
X75.2Y-186.7
X77.3Y-182.3
X77.3Y-186.7
X79.4Y-182.3
X79.4Y-186.7
X81.5Y-182.3
X81.5Y-186.7
X83.6Y-182.3
X83.6Y-186.7
X85.7Y-182.3
X85.7Y-186.7
X87.8Y-182.3
X87.8Y-186.7
X89.9Y-182.3
X89.9Y-186.7
X121.0Y-182.3
X121.0Y-186.7
X123.1Y-182.3
X123.1Y-186.7
X125.2Y-182.3
X125.2Y-186.7
X127.3Y-182.3
X127.3Y-186.7
X129.4Y-182.3
X129.4Y-186.7
X131.5Y-182.3
X131.5Y-186.7
X133.6Y-182.3
X133.6Y-186.7
X135.7Y-182.3
X135.7Y-186.7
X137.8Y-182.3
X137.8Y-186.7
X139.9Y-182.3
X139.9Y-186.7
X142.0Y-182.3
X142.0Y-186.7
X144.1Y-182.3
X144.1Y-186.7
X146.2Y-182.3
X146.2Y-186.7
X148.3Y-182.3
X148.3Y-186.7
X150.4Y-182.3
X150.4Y-186.7
X152.5Y-182.3
X152.5Y-186.7
X154.6Y-182.3
X154.6Y-186.7
X156.7Y-182.3
X156.7Y-186.7
X158.8Y-182.3
X158.8Y-186.7
X160.9Y-182.3
X160.9Y-186.7
X163.0Y-182.3
X163.0Y-186.7
X165.1Y-182.3
X165.1Y-186.7
X167.2Y-182.3
X167.2Y-186.7
X169.3Y-182.3
X169.3Y-186.7
X171.4Y-182.3
X171.4Y-186.7
X173.5Y-182.3
X173.5Y-186.7
X175.6Y-182.3
X175.6Y-186.7
X177.7Y-182.3
X177.7Y-186.7
X179.8Y-182.3
X179.8Y-186.7
X181.9Y-182.3
X181.9Y-186.7
X213.0Y-182.3
X213.0Y-186.7
X215.1Y-182.3
X215.1Y-186.7
X217.2Y-182.3
X217.2Y-186.7
X219.3Y-182.3
X219.3Y-186.7
X221.4Y-182.3
X221.4Y-186.7
X223.5Y-182.3
X223.5Y-186.7
X225.6Y-182.3
X225.6Y-186.7
X227.7Y-182.3
X227.7Y-186.7
X229.8Y-182.3
X229.8Y-186.7
X231.9Y-182.3
X231.9Y-186.7
X234.0Y-182.3
X234.0Y-186.7
X236.1Y-182.3
X236.1Y-186.7
X238.2Y-182.3
X238.2Y-186.7
X240.3Y-182.3
X240.3Y-186.7
X242.4Y-182.3
X242.4Y-186.7
X244.5Y-182.3
X244.5Y-186.7
X246.6Y-182.3
X246.6Y-186.7
X248.7Y-182.3
X248.7Y-186.7
X250.8Y-182.3
X250.8Y-186.7
X252.9Y-182.3
X252.9Y-186.7
X255.0Y-182.3
X255.0Y-186.7
X257.1Y-182.3
X257.1Y-186.7
X259.2Y-182.3
X259.2Y-186.7
X261.3Y-182.3
X261.3Y-186.7
X263.4Y-182.3
X263.4Y-186.7
X265.5Y-182.3
X265.5Y-186.7
X267.6Y-182.3
X267.6Y-186.7
X269.7Y-182.3
X269.7Y-186.7
X271.8Y-182.3
X271.8Y-186.7
X273.9Y-182.3
X273.9Y-186.7
T2
X23.0Y-11.0
X23.0Y-167.0
X35.0Y-11.0
X35.0Y-167.0
X47.0Y-11.0
X47.0Y-167.0
X59.0Y-11.0
X59.0Y-167.0
X71.0Y-11.0
X71.0Y-167.0
X83.0Y-11.0
X83.0Y-167.0
X95.0Y-11.0
X95.0Y-167.0
X107.0Y-11.0
X107.0Y-167.0
X119.0Y-11.0
X119.0Y-167.0
X131.0Y-11.0
X131.0Y-167.0
X143.0Y-11.0
X143.0Y-167.0
X167.0Y-11.0
X167.0Y-167.0
X179.0Y-11.0
X179.0Y-167.0
X191.0Y-11.0
X191.0Y-167.0
X203.0Y-11.0
X203.0Y-167.0
X215.0Y-11.0
X215.0Y-167.0
X227.0Y-11.0
X227.0Y-167.0
X239.0Y-11.0
X239.0Y-167.0
X251.0Y-11.0
X251.0Y-167.0
X263.0Y-11.0
X263.0Y-167.0
X275.0Y-11.0
X275.0Y-167.0
X287.0Y-11.0
X287.0Y-167.0
T3
X131.0Y-199.0
X131.0Y-202.0
X133.5Y-199.0
X133.5Y-202.0
X136.0Y-199.0
X136.0Y-202.0
X138.5Y-199.0
X138.5Y-202.0
X159.0Y-199.0
X159.0Y-202.0
X161.5Y-199.0
X161.5Y-202.0
X164.0Y-199.0
X164.0Y-202.0
X166.5Y-199.0
X166.5Y-202.0
T4
X11.0Y-201.0
X29.0Y-201.0
X39.0Y-201.0
X57.0Y-201.0
X67.0Y-201.0
X85.0Y-201.0
X95.0Y-201.0
X113.0Y-201.0
T5
X10.0Y-10.0
X10.0Y-89.0
X10.0Y-168.0
X82.0Y-45.0
X82.0Y-132.0
X155.0Y-10.0
X155.0Y-168.0
X228.0Y-45.0
X228.0Y-132.0
X299.0Y-89.0
X300.0Y-10.0
X300.0Y-168.0
M30
