%TF.GenerationSoftware,KiCad,Pcbnew,10.0.3*%
%TF.CreationDate,2026-07-07T21:46:36-07:00*%
%TF.ProjectId,TFLN_AI_NODE_X2_SERVER_CHASSIS_IO,54464c4e-5f41-4495-9f4e-4f44455f5832,July_04-ENG-RECONCILE-01*%
%TF.SameCoordinates,Original*%
%TF.FileFunction,Paste,Top*%
%TF.FilePolarity,Positive*%
%FSLAX46Y46*%
G04 Gerber Fmt 4.6, Leading zero omitted, Abs format (unit mm)*
G04 Created by KiCad (PCBNEW 10.0.3) date 2026-07-07 21:46:36*
%MOMM*%
%LPD*%
G01*
G04 APERTURE LIST*
%ADD10R,0.800000X0.700000*%
%ADD11R,0.380000X0.700000*%
%ADD12R,2.112000X2.112000*%
%ADD13R,0.700000X0.380000*%
%ADD14R,0.700000X0.800000*%
%ADD15R,1.000000X1.450000*%
%ADD16R,1.450000X1.000000*%
%ADD17R,0.500000X1.000000*%
%ADD18R,3.000000X1.000000*%
%ADD19R,2.400000X2.400000*%
%ADD20R,1.823999X1.823999*%
%ADD21R,0.350000X0.900000*%
%ADD22R,0.400000X0.900000*%
%ADD23R,0.500000X0.300000*%
%ADD24R,0.320000X1.000000*%
%ADD25R,2.016000X2.016000*%
%ADD26C,0.460000*%
%ADD27R,0.550000X0.380000*%
%ADD28R,0.750000X1.000000*%
%ADD29C,0.800000*%
%ADD30R,0.900000X0.550000*%
%ADD31R,0.220000X31.000000*%
G04 APERTURE END LIST*
D10*
%TO.C,CL31*%
X43000000Y-152077419D03*
X43000000Y-153277419D03*
%TD*%
%TO.C,DL06*%
X20000000Y-44012903D03*
X20000000Y-45212903D03*
%TD*%
%TO.C,URB10*%
X217200000Y-125900000D03*
X217200000Y-128100000D03*
%TD*%
D11*
%TO.C,U35*%
X107320000Y-105200000D03*
X106440000Y-105200000D03*
X105560000Y-105200000D03*
X104680000Y-105200000D03*
D12*
X106000000Y-103000000D03*
D13*
X103800000Y-104320000D03*
X103800000Y-103440000D03*
X103800000Y-102560000D03*
X103800000Y-101680000D03*
X108200000Y-101680000D03*
X108200000Y-102560000D03*
X108200000Y-103440000D03*
X108200000Y-104320000D03*
D11*
X104680000Y-100800000D03*
X105560000Y-100800000D03*
X106440000Y-100800000D03*
X107320000Y-100800000D03*
%TD*%
D14*
%TO.C,RL19*%
X26250000Y-99806451D03*
X27750000Y-99806451D03*
%TD*%
%TO.C,RR04*%
X282250000Y-34967741D03*
X283750000Y-34967741D03*
%TD*%
%TO.C,RR31*%
X282250000Y-151677419D03*
X283750000Y-151677419D03*
%TD*%
D10*
%TO.C,CR16*%
X267000000Y-87238709D03*
X267000000Y-88438709D03*
%TD*%
D15*
%TO.C,JL08*%
X14000000Y-52258064D03*
%TD*%
D10*
%TO.C,CR29*%
X267000000Y-143432258D03*
X267000000Y-144632258D03*
%TD*%
D15*
%TO.C,JL04*%
X14000000Y-34967741D03*
%TD*%
D14*
%TO.C,RR25*%
X282250000Y-125741935D03*
X283750000Y-125741935D03*
%TD*%
D15*
%TO.C,JL30*%
X14000000Y-147354838D03*
%TD*%
D14*
%TO.C,CML13*%
X92500000Y-80000000D03*
X93500000Y-80000000D03*
%TD*%
D16*
%TO.C,JLB01*%
X91000000Y-143000000D03*
%TD*%
D10*
%TO.C,CL16*%
X43000000Y-87238709D03*
X43000000Y-88438709D03*
%TD*%
D16*
%TO.C,JRB06*%
X198000000Y-143000000D03*
%TD*%
D10*
%TO.C,CR32*%
X267000000Y-155600000D03*
X267000000Y-154400000D03*
%TD*%
D15*
%TO.C,JL05*%
X14000000Y-39290322D03*
%TD*%
D14*
%TO.C,RL21*%
X26250000Y-108451612D03*
X27750000Y-108451612D03*
%TD*%
D10*
%TO.C,ULB05*%
X110200000Y-125900000D03*
X110200000Y-128100000D03*
%TD*%
D16*
%TO.C,JLB07*%
X119800000Y-143000000D03*
%TD*%
D14*
%TO.C,RRFB15*%
X247425000Y-116300000D03*
X248575000Y-116300000D03*
%TD*%
D10*
%TO.C,DR13*%
X290000000Y-74270967D03*
X290000000Y-75470967D03*
%TD*%
%TO.C,RLB05*%
X110200000Y-118200000D03*
X110200000Y-119800000D03*
%TD*%
D17*
%TO.C,J_DDR6_7*%
X236000000Y-216000000D03*
X237800000Y-216000000D03*
X239600000Y-216000000D03*
X241400000Y-216000000D03*
X243200000Y-216000000D03*
X245000000Y-216000000D03*
X246800000Y-216000000D03*
X248600000Y-216000000D03*
X250400000Y-216000000D03*
X252200000Y-216000000D03*
X254000000Y-216000000D03*
X255800000Y-216000000D03*
X257600000Y-216000000D03*
X259399999Y-216000000D03*
X261200000Y-216000000D03*
X263000000Y-216000000D03*
X264800000Y-216000000D03*
X266600000Y-216000000D03*
X268399999Y-216000000D03*
X270200000Y-216000000D03*
X272000000Y-216000000D03*
X273800000Y-216000000D03*
X275600000Y-216000000D03*
X277400000Y-216000000D03*
X279200000Y-216000000D03*
X281000000Y-216000000D03*
X282800000Y-216000000D03*
X284600000Y-216000000D03*
X236000000Y-220000000D03*
X237800000Y-220000000D03*
X239600000Y-220000000D03*
X241400000Y-220000000D03*
X243200000Y-220000000D03*
X245000000Y-220000000D03*
X246800000Y-220000000D03*
X248600000Y-220000000D03*
X250400000Y-220000000D03*
X252200000Y-220000000D03*
X254000000Y-220000000D03*
X255800000Y-220000000D03*
X257600000Y-220000000D03*
X259399999Y-220000000D03*
X261200000Y-220000000D03*
X263000000Y-220000000D03*
X264800000Y-220000000D03*
X266600000Y-220000000D03*
X268399999Y-220000000D03*
X270200000Y-220000000D03*
X272000000Y-220000000D03*
X273800000Y-220000000D03*
X275600000Y-220000000D03*
X277400000Y-220000000D03*
X279200000Y-220000000D03*
X281000000Y-220000000D03*
X282800000Y-220000000D03*
X284600000Y-220000000D03*
D18*
X260000000Y-218000000D03*
%TD*%
D14*
%TO.C,RLFB01*%
X61425000Y-57500000D03*
X62575000Y-57500000D03*
%TD*%
D10*
%TO.C,RRB09*%
X212400000Y-118200000D03*
X212400000Y-119800000D03*
%TD*%
D14*
%TO.C,UL06*%
X34900000Y-43612903D03*
X37100000Y-43612903D03*
%TD*%
D10*
%TO.C,CL29*%
X43000000Y-143432258D03*
X43000000Y-144632258D03*
%TD*%
D14*
%TO.C,UR32*%
X272900000Y-156000000D03*
X275100000Y-156000000D03*
%TD*%
D10*
%TO.C,ULB04*%
X105400000Y-125900000D03*
X105400000Y-128100000D03*
%TD*%
%TO.C,CL22*%
X43000000Y-113174193D03*
X43000000Y-114374193D03*
%TD*%
D14*
%TO.C,CWDM4*%
X162425000Y-59500000D03*
X163575000Y-59500000D03*
%TD*%
%TO.C,RRFB13*%
X247425000Y-107900000D03*
X248575000Y-107900000D03*
%TD*%
%TO.C,CML16*%
X128500000Y-83000000D03*
X129500000Y-83000000D03*
%TD*%
%TO.C,CRP07*%
X226225000Y-164500000D03*
X227775000Y-164500000D03*
%TD*%
D15*
%TO.C,JL02*%
X14000000Y-26322580D03*
%TD*%
D16*
%TO.C,JLB08*%
X124600000Y-143000000D03*
%TD*%
D14*
%TO.C,DRB07*%
X202050000Y-136000000D03*
X203550000Y-136000000D03*
%TD*%
%TO.C,CML05*%
X107400000Y-71500000D03*
X108400000Y-71500000D03*
%TD*%
%TO.C,CMR08*%
X201600000Y-106500000D03*
X202600000Y-106500000D03*
%TD*%
D10*
%TO.C,URB04*%
X188400000Y-125900000D03*
X188400000Y-128100000D03*
%TD*%
D14*
%TO.C,CRP01*%
X226225000Y-151500000D03*
X227775000Y-151500000D03*
%TD*%
D15*
%TO.C,JR18*%
X296000000Y-95483870D03*
%TD*%
D10*
%TO.C,DR02*%
X290000000Y-26722580D03*
X290000000Y-27922580D03*
%TD*%
%TO.C,CR10*%
X267000000Y-61303225D03*
X267000000Y-62503225D03*
%TD*%
D14*
%TO.C,CLP02*%
X61225000Y-151500000D03*
X62775000Y-151500000D03*
%TD*%
%TO.C,UR31*%
X272900000Y-151677419D03*
X275100000Y-151677419D03*
%TD*%
D15*
%TO.C,JL22*%
X14000000Y-112774193D03*
%TD*%
D14*
%TO.C,RR18*%
X282250000Y-95483870D03*
X283750000Y-95483870D03*
%TD*%
D10*
%TO.C,CL02*%
X43000000Y-26722580D03*
X43000000Y-27922580D03*
%TD*%
D11*
%TO.C,ULREG*%
X61666666Y-149500000D03*
X60833333Y-149500000D03*
X60000000Y-149500000D03*
X59166666Y-149500000D03*
X58333333Y-149500000D03*
D19*
X60000000Y-147000000D03*
D13*
X57500000Y-148666666D03*
X57500000Y-147833333D03*
X57500000Y-147000000D03*
X57500000Y-146166666D03*
X57500000Y-145333333D03*
X62500000Y-145333333D03*
X62500000Y-146166666D03*
X62500000Y-147000000D03*
X62500000Y-147833333D03*
X62500000Y-148666666D03*
D11*
X58333333Y-144500000D03*
X59166666Y-144500000D03*
X60000000Y-144500000D03*
X60833333Y-144500000D03*
X61666666Y-144500000D03*
%TD*%
D14*
%TO.C,CMR05*%
X195400000Y-71500000D03*
X196400000Y-71500000D03*
%TD*%
D10*
%TO.C,DR14*%
X290000000Y-78593548D03*
X290000000Y-79793548D03*
%TD*%
D14*
%TO.C,RLFB10*%
X61425000Y-95300000D03*
X62575000Y-95300000D03*
%TD*%
D10*
%TO.C,RRB04*%
X188400000Y-118200000D03*
X188400000Y-119800000D03*
%TD*%
D16*
%TO.C,JLB10*%
X134199999Y-143000000D03*
%TD*%
D14*
%TO.C,UL21*%
X34900000Y-108451612D03*
X37100000Y-108451612D03*
%TD*%
%TO.C,RRFB01*%
X247425000Y-57500000D03*
X248575000Y-57500000D03*
%TD*%
D10*
%TO.C,RRB06*%
X198000000Y-118200000D03*
X198000000Y-119800000D03*
%TD*%
D14*
%TO.C,CRP11*%
X246225000Y-164500000D03*
X247775000Y-164500000D03*
%TD*%
D15*
%TO.C,JR28*%
X296000000Y-138709677D03*
%TD*%
D14*
%TO.C,UR24*%
X272900000Y-121419354D03*
X275100000Y-121419354D03*
%TD*%
%TO.C,CTFLN6*%
X163525000Y-130000000D03*
X164475000Y-130000000D03*
%TD*%
D10*
%TO.C,DR29*%
X290000000Y-143432258D03*
X290000000Y-144632258D03*
%TD*%
D14*
%TO.C,RRFB08*%
X247425000Y-86900000D03*
X248575000Y-86900000D03*
%TD*%
%TO.C,RLFB06*%
X61425000Y-78500000D03*
X62575000Y-78500000D03*
%TD*%
D10*
%TO.C,DL23*%
X20000000Y-117496774D03*
X20000000Y-118696774D03*
%TD*%
D14*
%TO.C,RL26*%
X26250000Y-130064516D03*
X27750000Y-130064516D03*
%TD*%
D10*
%TO.C,DL11*%
X20000000Y-65625806D03*
X20000000Y-66825806D03*
%TD*%
D14*
%TO.C,CRP06*%
X251225000Y-151500000D03*
X252775000Y-151500000D03*
%TD*%
%TO.C,DLB05*%
X109450000Y-136000000D03*
X110950000Y-136000000D03*
%TD*%
D10*
%TO.C,URB07*%
X202800000Y-125900000D03*
X202800000Y-128100000D03*
%TD*%
D14*
%TO.C,RL16*%
X26250000Y-86838709D03*
X27750000Y-86838709D03*
%TD*%
D10*
%TO.C,DL24*%
X20000000Y-121819354D03*
X20000000Y-123019354D03*
%TD*%
D14*
%TO.C,UR20*%
X272900000Y-104129032D03*
X275100000Y-104129032D03*
%TD*%
D10*
%TO.C,CR13*%
X267000000Y-74270967D03*
X267000000Y-75470967D03*
%TD*%
D14*
%TO.C,RL03*%
X26250000Y-30645161D03*
X27750000Y-30645161D03*
%TD*%
D15*
%TO.C,JL06*%
X14000000Y-43612903D03*
%TD*%
D11*
%TO.C,U53*%
X163950000Y-54900000D03*
X163000000Y-54900000D03*
X162050000Y-54900000D03*
D20*
X163000000Y-53000000D03*
D13*
X161100000Y-53950000D03*
X161100000Y-53000000D03*
X161100000Y-52050000D03*
X164900000Y-52050000D03*
X164900000Y-53000000D03*
X164900000Y-53950000D03*
D11*
X162050000Y-51100000D03*
X163000000Y-51100000D03*
X163950000Y-51100000D03*
%TD*%
D14*
%TO.C,RLCFG3*%
X106025000Y-109500000D03*
X106975000Y-109500000D03*
%TD*%
D11*
%TO.C,U37*%
X127320000Y-105200000D03*
X126440000Y-105200000D03*
X125560000Y-105200000D03*
X124680000Y-105200000D03*
D12*
X126000000Y-103000000D03*
D13*
X123800000Y-104320000D03*
X123800000Y-103440000D03*
X123800000Y-102560000D03*
X123800000Y-101680000D03*
X128199999Y-101680000D03*
X128199999Y-102560000D03*
X128199999Y-103440000D03*
X128199999Y-104320000D03*
D11*
X124680000Y-100800000D03*
X125560000Y-100800000D03*
X126440000Y-100800000D03*
X127320000Y-100800000D03*
%TD*%
D10*
%TO.C,DL14*%
X20000000Y-78593548D03*
X20000000Y-79793548D03*
%TD*%
D14*
%TO.C,RL12*%
X26250000Y-69548387D03*
X27750000Y-69548387D03*
%TD*%
D15*
%TO.C,JR32*%
X296000000Y-154800000D03*
%TD*%
D10*
%TO.C,DR07*%
X290000000Y-48335483D03*
X290000000Y-49535483D03*
%TD*%
D14*
%TO.C,CML18*%
X128500000Y-95000000D03*
X129500000Y-95000000D03*
%TD*%
%TO.C,RRFB11*%
X247425000Y-99500000D03*
X248575000Y-99500000D03*
%TD*%
%TO.C,RRFB10*%
X247425000Y-95300000D03*
X248575000Y-95300000D03*
%TD*%
%TO.C,DLB08*%
X123850000Y-136000000D03*
X125350000Y-136000000D03*
%TD*%
D21*
%TO.C,J_USB_2*%
X217500000Y-198800000D03*
X218500000Y-198800000D03*
X219500000Y-198800000D03*
X220500000Y-198800000D03*
X221500000Y-198800000D03*
X222500000Y-198800000D03*
X223500000Y-198800000D03*
X224500000Y-198800000D03*
X225500000Y-198800000D03*
X226500000Y-198800000D03*
X217500000Y-203200000D03*
X218500000Y-203200000D03*
X219500000Y-203200000D03*
X220500000Y-203200000D03*
X221500000Y-203200000D03*
X222500000Y-203200000D03*
X223500000Y-203200000D03*
X224500000Y-203200000D03*
X225500000Y-203200000D03*
X226500000Y-203200000D03*
%TD*%
D14*
%TO.C,CLP03*%
X66224999Y-151500000D03*
X67775000Y-151500000D03*
%TD*%
%TO.C,RL04*%
X26250000Y-34967741D03*
X27750000Y-34967741D03*
%TD*%
%TO.C,UR02*%
X272900000Y-26322580D03*
X275100000Y-26322580D03*
%TD*%
D10*
%TO.C,DL16*%
X20000000Y-87238709D03*
X20000000Y-88438709D03*
%TD*%
D14*
%TO.C,RL15*%
X26250000Y-82516129D03*
X27750000Y-82516129D03*
%TD*%
%TO.C,RL14*%
X26250000Y-78193548D03*
X27750000Y-78193548D03*
%TD*%
%TO.C,RLFB12*%
X61425000Y-103700000D03*
X62575000Y-103700000D03*
%TD*%
D10*
%TO.C,URB02*%
X178800000Y-125900000D03*
X178800000Y-128100000D03*
%TD*%
D14*
%TO.C,DRB08*%
X206850000Y-136000000D03*
X208350000Y-136000000D03*
%TD*%
D10*
%TO.C,ULB07*%
X119800000Y-125900000D03*
X119800000Y-128100000D03*
%TD*%
%TO.C,DL27*%
X20000000Y-134787096D03*
X20000000Y-135987096D03*
%TD*%
D15*
%TO.C,JL27*%
X14000000Y-134387096D03*
%TD*%
D10*
%TO.C,DL12*%
X20000000Y-69948387D03*
X20000000Y-71148387D03*
%TD*%
%TO.C,DR28*%
X290000000Y-139109677D03*
X290000000Y-140309677D03*
%TD*%
D16*
%TO.C,JRB03*%
X183600000Y-143000000D03*
%TD*%
D10*
%TO.C,CL14*%
X43000000Y-78593548D03*
X43000000Y-79793548D03*
%TD*%
%TO.C,RLB06*%
X115000000Y-118200000D03*
X115000000Y-119800000D03*
%TD*%
D14*
%TO.C,UL20*%
X34900000Y-104129032D03*
X37100000Y-104129032D03*
%TD*%
%TO.C,RLFB16*%
X61425000Y-120500000D03*
X62575000Y-120500000D03*
%TD*%
%TO.C,RL05*%
X26250000Y-39290322D03*
X27750000Y-39290322D03*
%TD*%
%TO.C,CMR16*%
X216500000Y-83000000D03*
X217500000Y-83000000D03*
%TD*%
D10*
%TO.C,CL25*%
X43000000Y-126141935D03*
X43000000Y-127341935D03*
%TD*%
D14*
%TO.C,UL30*%
X34900000Y-147354838D03*
X37100000Y-147354838D03*
%TD*%
%TO.C,CMR10*%
X204300000Y-106500000D03*
X205300000Y-106500000D03*
%TD*%
D15*
%TO.C,JR19*%
X296000000Y-99806451D03*
%TD*%
D14*
%TO.C,DLB03*%
X99850000Y-136000000D03*
X101350000Y-136000000D03*
%TD*%
%TO.C,RL24*%
X26250000Y-121419354D03*
X27750000Y-121419354D03*
%TD*%
%TO.C,RRFB04*%
X247425000Y-70100000D03*
X248575000Y-70100000D03*
%TD*%
D10*
%TO.C,CR11*%
X267000000Y-65625806D03*
X267000000Y-66825806D03*
%TD*%
%TO.C,DL01*%
X20000000Y-22400000D03*
X20000000Y-23600000D03*
%TD*%
D14*
%TO.C,UR15*%
X272900000Y-82516129D03*
X275100000Y-82516129D03*
%TD*%
%TO.C,UR13*%
X272900000Y-73870967D03*
X275100000Y-73870967D03*
%TD*%
D15*
%TO.C,JR09*%
X296000000Y-56580645D03*
%TD*%
D14*
%TO.C,RRFB03*%
X247425000Y-65900000D03*
X248575000Y-65900000D03*
%TD*%
%TO.C,RRCFG3*%
X194025000Y-109500000D03*
X194975000Y-109500000D03*
%TD*%
%TO.C,UR14*%
X272900000Y-78193548D03*
X275100000Y-78193548D03*
%TD*%
%TO.C,CLP10*%
X71225000Y-164500000D03*
X72775000Y-164500000D03*
%TD*%
%TO.C,CML15*%
X92500000Y-83000000D03*
X93500000Y-83000000D03*
%TD*%
D17*
%TO.C,J_DDR6_8*%
X236000000Y-232000000D03*
X237800000Y-232000000D03*
X239600000Y-232000000D03*
X241400000Y-232000000D03*
X243200000Y-232000000D03*
X245000000Y-232000000D03*
X246800000Y-232000000D03*
X248600000Y-232000000D03*
X250400000Y-232000000D03*
X252200000Y-232000000D03*
X254000000Y-232000000D03*
X255800000Y-232000000D03*
X257600000Y-232000000D03*
X259399999Y-232000000D03*
X261200000Y-232000000D03*
X263000000Y-232000000D03*
X264800000Y-232000000D03*
X266600000Y-232000000D03*
X268399999Y-232000000D03*
X270200000Y-232000000D03*
X272000000Y-232000000D03*
X273800000Y-232000000D03*
X275600000Y-232000000D03*
X277400000Y-232000000D03*
X279200000Y-232000000D03*
X281000000Y-232000000D03*
X282800000Y-232000000D03*
X284600000Y-232000000D03*
X236000000Y-236000000D03*
X237800000Y-236000000D03*
X239600000Y-236000000D03*
X241400000Y-236000000D03*
X243200000Y-236000000D03*
X245000000Y-236000000D03*
X246800000Y-236000000D03*
X248600000Y-236000000D03*
X250400000Y-236000000D03*
X252200000Y-236000000D03*
X254000000Y-236000000D03*
X255800000Y-236000000D03*
X257600000Y-236000000D03*
X259399999Y-236000000D03*
X261200000Y-236000000D03*
X263000000Y-236000000D03*
X264800000Y-236000000D03*
X266600000Y-236000000D03*
X268399999Y-236000000D03*
X270200000Y-236000000D03*
X272000000Y-236000000D03*
X273800000Y-236000000D03*
X275600000Y-236000000D03*
X277400000Y-236000000D03*
X279200000Y-236000000D03*
X281000000Y-236000000D03*
X282800000Y-236000000D03*
X284600000Y-236000000D03*
D18*
X260000000Y-234000000D03*
%TD*%
D10*
%TO.C,CL13*%
X43000000Y-74270967D03*
X43000000Y-75470967D03*
%TD*%
D14*
%TO.C,RL31*%
X26250000Y-151677419D03*
X27750000Y-151677419D03*
%TD*%
D10*
%TO.C,ULB06*%
X115000000Y-125900000D03*
X115000000Y-128100000D03*
%TD*%
D14*
%TO.C,CMR02*%
X190000000Y-106500000D03*
X191000000Y-106500000D03*
%TD*%
D10*
%TO.C,DR09*%
X290000000Y-56980645D03*
X290000000Y-58180645D03*
%TD*%
D14*
%TO.C,CLP08*%
X61225000Y-164500000D03*
X62775000Y-164500000D03*
%TD*%
%TO.C,DRB02*%
X178050000Y-136000000D03*
X179550000Y-136000000D03*
%TD*%
D10*
%TO.C,DR11*%
X290000000Y-65625806D03*
X290000000Y-66825806D03*
%TD*%
D14*
%TO.C,DRB06*%
X197250000Y-136000000D03*
X198750000Y-136000000D03*
%TD*%
%TO.C,UL19*%
X34900000Y-99806451D03*
X37100000Y-99806451D03*
%TD*%
%TO.C,CML09*%
X116300000Y-71500000D03*
X117300000Y-71500000D03*
%TD*%
%TO.C,RL01*%
X26250000Y-22000000D03*
X27750000Y-22000000D03*
%TD*%
D16*
%TO.C,JRB05*%
X193200000Y-143000000D03*
%TD*%
D11*
%TO.C,U31*%
X107320000Y-77200000D03*
X106440000Y-77200000D03*
X105560000Y-77200000D03*
X104680000Y-77200000D03*
D12*
X106000000Y-75000000D03*
D13*
X103800000Y-76320000D03*
X103800000Y-75440000D03*
X103800000Y-74560000D03*
X103800000Y-73680000D03*
X108200000Y-73680000D03*
X108200000Y-74560000D03*
X108200000Y-75440000D03*
X108200000Y-76320000D03*
D11*
X104680000Y-72800000D03*
X105560000Y-72800000D03*
X106440000Y-72800000D03*
X107320000Y-72800000D03*
%TD*%
D15*
%TO.C,JR30*%
X296000000Y-147354838D03*
%TD*%
D14*
%TO.C,LL1*%
X66000000Y-158000000D03*
X69000000Y-158000000D03*
%TD*%
D16*
%TO.C,JLB09*%
X129400000Y-143000000D03*
%TD*%
D14*
%TO.C,UR16*%
X272900000Y-86838709D03*
X275100000Y-86838709D03*
%TD*%
D15*
%TO.C,JL01*%
X14000000Y-22000000D03*
%TD*%
D14*
%TO.C,CLP12*%
X81225000Y-164500000D03*
X82775000Y-164500000D03*
%TD*%
%TO.C,RL28*%
X26250000Y-138709677D03*
X27750000Y-138709677D03*
%TD*%
%TO.C,CML11*%
X119000000Y-71500000D03*
X120000000Y-71500000D03*
%TD*%
%TO.C,DRB05*%
X192450000Y-136000000D03*
X193950000Y-136000000D03*
%TD*%
D15*
%TO.C,JL18*%
X14000000Y-95483870D03*
%TD*%
%TO.C,JR24*%
X296000000Y-121419354D03*
%TD*%
%TO.C,JL28*%
X14000000Y-138709677D03*
%TD*%
D14*
%TO.C,RLCFG1*%
X100025000Y-109500000D03*
X100975000Y-109500000D03*
%TD*%
D15*
%TO.C,JL07*%
X14000000Y-47935483D03*
%TD*%
D14*
%TO.C,UL32*%
X34900000Y-156000000D03*
X37100000Y-156000000D03*
%TD*%
%TO.C,UL18*%
X34900000Y-95483870D03*
X37100000Y-95483870D03*
%TD*%
D10*
%TO.C,DR22*%
X290000000Y-113174193D03*
X290000000Y-114374193D03*
%TD*%
%TO.C,DR32*%
X290000000Y-155600000D03*
X290000000Y-154400000D03*
%TD*%
%TO.C,CL24*%
X43000000Y-121819354D03*
X43000000Y-123019354D03*
%TD*%
%TO.C,DL08*%
X20000000Y-52658064D03*
X20000000Y-53858064D03*
%TD*%
D22*
%TO.C,J_FIBER_1*%
X15000000Y-198700000D03*
X16100000Y-198700000D03*
X17200000Y-198700000D03*
X18300000Y-198700000D03*
X19400000Y-198700000D03*
X20500000Y-198700000D03*
X21600000Y-198700000D03*
X22700000Y-198700000D03*
X23800000Y-198700000D03*
X24900000Y-198700000D03*
X15000000Y-203300000D03*
X16100000Y-203300000D03*
X17200000Y-203300000D03*
X18300000Y-203300000D03*
X19400000Y-203300000D03*
X20500000Y-203300000D03*
X21600000Y-203300000D03*
X22700000Y-203300000D03*
X23800000Y-203300000D03*
X24900000Y-203300000D03*
%TD*%
D14*
%TO.C,RL32*%
X26250000Y-156000000D03*
X27750000Y-156000000D03*
%TD*%
%TO.C,RLCFG6*%
X121025000Y-109500000D03*
X121975000Y-109500000D03*
%TD*%
D10*
%TO.C,CR30*%
X267000000Y-147754838D03*
X267000000Y-148954838D03*
%TD*%
D14*
%TO.C,RLCFG5*%
X118025000Y-109500000D03*
X118975000Y-109500000D03*
%TD*%
D15*
%TO.C,JR14*%
X296000000Y-78193548D03*
%TD*%
D11*
%TO.C,U44*%
X205320000Y-105200000D03*
X204440000Y-105200000D03*
X203560000Y-105200000D03*
X202680000Y-105200000D03*
D12*
X204000000Y-103000000D03*
D13*
X201800000Y-104320000D03*
X201800000Y-103440000D03*
X201800000Y-102560000D03*
X201800000Y-101680000D03*
X206200000Y-101680000D03*
X206200000Y-102560000D03*
X206200000Y-103440000D03*
X206200000Y-104320000D03*
D11*
X202680000Y-100800000D03*
X203560000Y-100800000D03*
X204440000Y-100800000D03*
X205320000Y-100800000D03*
%TD*%
D14*
%TO.C,CLP05*%
X76225000Y-151500000D03*
X77775000Y-151500000D03*
%TD*%
%TO.C,LR2*%
X242500000Y-158000000D03*
X245500000Y-158000000D03*
%TD*%
%TO.C,RR11*%
X282250000Y-65225806D03*
X283750000Y-65225806D03*
%TD*%
%TO.C,UL25*%
X34900000Y-125741935D03*
X37100000Y-125741935D03*
%TD*%
D10*
%TO.C,DL10*%
X20000000Y-61303225D03*
X20000000Y-62503225D03*
%TD*%
D14*
%TO.C,DLB07*%
X119050000Y-136000000D03*
X120550000Y-136000000D03*
%TD*%
D10*
%TO.C,CL04*%
X43000000Y-35367741D03*
X43000000Y-36567741D03*
%TD*%
D15*
%TO.C,JR29*%
X296000000Y-143032258D03*
%TD*%
%TO.C,JL26*%
X14000000Y-130064516D03*
%TD*%
D14*
%TO.C,DLB10*%
X133449999Y-136000000D03*
X134950000Y-136000000D03*
%TD*%
%TO.C,RRCFG2*%
X191025000Y-109500000D03*
X191975000Y-109500000D03*
%TD*%
D15*
%TO.C,JL21*%
X14000000Y-108451612D03*
%TD*%
D10*
%TO.C,CR07*%
X267000000Y-48335483D03*
X267000000Y-49535483D03*
%TD*%
%TO.C,CR24*%
X267000000Y-121819354D03*
X267000000Y-123019354D03*
%TD*%
%TO.C,DL18*%
X20000000Y-95883870D03*
X20000000Y-97083870D03*
%TD*%
D11*
%TO.C,U30*%
X97320000Y-77200000D03*
X96440000Y-77200000D03*
X95560000Y-77200000D03*
X94680000Y-77200000D03*
D12*
X96000000Y-75000000D03*
D13*
X93800000Y-76320000D03*
X93800000Y-75440000D03*
X93800000Y-74560000D03*
X93800000Y-73680000D03*
X98200000Y-73680000D03*
X98200000Y-74560000D03*
X98200000Y-75440000D03*
X98200000Y-76320000D03*
D11*
X94680000Y-72800000D03*
X95560000Y-72800000D03*
X96440000Y-72800000D03*
X97320000Y-72800000D03*
%TD*%
D23*
%TO.C,UCOND_R*%
X256399999Y-54900000D03*
X256399999Y-57100000D03*
X256399999Y-59300000D03*
X256399999Y-61500000D03*
X256399999Y-63700000D03*
X256399999Y-65900000D03*
X256399999Y-68100000D03*
X256399999Y-70300000D03*
X256399999Y-72500000D03*
X256399999Y-74700000D03*
X256399999Y-76900000D03*
X256399999Y-79100000D03*
X256399999Y-81300000D03*
X256399999Y-83500000D03*
X256399999Y-85700000D03*
X256399999Y-87900000D03*
X256399999Y-90100000D03*
X256399999Y-92300000D03*
X256399999Y-94500000D03*
X256399999Y-96700000D03*
X256399999Y-98900000D03*
X256399999Y-101100000D03*
X256399999Y-103300000D03*
X256399999Y-105500000D03*
X256399999Y-107700000D03*
X256399999Y-109900000D03*
X256399999Y-112100000D03*
X256399999Y-114300000D03*
X256399999Y-116500000D03*
X256399999Y-118700000D03*
X256399999Y-120900000D03*
X256399999Y-123100000D03*
X239600000Y-54900000D03*
X239600000Y-57100000D03*
X239600000Y-59300000D03*
X239600000Y-61500000D03*
X239600000Y-63700000D03*
X239600000Y-65900000D03*
X239600000Y-68100000D03*
X239600000Y-70300000D03*
X239600000Y-72500000D03*
X239600000Y-74700000D03*
X239600000Y-76900000D03*
X239600000Y-79100000D03*
X239600000Y-81300000D03*
X239600000Y-83500000D03*
X239600000Y-85700000D03*
X239600000Y-87900000D03*
X239600000Y-90100000D03*
X239600000Y-92300000D03*
X239600000Y-94500000D03*
X239600000Y-96700000D03*
X239600000Y-98900000D03*
X239600000Y-101100000D03*
X239600000Y-103300000D03*
X239600000Y-105500000D03*
X239600000Y-107700000D03*
X239600000Y-109900000D03*
X239600000Y-112100000D03*
X239600000Y-114300000D03*
X239600000Y-116500000D03*
X239600000Y-118700000D03*
X239600000Y-120900000D03*
X239600000Y-123100000D03*
%TD*%
D14*
%TO.C,UL15*%
X34900000Y-82516129D03*
X37100000Y-82516129D03*
%TD*%
D10*
%TO.C,DL03*%
X20000000Y-31045161D03*
X20000000Y-32245161D03*
%TD*%
D14*
%TO.C,UR11*%
X272900000Y-65225806D03*
X275100000Y-65225806D03*
%TD*%
D17*
%TO.C,J_DDR6_1*%
X46000000Y-216000000D03*
X47800000Y-216000000D03*
X49600000Y-216000000D03*
X51400000Y-216000000D03*
X53200000Y-216000000D03*
X55000000Y-216000000D03*
X56800000Y-216000000D03*
X58600000Y-216000000D03*
X60400000Y-216000000D03*
X62200000Y-216000000D03*
X64000000Y-216000000D03*
X65800000Y-216000000D03*
X67600000Y-216000000D03*
X69400000Y-216000000D03*
X71200000Y-216000000D03*
X73000000Y-216000000D03*
X74800000Y-216000000D03*
X76600000Y-216000000D03*
X78400000Y-216000000D03*
X80200000Y-216000000D03*
X82000000Y-216000000D03*
X83800000Y-216000000D03*
X85600000Y-216000000D03*
X87400000Y-216000000D03*
X89200000Y-216000000D03*
X91000000Y-216000000D03*
X92800000Y-216000000D03*
X94600000Y-216000000D03*
X46000000Y-220000000D03*
X47800000Y-220000000D03*
X49600000Y-220000000D03*
X51400000Y-220000000D03*
X53200000Y-220000000D03*
X55000000Y-220000000D03*
X56800000Y-220000000D03*
X58600000Y-220000000D03*
X60400000Y-220000000D03*
X62200000Y-220000000D03*
X64000000Y-220000000D03*
X65800000Y-220000000D03*
X67600000Y-220000000D03*
X69400000Y-220000000D03*
X71200000Y-220000000D03*
X73000000Y-220000000D03*
X74800000Y-220000000D03*
X76600000Y-220000000D03*
X78400000Y-220000000D03*
X80200000Y-220000000D03*
X82000000Y-220000000D03*
X83800000Y-220000000D03*
X85600000Y-220000000D03*
X87400000Y-220000000D03*
X89200000Y-220000000D03*
X91000000Y-220000000D03*
X92800000Y-220000000D03*
X94600000Y-220000000D03*
D18*
X70000000Y-218000000D03*
%TD*%
D15*
%TO.C,JL23*%
X14000000Y-117096774D03*
%TD*%
D14*
%TO.C,RLCFG2*%
X103025000Y-109500000D03*
X103975000Y-109500000D03*
%TD*%
D10*
%TO.C,CR09*%
X267000000Y-56980645D03*
X267000000Y-58180645D03*
%TD*%
%TO.C,RRB10*%
X217200000Y-118200000D03*
X217200000Y-119800000D03*
%TD*%
D14*
%TO.C,CML07*%
X113600000Y-71500000D03*
X114600000Y-71500000D03*
%TD*%
D10*
%TO.C,CR31*%
X267000000Y-152077419D03*
X267000000Y-153277419D03*
%TD*%
D17*
%TO.C,J_DDR6_4*%
X166000000Y-216000000D03*
X167800000Y-216000000D03*
X169600000Y-216000000D03*
X171400000Y-216000000D03*
X173200000Y-216000000D03*
X175000000Y-216000000D03*
X176800000Y-216000000D03*
X178600000Y-216000000D03*
X180400000Y-216000000D03*
X182200000Y-216000000D03*
X184000000Y-216000000D03*
X185800000Y-216000000D03*
X187600000Y-216000000D03*
X189400000Y-216000000D03*
X191200000Y-216000000D03*
X193000000Y-216000000D03*
X194800000Y-216000000D03*
X196600000Y-216000000D03*
X198400000Y-216000000D03*
X200200000Y-216000000D03*
X202000000Y-216000000D03*
X203800000Y-216000000D03*
X205600000Y-216000000D03*
X207400000Y-216000000D03*
X209200000Y-216000000D03*
X211000000Y-216000000D03*
X212800000Y-216000000D03*
X214600000Y-216000000D03*
X166000000Y-220000000D03*
X167800000Y-220000000D03*
X169600000Y-220000000D03*
X171400000Y-220000000D03*
X173200000Y-220000000D03*
X175000000Y-220000000D03*
X176800000Y-220000000D03*
X178600000Y-220000000D03*
X180400000Y-220000000D03*
X182200000Y-220000000D03*
X184000000Y-220000000D03*
X185800000Y-220000000D03*
X187600000Y-220000000D03*
X189400000Y-220000000D03*
X191200000Y-220000000D03*
X193000000Y-220000000D03*
X194800000Y-220000000D03*
X196600000Y-220000000D03*
X198400000Y-220000000D03*
X200200000Y-220000000D03*
X202000000Y-220000000D03*
X203800000Y-220000000D03*
X205600000Y-220000000D03*
X207400000Y-220000000D03*
X209200000Y-220000000D03*
X211000000Y-220000000D03*
X212800000Y-220000000D03*
X214600000Y-220000000D03*
D18*
X190000000Y-218000000D03*
%TD*%
D14*
%TO.C,UL11*%
X34900000Y-65225806D03*
X37100000Y-65225806D03*
%TD*%
%TO.C,CTFLN2*%
X148525000Y-130000000D03*
X149475000Y-130000000D03*
%TD*%
D10*
%TO.C,DL31*%
X20000000Y-152077419D03*
X20000000Y-153277419D03*
%TD*%
%TO.C,CL32*%
X43000000Y-155600000D03*
X43000000Y-154400000D03*
%TD*%
D11*
%TO.C,U32*%
X117320000Y-77200000D03*
X116440000Y-77200000D03*
X115560000Y-77200000D03*
X114680000Y-77200000D03*
D12*
X116000000Y-75000000D03*
D13*
X113800000Y-76320000D03*
X113800000Y-75440000D03*
X113800000Y-74560000D03*
X113800000Y-73680000D03*
X118200000Y-73680000D03*
X118200000Y-74560000D03*
X118200000Y-75440000D03*
X118200000Y-76320000D03*
D11*
X114680000Y-72800000D03*
X115560000Y-72800000D03*
X116440000Y-72800000D03*
X117320000Y-72800000D03*
%TD*%
D10*
%TO.C,DL30*%
X20000000Y-147754838D03*
X20000000Y-148954838D03*
%TD*%
D14*
%TO.C,CML04*%
X104700000Y-106500000D03*
X105700000Y-106500000D03*
%TD*%
D24*
%TO.C,J_HDMI_1*%
X249500000Y-201000000D03*
X250400000Y-201000000D03*
X251300000Y-201000000D03*
X252200000Y-201000000D03*
X253100000Y-201000000D03*
X254000000Y-201000000D03*
X254900000Y-201000000D03*
X255800000Y-201000000D03*
X256700000Y-201000000D03*
X257600000Y-201000000D03*
X258500000Y-201000000D03*
X259399999Y-201000000D03*
X260300000Y-201000000D03*
X261200000Y-201000000D03*
X262100000Y-201000000D03*
X263000000Y-201000000D03*
X263899999Y-201000000D03*
X264800000Y-201000000D03*
X265700000Y-201000000D03*
%TD*%
D11*
%TO.C,U41*%
X215320000Y-77200000D03*
X214440000Y-77200000D03*
X213560000Y-77200000D03*
X212680000Y-77200000D03*
D12*
X214000000Y-75000000D03*
D13*
X211800000Y-76320000D03*
X211800000Y-75440000D03*
X211800000Y-74560000D03*
X211800000Y-73680000D03*
X216200000Y-73680000D03*
X216200000Y-74560000D03*
X216200000Y-75440000D03*
X216200000Y-76320000D03*
D11*
X212680000Y-72800000D03*
X213560000Y-72800000D03*
X214440000Y-72800000D03*
X215320000Y-72800000D03*
%TD*%
D14*
%TO.C,UL27*%
X34900000Y-134387096D03*
X37100000Y-134387096D03*
%TD*%
D22*
%TO.C,J_FIBER_3*%
X71000000Y-198700000D03*
X72100000Y-198700000D03*
X73200000Y-198700000D03*
X74300000Y-198700000D03*
X75400000Y-198700000D03*
X76500000Y-198700000D03*
X77600000Y-198700000D03*
X78700000Y-198700000D03*
X79800000Y-198700000D03*
X80900000Y-198700000D03*
X71000000Y-203300000D03*
X72100000Y-203300000D03*
X73200000Y-203300000D03*
X74300000Y-203300000D03*
X75400000Y-203300000D03*
X76500000Y-203300000D03*
X77600000Y-203300000D03*
X78700000Y-203300000D03*
X79800000Y-203300000D03*
X80900000Y-203300000D03*
%TD*%
D10*
%TO.C,CR15*%
X267000000Y-82916129D03*
X267000000Y-84116129D03*
%TD*%
D14*
%TO.C,CML08*%
X113600000Y-106500000D03*
X114600000Y-106500000D03*
%TD*%
%TO.C,UL08*%
X34900000Y-52258064D03*
X37100000Y-52258064D03*
%TD*%
%TO.C,RR19*%
X282250000Y-99806451D03*
X283750000Y-99806451D03*
%TD*%
D10*
%TO.C,CR18*%
X267000000Y-95883870D03*
X267000000Y-97083870D03*
%TD*%
D16*
%TO.C,JLB05*%
X110200000Y-143000000D03*
%TD*%
D14*
%TO.C,UR22*%
X272900000Y-112774193D03*
X275100000Y-112774193D03*
%TD*%
%TO.C,CMR01*%
X190000000Y-71500000D03*
X191000000Y-71500000D03*
%TD*%
D10*
%TO.C,DR05*%
X290000000Y-39690322D03*
X290000000Y-40890322D03*
%TD*%
D14*
%TO.C,CML17*%
X92500000Y-95000000D03*
X93500000Y-95000000D03*
%TD*%
D10*
%TO.C,CL01*%
X43000000Y-22400000D03*
X43000000Y-23600000D03*
%TD*%
D14*
%TO.C,RR32*%
X282250000Y-156000000D03*
X283750000Y-156000000D03*
%TD*%
D10*
%TO.C,DL07*%
X20000000Y-48335483D03*
X20000000Y-49535483D03*
%TD*%
D14*
%TO.C,DLB01*%
X90250000Y-136000000D03*
X91750000Y-136000000D03*
%TD*%
D10*
%TO.C,CL19*%
X43000000Y-100206451D03*
X43000000Y-101406451D03*
%TD*%
%TO.C,CL21*%
X43000000Y-108851612D03*
X43000000Y-110051612D03*
%TD*%
%TO.C,CL23*%
X43000000Y-117496774D03*
X43000000Y-118696774D03*
%TD*%
D14*
%TO.C,RL25*%
X26250000Y-125741935D03*
X27750000Y-125741935D03*
%TD*%
%TO.C,RRFB14*%
X247425000Y-112100000D03*
X248575000Y-112100000D03*
%TD*%
%TO.C,RRCFG5*%
X206025000Y-109500000D03*
X206975000Y-109500000D03*
%TD*%
%TO.C,RRFB09*%
X247425000Y-91100000D03*
X248575000Y-91100000D03*
%TD*%
%TO.C,CMR03*%
X192700000Y-71500000D03*
X193700000Y-71500000D03*
%TD*%
D10*
%TO.C,ULB10*%
X134199999Y-125900000D03*
X134199999Y-128100000D03*
%TD*%
D14*
%TO.C,RR10*%
X282250000Y-60903225D03*
X283750000Y-60903225D03*
%TD*%
D11*
%TO.C,U42*%
X185320000Y-105200000D03*
X184440000Y-105200000D03*
X183560000Y-105200000D03*
X182680000Y-105200000D03*
D12*
X184000000Y-103000000D03*
D13*
X181800000Y-104320000D03*
X181800000Y-103440000D03*
X181800000Y-102560000D03*
X181800000Y-101680000D03*
X186200000Y-101680000D03*
X186200000Y-102560000D03*
X186200000Y-103440000D03*
X186200000Y-104320000D03*
D11*
X182680000Y-100800000D03*
X183560000Y-100800000D03*
X184440000Y-100800000D03*
X185320000Y-100800000D03*
%TD*%
D10*
%TO.C,DR31*%
X290000000Y-152077419D03*
X290000000Y-153277419D03*
%TD*%
%TO.C,DR18*%
X290000000Y-95883870D03*
X290000000Y-97083870D03*
%TD*%
D14*
%TO.C,UR25*%
X272900000Y-125741935D03*
X275100000Y-125741935D03*
%TD*%
D15*
%TO.C,JR27*%
X296000000Y-134387096D03*
%TD*%
D10*
%TO.C,RLB02*%
X95800000Y-118200000D03*
X95800000Y-119800000D03*
%TD*%
D14*
%TO.C,RLFB09*%
X61425000Y-91100000D03*
X62575000Y-91100000D03*
%TD*%
%TO.C,UR10*%
X272900000Y-60903225D03*
X275100000Y-60903225D03*
%TD*%
D11*
%TO.C,U52*%
X158649999Y-54900000D03*
X157700000Y-54900000D03*
X156750000Y-54900000D03*
D20*
X157700000Y-53000000D03*
D13*
X155799999Y-53950000D03*
X155799999Y-53000000D03*
X155799999Y-52050000D03*
X159600000Y-52050000D03*
X159600000Y-53000000D03*
X159600000Y-53950000D03*
D11*
X156750000Y-51100000D03*
X157700000Y-51100000D03*
X158649999Y-51100000D03*
%TD*%
D14*
%TO.C,UR01*%
X272900000Y-22000000D03*
X275100000Y-22000000D03*
%TD*%
D10*
%TO.C,DR30*%
X290000000Y-147754838D03*
X290000000Y-148954838D03*
%TD*%
%TO.C,DR23*%
X290000000Y-117496774D03*
X290000000Y-118696774D03*
%TD*%
D11*
%TO.C,UTMON*%
X162260000Y-126100000D03*
X161420000Y-126100000D03*
X160580000Y-126100000D03*
X159740000Y-126100000D03*
D25*
X161000000Y-124000000D03*
D13*
X158900000Y-125260000D03*
X158900000Y-124420000D03*
X158900000Y-123580000D03*
X158900000Y-122740000D03*
X163100000Y-122740000D03*
X163100000Y-123580000D03*
X163100000Y-124420000D03*
X163100000Y-125260000D03*
D11*
X159740000Y-121900000D03*
X160580000Y-121900000D03*
X161420000Y-121900000D03*
X162260000Y-121900000D03*
%TD*%
D10*
%TO.C,RLB03*%
X100600000Y-118200000D03*
X100600000Y-119800000D03*
%TD*%
D14*
%TO.C,RLFB15*%
X61425000Y-116300000D03*
X62575000Y-116300000D03*
%TD*%
D10*
%TO.C,DR01*%
X290000000Y-22400000D03*
X290000000Y-23600000D03*
%TD*%
D14*
%TO.C,RR05*%
X282250000Y-39290322D03*
X283750000Y-39290322D03*
%TD*%
D10*
%TO.C,RLB01*%
X91000000Y-118200000D03*
X91000000Y-119800000D03*
%TD*%
D15*
%TO.C,JR17*%
X296000000Y-91161290D03*
%TD*%
D14*
%TO.C,RL29*%
X26250000Y-143032258D03*
X27750000Y-143032258D03*
%TD*%
D10*
%TO.C,ULB01*%
X91000000Y-125900000D03*
X91000000Y-128100000D03*
%TD*%
D14*
%TO.C,CRP12*%
X251225000Y-164500000D03*
X252775000Y-164500000D03*
%TD*%
D15*
%TO.C,JR25*%
X296000000Y-125741935D03*
%TD*%
D10*
%TO.C,DL04*%
X20000000Y-35367741D03*
X20000000Y-36567741D03*
%TD*%
%TO.C,CL15*%
X43000000Y-82916129D03*
X43000000Y-84116129D03*
%TD*%
D21*
%TO.C,J_USB_1*%
X191500000Y-198800000D03*
X192500000Y-198800000D03*
X193500000Y-198800000D03*
X194500000Y-198800000D03*
X195500000Y-198800000D03*
X196500000Y-198800000D03*
X197500000Y-198800000D03*
X198500000Y-198800000D03*
X199500000Y-198800000D03*
X200500000Y-198800000D03*
X191500000Y-203200000D03*
X192500000Y-203200000D03*
X193500000Y-203200000D03*
X194500000Y-203200000D03*
X195500000Y-203200000D03*
X196500000Y-203200000D03*
X197500000Y-203200000D03*
X198500000Y-203200000D03*
X199500000Y-203200000D03*
X200500000Y-203200000D03*
%TD*%
D14*
%TO.C,RR30*%
X282250000Y-147354838D03*
X283750000Y-147354838D03*
%TD*%
%TO.C,DLB06*%
X114250000Y-136000000D03*
X115750000Y-136000000D03*
%TD*%
%TO.C,UR18*%
X272900000Y-95483870D03*
X275100000Y-95483870D03*
%TD*%
%TO.C,CMR11*%
X207000000Y-71500000D03*
X208000000Y-71500000D03*
%TD*%
D10*
%TO.C,DR06*%
X290000000Y-44012903D03*
X290000000Y-45212903D03*
%TD*%
D14*
%TO.C,CMR17*%
X180500000Y-95000000D03*
X181500000Y-95000000D03*
%TD*%
D10*
%TO.C,RRB02*%
X178800000Y-118200000D03*
X178800000Y-119800000D03*
%TD*%
D14*
%TO.C,RL17*%
X26250000Y-91161290D03*
X27750000Y-91161290D03*
%TD*%
D16*
%TO.C,JRB10*%
X217200000Y-143000000D03*
%TD*%
D14*
%TO.C,UL17*%
X34900000Y-91161290D03*
X37100000Y-91161290D03*
%TD*%
D17*
%TO.C,J_DDR6_6*%
X166000000Y-248000000D03*
X167800000Y-248000000D03*
X169600000Y-248000000D03*
X171400000Y-248000000D03*
X173200000Y-248000000D03*
X175000000Y-248000000D03*
X176800000Y-248000000D03*
X178600000Y-248000000D03*
X180400000Y-248000000D03*
X182200000Y-248000000D03*
X184000000Y-248000000D03*
X185800000Y-248000000D03*
X187600000Y-248000000D03*
X189400000Y-248000000D03*
X191200000Y-248000000D03*
X193000000Y-248000000D03*
X194800000Y-248000000D03*
X196600000Y-248000000D03*
X198400000Y-248000000D03*
X200200000Y-248000000D03*
X202000000Y-248000000D03*
X203800000Y-248000000D03*
X205600000Y-248000000D03*
X207400000Y-248000000D03*
X209200000Y-248000000D03*
X211000000Y-248000000D03*
X212800000Y-248000000D03*
X214600000Y-248000000D03*
X166000000Y-252000000D03*
X167800000Y-252000000D03*
X169600000Y-252000000D03*
X171400000Y-252000000D03*
X173200000Y-252000000D03*
X175000000Y-252000000D03*
X176800000Y-252000000D03*
X178600000Y-252000000D03*
X180400000Y-252000000D03*
X182200000Y-252000000D03*
X184000000Y-252000000D03*
X185800000Y-252000000D03*
X187600000Y-252000000D03*
X189400000Y-252000000D03*
X191200000Y-252000000D03*
X193000000Y-252000000D03*
X194800000Y-252000000D03*
X196600000Y-252000000D03*
X198400000Y-252000000D03*
X200200000Y-252000000D03*
X202000000Y-252000000D03*
X203800000Y-252000000D03*
X205600000Y-252000000D03*
X207400000Y-252000000D03*
X209200000Y-252000000D03*
X211000000Y-252000000D03*
X212800000Y-252000000D03*
X214600000Y-252000000D03*
D18*
X190000000Y-250000000D03*
%TD*%
D14*
%TO.C,RL23*%
X26250000Y-117096774D03*
X27750000Y-117096774D03*
%TD*%
D10*
%TO.C,DL17*%
X20000000Y-91561290D03*
X20000000Y-92761290D03*
%TD*%
D14*
%TO.C,UR23*%
X272900000Y-117096774D03*
X275100000Y-117096774D03*
%TD*%
%TO.C,LR3*%
X249000000Y-158000000D03*
X252000000Y-158000000D03*
%TD*%
%TO.C,CRP05*%
X246225000Y-151500000D03*
X247775000Y-151500000D03*
%TD*%
D15*
%TO.C,JL09*%
X14000000Y-56580645D03*
%TD*%
D14*
%TO.C,RR28*%
X282250000Y-138709677D03*
X283750000Y-138709677D03*
%TD*%
%TO.C,UL05*%
X34900000Y-39290322D03*
X37100000Y-39290322D03*
%TD*%
%TO.C,RRFB12*%
X247425000Y-103700000D03*
X248575000Y-103700000D03*
%TD*%
D10*
%TO.C,CR03*%
X267000000Y-31045161D03*
X267000000Y-32245161D03*
%TD*%
%TO.C,DR16*%
X290000000Y-87238709D03*
X290000000Y-88438709D03*
%TD*%
%TO.C,CL27*%
X43000000Y-134787096D03*
X43000000Y-135987096D03*
%TD*%
D14*
%TO.C,RL13*%
X26250000Y-73870967D03*
X27750000Y-73870967D03*
%TD*%
%TO.C,UL02*%
X34900000Y-26322580D03*
X37100000Y-26322580D03*
%TD*%
D10*
%TO.C,CL03*%
X43000000Y-31045161D03*
X43000000Y-32245161D03*
%TD*%
D14*
%TO.C,RRCFG1*%
X188025000Y-109500000D03*
X188975000Y-109500000D03*
%TD*%
D11*
%TO.C,URREG*%
X231666666Y-149500000D03*
X230833333Y-149500000D03*
X230000000Y-149500000D03*
X229166666Y-149500000D03*
X228333333Y-149500000D03*
D19*
X230000000Y-147000000D03*
D13*
X227500000Y-148666666D03*
X227500000Y-147833333D03*
X227500000Y-147000000D03*
X227500000Y-146166666D03*
X227500000Y-145333333D03*
X232500000Y-145333333D03*
X232500000Y-146166666D03*
X232500000Y-147000000D03*
X232500000Y-147833333D03*
X232500000Y-148666666D03*
D11*
X228333333Y-144500000D03*
X229166666Y-144500000D03*
X230000000Y-144500000D03*
X230833333Y-144500000D03*
X231666666Y-144500000D03*
%TD*%
D14*
%TO.C,RR01*%
X282250000Y-22000000D03*
X283750000Y-22000000D03*
%TD*%
D10*
%TO.C,DR20*%
X290000000Y-104529032D03*
X290000000Y-105729032D03*
%TD*%
D14*
%TO.C,CTFLN4*%
X157525000Y-130000000D03*
X158475000Y-130000000D03*
%TD*%
D10*
%TO.C,CL26*%
X43000000Y-130464516D03*
X43000000Y-131664516D03*
%TD*%
D11*
%TO.C,U38*%
X185320000Y-77200000D03*
X184440000Y-77200000D03*
X183560000Y-77200000D03*
X182680000Y-77200000D03*
D12*
X184000000Y-75000000D03*
D13*
X181800000Y-76320000D03*
X181800000Y-75440000D03*
X181800000Y-74560000D03*
X181800000Y-73680000D03*
X186200000Y-73680000D03*
X186200000Y-74560000D03*
X186200000Y-75440000D03*
X186200000Y-76320000D03*
D11*
X182680000Y-72800000D03*
X183560000Y-72800000D03*
X184440000Y-72800000D03*
X185320000Y-72800000D03*
%TD*%
D14*
%TO.C,CML01*%
X102000000Y-71500000D03*
X103000000Y-71500000D03*
%TD*%
D10*
%TO.C,CL10*%
X43000000Y-61303225D03*
X43000000Y-62503225D03*
%TD*%
D14*
%TO.C,UL28*%
X34900000Y-138709677D03*
X37100000Y-138709677D03*
%TD*%
D11*
%TO.C,U33*%
X127320000Y-77200000D03*
X126440000Y-77200000D03*
X125560000Y-77200000D03*
X124680000Y-77200000D03*
D12*
X126000000Y-75000000D03*
D13*
X123800000Y-76320000D03*
X123800000Y-75440000D03*
X123800000Y-74560000D03*
X123800000Y-73680000D03*
X128199999Y-73680000D03*
X128199999Y-74560000D03*
X128199999Y-75440000D03*
X128199999Y-76320000D03*
D11*
X124680000Y-72800000D03*
X125560000Y-72800000D03*
X126440000Y-72800000D03*
X127320000Y-72800000D03*
%TD*%
D14*
%TO.C,CLP07*%
X56225000Y-164500000D03*
X57775000Y-164500000D03*
%TD*%
D10*
%TO.C,CL08*%
X43000000Y-52658064D03*
X43000000Y-53858064D03*
%TD*%
D14*
%TO.C,RR24*%
X282250000Y-121419354D03*
X283750000Y-121419354D03*
%TD*%
D10*
%TO.C,CR06*%
X267000000Y-44012903D03*
X267000000Y-45212903D03*
%TD*%
D15*
%TO.C,JL32*%
X14000000Y-154800000D03*
%TD*%
D10*
%TO.C,CL30*%
X43000000Y-147754838D03*
X43000000Y-148954838D03*
%TD*%
D14*
%TO.C,RR17*%
X282250000Y-91161290D03*
X283750000Y-91161290D03*
%TD*%
%TO.C,CMR19*%
X180500000Y-98000000D03*
X181500000Y-98000000D03*
%TD*%
D10*
%TO.C,CL28*%
X43000000Y-139109677D03*
X43000000Y-140309677D03*
%TD*%
%TO.C,DL29*%
X20000000Y-143432258D03*
X20000000Y-144632258D03*
%TD*%
D14*
%TO.C,RR29*%
X282250000Y-143032258D03*
X283750000Y-143032258D03*
%TD*%
D15*
%TO.C,JR15*%
X296000000Y-82516129D03*
%TD*%
D14*
%TO.C,CML20*%
X128500000Y-98000000D03*
X129500000Y-98000000D03*
%TD*%
D15*
%TO.C,JR06*%
X296000000Y-43612903D03*
%TD*%
D14*
%TO.C,UR06*%
X272900000Y-43612903D03*
X275100000Y-43612903D03*
%TD*%
D10*
%TO.C,ULB03*%
X100600000Y-125900000D03*
X100600000Y-128100000D03*
%TD*%
D14*
%TO.C,RL07*%
X26250000Y-47935483D03*
X27750000Y-47935483D03*
%TD*%
%TO.C,CLP09*%
X66224999Y-164500000D03*
X67775000Y-164500000D03*
%TD*%
%TO.C,CTFLN1*%
X145525000Y-130000000D03*
X146475000Y-130000000D03*
%TD*%
%TO.C,RLCFG4*%
X115025000Y-109500000D03*
X115975000Y-109500000D03*
%TD*%
%TO.C,LL3*%
X79000000Y-158000000D03*
X82000000Y-158000000D03*
%TD*%
D16*
%TO.C,JLB03*%
X100600000Y-143000000D03*
%TD*%
D14*
%TO.C,CRP09*%
X236225000Y-164500000D03*
X237775000Y-164500000D03*
%TD*%
%TO.C,CRP02*%
X231225000Y-151500000D03*
X232775000Y-151500000D03*
%TD*%
%TO.C,RR16*%
X282250000Y-86838709D03*
X283750000Y-86838709D03*
%TD*%
%TO.C,LL2*%
X72500000Y-158000000D03*
X75500000Y-158000000D03*
%TD*%
D11*
%TO.C,U50*%
X147950000Y-54900000D03*
X147000000Y-54900000D03*
X146050000Y-54900000D03*
D20*
X147000000Y-53000000D03*
D13*
X145100000Y-53950000D03*
X145100000Y-53000000D03*
X145100000Y-52050000D03*
X148900000Y-52050000D03*
X148900000Y-53000000D03*
X148900000Y-53950000D03*
D11*
X146050000Y-51100000D03*
X147000000Y-51100000D03*
X147950000Y-51100000D03*
%TD*%
D10*
%TO.C,CR19*%
X267000000Y-100206451D03*
X267000000Y-101406451D03*
%TD*%
%TO.C,DL26*%
X20000000Y-130464516D03*
X20000000Y-131664516D03*
%TD*%
D16*
%TO.C,JRB09*%
X212400000Y-143000000D03*
%TD*%
D14*
%TO.C,CWDM3*%
X157125000Y-59500000D03*
X158274999Y-59500000D03*
%TD*%
D10*
%TO.C,DL32*%
X20000000Y-155600000D03*
X20000000Y-154400000D03*
%TD*%
D14*
%TO.C,UL10*%
X34900000Y-60903225D03*
X37100000Y-60903225D03*
%TD*%
D15*
%TO.C,JR05*%
X296000000Y-39290322D03*
%TD*%
D10*
%TO.C,CR05*%
X267000000Y-39690322D03*
X267000000Y-40890322D03*
%TD*%
D14*
%TO.C,RR15*%
X282250000Y-82516129D03*
X283750000Y-82516129D03*
%TD*%
%TO.C,CMR06*%
X195400000Y-106500000D03*
X196400000Y-106500000D03*
%TD*%
%TO.C,RLFB08*%
X61425000Y-86900000D03*
X62575000Y-86900000D03*
%TD*%
%TO.C,RR12*%
X282250000Y-69548387D03*
X283750000Y-69548387D03*
%TD*%
%TO.C,RL11*%
X26250000Y-65225806D03*
X27750000Y-65225806D03*
%TD*%
%TO.C,LR1*%
X236000000Y-158000000D03*
X239000000Y-158000000D03*
%TD*%
D10*
%TO.C,RLB09*%
X129400000Y-118200000D03*
X129400000Y-119800000D03*
%TD*%
D14*
%TO.C,RLFB07*%
X61425000Y-82700000D03*
X62575000Y-82700000D03*
%TD*%
%TO.C,CRP04*%
X241225000Y-151500000D03*
X242775000Y-151500000D03*
%TD*%
D11*
%TO.C,U40*%
X205320000Y-77200000D03*
X204440000Y-77200000D03*
X203560000Y-77200000D03*
X202680000Y-77200000D03*
D12*
X204000000Y-75000000D03*
D13*
X201800000Y-76320000D03*
X201800000Y-75440000D03*
X201800000Y-74560000D03*
X201800000Y-73680000D03*
X206200000Y-73680000D03*
X206200000Y-74560000D03*
X206200000Y-75440000D03*
X206200000Y-76320000D03*
D11*
X202680000Y-72800000D03*
X203560000Y-72800000D03*
X204440000Y-72800000D03*
X205320000Y-72800000D03*
%TD*%
D14*
%TO.C,CRP08*%
X231225000Y-164500000D03*
X232775000Y-164500000D03*
%TD*%
D10*
%TO.C,DR17*%
X290000000Y-91561290D03*
X290000000Y-92761290D03*
%TD*%
D14*
%TO.C,RR22*%
X282250000Y-112774193D03*
X283750000Y-112774193D03*
%TD*%
%TO.C,UR12*%
X272900000Y-69548387D03*
X275100000Y-69548387D03*
%TD*%
D15*
%TO.C,JR01*%
X296000000Y-22000000D03*
%TD*%
D14*
%TO.C,DRB10*%
X216450000Y-136000000D03*
X217950000Y-136000000D03*
%TD*%
D10*
%TO.C,CL18*%
X43000000Y-95883870D03*
X43000000Y-97083870D03*
%TD*%
D16*
%TO.C,JLB06*%
X115000000Y-143000000D03*
%TD*%
D14*
%TO.C,UR19*%
X272900000Y-99806451D03*
X275100000Y-99806451D03*
%TD*%
D11*
%TO.C,U45*%
X215320000Y-105200000D03*
X214440000Y-105200000D03*
X213560000Y-105200000D03*
X212680000Y-105200000D03*
D12*
X214000000Y-103000000D03*
D13*
X211800000Y-104320000D03*
X211800000Y-103440000D03*
X211800000Y-102560000D03*
X211800000Y-101680000D03*
X216200000Y-101680000D03*
X216200000Y-102560000D03*
X216200000Y-103440000D03*
X216200000Y-104320000D03*
D11*
X212680000Y-100800000D03*
X213560000Y-100800000D03*
X214440000Y-100800000D03*
X215320000Y-100800000D03*
%TD*%
D22*
%TO.C,J_FIBER_4*%
X99000000Y-198700000D03*
X100100000Y-198700000D03*
X101200000Y-198700000D03*
X102300000Y-198700000D03*
X103400000Y-198700000D03*
X104500000Y-198700000D03*
X105600000Y-198700000D03*
X106700000Y-198700000D03*
X107800000Y-198700000D03*
X108900000Y-198700000D03*
X99000000Y-203300000D03*
X100100000Y-203300000D03*
X101200000Y-203300000D03*
X102300000Y-203300000D03*
X103400000Y-203300000D03*
X104500000Y-203300000D03*
X105600000Y-203300000D03*
X106700000Y-203300000D03*
X107800000Y-203300000D03*
X108900000Y-203300000D03*
%TD*%
D10*
%TO.C,DL13*%
X20000000Y-74270967D03*
X20000000Y-75470967D03*
%TD*%
D14*
%TO.C,CLP06*%
X81225000Y-151500000D03*
X82775000Y-151500000D03*
%TD*%
%TO.C,RL09*%
X26250000Y-56580645D03*
X27750000Y-56580645D03*
%TD*%
D15*
%TO.C,JR08*%
X296000000Y-52258064D03*
%TD*%
D14*
%TO.C,CML19*%
X92500000Y-98000000D03*
X93500000Y-98000000D03*
%TD*%
%TO.C,UR09*%
X272900000Y-56580645D03*
X275100000Y-56580645D03*
%TD*%
%TO.C,RRFB06*%
X247425000Y-78500000D03*
X248575000Y-78500000D03*
%TD*%
D10*
%TO.C,DR15*%
X290000000Y-82916129D03*
X290000000Y-84116129D03*
%TD*%
D14*
%TO.C,UR29*%
X272900000Y-143032258D03*
X275100000Y-143032258D03*
%TD*%
D15*
%TO.C,JR21*%
X296000000Y-108451612D03*
%TD*%
D14*
%TO.C,UR17*%
X272900000Y-91161290D03*
X275100000Y-91161290D03*
%TD*%
D10*
%TO.C,CR23*%
X267000000Y-117496774D03*
X267000000Y-118696774D03*
%TD*%
%TO.C,URB05*%
X193200000Y-125900000D03*
X193200000Y-128100000D03*
%TD*%
%TO.C,RLB08*%
X124600000Y-118200000D03*
X124600000Y-119800000D03*
%TD*%
D14*
%TO.C,CMR04*%
X192700000Y-106500000D03*
X193700000Y-106500000D03*
%TD*%
%TO.C,RLFB13*%
X61425000Y-107900000D03*
X62575000Y-107900000D03*
%TD*%
%TO.C,RL27*%
X26250000Y-134387096D03*
X27750000Y-134387096D03*
%TD*%
%TO.C,RRFB07*%
X247425000Y-82700000D03*
X248575000Y-82700000D03*
%TD*%
D10*
%TO.C,CR20*%
X267000000Y-104529032D03*
X267000000Y-105729032D03*
%TD*%
D14*
%TO.C,CTFLN3*%
X151525000Y-130000000D03*
X152475000Y-130000000D03*
%TD*%
%TO.C,RRFB16*%
X247425000Y-120500000D03*
X248575000Y-120500000D03*
%TD*%
D15*
%TO.C,JR03*%
X296000000Y-30645161D03*
%TD*%
D16*
%TO.C,JRB04*%
X188400000Y-143000000D03*
%TD*%
D14*
%TO.C,CML14*%
X128500000Y-80000000D03*
X129500000Y-80000000D03*
%TD*%
%TO.C,CLP04*%
X71225000Y-151500000D03*
X72775000Y-151500000D03*
%TD*%
%TO.C,UL22*%
X34900000Y-112774193D03*
X37100000Y-112774193D03*
%TD*%
D10*
%TO.C,CR17*%
X267000000Y-91561290D03*
X267000000Y-92761290D03*
%TD*%
D14*
%TO.C,RR02*%
X282250000Y-26322580D03*
X283750000Y-26322580D03*
%TD*%
%TO.C,UR08*%
X272900000Y-52258064D03*
X275100000Y-52258064D03*
%TD*%
%TO.C,CMR07*%
X201600000Y-71500000D03*
X202600000Y-71500000D03*
%TD*%
D15*
%TO.C,JR22*%
X296000000Y-112774193D03*
%TD*%
D14*
%TO.C,RR20*%
X282250000Y-104129032D03*
X283750000Y-104129032D03*
%TD*%
%TO.C,DLB09*%
X128650000Y-136000000D03*
X130150000Y-136000000D03*
%TD*%
D10*
%TO.C,ULB08*%
X124600000Y-125900000D03*
X124600000Y-128100000D03*
%TD*%
D14*
%TO.C,UL23*%
X34900000Y-117096774D03*
X37100000Y-117096774D03*
%TD*%
D11*
%TO.C,U43*%
X195320000Y-105200000D03*
X194440000Y-105200000D03*
X193560000Y-105200000D03*
X192680000Y-105200000D03*
D12*
X194000000Y-103000000D03*
D13*
X191800000Y-104320000D03*
X191800000Y-103440000D03*
X191800000Y-102560000D03*
X191800000Y-101680000D03*
X196200000Y-101680000D03*
X196200000Y-102560000D03*
X196200000Y-103440000D03*
X196200000Y-104320000D03*
D11*
X192680000Y-100800000D03*
X193560000Y-100800000D03*
X194440000Y-100800000D03*
X195320000Y-100800000D03*
%TD*%
D10*
%TO.C,CR25*%
X267000000Y-126141935D03*
X267000000Y-127341935D03*
%TD*%
D14*
%TO.C,CMR20*%
X216500000Y-98000000D03*
X217500000Y-98000000D03*
%TD*%
D10*
%TO.C,CR21*%
X267000000Y-108851612D03*
X267000000Y-110051612D03*
%TD*%
%TO.C,RRB07*%
X202800000Y-118200000D03*
X202800000Y-119800000D03*
%TD*%
%TO.C,CL07*%
X43000000Y-48335483D03*
X43000000Y-49535483D03*
%TD*%
%TO.C,CR28*%
X267000000Y-139109677D03*
X267000000Y-140309677D03*
%TD*%
D15*
%TO.C,JR12*%
X296000000Y-69548387D03*
%TD*%
D10*
%TO.C,DL20*%
X20000000Y-104529032D03*
X20000000Y-105729032D03*
%TD*%
D15*
%TO.C,JR31*%
X296000000Y-151677419D03*
%TD*%
%TO.C,JR23*%
X296000000Y-117096774D03*
%TD*%
D10*
%TO.C,RLB10*%
X134199999Y-118200000D03*
X134199999Y-119800000D03*
%TD*%
D11*
%TO.C,U39*%
X195320000Y-77200000D03*
X194440000Y-77200000D03*
X193560000Y-77200000D03*
X192680000Y-77200000D03*
D12*
X194000000Y-75000000D03*
D13*
X191800000Y-76320000D03*
X191800000Y-75440000D03*
X191800000Y-74560000D03*
X191800000Y-73680000D03*
X196200000Y-73680000D03*
X196200000Y-74560000D03*
X196200000Y-75440000D03*
X196200000Y-76320000D03*
D11*
X192680000Y-72800000D03*
X193560000Y-72800000D03*
X194440000Y-72800000D03*
X195320000Y-72800000D03*
%TD*%
D14*
%TO.C,UR28*%
X272900000Y-138709677D03*
X275100000Y-138709677D03*
%TD*%
%TO.C,CWDM2*%
X151725000Y-59500000D03*
X152875000Y-59500000D03*
%TD*%
D15*
%TO.C,JL11*%
X14000000Y-65225806D03*
%TD*%
%TO.C,JR16*%
X296000000Y-86838709D03*
%TD*%
D10*
%TO.C,RLB07*%
X119800000Y-118200000D03*
X119800000Y-119800000D03*
%TD*%
D14*
%TO.C,RR08*%
X282250000Y-52258064D03*
X283750000Y-52258064D03*
%TD*%
%TO.C,CMR18*%
X216500000Y-95000000D03*
X217500000Y-95000000D03*
%TD*%
D10*
%TO.C,RRB03*%
X183600000Y-118200000D03*
X183600000Y-119800000D03*
%TD*%
D14*
%TO.C,RR14*%
X282250000Y-78193548D03*
X283750000Y-78193548D03*
%TD*%
D10*
%TO.C,RRB01*%
X174000000Y-118200000D03*
X174000000Y-119800000D03*
%TD*%
D26*
%TO.C,U1*%
X106500000Y-84500000D03*
X107500000Y-84500000D03*
X108500000Y-84500000D03*
X109500000Y-84500000D03*
X110500000Y-84500000D03*
X111500000Y-84500000D03*
X112500000Y-84500000D03*
X113500000Y-84500000D03*
X114500000Y-84500000D03*
X115500000Y-84500000D03*
X106500000Y-85500000D03*
X107500000Y-85500000D03*
X108500000Y-85500000D03*
X109500000Y-85500000D03*
X110500000Y-85500000D03*
X111500000Y-85500000D03*
X112500000Y-85500000D03*
X113500000Y-85500000D03*
X114500000Y-85500000D03*
X115500000Y-85500000D03*
X106500000Y-86500000D03*
X107500000Y-86500000D03*
X108500000Y-86500000D03*
X109500000Y-86500000D03*
X110500000Y-86500000D03*
X111500000Y-86500000D03*
X112500000Y-86500000D03*
X113500000Y-86500000D03*
X114500000Y-86500000D03*
X115500000Y-86500000D03*
X106500000Y-87500000D03*
X107500000Y-87500000D03*
X108500000Y-87500000D03*
X109500000Y-87500000D03*
X110500000Y-87500000D03*
X111500000Y-87500000D03*
X112500000Y-87500000D03*
X113500000Y-87500000D03*
X114500000Y-87500000D03*
X115500000Y-87500000D03*
X106500000Y-88500000D03*
X107500000Y-88500000D03*
X108500000Y-88500000D03*
X109500000Y-88500000D03*
X110500000Y-88500000D03*
X111500000Y-88500000D03*
X112500000Y-88500000D03*
X113500000Y-88500000D03*
X114500000Y-88500000D03*
X115500000Y-88500000D03*
X106500000Y-89500000D03*
X107500000Y-89500000D03*
X108500000Y-89500000D03*
X109500000Y-89500000D03*
X110500000Y-89500000D03*
X111500000Y-89500000D03*
X112500000Y-89500000D03*
X113500000Y-89500000D03*
X114500000Y-89500000D03*
X115500000Y-89500000D03*
X106500000Y-90500000D03*
X107500000Y-90500000D03*
X108500000Y-90500000D03*
X109500000Y-90500000D03*
X110500000Y-90500000D03*
X111500000Y-90500000D03*
X112500000Y-90500000D03*
X113500000Y-90500000D03*
X114500000Y-90500000D03*
X115500000Y-90500000D03*
X106500000Y-91500000D03*
X107500000Y-91500000D03*
X108500000Y-91500000D03*
X109500000Y-91500000D03*
X110500000Y-91500000D03*
X111500000Y-91500000D03*
X112500000Y-91500000D03*
X113500000Y-91500000D03*
X114500000Y-91500000D03*
X115500000Y-91500000D03*
X106500000Y-92500000D03*
X107500000Y-92500000D03*
X108500000Y-92500000D03*
X109500000Y-92500000D03*
X110500000Y-92500000D03*
X111500000Y-92500000D03*
X112500000Y-92500000D03*
X113500000Y-92500000D03*
X114500000Y-92500000D03*
X115500000Y-92500000D03*
X106500000Y-93500000D03*
X107500000Y-93500000D03*
X108500000Y-93500000D03*
X109500000Y-93500000D03*
X110500000Y-93500000D03*
X111500000Y-93500000D03*
X112500000Y-93500000D03*
X113500000Y-93500000D03*
X114500000Y-93500000D03*
X115500000Y-93500000D03*
D27*
X133199999Y-70500000D03*
X133199999Y-71693548D03*
X133199999Y-72887096D03*
X133199999Y-74080645D03*
X133199999Y-75274193D03*
X133199999Y-76467741D03*
X133199999Y-77661290D03*
X133199999Y-78854838D03*
X133199999Y-80048387D03*
X133199999Y-81241935D03*
X133199999Y-82435483D03*
X133199999Y-83629032D03*
X133199999Y-84822580D03*
X133199999Y-86016129D03*
X133199999Y-87209677D03*
X133199999Y-88403225D03*
X133199999Y-89596774D03*
X133199999Y-90790322D03*
X133199999Y-91983870D03*
X133199999Y-93177419D03*
X133199999Y-94370967D03*
X133199999Y-95564516D03*
X133199999Y-96758064D03*
X133199999Y-97951612D03*
X133199999Y-99145161D03*
X133199999Y-100338709D03*
X133199999Y-101532258D03*
X133199999Y-102725806D03*
X133199999Y-103919354D03*
X133199999Y-105112903D03*
X133199999Y-106306451D03*
X133199999Y-107500000D03*
D28*
X93000000Y-111200000D03*
X97000000Y-111200000D03*
X101000000Y-111200000D03*
X105000000Y-111200000D03*
X109000000Y-111200000D03*
X113000000Y-111200000D03*
X117000000Y-111200000D03*
X121000000Y-111200000D03*
X125000000Y-111200000D03*
X129000000Y-111200000D03*
D27*
X88800000Y-69800000D03*
X88800000Y-71038709D03*
X88800000Y-72277419D03*
X88800000Y-73516129D03*
X88800000Y-74754838D03*
X88800000Y-75993548D03*
X88800000Y-77232258D03*
X88800000Y-78470967D03*
X88800000Y-79709677D03*
X88800000Y-80948387D03*
X88800000Y-82187096D03*
X88800000Y-83425806D03*
X88800000Y-84664516D03*
X88800000Y-85903225D03*
X88800000Y-87141935D03*
X88800000Y-88380645D03*
X88800000Y-89619354D03*
X88800000Y-90858064D03*
X88800000Y-92096774D03*
X88800000Y-93335483D03*
X88800000Y-94574193D03*
X88800000Y-95812903D03*
X88800000Y-97051612D03*
X88800000Y-98290322D03*
X88800000Y-99529032D03*
X88800000Y-100767741D03*
X88800000Y-102006451D03*
X88800000Y-103245161D03*
X88800000Y-104483870D03*
X88800000Y-105722580D03*
X88800000Y-106961290D03*
X88800000Y-108199999D03*
%TD*%
D10*
%TO.C,CL06*%
X43000000Y-44012903D03*
X43000000Y-45212903D03*
%TD*%
D14*
%TO.C,CMR12*%
X207000000Y-106500000D03*
X208000000Y-106500000D03*
%TD*%
D10*
%TO.C,CL12*%
X43000000Y-69948387D03*
X43000000Y-71148387D03*
%TD*%
D14*
%TO.C,CWDM1*%
X146425000Y-59500000D03*
X147575000Y-59500000D03*
%TD*%
D22*
%TO.C,J_FIBER_2*%
X43000000Y-198700000D03*
X44100000Y-198700000D03*
X45200000Y-198700000D03*
X46300000Y-198700000D03*
X47400000Y-198700000D03*
X48500000Y-198700000D03*
X49600000Y-198700000D03*
X50700000Y-198700000D03*
X51800000Y-198700000D03*
X52900000Y-198700000D03*
X43000000Y-203300000D03*
X44100000Y-203300000D03*
X45200000Y-203300000D03*
X46300000Y-203300000D03*
X47400000Y-203300000D03*
X48500000Y-203300000D03*
X49600000Y-203300000D03*
X50700000Y-203300000D03*
X51800000Y-203300000D03*
X52900000Y-203300000D03*
%TD*%
D10*
%TO.C,DL21*%
X20000000Y-108851612D03*
X20000000Y-110051612D03*
%TD*%
D14*
%TO.C,CMR09*%
X204300000Y-71500000D03*
X205300000Y-71500000D03*
%TD*%
D15*
%TO.C,JL16*%
X14000000Y-86838709D03*
%TD*%
D14*
%TO.C,RLFB02*%
X61425000Y-61700000D03*
X62575000Y-61700000D03*
%TD*%
D17*
%TO.C,J_DDR6_2*%
X46000000Y-232000000D03*
X47800000Y-232000000D03*
X49600000Y-232000000D03*
X51400000Y-232000000D03*
X53200000Y-232000000D03*
X55000000Y-232000000D03*
X56800000Y-232000000D03*
X58600000Y-232000000D03*
X60400000Y-232000000D03*
X62200000Y-232000000D03*
X64000000Y-232000000D03*
X65800000Y-232000000D03*
X67600000Y-232000000D03*
X69400000Y-232000000D03*
X71200000Y-232000000D03*
X73000000Y-232000000D03*
X74800000Y-232000000D03*
X76600000Y-232000000D03*
X78400000Y-232000000D03*
X80200000Y-232000000D03*
X82000000Y-232000000D03*
X83800000Y-232000000D03*
X85600000Y-232000000D03*
X87400000Y-232000000D03*
X89200000Y-232000000D03*
X91000000Y-232000000D03*
X92800000Y-232000000D03*
X94600000Y-232000000D03*
X46000000Y-236000000D03*
X47800000Y-236000000D03*
X49600000Y-236000000D03*
X51400000Y-236000000D03*
X53200000Y-236000000D03*
X55000000Y-236000000D03*
X56800000Y-236000000D03*
X58600000Y-236000000D03*
X60400000Y-236000000D03*
X62200000Y-236000000D03*
X64000000Y-236000000D03*
X65800000Y-236000000D03*
X67600000Y-236000000D03*
X69400000Y-236000000D03*
X71200000Y-236000000D03*
X73000000Y-236000000D03*
X74800000Y-236000000D03*
X76600000Y-236000000D03*
X78400000Y-236000000D03*
X80200000Y-236000000D03*
X82000000Y-236000000D03*
X83800000Y-236000000D03*
X85600000Y-236000000D03*
X87400000Y-236000000D03*
X89200000Y-236000000D03*
X91000000Y-236000000D03*
X92800000Y-236000000D03*
X94600000Y-236000000D03*
D18*
X70000000Y-234000000D03*
%TD*%
D10*
%TO.C,CL17*%
X43000000Y-91561290D03*
X43000000Y-92761290D03*
%TD*%
D23*
%TO.C,UCOND_L*%
X53600000Y-54900000D03*
X53600000Y-57100000D03*
X53600000Y-59300000D03*
X53600000Y-61500000D03*
X53600000Y-63700000D03*
X53600000Y-65900000D03*
X53600000Y-68100000D03*
X53600000Y-70300000D03*
X53600000Y-72500000D03*
X53600000Y-74700000D03*
X53600000Y-76900000D03*
X53600000Y-79100000D03*
X53600000Y-81300000D03*
X53600000Y-83500000D03*
X53600000Y-85700000D03*
X53600000Y-87900000D03*
X53600000Y-90100000D03*
X53600000Y-92300000D03*
X53600000Y-94500000D03*
X53600000Y-96700000D03*
X53600000Y-98900000D03*
X53600000Y-101100000D03*
X53600000Y-103300000D03*
X53600000Y-105500000D03*
X53600000Y-107700000D03*
X53600000Y-109900000D03*
X53600000Y-112100000D03*
X53600000Y-114300000D03*
X53600000Y-116500000D03*
X53600000Y-118700000D03*
X53600000Y-120900000D03*
X53600000Y-123100000D03*
X70400000Y-54900000D03*
X70400000Y-57100000D03*
X70400000Y-59300000D03*
X70400000Y-61500000D03*
X70400000Y-63700000D03*
X70400000Y-65900000D03*
X70400000Y-68100000D03*
X70400000Y-70300000D03*
X70400000Y-72500000D03*
X70400000Y-74700000D03*
X70400000Y-76900000D03*
X70400000Y-79100000D03*
X70400000Y-81300000D03*
X70400000Y-83500000D03*
X70400000Y-85700000D03*
X70400000Y-87900000D03*
X70400000Y-90100000D03*
X70400000Y-92300000D03*
X70400000Y-94500000D03*
X70400000Y-96700000D03*
X70400000Y-98900000D03*
X70400000Y-101100000D03*
X70400000Y-103300000D03*
X70400000Y-105500000D03*
X70400000Y-107700000D03*
X70400000Y-109900000D03*
X70400000Y-112100000D03*
X70400000Y-114300000D03*
X70400000Y-116500000D03*
X70400000Y-118700000D03*
X70400000Y-120900000D03*
X70400000Y-123100000D03*
%TD*%
D14*
%TO.C,CMR14*%
X216500000Y-80000000D03*
X217500000Y-80000000D03*
%TD*%
%TO.C,RL06*%
X26250000Y-43612903D03*
X27750000Y-43612903D03*
%TD*%
D15*
%TO.C,JL25*%
X14000000Y-125741935D03*
%TD*%
D14*
%TO.C,RL22*%
X26250000Y-112774193D03*
X27750000Y-112774193D03*
%TD*%
D15*
%TO.C,JR04*%
X296000000Y-34967741D03*
%TD*%
D14*
%TO.C,DRB03*%
X182850000Y-136000000D03*
X184350000Y-136000000D03*
%TD*%
%TO.C,UR05*%
X272900000Y-39290322D03*
X275100000Y-39290322D03*
%TD*%
%TO.C,CML12*%
X119000000Y-106500000D03*
X120000000Y-106500000D03*
%TD*%
%TO.C,RLFB11*%
X61425000Y-99500000D03*
X62575000Y-99500000D03*
%TD*%
%TO.C,RLFB05*%
X61425000Y-74300000D03*
X62575000Y-74300000D03*
%TD*%
%TO.C,UL26*%
X34900000Y-130064516D03*
X37100000Y-130064516D03*
%TD*%
%TO.C,RRCFG6*%
X209025000Y-109500000D03*
X209975000Y-109500000D03*
%TD*%
%TO.C,DRB01*%
X173250000Y-136000000D03*
X174750000Y-136000000D03*
%TD*%
%TO.C,RLFB03*%
X61425000Y-65900000D03*
X62575000Y-65900000D03*
%TD*%
D15*
%TO.C,JL31*%
X14000000Y-151677419D03*
%TD*%
D14*
%TO.C,UR04*%
X272900000Y-34967741D03*
X275100000Y-34967741D03*
%TD*%
D10*
%TO.C,RLB04*%
X105400000Y-118200000D03*
X105400000Y-119800000D03*
%TD*%
%TO.C,URB06*%
X198000000Y-125900000D03*
X198000000Y-128100000D03*
%TD*%
%TO.C,CL20*%
X43000000Y-104529032D03*
X43000000Y-105729032D03*
%TD*%
%TO.C,URB08*%
X207600000Y-125900000D03*
X207600000Y-128100000D03*
%TD*%
D16*
%TO.C,JRB01*%
X174000000Y-143000000D03*
%TD*%
D15*
%TO.C,JR02*%
X296000000Y-26322580D03*
%TD*%
D10*
%TO.C,RRB05*%
X193200000Y-118200000D03*
X193200000Y-119800000D03*
%TD*%
D15*
%TO.C,JL15*%
X14000000Y-82516129D03*
%TD*%
D10*
%TO.C,CR27*%
X267000000Y-134787096D03*
X267000000Y-135987096D03*
%TD*%
D14*
%TO.C,UL03*%
X34900000Y-30645161D03*
X37100000Y-30645161D03*
%TD*%
%TO.C,RR06*%
X282250000Y-43612903D03*
X283750000Y-43612903D03*
%TD*%
D11*
%TO.C,U34*%
X97320000Y-105200000D03*
X96440000Y-105200000D03*
X95560000Y-105200000D03*
X94680000Y-105200000D03*
D12*
X96000000Y-103000000D03*
D13*
X93800000Y-104320000D03*
X93800000Y-103440000D03*
X93800000Y-102560000D03*
X93800000Y-101680000D03*
X98200000Y-101680000D03*
X98200000Y-102560000D03*
X98200000Y-103440000D03*
X98200000Y-104320000D03*
D11*
X94680000Y-100800000D03*
X95560000Y-100800000D03*
X96440000Y-100800000D03*
X97320000Y-100800000D03*
%TD*%
D10*
%TO.C,DL25*%
X20000000Y-126141935D03*
X20000000Y-127341935D03*
%TD*%
%TO.C,DR08*%
X290000000Y-52658064D03*
X290000000Y-53858064D03*
%TD*%
D11*
%TO.C,U36*%
X117320000Y-105200000D03*
X116440000Y-105200000D03*
X115560000Y-105200000D03*
X114680000Y-105200000D03*
D12*
X116000000Y-103000000D03*
D13*
X113800000Y-104320000D03*
X113800000Y-103440000D03*
X113800000Y-102560000D03*
X113800000Y-101680000D03*
X118200000Y-101680000D03*
X118200000Y-102560000D03*
X118200000Y-103440000D03*
X118200000Y-104320000D03*
D11*
X114680000Y-100800000D03*
X115560000Y-100800000D03*
X116440000Y-100800000D03*
X117320000Y-100800000D03*
%TD*%
D10*
%TO.C,DL05*%
X20000000Y-39690322D03*
X20000000Y-40890322D03*
%TD*%
D15*
%TO.C,JL03*%
X14000000Y-30645161D03*
%TD*%
%TO.C,JL13*%
X14000000Y-73870967D03*
%TD*%
%TO.C,JL20*%
X14000000Y-104129032D03*
%TD*%
D10*
%TO.C,DL28*%
X20000000Y-139109677D03*
X20000000Y-140309677D03*
%TD*%
D15*
%TO.C,JL24*%
X14000000Y-121419354D03*
%TD*%
D16*
%TO.C,JRB02*%
X178800000Y-143000000D03*
%TD*%
D14*
%TO.C,UR03*%
X272900000Y-30645161D03*
X275100000Y-30645161D03*
%TD*%
%TO.C,RLFB04*%
X61425000Y-70100000D03*
X62575000Y-70100000D03*
%TD*%
D10*
%TO.C,DL22*%
X20000000Y-113174193D03*
X20000000Y-114374193D03*
%TD*%
%TO.C,DR03*%
X290000000Y-31045161D03*
X290000000Y-32245161D03*
%TD*%
D14*
%TO.C,UR30*%
X272900000Y-147354838D03*
X275100000Y-147354838D03*
%TD*%
D10*
%TO.C,DR26*%
X290000000Y-130464516D03*
X290000000Y-131664516D03*
%TD*%
%TO.C,URB01*%
X174000000Y-125900000D03*
X174000000Y-128100000D03*
%TD*%
D14*
%TO.C,DLB02*%
X95050000Y-136000000D03*
X96550000Y-136000000D03*
%TD*%
%TO.C,UL29*%
X34900000Y-143032258D03*
X37100000Y-143032258D03*
%TD*%
D10*
%TO.C,DL09*%
X20000000Y-56980645D03*
X20000000Y-58180645D03*
%TD*%
D15*
%TO.C,JL14*%
X14000000Y-78193548D03*
%TD*%
D14*
%TO.C,UR21*%
X272900000Y-108451612D03*
X275100000Y-108451612D03*
%TD*%
D15*
%TO.C,JR13*%
X296000000Y-73870967D03*
%TD*%
D14*
%TO.C,UL13*%
X34900000Y-73870967D03*
X37100000Y-73870967D03*
%TD*%
D29*
%TO.C,U_ASIC_SOCKET_1*%
X128000000Y-229000000D03*
X128000000Y-232000000D03*
X128000000Y-235000000D03*
X128000000Y-238000000D03*
X128000000Y-241000000D03*
X128000000Y-244000000D03*
X128000000Y-247000000D03*
X131000000Y-229000000D03*
X131000000Y-232000000D03*
X131000000Y-235000000D03*
X131000000Y-238000000D03*
X131000000Y-241000000D03*
X131000000Y-244000000D03*
X131000000Y-247000000D03*
X134000000Y-229000000D03*
X134000000Y-232000000D03*
X134000000Y-235000000D03*
X134000000Y-238000000D03*
X134000000Y-241000000D03*
X134000000Y-244000000D03*
X134000000Y-247000000D03*
X137000000Y-229000000D03*
X137000000Y-232000000D03*
X137000000Y-235000000D03*
X137000000Y-238000000D03*
X137000000Y-241000000D03*
X137000000Y-244000000D03*
X137000000Y-247000000D03*
X140000000Y-229000000D03*
X140000000Y-232000000D03*
X140000000Y-235000000D03*
X140000000Y-238000000D03*
X140000000Y-241000000D03*
X140000000Y-244000000D03*
X140000000Y-247000000D03*
X143000000Y-229000000D03*
X143000000Y-232000000D03*
X143000000Y-235000000D03*
X143000000Y-238000000D03*
X143000000Y-241000000D03*
X143000000Y-244000000D03*
X143000000Y-247000000D03*
X146000000Y-229000000D03*
X146000000Y-232000000D03*
X146000000Y-235000000D03*
X146000000Y-238000000D03*
X146000000Y-241000000D03*
X146000000Y-244000000D03*
X146000000Y-247000000D03*
%TD*%
D14*
%TO.C,CML06*%
X107400000Y-106500000D03*
X108400000Y-106500000D03*
%TD*%
D15*
%TO.C,JR07*%
X296000000Y-47935483D03*
%TD*%
D11*
%TO.C,U51*%
X153250000Y-54900000D03*
X152300000Y-54900000D03*
X151350000Y-54900000D03*
D20*
X152300000Y-53000000D03*
D13*
X150400000Y-53950000D03*
X150400000Y-53000000D03*
X150400000Y-52050000D03*
X154200000Y-52050000D03*
X154200000Y-53000000D03*
X154200000Y-53950000D03*
D11*
X151350000Y-51100000D03*
X152300000Y-51100000D03*
X153250000Y-51100000D03*
%TD*%
D14*
%TO.C,DRB09*%
X211650000Y-136000000D03*
X213150000Y-136000000D03*
%TD*%
D10*
%TO.C,CL09*%
X43000000Y-56980645D03*
X43000000Y-58180645D03*
%TD*%
D14*
%TO.C,RRFB05*%
X247425000Y-74300000D03*
X248575000Y-74300000D03*
%TD*%
%TO.C,CLP01*%
X56225000Y-151500000D03*
X57775000Y-151500000D03*
%TD*%
D10*
%TO.C,CR14*%
X267000000Y-78593548D03*
X267000000Y-79793548D03*
%TD*%
D15*
%TO.C,JL29*%
X14000000Y-143032258D03*
%TD*%
D14*
%TO.C,UL09*%
X34900000Y-56580645D03*
X37100000Y-56580645D03*
%TD*%
%TO.C,RRCFG4*%
X203025000Y-109500000D03*
X203975000Y-109500000D03*
%TD*%
%TO.C,RR13*%
X282250000Y-73870967D03*
X283750000Y-73870967D03*
%TD*%
%TO.C,UR26*%
X272900000Y-130064516D03*
X275100000Y-130064516D03*
%TD*%
D10*
%TO.C,DR25*%
X290000000Y-126141935D03*
X290000000Y-127341935D03*
%TD*%
D14*
%TO.C,RR23*%
X282250000Y-117096774D03*
X283750000Y-117096774D03*
%TD*%
%TO.C,DLB04*%
X104650000Y-136000000D03*
X106150000Y-136000000D03*
%TD*%
D10*
%TO.C,CL05*%
X43000000Y-39690322D03*
X43000000Y-40890322D03*
%TD*%
D14*
%TO.C,RL08*%
X26250000Y-52258064D03*
X27750000Y-52258064D03*
%TD*%
D16*
%TO.C,JLB04*%
X105400000Y-143000000D03*
%TD*%
D14*
%TO.C,RRFB02*%
X247425000Y-61700000D03*
X248575000Y-61700000D03*
%TD*%
%TO.C,RR27*%
X282250000Y-134387096D03*
X283750000Y-134387096D03*
%TD*%
%TO.C,RR03*%
X282250000Y-30645161D03*
X283750000Y-30645161D03*
%TD*%
%TO.C,RR26*%
X282250000Y-130064516D03*
X283750000Y-130064516D03*
%TD*%
%TO.C,RL30*%
X26250000Y-147354838D03*
X27750000Y-147354838D03*
%TD*%
%TO.C,UL24*%
X34900000Y-121419354D03*
X37100000Y-121419354D03*
%TD*%
%TO.C,CRP10*%
X241225000Y-164500000D03*
X242775000Y-164500000D03*
%TD*%
D15*
%TO.C,JR26*%
X296000000Y-130064516D03*
%TD*%
D10*
%TO.C,CR22*%
X267000000Y-113174193D03*
X267000000Y-114374193D03*
%TD*%
%TO.C,ULB02*%
X95800000Y-125900000D03*
X95800000Y-128100000D03*
%TD*%
%TO.C,ULB09*%
X129400000Y-125900000D03*
X129400000Y-128100000D03*
%TD*%
%TO.C,CR04*%
X267000000Y-35367741D03*
X267000000Y-36567741D03*
%TD*%
D15*
%TO.C,JL10*%
X14000000Y-60903225D03*
%TD*%
D10*
%TO.C,DR21*%
X290000000Y-108851612D03*
X290000000Y-110051612D03*
%TD*%
%TO.C,RRB08*%
X207600000Y-118200000D03*
X207600000Y-119800000D03*
%TD*%
D15*
%TO.C,JR20*%
X296000000Y-104129032D03*
%TD*%
D14*
%TO.C,CMR13*%
X180500000Y-80000000D03*
X181500000Y-80000000D03*
%TD*%
D10*
%TO.C,DR24*%
X290000000Y-121819354D03*
X290000000Y-123019354D03*
%TD*%
%TO.C,URB09*%
X212400000Y-125900000D03*
X212400000Y-128100000D03*
%TD*%
D15*
%TO.C,JL19*%
X14000000Y-99806451D03*
%TD*%
D14*
%TO.C,UL04*%
X34900000Y-34967741D03*
X37100000Y-34967741D03*
%TD*%
D17*
%TO.C,J_DDR6_3*%
X46000000Y-248000000D03*
X47800000Y-248000000D03*
X49600000Y-248000000D03*
X51400000Y-248000000D03*
X53200000Y-248000000D03*
X55000000Y-248000000D03*
X56800000Y-248000000D03*
X58600000Y-248000000D03*
X60400000Y-248000000D03*
X62200000Y-248000000D03*
X64000000Y-248000000D03*
X65800000Y-248000000D03*
X67600000Y-248000000D03*
X69400000Y-248000000D03*
X71200000Y-248000000D03*
X73000000Y-248000000D03*
X74800000Y-248000000D03*
X76600000Y-248000000D03*
X78400000Y-248000000D03*
X80200000Y-248000000D03*
X82000000Y-248000000D03*
X83800000Y-248000000D03*
X85600000Y-248000000D03*
X87400000Y-248000000D03*
X89200000Y-248000000D03*
X91000000Y-248000000D03*
X92800000Y-248000000D03*
X94600000Y-248000000D03*
X46000000Y-252000000D03*
X47800000Y-252000000D03*
X49600000Y-252000000D03*
X51400000Y-252000000D03*
X53200000Y-252000000D03*
X55000000Y-252000000D03*
X56800000Y-252000000D03*
X58600000Y-252000000D03*
X60400000Y-252000000D03*
X62200000Y-252000000D03*
X64000000Y-252000000D03*
X65800000Y-252000000D03*
X67600000Y-252000000D03*
X69400000Y-252000000D03*
X71200000Y-252000000D03*
X73000000Y-252000000D03*
X74800000Y-252000000D03*
X76600000Y-252000000D03*
X78400000Y-252000000D03*
X80200000Y-252000000D03*
X82000000Y-252000000D03*
X83800000Y-252000000D03*
X85600000Y-252000000D03*
X87400000Y-252000000D03*
X89200000Y-252000000D03*
X91000000Y-252000000D03*
X92800000Y-252000000D03*
X94600000Y-252000000D03*
D18*
X70000000Y-250000000D03*
%TD*%
D14*
%TO.C,UL07*%
X34900000Y-47935483D03*
X37100000Y-47935483D03*
%TD*%
%TO.C,CMR15*%
X180500000Y-83000000D03*
X181500000Y-83000000D03*
%TD*%
D10*
%TO.C,URB03*%
X183600000Y-125900000D03*
X183600000Y-128100000D03*
%TD*%
D14*
%TO.C,CML03*%
X104700000Y-71500000D03*
X105700000Y-71500000D03*
%TD*%
D10*
%TO.C,CL11*%
X43000000Y-65625806D03*
X43000000Y-66825806D03*
%TD*%
D16*
%TO.C,JLB02*%
X95800000Y-143000000D03*
%TD*%
D14*
%TO.C,CML10*%
X116300000Y-106500000D03*
X117300000Y-106500000D03*
%TD*%
D16*
%TO.C,JRB07*%
X202800000Y-143000000D03*
%TD*%
D10*
%TO.C,DR10*%
X290000000Y-61303225D03*
X290000000Y-62503225D03*
%TD*%
D14*
%TO.C,UR27*%
X272900000Y-134387096D03*
X275100000Y-134387096D03*
%TD*%
D10*
%TO.C,DR12*%
X290000000Y-69948387D03*
X290000000Y-71148387D03*
%TD*%
D14*
%TO.C,RL18*%
X26250000Y-95483870D03*
X27750000Y-95483870D03*
%TD*%
%TO.C,RL02*%
X26250000Y-26322580D03*
X27750000Y-26322580D03*
%TD*%
%TO.C,RL10*%
X26250000Y-60903225D03*
X27750000Y-60903225D03*
%TD*%
%TO.C,RR07*%
X282250000Y-47935483D03*
X283750000Y-47935483D03*
%TD*%
D30*
%TO.C,U3*%
X145800000Y-67500000D03*
X145800000Y-68887096D03*
X145800000Y-70274193D03*
X145800000Y-71661290D03*
X145800000Y-73048387D03*
X145800000Y-74435483D03*
X145800000Y-75822580D03*
X145800000Y-77209677D03*
X145800000Y-78596774D03*
X145800000Y-79983870D03*
X145800000Y-81370967D03*
X145800000Y-82758064D03*
X145800000Y-84145161D03*
X145800000Y-85532258D03*
X145800000Y-86919354D03*
X145800000Y-88306451D03*
X145800000Y-89693548D03*
X145800000Y-91080645D03*
X145800000Y-92467741D03*
X145800000Y-93854838D03*
X145800000Y-95241935D03*
X145800000Y-96629032D03*
X145800000Y-98016129D03*
X145800000Y-99403225D03*
X145800000Y-100790322D03*
X145800000Y-102177419D03*
X145800000Y-103564516D03*
X145800000Y-104951612D03*
X145800000Y-106338709D03*
X145800000Y-107725806D03*
X145800000Y-109112903D03*
X145800000Y-110500000D03*
D31*
X150750000Y-89000000D03*
X151250000Y-89000000D03*
X151750000Y-89000000D03*
X152250000Y-89000000D03*
X152750000Y-89000000D03*
X153250000Y-89000000D03*
X153750000Y-89000000D03*
X154250000Y-89000000D03*
X154750000Y-89000000D03*
X155250000Y-89000000D03*
X155750000Y-89000000D03*
X156250000Y-89000000D03*
X156750000Y-89000000D03*
X157250000Y-89000000D03*
X157750000Y-89000000D03*
X158250000Y-89000000D03*
X158750000Y-89000000D03*
X159250000Y-89000000D03*
D30*
X164200000Y-67500000D03*
X164200000Y-68887096D03*
X164200000Y-70274193D03*
X164200000Y-71661290D03*
X164200000Y-73048387D03*
X164200000Y-74435483D03*
X164200000Y-75822580D03*
X164200000Y-77209677D03*
X164200000Y-78596774D03*
X164200000Y-79983870D03*
X164200000Y-81370967D03*
X164200000Y-82758064D03*
X164200000Y-84145161D03*
X164200000Y-85532258D03*
X164200000Y-86919354D03*
X164200000Y-88306451D03*
X164200000Y-89693548D03*
X164200000Y-91080645D03*
X164200000Y-92467741D03*
X164200000Y-93854838D03*
X164200000Y-95241935D03*
X164200000Y-96629032D03*
X164200000Y-98016129D03*
X164200000Y-99403225D03*
X164200000Y-100790322D03*
X164200000Y-102177419D03*
X164200000Y-103564516D03*
X164200000Y-104951612D03*
X164200000Y-106338709D03*
X164200000Y-107725806D03*
X164200000Y-109112903D03*
X164200000Y-110500000D03*
%TD*%
D15*
%TO.C,JR11*%
X296000000Y-65225806D03*
%TD*%
D17*
%TO.C,J_DDR6_5*%
X166000000Y-232000000D03*
X167800000Y-232000000D03*
X169600000Y-232000000D03*
X171400000Y-232000000D03*
X173200000Y-232000000D03*
X175000000Y-232000000D03*
X176800000Y-232000000D03*
X178600000Y-232000000D03*
X180400000Y-232000000D03*
X182200000Y-232000000D03*
X184000000Y-232000000D03*
X185800000Y-232000000D03*
X187600000Y-232000000D03*
X189400000Y-232000000D03*
X191200000Y-232000000D03*
X193000000Y-232000000D03*
X194800000Y-232000000D03*
X196600000Y-232000000D03*
X198400000Y-232000000D03*
X200200000Y-232000000D03*
X202000000Y-232000000D03*
X203800000Y-232000000D03*
X205600000Y-232000000D03*
X207400000Y-232000000D03*
X209200000Y-232000000D03*
X211000000Y-232000000D03*
X212800000Y-232000000D03*
X214600000Y-232000000D03*
X166000000Y-236000000D03*
X167800000Y-236000000D03*
X169600000Y-236000000D03*
X171400000Y-236000000D03*
X173200000Y-236000000D03*
X175000000Y-236000000D03*
X176800000Y-236000000D03*
X178600000Y-236000000D03*
X180400000Y-236000000D03*
X182200000Y-236000000D03*
X184000000Y-236000000D03*
X185800000Y-236000000D03*
X187600000Y-236000000D03*
X189400000Y-236000000D03*
X191200000Y-236000000D03*
X193000000Y-236000000D03*
X194800000Y-236000000D03*
X196600000Y-236000000D03*
X198400000Y-236000000D03*
X200200000Y-236000000D03*
X202000000Y-236000000D03*
X203800000Y-236000000D03*
X205600000Y-236000000D03*
X207400000Y-236000000D03*
X209200000Y-236000000D03*
X211000000Y-236000000D03*
X212800000Y-236000000D03*
X214600000Y-236000000D03*
D18*
X190000000Y-234000000D03*
%TD*%
D16*
%TO.C,JRB08*%
X207600000Y-143000000D03*
%TD*%
D10*
%TO.C,CR26*%
X267000000Y-130464516D03*
X267000000Y-131664516D03*
%TD*%
D14*
%TO.C,RR21*%
X282250000Y-108451612D03*
X283750000Y-108451612D03*
%TD*%
%TO.C,DRB04*%
X187650000Y-136000000D03*
X189150000Y-136000000D03*
%TD*%
D10*
%TO.C,CR01*%
X267000000Y-22400000D03*
X267000000Y-23600000D03*
%TD*%
%TO.C,DL15*%
X20000000Y-82916129D03*
X20000000Y-84116129D03*
%TD*%
D14*
%TO.C,RR09*%
X282250000Y-56580645D03*
X283750000Y-56580645D03*
%TD*%
%TO.C,RL20*%
X26250000Y-104129032D03*
X27750000Y-104129032D03*
%TD*%
D15*
%TO.C,JR10*%
X296000000Y-60903225D03*
%TD*%
D10*
%TO.C,DR04*%
X290000000Y-35367741D03*
X290000000Y-36567741D03*
%TD*%
D11*
%TO.C,UTBIAS*%
X150260000Y-126100000D03*
X149420000Y-126100000D03*
X148580000Y-126100000D03*
X147740000Y-126100000D03*
D25*
X149000000Y-124000000D03*
D13*
X146900000Y-125260000D03*
X146900000Y-124420000D03*
X146900000Y-123580000D03*
X146900000Y-122740000D03*
X151100000Y-122740000D03*
X151100000Y-123580000D03*
X151100000Y-124420000D03*
X151100000Y-125260000D03*
D11*
X147740000Y-121900000D03*
X148580000Y-121900000D03*
X149420000Y-121900000D03*
X150260000Y-121900000D03*
%TD*%
D14*
%TO.C,UL16*%
X34900000Y-86838709D03*
X37100000Y-86838709D03*
%TD*%
%TO.C,UL12*%
X34900000Y-69548387D03*
X37100000Y-69548387D03*
%TD*%
%TO.C,CML02*%
X102000000Y-106500000D03*
X103000000Y-106500000D03*
%TD*%
D10*
%TO.C,CR12*%
X267000000Y-69948387D03*
X267000000Y-71148387D03*
%TD*%
D14*
%TO.C,UL31*%
X34900000Y-151677419D03*
X37100000Y-151677419D03*
%TD*%
D26*
%TO.C,U4*%
X194500000Y-84500000D03*
X195500000Y-84500000D03*
X196500000Y-84500000D03*
X197500000Y-84500000D03*
X198500000Y-84500000D03*
X199500000Y-84500000D03*
X200500000Y-84500000D03*
X201500000Y-84500000D03*
X202500000Y-84500000D03*
X203500000Y-84500000D03*
X194500000Y-85500000D03*
X195500000Y-85500000D03*
X196500000Y-85500000D03*
X197500000Y-85500000D03*
X198500000Y-85500000D03*
X199500000Y-85500000D03*
X200500000Y-85500000D03*
X201500000Y-85500000D03*
X202500000Y-85500000D03*
X203500000Y-85500000D03*
X194500000Y-86500000D03*
X195500000Y-86500000D03*
X196500000Y-86500000D03*
X197500000Y-86500000D03*
X198500000Y-86500000D03*
X199500000Y-86500000D03*
X200500000Y-86500000D03*
X201500000Y-86500000D03*
X202500000Y-86500000D03*
X203500000Y-86500000D03*
X194500000Y-87500000D03*
X195500000Y-87500000D03*
X196500000Y-87500000D03*
X197500000Y-87500000D03*
X198500000Y-87500000D03*
X199500000Y-87500000D03*
X200500000Y-87500000D03*
X201500000Y-87500000D03*
X202500000Y-87500000D03*
X203500000Y-87500000D03*
X194500000Y-88500000D03*
X195500000Y-88500000D03*
X196500000Y-88500000D03*
X197500000Y-88500000D03*
X198500000Y-88500000D03*
X199500000Y-88500000D03*
X200500000Y-88500000D03*
X201500000Y-88500000D03*
X202500000Y-88500000D03*
X203500000Y-88500000D03*
X194500000Y-89500000D03*
X195500000Y-89500000D03*
X196500000Y-89500000D03*
X197500000Y-89500000D03*
X198500000Y-89500000D03*
X199500000Y-89500000D03*
X200500000Y-89500000D03*
X201500000Y-89500000D03*
X202500000Y-89500000D03*
X203500000Y-89500000D03*
X194500000Y-90500000D03*
X195500000Y-90500000D03*
X196500000Y-90500000D03*
X197500000Y-90500000D03*
X198500000Y-90500000D03*
X199500000Y-90500000D03*
X200500000Y-90500000D03*
X201500000Y-90500000D03*
X202500000Y-90500000D03*
X203500000Y-90500000D03*
X194500000Y-91500000D03*
X195500000Y-91500000D03*
X196500000Y-91500000D03*
X197500000Y-91500000D03*
X198500000Y-91500000D03*
X199500000Y-91500000D03*
X200500000Y-91500000D03*
X201500000Y-91500000D03*
X202500000Y-91500000D03*
X203500000Y-91500000D03*
X194500000Y-92500000D03*
X195500000Y-92500000D03*
X196500000Y-92500000D03*
X197500000Y-92500000D03*
X198500000Y-92500000D03*
X199500000Y-92500000D03*
X200500000Y-92500000D03*
X201500000Y-92500000D03*
X202500000Y-92500000D03*
X203500000Y-92500000D03*
X194500000Y-93500000D03*
X195500000Y-93500000D03*
X196500000Y-93500000D03*
X197500000Y-93500000D03*
X198500000Y-93500000D03*
X199500000Y-93500000D03*
X200500000Y-93500000D03*
X201500000Y-93500000D03*
X202500000Y-93500000D03*
X203500000Y-93500000D03*
D27*
X176800000Y-70500000D03*
X176800000Y-71693548D03*
X176800000Y-72887096D03*
X176800000Y-74080645D03*
X176800000Y-75274193D03*
X176800000Y-76467741D03*
X176800000Y-77661290D03*
X176800000Y-78854838D03*
X176800000Y-80048387D03*
X176800000Y-81241935D03*
X176800000Y-82435483D03*
X176800000Y-83629032D03*
X176800000Y-84822580D03*
X176800000Y-86016129D03*
X176800000Y-87209677D03*
X176800000Y-88403225D03*
X176800000Y-89596774D03*
X176800000Y-90790322D03*
X176800000Y-91983870D03*
X176800000Y-93177419D03*
X176800000Y-94370967D03*
X176800000Y-95564516D03*
X176800000Y-96758064D03*
X176800000Y-97951612D03*
X176800000Y-99145161D03*
X176800000Y-100338709D03*
X176800000Y-101532258D03*
X176800000Y-102725806D03*
X176800000Y-103919354D03*
X176800000Y-105112903D03*
X176800000Y-106306451D03*
X176800000Y-107500000D03*
D28*
X181000000Y-111200000D03*
X185000000Y-111200000D03*
X189000000Y-111200000D03*
X193000000Y-111200000D03*
X197000000Y-111200000D03*
X201000000Y-111200000D03*
X205000000Y-111200000D03*
X209000000Y-111200000D03*
X213000000Y-111200000D03*
X217000000Y-111200000D03*
D27*
X221200000Y-69800000D03*
X221200000Y-71038709D03*
X221200000Y-72277419D03*
X221200000Y-73516129D03*
X221200000Y-74754838D03*
X221200000Y-75993548D03*
X221200000Y-77232258D03*
X221200000Y-78470967D03*
X221200000Y-79709677D03*
X221200000Y-80948387D03*
X221200000Y-82187096D03*
X221200000Y-83425806D03*
X221200000Y-84664516D03*
X221200000Y-85903225D03*
X221200000Y-87141935D03*
X221200000Y-88380645D03*
X221200000Y-89619354D03*
X221200000Y-90858064D03*
X221200000Y-92096774D03*
X221200000Y-93335483D03*
X221200000Y-94574193D03*
X221200000Y-95812903D03*
X221200000Y-97051612D03*
X221200000Y-98290322D03*
X221200000Y-99529032D03*
X221200000Y-100767741D03*
X221200000Y-102006451D03*
X221200000Y-103245161D03*
X221200000Y-104483870D03*
X221200000Y-105722580D03*
X221200000Y-106961290D03*
X221200000Y-108199999D03*
%TD*%
D10*
%TO.C,DL19*%
X20000000Y-100206451D03*
X20000000Y-101406451D03*
%TD*%
D14*
%TO.C,UR07*%
X272900000Y-47935483D03*
X275100000Y-47935483D03*
%TD*%
%TO.C,UL01*%
X34900000Y-22000000D03*
X37100000Y-22000000D03*
%TD*%
%TO.C,CTFLN5*%
X160525000Y-130000000D03*
X161475000Y-130000000D03*
%TD*%
%TO.C,CLP11*%
X76225000Y-164500000D03*
X77775000Y-164500000D03*
%TD*%
%TO.C,UL14*%
X34900000Y-78193548D03*
X37100000Y-78193548D03*
%TD*%
D15*
%TO.C,JL12*%
X14000000Y-69548387D03*
%TD*%
D10*
%TO.C,DR19*%
X290000000Y-100206451D03*
X290000000Y-101406451D03*
%TD*%
%TO.C,DR27*%
X290000000Y-134787096D03*
X290000000Y-135987096D03*
%TD*%
%TO.C,DL02*%
X20000000Y-26722580D03*
X20000000Y-27922580D03*
%TD*%
%TO.C,CR02*%
X267000000Y-26722580D03*
X267000000Y-27922580D03*
%TD*%
D14*
%TO.C,CRP03*%
X236225000Y-151500000D03*
X237775000Y-151500000D03*
%TD*%
%TO.C,RLFB14*%
X61425000Y-112100000D03*
X62575000Y-112100000D03*
%TD*%
D10*
%TO.C,CR08*%
X267000000Y-52658064D03*
X267000000Y-53858064D03*
%TD*%
D15*
%TO.C,JL17*%
X14000000Y-91161290D03*
%TD*%
M02*
