%TF.GenerationSoftware,KiCad,Pcbnew,10.0.3*%
%TF.CreationDate,2026-07-07T21:46:54-07:00*%
%TF.ProjectId,TFLN_AI_NODE_X2_SERVER_CHASSIS_IO,54464c4e-5f41-4495-9f4e-4f44455f5832,July_04-ENG-RECONCILE-01*%
%TF.SameCoordinates,Original*%
%TF.FileFunction,Soldermask,Bot*%
%TF.FilePolarity,Negative*%
%FSLAX46Y46*%
G04 Gerber Fmt 4.6, Leading zero omitted, Abs format (unit mm)*
G04 Created by KiCad (PCBNEW 10.0.3) date 2026-07-07 21:46:54*
%MOMM*%
%LPD*%
G01*
G04 APERTURE LIST*
G04 APERTURE END LIST*
G36*
X35210476Y-231491866D02*
G01*
X35334819Y-231563656D01*
X35436344Y-231665181D01*
X35508134Y-231789524D01*
X35545295Y-231928211D01*
X35545295Y-232071789D01*
X35508134Y-232210476D01*
X35436344Y-232334819D01*
X35334819Y-232436344D01*
X35210476Y-232508134D01*
X35071789Y-232545295D01*
X34928211Y-232545295D01*
X34789524Y-232508134D01*
X34665181Y-232436344D01*
X34563656Y-232334819D01*
X34491866Y-232210476D01*
X34454705Y-232071789D01*
X34454705Y-231928211D01*
X34491866Y-231789524D01*
X34563656Y-231665181D01*
X34665181Y-231563656D01*
X34789524Y-231491866D01*
X34928211Y-231454705D01*
X35071789Y-231454705D01*
X35210476Y-231491866D01*
G37*
G36*
X10419444Y-165891312D02*
G01*
X10691095Y-165964100D01*
X10950921Y-166071724D01*
X11194476Y-166212340D01*
X11417594Y-166383544D01*
X11616456Y-166582406D01*
X11787660Y-166805524D01*
X11928276Y-167049079D01*
X12035900Y-167308905D01*
X12108688Y-167580556D01*
X12145397Y-167859383D01*
X12145397Y-168140617D01*
X12108688Y-168419444D01*
X12035900Y-168691095D01*
X11928276Y-168950921D01*
X11787660Y-169194476D01*
X11616456Y-169417594D01*
X11417594Y-169616456D01*
X11194476Y-169787660D01*
X10950921Y-169928276D01*
X10691095Y-170035900D01*
X10419444Y-170108688D01*
X10140617Y-170145397D01*
X9859383Y-170145397D01*
X9580556Y-170108688D01*
X9308905Y-170035900D01*
X9049079Y-169928276D01*
X8805524Y-169787660D01*
X8582406Y-169616456D01*
X8383544Y-169417594D01*
X8212340Y-169194476D01*
X8071724Y-168950921D01*
X7964100Y-168691095D01*
X7891312Y-168419444D01*
X7854603Y-168140617D01*
X7854603Y-167859383D01*
X7891312Y-167580556D01*
X7964100Y-167308905D01*
X8071724Y-167049079D01*
X8212340Y-166805524D01*
X8383544Y-166582406D01*
X8582406Y-166383544D01*
X8805524Y-166212340D01*
X9049079Y-166071724D01*
X9308905Y-165964100D01*
X9580556Y-165891312D01*
X9859383Y-165854603D01*
X10140617Y-165854603D01*
X10419444Y-165891312D01*
G37*
G36*
X155419444Y-165891312D02*
G01*
X155691095Y-165964100D01*
X155950921Y-166071724D01*
X156194476Y-166212340D01*
X156417594Y-166383544D01*
X156616456Y-166582406D01*
X156787660Y-166805524D01*
X156928276Y-167049079D01*
X157035900Y-167308905D01*
X157108688Y-167580556D01*
X157145397Y-167859383D01*
X157145397Y-168140617D01*
X157108688Y-168419444D01*
X157035900Y-168691095D01*
X156928276Y-168950921D01*
X156787660Y-169194476D01*
X156616456Y-169417594D01*
X156417594Y-169616456D01*
X156194476Y-169787660D01*
X155950921Y-169928276D01*
X155691095Y-170035900D01*
X155419444Y-170108688D01*
X155140617Y-170145397D01*
X154859383Y-170145397D01*
X154580556Y-170108688D01*
X154308905Y-170035900D01*
X154049079Y-169928276D01*
X153805524Y-169787660D01*
X153582406Y-169616456D01*
X153383544Y-169417594D01*
X153212340Y-169194476D01*
X153071724Y-168950921D01*
X152964100Y-168691095D01*
X152891312Y-168419444D01*
X152854603Y-168140617D01*
X152854603Y-167859383D01*
X152891312Y-167580556D01*
X152964100Y-167308905D01*
X153071724Y-167049079D01*
X153212340Y-166805524D01*
X153383544Y-166582406D01*
X153582406Y-166383544D01*
X153805524Y-166212340D01*
X154049079Y-166071724D01*
X154308905Y-165964100D01*
X154580556Y-165891312D01*
X154859383Y-165854603D01*
X155140617Y-165854603D01*
X155419444Y-165891312D01*
G37*
G36*
X300419444Y-165891312D02*
G01*
X300691095Y-165964100D01*
X300950921Y-166071724D01*
X301194476Y-166212340D01*
X301417594Y-166383544D01*
X301616456Y-166582406D01*
X301787660Y-166805524D01*
X301928276Y-167049079D01*
X302035900Y-167308905D01*
X302108688Y-167580556D01*
X302145397Y-167859383D01*
X302145397Y-168140617D01*
X302108688Y-168419444D01*
X302035900Y-168691095D01*
X301928276Y-168950921D01*
X301787660Y-169194476D01*
X301616456Y-169417594D01*
X301417594Y-169616456D01*
X301194476Y-169787660D01*
X300950921Y-169928276D01*
X300691095Y-170035900D01*
X300419444Y-170108688D01*
X300140617Y-170145397D01*
X299859383Y-170145397D01*
X299580556Y-170108688D01*
X299308905Y-170035900D01*
X299049079Y-169928276D01*
X298805524Y-169787660D01*
X298582406Y-169616456D01*
X298383544Y-169417594D01*
X298212340Y-169194476D01*
X298071724Y-168950921D01*
X297964100Y-168691095D01*
X297891312Y-168419444D01*
X297854603Y-168140617D01*
X297854603Y-167859383D01*
X297891312Y-167580556D01*
X297964100Y-167308905D01*
X298071724Y-167049079D01*
X298212340Y-166805524D01*
X298383544Y-166582406D01*
X298582406Y-166383544D01*
X298805524Y-166212340D01*
X299049079Y-166071724D01*
X299308905Y-165964100D01*
X299580556Y-165891312D01*
X299859383Y-165854603D01*
X300140617Y-165854603D01*
X300419444Y-165891312D01*
G37*
G36*
X23191342Y-166538060D02*
G01*
X23304381Y-166603323D01*
X23396677Y-166695619D01*
X23461940Y-166808658D01*
X23495722Y-166934737D01*
X23495722Y-167065263D01*
X23461940Y-167191342D01*
X23396677Y-167304381D01*
X23304381Y-167396677D01*
X23191342Y-167461940D01*
X23065263Y-167495722D01*
X22934737Y-167495722D01*
X22808658Y-167461940D01*
X22695619Y-167396677D01*
X22603323Y-167304381D01*
X22538060Y-167191342D01*
X22504278Y-167065263D01*
X22504278Y-166934737D01*
X22538060Y-166808658D01*
X22603323Y-166695619D01*
X22695619Y-166603323D01*
X22808658Y-166538060D01*
X22934737Y-166504278D01*
X23065263Y-166504278D01*
X23191342Y-166538060D01*
G37*
G36*
X35191342Y-166538060D02*
G01*
X35304381Y-166603323D01*
X35396677Y-166695619D01*
X35461940Y-166808658D01*
X35495722Y-166934737D01*
X35495722Y-167065263D01*
X35461940Y-167191342D01*
X35396677Y-167304381D01*
X35304381Y-167396677D01*
X35191342Y-167461940D01*
X35065263Y-167495722D01*
X34934737Y-167495722D01*
X34808658Y-167461940D01*
X34695619Y-167396677D01*
X34603323Y-167304381D01*
X34538060Y-167191342D01*
X34504278Y-167065263D01*
X34504278Y-166934737D01*
X34538060Y-166808658D01*
X34603323Y-166695619D01*
X34695619Y-166603323D01*
X34808658Y-166538060D01*
X34934737Y-166504278D01*
X35065263Y-166504278D01*
X35191342Y-166538060D01*
G37*
G36*
X47191342Y-166538060D02*
G01*
X47304381Y-166603323D01*
X47396677Y-166695619D01*
X47461940Y-166808658D01*
X47495722Y-166934737D01*
X47495722Y-167065263D01*
X47461940Y-167191342D01*
X47396677Y-167304381D01*
X47304381Y-167396677D01*
X47191342Y-167461940D01*
X47065263Y-167495722D01*
X46934737Y-167495722D01*
X46808658Y-167461940D01*
X46695619Y-167396677D01*
X46603323Y-167304381D01*
X46538060Y-167191342D01*
X46504278Y-167065263D01*
X46504278Y-166934737D01*
X46538060Y-166808658D01*
X46603323Y-166695619D01*
X46695619Y-166603323D01*
X46808658Y-166538060D01*
X46934737Y-166504278D01*
X47065263Y-166504278D01*
X47191342Y-166538060D01*
G37*
G36*
X59191342Y-166538060D02*
G01*
X59304381Y-166603323D01*
X59396677Y-166695619D01*
X59461940Y-166808658D01*
X59495722Y-166934737D01*
X59495722Y-167065263D01*
X59461940Y-167191342D01*
X59396677Y-167304381D01*
X59304381Y-167396677D01*
X59191342Y-167461940D01*
X59065263Y-167495722D01*
X58934737Y-167495722D01*
X58808658Y-167461940D01*
X58695619Y-167396677D01*
X58603323Y-167304381D01*
X58538060Y-167191342D01*
X58504278Y-167065263D01*
X58504278Y-166934737D01*
X58538060Y-166808658D01*
X58603323Y-166695619D01*
X58695619Y-166603323D01*
X58808658Y-166538060D01*
X58934737Y-166504278D01*
X59065263Y-166504278D01*
X59191342Y-166538060D01*
G37*
G36*
X71191342Y-166538060D02*
G01*
X71304381Y-166603323D01*
X71396677Y-166695619D01*
X71461940Y-166808658D01*
X71495722Y-166934737D01*
X71495722Y-167065263D01*
X71461940Y-167191342D01*
X71396677Y-167304381D01*
X71304381Y-167396677D01*
X71191342Y-167461940D01*
X71065263Y-167495722D01*
X70934737Y-167495722D01*
X70808658Y-167461940D01*
X70695619Y-167396677D01*
X70603323Y-167304381D01*
X70538060Y-167191342D01*
X70504278Y-167065263D01*
X70504278Y-166934737D01*
X70538060Y-166808658D01*
X70603323Y-166695619D01*
X70695619Y-166603323D01*
X70808658Y-166538060D01*
X70934737Y-166504278D01*
X71065263Y-166504278D01*
X71191342Y-166538060D01*
G37*
G36*
X83191342Y-166538060D02*
G01*
X83304381Y-166603323D01*
X83396677Y-166695619D01*
X83461940Y-166808658D01*
X83495722Y-166934737D01*
X83495722Y-167065263D01*
X83461940Y-167191342D01*
X83396677Y-167304381D01*
X83304381Y-167396677D01*
X83191342Y-167461940D01*
X83065263Y-167495722D01*
X82934737Y-167495722D01*
X82808658Y-167461940D01*
X82695619Y-167396677D01*
X82603323Y-167304381D01*
X82538060Y-167191342D01*
X82504278Y-167065263D01*
X82504278Y-166934737D01*
X82538060Y-166808658D01*
X82603323Y-166695619D01*
X82695619Y-166603323D01*
X82808658Y-166538060D01*
X82934737Y-166504278D01*
X83065263Y-166504278D01*
X83191342Y-166538060D01*
G37*
G36*
X95191342Y-166538060D02*
G01*
X95304381Y-166603323D01*
X95396677Y-166695619D01*
X95461940Y-166808658D01*
X95495722Y-166934737D01*
X95495722Y-167065263D01*
X95461940Y-167191342D01*
X95396677Y-167304381D01*
X95304381Y-167396677D01*
X95191342Y-167461940D01*
X95065263Y-167495722D01*
X94934737Y-167495722D01*
X94808658Y-167461940D01*
X94695619Y-167396677D01*
X94603323Y-167304381D01*
X94538060Y-167191342D01*
X94504278Y-167065263D01*
X94504278Y-166934737D01*
X94538060Y-166808658D01*
X94603323Y-166695619D01*
X94695619Y-166603323D01*
X94808658Y-166538060D01*
X94934737Y-166504278D01*
X95065263Y-166504278D01*
X95191342Y-166538060D01*
G37*
G36*
X107191342Y-166538060D02*
G01*
X107304381Y-166603323D01*
X107396677Y-166695619D01*
X107461940Y-166808658D01*
X107495722Y-166934737D01*
X107495722Y-167065263D01*
X107461940Y-167191342D01*
X107396677Y-167304381D01*
X107304381Y-167396677D01*
X107191342Y-167461940D01*
X107065263Y-167495722D01*
X106934737Y-167495722D01*
X106808658Y-167461940D01*
X106695619Y-167396677D01*
X106603323Y-167304381D01*
X106538060Y-167191342D01*
X106504278Y-167065263D01*
X106504278Y-166934737D01*
X106538060Y-166808658D01*
X106603323Y-166695619D01*
X106695619Y-166603323D01*
X106808658Y-166538060D01*
X106934737Y-166504278D01*
X107065263Y-166504278D01*
X107191342Y-166538060D01*
G37*
G36*
X119191342Y-166538060D02*
G01*
X119304381Y-166603323D01*
X119396677Y-166695619D01*
X119461940Y-166808658D01*
X119495722Y-166934737D01*
X119495722Y-167065263D01*
X119461940Y-167191342D01*
X119396677Y-167304381D01*
X119304381Y-167396677D01*
X119191342Y-167461940D01*
X119065263Y-167495722D01*
X118934737Y-167495722D01*
X118808658Y-167461940D01*
X118695619Y-167396677D01*
X118603323Y-167304381D01*
X118538060Y-167191342D01*
X118504278Y-167065263D01*
X118504278Y-166934737D01*
X118538060Y-166808658D01*
X118603323Y-166695619D01*
X118695619Y-166603323D01*
X118808658Y-166538060D01*
X118934737Y-166504278D01*
X119065263Y-166504278D01*
X119191342Y-166538060D01*
G37*
G36*
X131191342Y-166538060D02*
G01*
X131304381Y-166603323D01*
X131396677Y-166695619D01*
X131461940Y-166808658D01*
X131495722Y-166934737D01*
X131495722Y-167065263D01*
X131461940Y-167191342D01*
X131396677Y-167304381D01*
X131304381Y-167396677D01*
X131191342Y-167461940D01*
X131065263Y-167495722D01*
X130934737Y-167495722D01*
X130808658Y-167461940D01*
X130695619Y-167396677D01*
X130603323Y-167304381D01*
X130538060Y-167191342D01*
X130504278Y-167065263D01*
X130504278Y-166934737D01*
X130538060Y-166808658D01*
X130603323Y-166695619D01*
X130695619Y-166603323D01*
X130808658Y-166538060D01*
X130934737Y-166504278D01*
X131065263Y-166504278D01*
X131191342Y-166538060D01*
G37*
G36*
X143191342Y-166538060D02*
G01*
X143304381Y-166603323D01*
X143396677Y-166695619D01*
X143461940Y-166808658D01*
X143495722Y-166934737D01*
X143495722Y-167065263D01*
X143461940Y-167191342D01*
X143396677Y-167304381D01*
X143304381Y-167396677D01*
X143191342Y-167461940D01*
X143065263Y-167495722D01*
X142934737Y-167495722D01*
X142808658Y-167461940D01*
X142695619Y-167396677D01*
X142603323Y-167304381D01*
X142538060Y-167191342D01*
X142504278Y-167065263D01*
X142504278Y-166934737D01*
X142538060Y-166808658D01*
X142603323Y-166695619D01*
X142695619Y-166603323D01*
X142808658Y-166538060D01*
X142934737Y-166504278D01*
X143065263Y-166504278D01*
X143191342Y-166538060D01*
G37*
G36*
X167191342Y-166538060D02*
G01*
X167304381Y-166603323D01*
X167396677Y-166695619D01*
X167461940Y-166808658D01*
X167495722Y-166934737D01*
X167495722Y-167065263D01*
X167461940Y-167191342D01*
X167396677Y-167304381D01*
X167304381Y-167396677D01*
X167191342Y-167461940D01*
X167065263Y-167495722D01*
X166934737Y-167495722D01*
X166808658Y-167461940D01*
X166695619Y-167396677D01*
X166603323Y-167304381D01*
X166538060Y-167191342D01*
X166504278Y-167065263D01*
X166504278Y-166934737D01*
X166538060Y-166808658D01*
X166603323Y-166695619D01*
X166695619Y-166603323D01*
X166808658Y-166538060D01*
X166934737Y-166504278D01*
X167065263Y-166504278D01*
X167191342Y-166538060D01*
G37*
G36*
X179191342Y-166538060D02*
G01*
X179304381Y-166603323D01*
X179396677Y-166695619D01*
X179461940Y-166808658D01*
X179495722Y-166934737D01*
X179495722Y-167065263D01*
X179461940Y-167191342D01*
X179396677Y-167304381D01*
X179304381Y-167396677D01*
X179191342Y-167461940D01*
X179065263Y-167495722D01*
X178934737Y-167495722D01*
X178808658Y-167461940D01*
X178695619Y-167396677D01*
X178603323Y-167304381D01*
X178538060Y-167191342D01*
X178504278Y-167065263D01*
X178504278Y-166934737D01*
X178538060Y-166808658D01*
X178603323Y-166695619D01*
X178695619Y-166603323D01*
X178808658Y-166538060D01*
X178934737Y-166504278D01*
X179065263Y-166504278D01*
X179191342Y-166538060D01*
G37*
G36*
X191191342Y-166538060D02*
G01*
X191304381Y-166603323D01*
X191396677Y-166695619D01*
X191461940Y-166808658D01*
X191495722Y-166934737D01*
X191495722Y-167065263D01*
X191461940Y-167191342D01*
X191396677Y-167304381D01*
X191304381Y-167396677D01*
X191191342Y-167461940D01*
X191065263Y-167495722D01*
X190934737Y-167495722D01*
X190808658Y-167461940D01*
X190695619Y-167396677D01*
X190603323Y-167304381D01*
X190538060Y-167191342D01*
X190504278Y-167065263D01*
X190504278Y-166934737D01*
X190538060Y-166808658D01*
X190603323Y-166695619D01*
X190695619Y-166603323D01*
X190808658Y-166538060D01*
X190934737Y-166504278D01*
X191065263Y-166504278D01*
X191191342Y-166538060D01*
G37*
G36*
X203191342Y-166538060D02*
G01*
X203304381Y-166603323D01*
X203396677Y-166695619D01*
X203461940Y-166808658D01*
X203495722Y-166934737D01*
X203495722Y-167065263D01*
X203461940Y-167191342D01*
X203396677Y-167304381D01*
X203304381Y-167396677D01*
X203191342Y-167461940D01*
X203065263Y-167495722D01*
X202934737Y-167495722D01*
X202808658Y-167461940D01*
X202695619Y-167396677D01*
X202603323Y-167304381D01*
X202538060Y-167191342D01*
X202504278Y-167065263D01*
X202504278Y-166934737D01*
X202538060Y-166808658D01*
X202603323Y-166695619D01*
X202695619Y-166603323D01*
X202808658Y-166538060D01*
X202934737Y-166504278D01*
X203065263Y-166504278D01*
X203191342Y-166538060D01*
G37*
G36*
X215191342Y-166538060D02*
G01*
X215304381Y-166603323D01*
X215396677Y-166695619D01*
X215461940Y-166808658D01*
X215495722Y-166934737D01*
X215495722Y-167065263D01*
X215461940Y-167191342D01*
X215396677Y-167304381D01*
X215304381Y-167396677D01*
X215191342Y-167461940D01*
X215065263Y-167495722D01*
X214934737Y-167495722D01*
X214808658Y-167461940D01*
X214695619Y-167396677D01*
X214603323Y-167304381D01*
X214538060Y-167191342D01*
X214504278Y-167065263D01*
X214504278Y-166934737D01*
X214538060Y-166808658D01*
X214603323Y-166695619D01*
X214695619Y-166603323D01*
X214808658Y-166538060D01*
X214934737Y-166504278D01*
X215065263Y-166504278D01*
X215191342Y-166538060D01*
G37*
G36*
X227191342Y-166538060D02*
G01*
X227304381Y-166603323D01*
X227396677Y-166695619D01*
X227461940Y-166808658D01*
X227495722Y-166934737D01*
X227495722Y-167065263D01*
X227461940Y-167191342D01*
X227396677Y-167304381D01*
X227304381Y-167396677D01*
X227191342Y-167461940D01*
X227065263Y-167495722D01*
X226934737Y-167495722D01*
X226808658Y-167461940D01*
X226695619Y-167396677D01*
X226603323Y-167304381D01*
X226538060Y-167191342D01*
X226504278Y-167065263D01*
X226504278Y-166934737D01*
X226538060Y-166808658D01*
X226603323Y-166695619D01*
X226695619Y-166603323D01*
X226808658Y-166538060D01*
X226934737Y-166504278D01*
X227065263Y-166504278D01*
X227191342Y-166538060D01*
G37*
G36*
X239191342Y-166538060D02*
G01*
X239304381Y-166603323D01*
X239396677Y-166695619D01*
X239461940Y-166808658D01*
X239495722Y-166934737D01*
X239495722Y-167065263D01*
X239461940Y-167191342D01*
X239396677Y-167304381D01*
X239304381Y-167396677D01*
X239191342Y-167461940D01*
X239065263Y-167495722D01*
X238934737Y-167495722D01*
X238808658Y-167461940D01*
X238695619Y-167396677D01*
X238603323Y-167304381D01*
X238538060Y-167191342D01*
X238504278Y-167065263D01*
X238504278Y-166934737D01*
X238538060Y-166808658D01*
X238603323Y-166695619D01*
X238695619Y-166603323D01*
X238808658Y-166538060D01*
X238934737Y-166504278D01*
X239065263Y-166504278D01*
X239191342Y-166538060D01*
G37*
G36*
X251191342Y-166538060D02*
G01*
X251304381Y-166603323D01*
X251396677Y-166695619D01*
X251461940Y-166808658D01*
X251495722Y-166934737D01*
X251495722Y-167065263D01*
X251461940Y-167191342D01*
X251396677Y-167304381D01*
X251304381Y-167396677D01*
X251191342Y-167461940D01*
X251065263Y-167495722D01*
X250934737Y-167495722D01*
X250808658Y-167461940D01*
X250695619Y-167396677D01*
X250603323Y-167304381D01*
X250538060Y-167191342D01*
X250504278Y-167065263D01*
X250504278Y-166934737D01*
X250538060Y-166808658D01*
X250603323Y-166695619D01*
X250695619Y-166603323D01*
X250808658Y-166538060D01*
X250934737Y-166504278D01*
X251065263Y-166504278D01*
X251191342Y-166538060D01*
G37*
G36*
X263191342Y-166538060D02*
G01*
X263304381Y-166603323D01*
X263396677Y-166695619D01*
X263461940Y-166808658D01*
X263495722Y-166934737D01*
X263495722Y-167065263D01*
X263461940Y-167191342D01*
X263396677Y-167304381D01*
X263304381Y-167396677D01*
X263191342Y-167461940D01*
X263065263Y-167495722D01*
X262934737Y-167495722D01*
X262808658Y-167461940D01*
X262695619Y-167396677D01*
X262603323Y-167304381D01*
X262538060Y-167191342D01*
X262504278Y-167065263D01*
X262504278Y-166934737D01*
X262538060Y-166808658D01*
X262603323Y-166695619D01*
X262695619Y-166603323D01*
X262808658Y-166538060D01*
X262934737Y-166504278D01*
X263065263Y-166504278D01*
X263191342Y-166538060D01*
G37*
G36*
X275191342Y-166538060D02*
G01*
X275304381Y-166603323D01*
X275396677Y-166695619D01*
X275461940Y-166808658D01*
X275495722Y-166934737D01*
X275495722Y-167065263D01*
X275461940Y-167191342D01*
X275396677Y-167304381D01*
X275304381Y-167396677D01*
X275191342Y-167461940D01*
X275065263Y-167495722D01*
X274934737Y-167495722D01*
X274808658Y-167461940D01*
X274695619Y-167396677D01*
X274603323Y-167304381D01*
X274538060Y-167191342D01*
X274504278Y-167065263D01*
X274504278Y-166934737D01*
X274538060Y-166808658D01*
X274603323Y-166695619D01*
X274695619Y-166603323D01*
X274808658Y-166538060D01*
X274934737Y-166504278D01*
X275065263Y-166504278D01*
X275191342Y-166538060D01*
G37*
G36*
X287191342Y-166538060D02*
G01*
X287304381Y-166603323D01*
X287396677Y-166695619D01*
X287461940Y-166808658D01*
X287495722Y-166934737D01*
X287495722Y-167065263D01*
X287461940Y-167191342D01*
X287396677Y-167304381D01*
X287304381Y-167396677D01*
X287191342Y-167461940D01*
X287065263Y-167495722D01*
X286934737Y-167495722D01*
X286808658Y-167461940D01*
X286695619Y-167396677D01*
X286603323Y-167304381D01*
X286538060Y-167191342D01*
X286504278Y-167065263D01*
X286504278Y-166934737D01*
X286538060Y-166808658D01*
X286603323Y-166695619D01*
X286695619Y-166603323D01*
X286808658Y-166538060D01*
X286934737Y-166504278D01*
X287065263Y-166504278D01*
X287191342Y-166538060D01*
G37*
G36*
X82419444Y-129891312D02*
G01*
X82691095Y-129964100D01*
X82950921Y-130071724D01*
X83194476Y-130212340D01*
X83417594Y-130383544D01*
X83616456Y-130582406D01*
X83787660Y-130805524D01*
X83928276Y-131049079D01*
X84035900Y-131308905D01*
X84108688Y-131580556D01*
X84145397Y-131859383D01*
X84145397Y-132140617D01*
X84108688Y-132419444D01*
X84035900Y-132691095D01*
X83928276Y-132950921D01*
X83787660Y-133194476D01*
X83616456Y-133417594D01*
X83417594Y-133616456D01*
X83194476Y-133787660D01*
X82950921Y-133928276D01*
X82691095Y-134035900D01*
X82419444Y-134108688D01*
X82140617Y-134145397D01*
X81859383Y-134145397D01*
X81580556Y-134108688D01*
X81308905Y-134035900D01*
X81049079Y-133928276D01*
X80805524Y-133787660D01*
X80582406Y-133616456D01*
X80383544Y-133417594D01*
X80212340Y-133194476D01*
X80071724Y-132950921D01*
X79964100Y-132691095D01*
X79891312Y-132419444D01*
X79854603Y-132140617D01*
X79854603Y-131859383D01*
X79891312Y-131580556D01*
X79964100Y-131308905D01*
X80071724Y-131049079D01*
X80212340Y-130805524D01*
X80383544Y-130582406D01*
X80582406Y-130383544D01*
X80805524Y-130212340D01*
X81049079Y-130071724D01*
X81308905Y-129964100D01*
X81580556Y-129891312D01*
X81859383Y-129854603D01*
X82140617Y-129854603D01*
X82419444Y-129891312D01*
G37*
G36*
X228419444Y-129891312D02*
G01*
X228691095Y-129964100D01*
X228950921Y-130071724D01*
X229194476Y-130212340D01*
X229417594Y-130383544D01*
X229616456Y-130582406D01*
X229787660Y-130805524D01*
X229928276Y-131049079D01*
X230035900Y-131308905D01*
X230108688Y-131580556D01*
X230145397Y-131859383D01*
X230145397Y-132140617D01*
X230108688Y-132419444D01*
X230035900Y-132691095D01*
X229928276Y-132950921D01*
X229787660Y-133194476D01*
X229616456Y-133417594D01*
X229417594Y-133616456D01*
X229194476Y-133787660D01*
X228950921Y-133928276D01*
X228691095Y-134035900D01*
X228419444Y-134108688D01*
X228140617Y-134145397D01*
X227859383Y-134145397D01*
X227580556Y-134108688D01*
X227308905Y-134035900D01*
X227049079Y-133928276D01*
X226805524Y-133787660D01*
X226582406Y-133616456D01*
X226383544Y-133417594D01*
X226212340Y-133194476D01*
X226071724Y-132950921D01*
X225964100Y-132691095D01*
X225891312Y-132419444D01*
X225854603Y-132140617D01*
X225854603Y-131859383D01*
X225891312Y-131580556D01*
X225964100Y-131308905D01*
X226071724Y-131049079D01*
X226212340Y-130805524D01*
X226383544Y-130582406D01*
X226582406Y-130383544D01*
X226805524Y-130212340D01*
X227049079Y-130071724D01*
X227308905Y-129964100D01*
X227580556Y-129891312D01*
X227859383Y-129854603D01*
X228140617Y-129854603D01*
X228419444Y-129891312D01*
G37*
G36*
X10419444Y-86891312D02*
G01*
X10691095Y-86964100D01*
X10950921Y-87071724D01*
X11194476Y-87212340D01*
X11417594Y-87383544D01*
X11616456Y-87582406D01*
X11787660Y-87805524D01*
X11928276Y-88049079D01*
X12035900Y-88308905D01*
X12108688Y-88580556D01*
X12145397Y-88859383D01*
X12145397Y-89140617D01*
X12108688Y-89419444D01*
X12035900Y-89691095D01*
X11928276Y-89950921D01*
X11787660Y-90194476D01*
X11616456Y-90417594D01*
X11417594Y-90616456D01*
X11194476Y-90787660D01*
X10950921Y-90928276D01*
X10691095Y-91035900D01*
X10419444Y-91108688D01*
X10140617Y-91145397D01*
X9859383Y-91145397D01*
X9580556Y-91108688D01*
X9308905Y-91035900D01*
X9049079Y-90928276D01*
X8805524Y-90787660D01*
X8582406Y-90616456D01*
X8383544Y-90417594D01*
X8212340Y-90194476D01*
X8071724Y-89950921D01*
X7964100Y-89691095D01*
X7891312Y-89419444D01*
X7854603Y-89140617D01*
X7854603Y-88859383D01*
X7891312Y-88580556D01*
X7964100Y-88308905D01*
X8071724Y-88049079D01*
X8212340Y-87805524D01*
X8383544Y-87582406D01*
X8582406Y-87383544D01*
X8805524Y-87212340D01*
X9049079Y-87071724D01*
X9308905Y-86964100D01*
X9580556Y-86891312D01*
X9859383Y-86854603D01*
X10140617Y-86854603D01*
X10419444Y-86891312D01*
G37*
G36*
X299419444Y-86891312D02*
G01*
X299691095Y-86964100D01*
X299950921Y-87071724D01*
X300194476Y-87212340D01*
X300417594Y-87383544D01*
X300616456Y-87582406D01*
X300787660Y-87805524D01*
X300928276Y-88049079D01*
X301035900Y-88308905D01*
X301108688Y-88580556D01*
X301145397Y-88859383D01*
X301145397Y-89140617D01*
X301108688Y-89419444D01*
X301035900Y-89691095D01*
X300928276Y-89950921D01*
X300787660Y-90194476D01*
X300616456Y-90417594D01*
X300417594Y-90616456D01*
X300194476Y-90787660D01*
X299950921Y-90928276D01*
X299691095Y-91035900D01*
X299419444Y-91108688D01*
X299140617Y-91145397D01*
X298859383Y-91145397D01*
X298580556Y-91108688D01*
X298308905Y-91035900D01*
X298049079Y-90928276D01*
X297805524Y-90787660D01*
X297582406Y-90616456D01*
X297383544Y-90417594D01*
X297212340Y-90194476D01*
X297071724Y-89950921D01*
X296964100Y-89691095D01*
X296891312Y-89419444D01*
X296854603Y-89140617D01*
X296854603Y-88859383D01*
X296891312Y-88580556D01*
X296964100Y-88308905D01*
X297071724Y-88049079D01*
X297212340Y-87805524D01*
X297383544Y-87582406D01*
X297582406Y-87383544D01*
X297805524Y-87212340D01*
X298049079Y-87071724D01*
X298308905Y-86964100D01*
X298580556Y-86891312D01*
X298859383Y-86854603D01*
X299140617Y-86854603D01*
X299419444Y-86891312D01*
G37*
G36*
X82419444Y-42891312D02*
G01*
X82691095Y-42964100D01*
X82950921Y-43071724D01*
X83194476Y-43212340D01*
X83417594Y-43383544D01*
X83616456Y-43582406D01*
X83787660Y-43805524D01*
X83928276Y-44049079D01*
X84035900Y-44308905D01*
X84108688Y-44580556D01*
X84145397Y-44859383D01*
X84145397Y-45140617D01*
X84108688Y-45419444D01*
X84035900Y-45691095D01*
X83928276Y-45950921D01*
X83787660Y-46194476D01*
X83616456Y-46417594D01*
X83417594Y-46616456D01*
X83194476Y-46787660D01*
X82950921Y-46928276D01*
X82691095Y-47035900D01*
X82419444Y-47108688D01*
X82140617Y-47145397D01*
X81859383Y-47145397D01*
X81580556Y-47108688D01*
X81308905Y-47035900D01*
X81049079Y-46928276D01*
X80805524Y-46787660D01*
X80582406Y-46616456D01*
X80383544Y-46417594D01*
X80212340Y-46194476D01*
X80071724Y-45950921D01*
X79964100Y-45691095D01*
X79891312Y-45419444D01*
X79854603Y-45140617D01*
X79854603Y-44859383D01*
X79891312Y-44580556D01*
X79964100Y-44308905D01*
X80071724Y-44049079D01*
X80212340Y-43805524D01*
X80383544Y-43582406D01*
X80582406Y-43383544D01*
X80805524Y-43212340D01*
X81049079Y-43071724D01*
X81308905Y-42964100D01*
X81580556Y-42891312D01*
X81859383Y-42854603D01*
X82140617Y-42854603D01*
X82419444Y-42891312D01*
G37*
G36*
X228419444Y-42891312D02*
G01*
X228691095Y-42964100D01*
X228950921Y-43071724D01*
X229194476Y-43212340D01*
X229417594Y-43383544D01*
X229616456Y-43582406D01*
X229787660Y-43805524D01*
X229928276Y-44049079D01*
X230035900Y-44308905D01*
X230108688Y-44580556D01*
X230145397Y-44859383D01*
X230145397Y-45140617D01*
X230108688Y-45419444D01*
X230035900Y-45691095D01*
X229928276Y-45950921D01*
X229787660Y-46194476D01*
X229616456Y-46417594D01*
X229417594Y-46616456D01*
X229194476Y-46787660D01*
X228950921Y-46928276D01*
X228691095Y-47035900D01*
X228419444Y-47108688D01*
X228140617Y-47145397D01*
X227859383Y-47145397D01*
X227580556Y-47108688D01*
X227308905Y-47035900D01*
X227049079Y-46928276D01*
X226805524Y-46787660D01*
X226582406Y-46616456D01*
X226383544Y-46417594D01*
X226212340Y-46194476D01*
X226071724Y-45950921D01*
X225964100Y-45691095D01*
X225891312Y-45419444D01*
X225854603Y-45140617D01*
X225854603Y-44859383D01*
X225891312Y-44580556D01*
X225964100Y-44308905D01*
X226071724Y-44049079D01*
X226212340Y-43805524D01*
X226383544Y-43582406D01*
X226582406Y-43383544D01*
X226805524Y-43212340D01*
X227049079Y-43071724D01*
X227308905Y-42964100D01*
X227580556Y-42891312D01*
X227859383Y-42854603D01*
X228140617Y-42854603D01*
X228419444Y-42891312D01*
G37*
G36*
X35210476Y-40991866D02*
G01*
X35334819Y-41063656D01*
X35436344Y-41165181D01*
X35508134Y-41289524D01*
X35545295Y-41428211D01*
X35545295Y-41571789D01*
X35508134Y-41710476D01*
X35436344Y-41834819D01*
X35334819Y-41936344D01*
X35210476Y-42008134D01*
X35071789Y-42045295D01*
X34928211Y-42045295D01*
X34789524Y-42008134D01*
X34665181Y-41936344D01*
X34563656Y-41834819D01*
X34491866Y-41710476D01*
X34454705Y-41571789D01*
X34454705Y-41428211D01*
X34491866Y-41289524D01*
X34563656Y-41165181D01*
X34665181Y-41063656D01*
X34789524Y-40991866D01*
X34928211Y-40954705D01*
X35071789Y-40954705D01*
X35210476Y-40991866D01*
G37*
G36*
X270210476Y-40991866D02*
G01*
X270334819Y-41063656D01*
X270436344Y-41165181D01*
X270508134Y-41289524D01*
X270545295Y-41428211D01*
X270545295Y-41571789D01*
X270508134Y-41710476D01*
X270436344Y-41834819D01*
X270334819Y-41936344D01*
X270210476Y-42008134D01*
X270071789Y-42045295D01*
X269928211Y-42045295D01*
X269789524Y-42008134D01*
X269665181Y-41936344D01*
X269563656Y-41834819D01*
X269491866Y-41710476D01*
X269454705Y-41571789D01*
X269454705Y-41428211D01*
X269491866Y-41289524D01*
X269563656Y-41165181D01*
X269665181Y-41063656D01*
X269789524Y-40991866D01*
X269928211Y-40954705D01*
X270071789Y-40954705D01*
X270210476Y-40991866D01*
G37*
G36*
X10419444Y-7891312D02*
G01*
X10691095Y-7964100D01*
X10950921Y-8071724D01*
X11194476Y-8212340D01*
X11417594Y-8383544D01*
X11616456Y-8582406D01*
X11787660Y-8805524D01*
X11928276Y-9049079D01*
X12035900Y-9308905D01*
X12108688Y-9580556D01*
X12145397Y-9859383D01*
X12145397Y-10140617D01*
X12108688Y-10419444D01*
X12035900Y-10691095D01*
X11928276Y-10950921D01*
X11787660Y-11194476D01*
X11616456Y-11417594D01*
X11417594Y-11616456D01*
X11194476Y-11787660D01*
X10950921Y-11928276D01*
X10691095Y-12035900D01*
X10419444Y-12108688D01*
X10140617Y-12145397D01*
X9859383Y-12145397D01*
X9580556Y-12108688D01*
X9308905Y-12035900D01*
X9049079Y-11928276D01*
X8805524Y-11787660D01*
X8582406Y-11616456D01*
X8383544Y-11417594D01*
X8212340Y-11194476D01*
X8071724Y-10950921D01*
X7964100Y-10691095D01*
X7891312Y-10419444D01*
X7854603Y-10140617D01*
X7854603Y-9859383D01*
X7891312Y-9580556D01*
X7964100Y-9308905D01*
X8071724Y-9049079D01*
X8212340Y-8805524D01*
X8383544Y-8582406D01*
X8582406Y-8383544D01*
X8805524Y-8212340D01*
X9049079Y-8071724D01*
X9308905Y-7964100D01*
X9580556Y-7891312D01*
X9859383Y-7854603D01*
X10140617Y-7854603D01*
X10419444Y-7891312D01*
G37*
G36*
X155419444Y-7891312D02*
G01*
X155691095Y-7964100D01*
X155950921Y-8071724D01*
X156194476Y-8212340D01*
X156417594Y-8383544D01*
X156616456Y-8582406D01*
X156787660Y-8805524D01*
X156928276Y-9049079D01*
X157035900Y-9308905D01*
X157108688Y-9580556D01*
X157145397Y-9859383D01*
X157145397Y-10140617D01*
X157108688Y-10419444D01*
X157035900Y-10691095D01*
X156928276Y-10950921D01*
X156787660Y-11194476D01*
X156616456Y-11417594D01*
X156417594Y-11616456D01*
X156194476Y-11787660D01*
X155950921Y-11928276D01*
X155691095Y-12035900D01*
X155419444Y-12108688D01*
X155140617Y-12145397D01*
X154859383Y-12145397D01*
X154580556Y-12108688D01*
X154308905Y-12035900D01*
X154049079Y-11928276D01*
X153805524Y-11787660D01*
X153582406Y-11616456D01*
X153383544Y-11417594D01*
X153212340Y-11194476D01*
X153071724Y-10950921D01*
X152964100Y-10691095D01*
X152891312Y-10419444D01*
X152854603Y-10140617D01*
X152854603Y-9859383D01*
X152891312Y-9580556D01*
X152964100Y-9308905D01*
X153071724Y-9049079D01*
X153212340Y-8805524D01*
X153383544Y-8582406D01*
X153582406Y-8383544D01*
X153805524Y-8212340D01*
X154049079Y-8071724D01*
X154308905Y-7964100D01*
X154580556Y-7891312D01*
X154859383Y-7854603D01*
X155140617Y-7854603D01*
X155419444Y-7891312D01*
G37*
G36*
X300419444Y-7891312D02*
G01*
X300691095Y-7964100D01*
X300950921Y-8071724D01*
X301194476Y-8212340D01*
X301417594Y-8383544D01*
X301616456Y-8582406D01*
X301787660Y-8805524D01*
X301928276Y-9049079D01*
X302035900Y-9308905D01*
X302108688Y-9580556D01*
X302145397Y-9859383D01*
X302145397Y-10140617D01*
X302108688Y-10419444D01*
X302035900Y-10691095D01*
X301928276Y-10950921D01*
X301787660Y-11194476D01*
X301616456Y-11417594D01*
X301417594Y-11616456D01*
X301194476Y-11787660D01*
X300950921Y-11928276D01*
X300691095Y-12035900D01*
X300419444Y-12108688D01*
X300140617Y-12145397D01*
X299859383Y-12145397D01*
X299580556Y-12108688D01*
X299308905Y-12035900D01*
X299049079Y-11928276D01*
X298805524Y-11787660D01*
X298582406Y-11616456D01*
X298383544Y-11417594D01*
X298212340Y-11194476D01*
X298071724Y-10950921D01*
X297964100Y-10691095D01*
X297891312Y-10419444D01*
X297854603Y-10140617D01*
X297854603Y-9859383D01*
X297891312Y-9580556D01*
X297964100Y-9308905D01*
X298071724Y-9049079D01*
X298212340Y-8805524D01*
X298383544Y-8582406D01*
X298582406Y-8383544D01*
X298805524Y-8212340D01*
X299049079Y-8071724D01*
X299308905Y-7964100D01*
X299580556Y-7891312D01*
X299859383Y-7854603D01*
X300140617Y-7854603D01*
X300419444Y-7891312D01*
G37*
G36*
X23191342Y-10538060D02*
G01*
X23304381Y-10603323D01*
X23396677Y-10695619D01*
X23461940Y-10808658D01*
X23495722Y-10934737D01*
X23495722Y-11065263D01*
X23461940Y-11191342D01*
X23396677Y-11304381D01*
X23304381Y-11396677D01*
X23191342Y-11461940D01*
X23065263Y-11495722D01*
X22934737Y-11495722D01*
X22808658Y-11461940D01*
X22695619Y-11396677D01*
X22603323Y-11304381D01*
X22538060Y-11191342D01*
X22504278Y-11065263D01*
X22504278Y-10934737D01*
X22538060Y-10808658D01*
X22603323Y-10695619D01*
X22695619Y-10603323D01*
X22808658Y-10538060D01*
X22934737Y-10504278D01*
X23065263Y-10504278D01*
X23191342Y-10538060D01*
G37*
G36*
X35191342Y-10538060D02*
G01*
X35304381Y-10603323D01*
X35396677Y-10695619D01*
X35461940Y-10808658D01*
X35495722Y-10934737D01*
X35495722Y-11065263D01*
X35461940Y-11191342D01*
X35396677Y-11304381D01*
X35304381Y-11396677D01*
X35191342Y-11461940D01*
X35065263Y-11495722D01*
X34934737Y-11495722D01*
X34808658Y-11461940D01*
X34695619Y-11396677D01*
X34603323Y-11304381D01*
X34538060Y-11191342D01*
X34504278Y-11065263D01*
X34504278Y-10934737D01*
X34538060Y-10808658D01*
X34603323Y-10695619D01*
X34695619Y-10603323D01*
X34808658Y-10538060D01*
X34934737Y-10504278D01*
X35065263Y-10504278D01*
X35191342Y-10538060D01*
G37*
G36*
X47191342Y-10538060D02*
G01*
X47304381Y-10603323D01*
X47396677Y-10695619D01*
X47461940Y-10808658D01*
X47495722Y-10934737D01*
X47495722Y-11065263D01*
X47461940Y-11191342D01*
X47396677Y-11304381D01*
X47304381Y-11396677D01*
X47191342Y-11461940D01*
X47065263Y-11495722D01*
X46934737Y-11495722D01*
X46808658Y-11461940D01*
X46695619Y-11396677D01*
X46603323Y-11304381D01*
X46538060Y-11191342D01*
X46504278Y-11065263D01*
X46504278Y-10934737D01*
X46538060Y-10808658D01*
X46603323Y-10695619D01*
X46695619Y-10603323D01*
X46808658Y-10538060D01*
X46934737Y-10504278D01*
X47065263Y-10504278D01*
X47191342Y-10538060D01*
G37*
G36*
X59191342Y-10538060D02*
G01*
X59304381Y-10603323D01*
X59396677Y-10695619D01*
X59461940Y-10808658D01*
X59495722Y-10934737D01*
X59495722Y-11065263D01*
X59461940Y-11191342D01*
X59396677Y-11304381D01*
X59304381Y-11396677D01*
X59191342Y-11461940D01*
X59065263Y-11495722D01*
X58934737Y-11495722D01*
X58808658Y-11461940D01*
X58695619Y-11396677D01*
X58603323Y-11304381D01*
X58538060Y-11191342D01*
X58504278Y-11065263D01*
X58504278Y-10934737D01*
X58538060Y-10808658D01*
X58603323Y-10695619D01*
X58695619Y-10603323D01*
X58808658Y-10538060D01*
X58934737Y-10504278D01*
X59065263Y-10504278D01*
X59191342Y-10538060D01*
G37*
G36*
X71191342Y-10538060D02*
G01*
X71304381Y-10603323D01*
X71396677Y-10695619D01*
X71461940Y-10808658D01*
X71495722Y-10934737D01*
X71495722Y-11065263D01*
X71461940Y-11191342D01*
X71396677Y-11304381D01*
X71304381Y-11396677D01*
X71191342Y-11461940D01*
X71065263Y-11495722D01*
X70934737Y-11495722D01*
X70808658Y-11461940D01*
X70695619Y-11396677D01*
X70603323Y-11304381D01*
X70538060Y-11191342D01*
X70504278Y-11065263D01*
X70504278Y-10934737D01*
X70538060Y-10808658D01*
X70603323Y-10695619D01*
X70695619Y-10603323D01*
X70808658Y-10538060D01*
X70934737Y-10504278D01*
X71065263Y-10504278D01*
X71191342Y-10538060D01*
G37*
G36*
X83191342Y-10538060D02*
G01*
X83304381Y-10603323D01*
X83396677Y-10695619D01*
X83461940Y-10808658D01*
X83495722Y-10934737D01*
X83495722Y-11065263D01*
X83461940Y-11191342D01*
X83396677Y-11304381D01*
X83304381Y-11396677D01*
X83191342Y-11461940D01*
X83065263Y-11495722D01*
X82934737Y-11495722D01*
X82808658Y-11461940D01*
X82695619Y-11396677D01*
X82603323Y-11304381D01*
X82538060Y-11191342D01*
X82504278Y-11065263D01*
X82504278Y-10934737D01*
X82538060Y-10808658D01*
X82603323Y-10695619D01*
X82695619Y-10603323D01*
X82808658Y-10538060D01*
X82934737Y-10504278D01*
X83065263Y-10504278D01*
X83191342Y-10538060D01*
G37*
G36*
X95191342Y-10538060D02*
G01*
X95304381Y-10603323D01*
X95396677Y-10695619D01*
X95461940Y-10808658D01*
X95495722Y-10934737D01*
X95495722Y-11065263D01*
X95461940Y-11191342D01*
X95396677Y-11304381D01*
X95304381Y-11396677D01*
X95191342Y-11461940D01*
X95065263Y-11495722D01*
X94934737Y-11495722D01*
X94808658Y-11461940D01*
X94695619Y-11396677D01*
X94603323Y-11304381D01*
X94538060Y-11191342D01*
X94504278Y-11065263D01*
X94504278Y-10934737D01*
X94538060Y-10808658D01*
X94603323Y-10695619D01*
X94695619Y-10603323D01*
X94808658Y-10538060D01*
X94934737Y-10504278D01*
X95065263Y-10504278D01*
X95191342Y-10538060D01*
G37*
G36*
X107191342Y-10538060D02*
G01*
X107304381Y-10603323D01*
X107396677Y-10695619D01*
X107461940Y-10808658D01*
X107495722Y-10934737D01*
X107495722Y-11065263D01*
X107461940Y-11191342D01*
X107396677Y-11304381D01*
X107304381Y-11396677D01*
X107191342Y-11461940D01*
X107065263Y-11495722D01*
X106934737Y-11495722D01*
X106808658Y-11461940D01*
X106695619Y-11396677D01*
X106603323Y-11304381D01*
X106538060Y-11191342D01*
X106504278Y-11065263D01*
X106504278Y-10934737D01*
X106538060Y-10808658D01*
X106603323Y-10695619D01*
X106695619Y-10603323D01*
X106808658Y-10538060D01*
X106934737Y-10504278D01*
X107065263Y-10504278D01*
X107191342Y-10538060D01*
G37*
G36*
X119191342Y-10538060D02*
G01*
X119304381Y-10603323D01*
X119396677Y-10695619D01*
X119461940Y-10808658D01*
X119495722Y-10934737D01*
X119495722Y-11065263D01*
X119461940Y-11191342D01*
X119396677Y-11304381D01*
X119304381Y-11396677D01*
X119191342Y-11461940D01*
X119065263Y-11495722D01*
X118934737Y-11495722D01*
X118808658Y-11461940D01*
X118695619Y-11396677D01*
X118603323Y-11304381D01*
X118538060Y-11191342D01*
X118504278Y-11065263D01*
X118504278Y-10934737D01*
X118538060Y-10808658D01*
X118603323Y-10695619D01*
X118695619Y-10603323D01*
X118808658Y-10538060D01*
X118934737Y-10504278D01*
X119065263Y-10504278D01*
X119191342Y-10538060D01*
G37*
G36*
X131191342Y-10538060D02*
G01*
X131304381Y-10603323D01*
X131396677Y-10695619D01*
X131461940Y-10808658D01*
X131495722Y-10934737D01*
X131495722Y-11065263D01*
X131461940Y-11191342D01*
X131396677Y-11304381D01*
X131304381Y-11396677D01*
X131191342Y-11461940D01*
X131065263Y-11495722D01*
X130934737Y-11495722D01*
X130808658Y-11461940D01*
X130695619Y-11396677D01*
X130603323Y-11304381D01*
X130538060Y-11191342D01*
X130504278Y-11065263D01*
X130504278Y-10934737D01*
X130538060Y-10808658D01*
X130603323Y-10695619D01*
X130695619Y-10603323D01*
X130808658Y-10538060D01*
X130934737Y-10504278D01*
X131065263Y-10504278D01*
X131191342Y-10538060D01*
G37*
G36*
X143191342Y-10538060D02*
G01*
X143304381Y-10603323D01*
X143396677Y-10695619D01*
X143461940Y-10808658D01*
X143495722Y-10934737D01*
X143495722Y-11065263D01*
X143461940Y-11191342D01*
X143396677Y-11304381D01*
X143304381Y-11396677D01*
X143191342Y-11461940D01*
X143065263Y-11495722D01*
X142934737Y-11495722D01*
X142808658Y-11461940D01*
X142695619Y-11396677D01*
X142603323Y-11304381D01*
X142538060Y-11191342D01*
X142504278Y-11065263D01*
X142504278Y-10934737D01*
X142538060Y-10808658D01*
X142603323Y-10695619D01*
X142695619Y-10603323D01*
X142808658Y-10538060D01*
X142934737Y-10504278D01*
X143065263Y-10504278D01*
X143191342Y-10538060D01*
G37*
G36*
X167191342Y-10538060D02*
G01*
X167304381Y-10603323D01*
X167396677Y-10695619D01*
X167461940Y-10808658D01*
X167495722Y-10934737D01*
X167495722Y-11065263D01*
X167461940Y-11191342D01*
X167396677Y-11304381D01*
X167304381Y-11396677D01*
X167191342Y-11461940D01*
X167065263Y-11495722D01*
X166934737Y-11495722D01*
X166808658Y-11461940D01*
X166695619Y-11396677D01*
X166603323Y-11304381D01*
X166538060Y-11191342D01*
X166504278Y-11065263D01*
X166504278Y-10934737D01*
X166538060Y-10808658D01*
X166603323Y-10695619D01*
X166695619Y-10603323D01*
X166808658Y-10538060D01*
X166934737Y-10504278D01*
X167065263Y-10504278D01*
X167191342Y-10538060D01*
G37*
G36*
X179191342Y-10538060D02*
G01*
X179304381Y-10603323D01*
X179396677Y-10695619D01*
X179461940Y-10808658D01*
X179495722Y-10934737D01*
X179495722Y-11065263D01*
X179461940Y-11191342D01*
X179396677Y-11304381D01*
X179304381Y-11396677D01*
X179191342Y-11461940D01*
X179065263Y-11495722D01*
X178934737Y-11495722D01*
X178808658Y-11461940D01*
X178695619Y-11396677D01*
X178603323Y-11304381D01*
X178538060Y-11191342D01*
X178504278Y-11065263D01*
X178504278Y-10934737D01*
X178538060Y-10808658D01*
X178603323Y-10695619D01*
X178695619Y-10603323D01*
X178808658Y-10538060D01*
X178934737Y-10504278D01*
X179065263Y-10504278D01*
X179191342Y-10538060D01*
G37*
G36*
X191191342Y-10538060D02*
G01*
X191304381Y-10603323D01*
X191396677Y-10695619D01*
X191461940Y-10808658D01*
X191495722Y-10934737D01*
X191495722Y-11065263D01*
X191461940Y-11191342D01*
X191396677Y-11304381D01*
X191304381Y-11396677D01*
X191191342Y-11461940D01*
X191065263Y-11495722D01*
X190934737Y-11495722D01*
X190808658Y-11461940D01*
X190695619Y-11396677D01*
X190603323Y-11304381D01*
X190538060Y-11191342D01*
X190504278Y-11065263D01*
X190504278Y-10934737D01*
X190538060Y-10808658D01*
X190603323Y-10695619D01*
X190695619Y-10603323D01*
X190808658Y-10538060D01*
X190934737Y-10504278D01*
X191065263Y-10504278D01*
X191191342Y-10538060D01*
G37*
G36*
X203191342Y-10538060D02*
G01*
X203304381Y-10603323D01*
X203396677Y-10695619D01*
X203461940Y-10808658D01*
X203495722Y-10934737D01*
X203495722Y-11065263D01*
X203461940Y-11191342D01*
X203396677Y-11304381D01*
X203304381Y-11396677D01*
X203191342Y-11461940D01*
X203065263Y-11495722D01*
X202934737Y-11495722D01*
X202808658Y-11461940D01*
X202695619Y-11396677D01*
X202603323Y-11304381D01*
X202538060Y-11191342D01*
X202504278Y-11065263D01*
X202504278Y-10934737D01*
X202538060Y-10808658D01*
X202603323Y-10695619D01*
X202695619Y-10603323D01*
X202808658Y-10538060D01*
X202934737Y-10504278D01*
X203065263Y-10504278D01*
X203191342Y-10538060D01*
G37*
G36*
X215191342Y-10538060D02*
G01*
X215304381Y-10603323D01*
X215396677Y-10695619D01*
X215461940Y-10808658D01*
X215495722Y-10934737D01*
X215495722Y-11065263D01*
X215461940Y-11191342D01*
X215396677Y-11304381D01*
X215304381Y-11396677D01*
X215191342Y-11461940D01*
X215065263Y-11495722D01*
X214934737Y-11495722D01*
X214808658Y-11461940D01*
X214695619Y-11396677D01*
X214603323Y-11304381D01*
X214538060Y-11191342D01*
X214504278Y-11065263D01*
X214504278Y-10934737D01*
X214538060Y-10808658D01*
X214603323Y-10695619D01*
X214695619Y-10603323D01*
X214808658Y-10538060D01*
X214934737Y-10504278D01*
X215065263Y-10504278D01*
X215191342Y-10538060D01*
G37*
G36*
X227191342Y-10538060D02*
G01*
X227304381Y-10603323D01*
X227396677Y-10695619D01*
X227461940Y-10808658D01*
X227495722Y-10934737D01*
X227495722Y-11065263D01*
X227461940Y-11191342D01*
X227396677Y-11304381D01*
X227304381Y-11396677D01*
X227191342Y-11461940D01*
X227065263Y-11495722D01*
X226934737Y-11495722D01*
X226808658Y-11461940D01*
X226695619Y-11396677D01*
X226603323Y-11304381D01*
X226538060Y-11191342D01*
X226504278Y-11065263D01*
X226504278Y-10934737D01*
X226538060Y-10808658D01*
X226603323Y-10695619D01*
X226695619Y-10603323D01*
X226808658Y-10538060D01*
X226934737Y-10504278D01*
X227065263Y-10504278D01*
X227191342Y-10538060D01*
G37*
G36*
X239191342Y-10538060D02*
G01*
X239304381Y-10603323D01*
X239396677Y-10695619D01*
X239461940Y-10808658D01*
X239495722Y-10934737D01*
X239495722Y-11065263D01*
X239461940Y-11191342D01*
X239396677Y-11304381D01*
X239304381Y-11396677D01*
X239191342Y-11461940D01*
X239065263Y-11495722D01*
X238934737Y-11495722D01*
X238808658Y-11461940D01*
X238695619Y-11396677D01*
X238603323Y-11304381D01*
X238538060Y-11191342D01*
X238504278Y-11065263D01*
X238504278Y-10934737D01*
X238538060Y-10808658D01*
X238603323Y-10695619D01*
X238695619Y-10603323D01*
X238808658Y-10538060D01*
X238934737Y-10504278D01*
X239065263Y-10504278D01*
X239191342Y-10538060D01*
G37*
G36*
X251191342Y-10538060D02*
G01*
X251304381Y-10603323D01*
X251396677Y-10695619D01*
X251461940Y-10808658D01*
X251495722Y-10934737D01*
X251495722Y-11065263D01*
X251461940Y-11191342D01*
X251396677Y-11304381D01*
X251304381Y-11396677D01*
X251191342Y-11461940D01*
X251065263Y-11495722D01*
X250934737Y-11495722D01*
X250808658Y-11461940D01*
X250695619Y-11396677D01*
X250603323Y-11304381D01*
X250538060Y-11191342D01*
X250504278Y-11065263D01*
X250504278Y-10934737D01*
X250538060Y-10808658D01*
X250603323Y-10695619D01*
X250695619Y-10603323D01*
X250808658Y-10538060D01*
X250934737Y-10504278D01*
X251065263Y-10504278D01*
X251191342Y-10538060D01*
G37*
G36*
X263191342Y-10538060D02*
G01*
X263304381Y-10603323D01*
X263396677Y-10695619D01*
X263461940Y-10808658D01*
X263495722Y-10934737D01*
X263495722Y-11065263D01*
X263461940Y-11191342D01*
X263396677Y-11304381D01*
X263304381Y-11396677D01*
X263191342Y-11461940D01*
X263065263Y-11495722D01*
X262934737Y-11495722D01*
X262808658Y-11461940D01*
X262695619Y-11396677D01*
X262603323Y-11304381D01*
X262538060Y-11191342D01*
X262504278Y-11065263D01*
X262504278Y-10934737D01*
X262538060Y-10808658D01*
X262603323Y-10695619D01*
X262695619Y-10603323D01*
X262808658Y-10538060D01*
X262934737Y-10504278D01*
X263065263Y-10504278D01*
X263191342Y-10538060D01*
G37*
G36*
X275191342Y-10538060D02*
G01*
X275304381Y-10603323D01*
X275396677Y-10695619D01*
X275461940Y-10808658D01*
X275495722Y-10934737D01*
X275495722Y-11065263D01*
X275461940Y-11191342D01*
X275396677Y-11304381D01*
X275304381Y-11396677D01*
X275191342Y-11461940D01*
X275065263Y-11495722D01*
X274934737Y-11495722D01*
X274808658Y-11461940D01*
X274695619Y-11396677D01*
X274603323Y-11304381D01*
X274538060Y-11191342D01*
X274504278Y-11065263D01*
X274504278Y-10934737D01*
X274538060Y-10808658D01*
X274603323Y-10695619D01*
X274695619Y-10603323D01*
X274808658Y-10538060D01*
X274934737Y-10504278D01*
X275065263Y-10504278D01*
X275191342Y-10538060D01*
G37*
G36*
X287191342Y-10538060D02*
G01*
X287304381Y-10603323D01*
X287396677Y-10695619D01*
X287461940Y-10808658D01*
X287495722Y-10934737D01*
X287495722Y-11065263D01*
X287461940Y-11191342D01*
X287396677Y-11304381D01*
X287304381Y-11396677D01*
X287191342Y-11461940D01*
X287065263Y-11495722D01*
X286934737Y-11495722D01*
X286808658Y-11461940D01*
X286695619Y-11396677D01*
X286603323Y-11304381D01*
X286538060Y-11191342D01*
X286504278Y-11065263D01*
X286504278Y-10934737D01*
X286538060Y-10808658D01*
X286603323Y-10695619D01*
X286695619Y-10603323D01*
X286808658Y-10538060D01*
X286934737Y-10504278D01*
X287065263Y-10504278D01*
X287191342Y-10538060D01*
G37*
M02*
